M48
; DRILL file {KiCad 7.0.8} date Thu Feb 29 00:10:49 2024
; FORMAT={-:-/ absolute / inch / decimal}
; #@! TF.CreationDate,2024-02-29T00:10:49-05:00
; #@! TF.GenerationSoftware,Kicad,Pcbnew,7.0.8
; #@! TF.FileFunction,Plated,1,2,PTH
FMAT,2
INCH
; #@! TA.AperFunction,Plated,PTH,ViaDrill
T1C0.0157
; #@! TA.AperFunction,Plated,PTH,ComponentDrill
T2C0.0295
; #@! TA.AperFunction,Plated,PTH,ComponentDrill
T3C0.0320
; #@! TA.AperFunction,Plated,PTH,ComponentDrill
T4C0.0512
; #@! TA.AperFunction,Plated,PTH,ComponentDrill
T5C0.0866
; #@! TA.AperFunction,Plated,PTH,ComponentDrill
T6C0.1614
%
G90
G05
T1
X2.687Y-3.6614
X2.7756Y-3.1594
X2.7756Y-3.8287
X2.7854Y-3.1988
X2.7854Y-3.8681
X2.8425Y-3.6181
X2.8425Y-4.2874
X2.8445Y-4.2028
X2.8642Y-3.5433
X2.9528Y-4.1732
X3.0807Y-4.0059
X3.1201Y-3.1988
X3.1201Y-3.8681
X3.1398Y-3.2283
X3.1398Y-3.8976
X3.1693Y-3.8428
X3.2579Y-3.1398
X3.3169Y-4.3012
X3.3268Y-3.7106
X3.3366Y-2.7559
X3.3789Y-3.1201
X3.3789Y-3.7598
X3.4055Y-2.8248
X3.4154Y-2.9331
X3.4547Y-4.2618
X3.4646Y-2.8936
X3.4843Y-2.8248
X3.4843Y-3.4941
X3.4843Y-4.1634
X3.4941Y-2.8642
X3.4941Y-3.4318
X3.4941Y-3.5335
X3.4941Y-4.2028
X3.5236Y-4.3012
X3.5512Y-3.2835
X3.5512Y-3.9528
X3.5512Y-4.622
X3.5531Y-3.8681
X3.563Y-3.2185
X3.563Y-4.5374
X3.5728Y-4.4685
X3.6614Y-4.5079
X3.7402Y-4.124
X3.7795Y-4.4193
X3.7894Y-4.3307
X3.8287Y-2.8642
X3.8287Y-3.5335
X3.8287Y-4.2028
X3.8386Y-2.8248
X3.8484Y-3.563
X3.8484Y-4.2323
X3.8878Y-3.4449
X3.8976Y-4.2815
X3.9469Y-2.7854
X3.9862Y-3.7205
X4.0256Y-3.4547
X4.0268Y-4.0957
X4.037Y-3.6039
X4.065Y-4.4587
X4.0846Y-4.5236
X4.1043Y-3.435
X4.1437Y-3.3169
X4.1634Y-2.6969
X4.1929Y-2.628
X4.1929Y-3.2972
X4.1929Y-3.9665
X4.2028Y-2.6673
X4.2028Y-3.3366
X4.2028Y-4.0059
X4.2598Y-3.0866
X4.2598Y-3.7559
X4.2598Y-4.4252
X4.2717Y-4.3406
X4.2815Y-3.0118
X4.2815Y-3.6811
X4.311Y-3.2185
X4.4587Y-4.124
X4.5276Y-3.4449
X4.5374Y-2.6673
X4.5374Y-3.3366
X4.5374Y-4.0059
X4.5472Y-2.628
X4.5472Y-3.2972
X4.5571Y-4.0354
X4.6063Y-3.8386
X4.6654Y-2.5738
X4.6752Y-4.4783
X4.6949Y-3.376
X4.6998Y-4.124
X4.7343Y-4.4291
X4.7343Y-4.5236
X4.7441Y-4.0059
X4.8024Y-3.3654
X4.8069Y-3.9703
X4.872Y-2.5984
X4.8917Y-4.0157
X4.9016Y-2.5295
X4.9016Y-3.1988
X4.9016Y-3.8681
X4.9114Y-2.5689
X4.9114Y-3.2382
X4.9114Y-3.9075
X4.9311Y-4.4488
X4.9439Y-4.5531
X4.9508Y-3.1102
X4.9685Y-2.9882
X4.9685Y-3.6575
X4.9685Y-4.3268
X4.9783Y-5.0276
X4.9803Y-3.5827
X4.9803Y-4.252
X4.9902Y-2.9134
X5.064Y-4.7248
X5.0935Y-4.6559
X5.0984Y-4.4734
X5.1033Y-4.6952
X5.1378Y-3.0906
X5.2461Y-2.5689
X5.2461Y-3.2382
X5.2461Y-3.9075
X5.2559Y-2.5295
X5.2657Y-3.937
X5.2953Y-3.248
X5.3248Y-2.6328
X5.3248Y-3.8583
X5.3642Y-2.4902
X5.3957Y-5.1142
X5.4035Y-2.687
X5.4232Y-2.7854
X5.4331Y-3.9075
X5.4557Y-2.8346
X5.4557Y-3.376
X5.4626Y-4.6358
X5.4626Y-4.6952
X5.5049Y-3.376
X5.5217Y-2.6476
X5.5217Y-4.4685
X5.5413Y-4.7248
X5.561Y-3.376
X5.5709Y-2.6575
X5.6102Y-3.2972
X5.6102Y-3.9665
X5.6201Y-2.6673
X5.6201Y-3.3366
X5.6201Y-4.0059
X5.6772Y-3.0866
X5.6772Y-3.7559
X5.6772Y-4.4252
X5.6791Y-3.6811
X5.689Y-3.002
X5.689Y-4.3504
X5.9055Y-3.2579
X5.9252Y-4.7343
X5.9259Y-5.1958
X5.9449Y-5.1181
X5.9547Y-2.6673
X5.9547Y-3.3366
X5.9547Y-4.0059
X5.9744Y-3.3661
X5.9744Y-4.0354
X5.9744Y-4.7441
X5.9941Y-2.6181
X6.0039Y-2.6969
X6.0705Y-2.5909
X6.1516Y-4.7362
X6.1528Y-2.7449
X6.2087Y-3.5236
X6.2598Y-3.5236
X6.3189Y-3.3957
X6.3189Y-4.065
X6.3276Y-2.7252
X6.3287Y-2.7657
X6.3287Y-3.435
X6.3287Y-4.1043
X6.3287Y-4.8819
X6.3858Y-3.185
X6.3858Y-3.8543
X6.3858Y-4.5236
X6.3878Y-3.7697
X6.3878Y-4.439
X6.3878Y-4.8917
X6.5453Y-5.187
X6.5508Y-3.0948
X6.5748Y-5.4232
X6.5826Y-2.9102
X6.5945Y-3.0807
X6.6266Y-2.96
X6.6634Y-3.435
X6.6634Y-3.9075
X6.6634Y-4.1043
X6.6732Y-2.7657
X6.6732Y-3.3957
X6.6765Y-3.1857
X6.6821Y-2.7155
X6.6831Y-3.5039
X6.6831Y-4.1339
X6.6929Y-5.3543
X6.7028Y-2.8691
X6.7028Y-5.315
X6.7126Y-5.4528
X6.7224Y-3.8976
X6.7289Y-2.7866
X6.752Y-4.1043
X6.7703Y-3.0279
X6.7717Y-2.687
X6.8061Y-3.9173
X6.811Y-3.0315
X6.8209Y-3.9567
X6.8327Y-2.6604
X6.8351Y-4.1383
X6.8484Y-3.9961
X6.873Y-3.6024
X6.8898Y-4.3012
X6.8996Y-4.9902
X6.9121Y-4.1365
X6.9193Y-4.9508
X7.0128Y-4.8179
X7.0374Y-4.9508
X7.1063Y-4.2028
X7.1145Y-5.4577
X7.1161Y-3.1028
X7.1161Y-5.2461
X7.1456Y-3.8028
X7.1555Y-4.8425
X7.2146Y-4.1732
X7.2244Y-3.4028
X7.2444Y-4.2092
X7.2539Y-3.4843
X7.2539Y-3.563
X7.2539Y-3.6528
X7.2692Y-3.1343
X7.2835Y-4.1269
X7.2835Y-5.6299
X7.2849Y-3.285
X7.31Y-3.0876
X7.3277Y-3.1988
X7.3524Y-3.0519
X7.3622Y-5.6693
X7.3705Y-4.1732
X7.372Y-3.2543
X7.372Y-4.1142
X7.3859Y-3.4968
X7.4083Y-3.8806
X7.4419Y-3.5724
X7.4503Y-3.801
X7.4508Y-4.5965
X7.4515Y-3.8544
X7.4538Y-4.0409
X7.4557Y-3.7073
X7.4558Y-4.1274
X7.4577Y-3.6354
X7.4592Y-4.0782
X7.4606Y-3.9701
X7.4607Y-3.7713
X7.4803Y-4.3701
X7.4837Y-3.402
X7.499Y-3.3551
X7.5Y-5.315
X7.501Y-3.0685
X7.5098Y-3.8782
X7.5128Y-4.1748
X7.5128Y-4.2299
X7.5323Y-4.4685
X7.5394Y-5.3445
X7.5809Y-5.949
X7.5886Y-4.6063
X7.5981Y-4.3605
X7.7362Y-5.5807
X7.7543Y-5.8218
T2
X7.3031Y-4.5177
X7.3819Y-4.5177
T3
X6.9679Y-3.1528
X6.9679Y-3.2528
X6.9679Y-3.3528
X6.9679Y-3.4528
X6.9679Y-3.5528
X6.9679Y-3.6528
X6.9679Y-3.7528
X6.9679Y-3.8528
X6.9679Y-3.9528
X6.9679Y-4.0528
X6.9679Y-4.1528
X6.9679Y-4.2528
X7.0202Y-3.1028
X7.0202Y-3.2028
X7.0202Y-3.3028
X7.0202Y-3.4028
X7.0202Y-3.5028
X7.0202Y-3.6028
X7.0202Y-3.7028
X7.0202Y-3.8028
X7.0202Y-3.9028
X7.0202Y-4.0028
X7.0202Y-4.1028
X7.0202Y-4.2028
X7.1432Y-4.4259
X7.2432Y-4.4259
X7.3432Y-4.4259
X7.4432Y-4.4259
X7.5679Y-3.1528
X7.5679Y-3.2528
X7.5679Y-3.3528
X7.5679Y-3.4528
X7.5679Y-3.5528
X7.5679Y-3.6528
X7.5679Y-3.7528
X7.5679Y-3.8528
X7.5679Y-3.9528
X7.5679Y-4.0528
X7.5679Y-4.1528
X7.5679Y-4.2528
X7.6194Y-3.1028
X7.6194Y-3.2028
X7.6194Y-3.3028
X7.6194Y-3.4028
X7.6194Y-3.5028
X7.6194Y-3.6028
X7.6194Y-3.7028
X7.6194Y-3.8028
X7.6194Y-3.9028
X7.6194Y-4.0028
X7.6194Y-4.1028
X7.6194Y-4.2028
T4
X7.1431Y-4.5915
X7.3647Y-4.7195
T5
X6.9984Y-4.4488
X7.5689Y-4.7835
T6
X3.3268Y-3.376
X3.3268Y-4.0354
X4.7244Y-3.1988
X5.2953Y-4.498
X6.1614Y-3.2874
X6.5453Y-4.7638
T0
M30
