%TF.GenerationSoftware,KiCad,Pcbnew,7.0.8*%
%TF.CreationDate,2024-02-29T00:10:51-05:00*%
%TF.ProjectId,heawood4,68656177-6f6f-4643-942e-6b696361645f,1.0*%
%TF.SameCoordinates,Original*%
%TF.FileFunction,Drillmap*%
%TF.FilePolarity,Positive*%
%FSLAX45Y45*%
G04 Gerber Fmt 4.5, Leading zero omitted, Abs format (unit mm)*
G04 Created by KiCad (PCBNEW 7.0.8) date 2024-02-29 00:10:51*
%MOMM*%
%LPD*%
G01*
G04 APERTURE LIST*
%ADD10C,0.150000*%
%ADD11C,0.200000*%
%ADD12C,0.040000*%
%ADD13C,0.075000*%
%ADD14C,0.081280*%
%ADD15C,0.130000*%
%ADD16C,0.220000*%
%ADD17C,0.410000*%
G04 APERTURE END LIST*
D10*
X19506783Y-7750000D02*
G75*
G03*
X19250000Y-7493217I-256783J0D01*
G01*
X19477276Y-12262270D02*
X19287311Y-12544966D01*
X19287311Y-12544966D02*
G75*
G03*
X19303682Y-12666315I97525J-48621D01*
G01*
X19303682Y-12666315D02*
X20480556Y-13809891D01*
X20506446Y-13951060D02*
G75*
G03*
X20480556Y-13809892I-81446J58021D01*
G01*
X17759941Y-15000000D02*
X19519208Y-15478675D01*
X19519208Y-15478675D02*
G75*
G03*
X19663409Y-15424799I34701J127039D01*
G01*
X8400000Y-11950000D02*
G75*
G03*
X8450000Y-12000000I50000J0D01*
G01*
X8400002Y-11199995D02*
X8400000Y-11950000D01*
X8400002Y-11199995D02*
G75*
G03*
X8350002Y-11149995I-50000J0D01*
G01*
X8350002Y-11149995D02*
X6648838Y-11150448D01*
X8350000Y-7750000D02*
X6649905Y-7750088D01*
X8350000Y-7750000D02*
G75*
G03*
X8400000Y-7700000I1J50000D01*
G01*
X8400000Y-6950000D02*
X8400000Y-7700000D01*
X8450000Y-6900000D02*
G75*
G03*
X8400000Y-6950000I0J-50000D01*
G01*
X11488056Y-12010312D02*
X8450000Y-12000000D01*
X19506783Y-7750000D02*
X19500000Y-12175000D01*
X15600000Y-6599466D02*
X15600000Y-6450000D01*
X6599905Y-7800088D02*
X6598838Y-11100448D01*
X19477275Y-12262269D02*
G75*
G03*
X19500000Y-12175000I-147495J85002D01*
G01*
X13800000Y-6350000D02*
X13800000Y-6200000D01*
X11951054Y-6399466D02*
X10250000Y-6400000D01*
X10250000Y-6400000D02*
G75*
G03*
X10200000Y-6450000I0J-50000D01*
G01*
X10150594Y-6900371D02*
X8450000Y-6900000D01*
X12452964Y-13276312D02*
G75*
G03*
X12488318Y-13290958I35356J35352D01*
G01*
X17350000Y-6650000D02*
X15650000Y-6649446D01*
X16150000Y-14075000D02*
X17693043Y-14975630D01*
X10150594Y-6900374D02*
G75*
G03*
X10200594Y-6850371I-4J50004D01*
G01*
X13750000Y-6150000D02*
X12049405Y-6150086D01*
X15550000Y-6400006D02*
X13850000Y-6400000D01*
X17693043Y-14975630D02*
G75*
G03*
X17759941Y-15000000I82468J122380D01*
G01*
X11525000Y-12025000D02*
X12452963Y-13276313D01*
X6649905Y-7750085D02*
G75*
G03*
X6599905Y-7800088I5J-50005D01*
G01*
X15600004Y-6599466D02*
G75*
G03*
X15650000Y-6649446I49976J-4D01*
G01*
X13800000Y-6200000D02*
G75*
G03*
X13750000Y-6150000I-50000J0D01*
G01*
X11999405Y-6200086D02*
X12001054Y-6349466D01*
X17400000Y-6700000D02*
G75*
G03*
X17350000Y-6650000I-50000J0D01*
G01*
X12488318Y-13290958D02*
X16081573Y-14061104D01*
X15600004Y-6450006D02*
G75*
G03*
X15550000Y-6400006I-50004J-4D01*
G01*
X10200000Y-6450000D02*
X10200594Y-6850371D01*
X19663409Y-15424799D02*
X20506446Y-13951060D01*
X11951054Y-6399474D02*
G75*
G03*
X12001054Y-6349466I-4J50004D01*
G01*
X6598838Y-11100448D02*
G75*
G03*
X6648838Y-11150448I50000J0D01*
G01*
X16150000Y-14075000D02*
G75*
G03*
X16081573Y-14061104I-101680J-325290D01*
G01*
X11525000Y-12025000D02*
G75*
G03*
X11488056Y-12010312I-35510J-35510D01*
G01*
X13800000Y-6350000D02*
G75*
G03*
X13850000Y-6400000I50000J0D01*
G01*
X17397139Y-7246689D02*
G75*
G03*
X17661141Y-7500516I259299J5487D01*
G01*
X17400000Y-6700000D02*
X17397139Y-7246689D01*
X12049405Y-6150085D02*
G75*
G03*
X11999405Y-6200086I5J-50005D01*
G01*
X19250000Y-7493217D02*
X17661141Y-7500516D01*
D11*
D12*
X6805000Y-9280000D02*
X6845000Y-9320000D01*
X6845000Y-9280000D02*
X6805000Y-9320000D01*
X7030000Y-8005000D02*
X7070000Y-8045000D01*
X7070000Y-8005000D02*
X7030000Y-8045000D01*
X7030000Y-9705000D02*
X7070000Y-9745000D01*
X7070000Y-9705000D02*
X7030000Y-9745000D01*
X7055000Y-8105000D02*
X7095000Y-8145000D01*
X7095000Y-8105000D02*
X7055000Y-8145000D01*
X7055000Y-9805000D02*
X7095000Y-9845000D01*
X7095000Y-9805000D02*
X7055000Y-9845000D01*
X7200000Y-9170000D02*
X7240000Y-9210000D01*
X7240000Y-9170000D02*
X7200000Y-9210000D01*
X7200000Y-10870000D02*
X7240000Y-10910000D01*
X7240000Y-10870000D02*
X7200000Y-10910000D01*
X7205000Y-10655000D02*
X7245000Y-10695000D01*
X7245000Y-10655000D02*
X7205000Y-10695000D01*
X7255000Y-8980000D02*
X7295000Y-9020000D01*
X7295000Y-8980000D02*
X7255000Y-9020000D01*
X7480000Y-10580000D02*
X7520000Y-10620000D01*
X7520000Y-10580000D02*
X7480000Y-10620000D01*
X7805000Y-10155000D02*
X7845000Y-10195000D01*
X7845000Y-10155000D02*
X7805000Y-10195000D01*
X7905000Y-8105000D02*
X7945000Y-8145000D01*
X7945000Y-8105000D02*
X7905000Y-8145000D01*
X7905000Y-9805000D02*
X7945000Y-9845000D01*
X7945000Y-9805000D02*
X7905000Y-9845000D01*
X7955000Y-8179792D02*
X7995000Y-8219792D01*
X7995000Y-8179792D02*
X7955000Y-8219792D01*
X7955000Y-9880000D02*
X7995000Y-9920000D01*
X7995000Y-9880000D02*
X7955000Y-9920000D01*
X8030000Y-9740681D02*
X8070000Y-9780681D01*
X8070000Y-9740681D02*
X8030000Y-9780681D01*
X8255000Y-7955000D02*
X8295000Y-7995000D01*
X8295000Y-7955000D02*
X8255000Y-7995000D01*
X8405000Y-10905000D02*
X8445000Y-10945000D01*
X8445000Y-10905000D02*
X8405000Y-10945000D01*
X8430000Y-9405000D02*
X8470000Y-9445000D01*
X8470000Y-9405000D02*
X8430000Y-9445000D01*
X8455000Y-6980000D02*
X8495000Y-7020000D01*
X8495000Y-6980000D02*
X8455000Y-7020000D01*
X8562450Y-7905000D02*
X8602450Y-7945000D01*
X8602450Y-7905000D02*
X8562450Y-7945000D01*
X8562450Y-9530000D02*
X8602450Y-9570000D01*
X8602450Y-9530000D02*
X8562450Y-9570000D01*
X8630000Y-7155000D02*
X8670000Y-7195000D01*
X8670000Y-7155000D02*
X8630000Y-7195000D01*
X8655000Y-7430000D02*
X8695000Y-7470000D01*
X8695000Y-7430000D02*
X8655000Y-7470000D01*
X8755000Y-10805000D02*
X8795000Y-10845000D01*
X8795000Y-10805000D02*
X8755000Y-10845000D01*
X8780000Y-7329792D02*
X8820000Y-7369792D01*
X8820000Y-7329792D02*
X8780000Y-7369792D01*
X8830000Y-7155000D02*
X8870000Y-7195000D01*
X8870000Y-7155000D02*
X8830000Y-7195000D01*
X8830000Y-8855000D02*
X8870000Y-8895000D01*
X8870000Y-8855000D02*
X8830000Y-8895000D01*
X8830000Y-10555000D02*
X8870000Y-10595000D01*
X8870000Y-10555000D02*
X8830000Y-10595000D01*
X8855000Y-7255000D02*
X8895000Y-7295000D01*
X8895000Y-7255000D02*
X8855000Y-7295000D01*
X8855000Y-8696869D02*
X8895000Y-8736869D01*
X8895000Y-8696869D02*
X8855000Y-8736869D01*
X8855000Y-8955000D02*
X8895000Y-8995000D01*
X8895000Y-8955000D02*
X8855000Y-8995000D01*
X8855000Y-10655000D02*
X8895000Y-10695000D01*
X8895000Y-10655000D02*
X8855000Y-10695000D01*
X8930000Y-10905000D02*
X8970000Y-10945000D01*
X8970000Y-10905000D02*
X8930000Y-10945000D01*
X9000000Y-8320000D02*
X9040000Y-8360000D01*
X9040000Y-8320000D02*
X9000000Y-8360000D01*
X9000000Y-10020000D02*
X9040000Y-10060000D01*
X9040000Y-10020000D02*
X9000000Y-10060000D01*
X9000000Y-11720000D02*
X9040000Y-11760000D01*
X9040000Y-11720000D02*
X9000000Y-11760000D01*
X9005000Y-9805000D02*
X9045000Y-9845000D01*
X9045000Y-9805000D02*
X9005000Y-9845000D01*
X9030000Y-8155000D02*
X9070000Y-8195000D01*
X9070000Y-8155000D02*
X9030000Y-8195000D01*
X9030000Y-11505000D02*
X9070000Y-11545000D01*
X9070000Y-11505000D02*
X9030000Y-11545000D01*
X9055000Y-11330000D02*
X9095000Y-11370000D01*
X9095000Y-11330000D02*
X9055000Y-11370000D01*
X9280000Y-11430000D02*
X9320000Y-11470000D01*
X9320000Y-11430000D02*
X9280000Y-11470000D01*
X9480000Y-10455000D02*
X9520000Y-10495000D01*
X9520000Y-10455000D02*
X9480000Y-10495000D01*
X9580000Y-11205000D02*
X9620000Y-11245000D01*
X9620000Y-11205000D02*
X9580000Y-11245000D01*
X9605000Y-10980000D02*
X9645000Y-11020000D01*
X9645000Y-10980000D02*
X9605000Y-11020000D01*
X9705000Y-7255000D02*
X9745000Y-7295000D01*
X9745000Y-7255000D02*
X9705000Y-7295000D01*
X9705000Y-8955000D02*
X9745000Y-8995000D01*
X9745000Y-8955000D02*
X9705000Y-8995000D01*
X9705000Y-10655000D02*
X9745000Y-10695000D01*
X9745000Y-10655000D02*
X9705000Y-10695000D01*
X9730000Y-7155000D02*
X9770000Y-7195000D01*
X9770000Y-7155000D02*
X9730000Y-7195000D01*
X9755000Y-9030000D02*
X9795000Y-9070000D01*
X9795000Y-9030000D02*
X9755000Y-9070000D01*
X9755000Y-10730000D02*
X9795000Y-10770000D01*
X9795000Y-10730000D02*
X9755000Y-10770000D01*
X9855000Y-8730000D02*
X9895000Y-8770000D01*
X9895000Y-8730000D02*
X9855000Y-8770000D01*
X9880000Y-10855000D02*
X9920000Y-10895000D01*
X9920000Y-10855000D02*
X9880000Y-10895000D01*
X10005000Y-7055000D02*
X10045000Y-7095000D01*
X10045000Y-7055000D02*
X10005000Y-7095000D01*
X10105000Y-9430000D02*
X10145000Y-9470000D01*
X10145000Y-9430000D02*
X10105000Y-9470000D01*
X10205000Y-8755000D02*
X10245000Y-8795000D01*
X10245000Y-8755000D02*
X10205000Y-8795000D01*
X10208033Y-10383033D02*
X10248033Y-10423033D01*
X10248033Y-10383033D02*
X10208033Y-10423033D01*
X10234003Y-9134003D02*
X10274003Y-9174003D01*
X10274003Y-9134003D02*
X10234003Y-9174003D01*
X10305000Y-11305000D02*
X10345000Y-11345000D01*
X10345000Y-11305000D02*
X10305000Y-11345000D01*
X10355000Y-11469950D02*
X10395000Y-11509950D01*
X10395000Y-11469950D02*
X10355000Y-11509950D01*
X10405000Y-8705000D02*
X10445000Y-8745000D01*
X10445000Y-8705000D02*
X10405000Y-8745000D01*
X10505000Y-8405000D02*
X10545000Y-8445000D01*
X10545000Y-8405000D02*
X10505000Y-8445000D01*
X10555000Y-6830000D02*
X10595000Y-6870000D01*
X10595000Y-6830000D02*
X10555000Y-6870000D01*
X10630000Y-6655000D02*
X10670000Y-6695000D01*
X10670000Y-6655000D02*
X10630000Y-6695000D01*
X10630000Y-8355000D02*
X10670000Y-8395000D01*
X10670000Y-8355000D02*
X10630000Y-8395000D01*
X10630000Y-10055000D02*
X10670000Y-10095000D01*
X10670000Y-10055000D02*
X10630000Y-10095000D01*
X10655000Y-6755000D02*
X10695000Y-6795000D01*
X10695000Y-6755000D02*
X10655000Y-6795000D01*
X10655000Y-8455000D02*
X10695000Y-8495000D01*
X10695000Y-8455000D02*
X10655000Y-8495000D01*
X10655000Y-10155000D02*
X10695000Y-10195000D01*
X10695000Y-10155000D02*
X10655000Y-10195000D01*
X10800000Y-7820000D02*
X10840000Y-7860000D01*
X10840000Y-7820000D02*
X10800000Y-7860000D01*
X10800000Y-9520000D02*
X10840000Y-9560000D01*
X10840000Y-9520000D02*
X10800000Y-9560000D01*
X10800000Y-11220000D02*
X10840000Y-11260000D01*
X10840000Y-11220000D02*
X10800000Y-11260000D01*
X10830000Y-11005000D02*
X10870000Y-11045000D01*
X10870000Y-11005000D02*
X10830000Y-11045000D01*
X10855000Y-7630000D02*
X10895000Y-7670000D01*
X10895000Y-7630000D02*
X10855000Y-7670000D01*
X10855000Y-9330000D02*
X10895000Y-9370000D01*
X10895000Y-9330000D02*
X10855000Y-9370000D01*
X10930000Y-8155000D02*
X10970000Y-8195000D01*
X10970000Y-8155000D02*
X10930000Y-8195000D01*
X11305000Y-10455000D02*
X11345000Y-10495000D01*
X11345000Y-10455000D02*
X11305000Y-10495000D01*
X11480000Y-8730000D02*
X11520000Y-8770000D01*
X11520000Y-8730000D02*
X11480000Y-8770000D01*
X11505000Y-6755000D02*
X11545000Y-6795000D01*
X11545000Y-6755000D02*
X11505000Y-6795000D01*
X11505000Y-8455000D02*
X11545000Y-8495000D01*
X11545000Y-8455000D02*
X11505000Y-8495000D01*
X11505000Y-10155000D02*
X11545000Y-10195000D01*
X11545000Y-10155000D02*
X11505000Y-10195000D01*
X11530000Y-6655000D02*
X11570000Y-6695000D01*
X11570000Y-6655000D02*
X11530000Y-6695000D01*
X11530000Y-8355000D02*
X11570000Y-8395000D01*
X11570000Y-8355000D02*
X11530000Y-8395000D01*
X11555000Y-10230000D02*
X11595000Y-10270000D01*
X11595000Y-10230000D02*
X11555000Y-10270000D01*
X11680000Y-9730000D02*
X11720000Y-9770000D01*
X11720000Y-9730000D02*
X11680000Y-9770000D01*
X11830000Y-6517550D02*
X11870000Y-6557550D01*
X11870000Y-6517550D02*
X11830000Y-6557550D01*
X11855000Y-11355000D02*
X11895000Y-11395000D01*
X11895000Y-11355000D02*
X11855000Y-11395000D01*
X11905000Y-8555000D02*
X11945000Y-8595000D01*
X11945000Y-8555000D02*
X11905000Y-8595000D01*
X11917450Y-10455000D02*
X11957450Y-10495000D01*
X11957450Y-10455000D02*
X11917450Y-10495000D01*
X12005000Y-11230000D02*
X12045000Y-11270000D01*
X12045000Y-11230000D02*
X12005000Y-11270000D01*
X12005000Y-11469950D02*
X12045000Y-11509950D01*
X12045000Y-11469950D02*
X12005000Y-11509950D01*
X12030000Y-10155000D02*
X12070000Y-10195000D01*
X12070000Y-10155000D02*
X12030000Y-10195000D01*
X12178007Y-8528007D02*
X12218007Y-8568007D01*
X12218007Y-8528007D02*
X12178007Y-8568007D01*
X12189502Y-10064502D02*
X12229502Y-10104502D01*
X12229502Y-10064502D02*
X12189502Y-10104502D01*
X12355000Y-6580000D02*
X12395000Y-6620000D01*
X12395000Y-6580000D02*
X12355000Y-6620000D01*
X12405000Y-10180000D02*
X12445000Y-10220000D01*
X12445000Y-10180000D02*
X12405000Y-10220000D01*
X12430000Y-6405000D02*
X12470000Y-6445000D01*
X12470000Y-6405000D02*
X12430000Y-6445000D01*
X12430000Y-8105000D02*
X12470000Y-8145000D01*
X12470000Y-8105000D02*
X12430000Y-8145000D01*
X12430000Y-9805000D02*
X12470000Y-9845000D01*
X12470000Y-9805000D02*
X12430000Y-9845000D01*
X12455000Y-6505000D02*
X12495000Y-6545000D01*
X12495000Y-6505000D02*
X12455000Y-6545000D01*
X12455000Y-8205000D02*
X12495000Y-8245000D01*
X12495000Y-8205000D02*
X12455000Y-8245000D01*
X12455000Y-9905000D02*
X12495000Y-9945000D01*
X12495000Y-9905000D02*
X12455000Y-9945000D01*
X12505000Y-11280000D02*
X12545000Y-11320000D01*
X12545000Y-11280000D02*
X12505000Y-11320000D01*
X12537550Y-11544900D02*
X12577550Y-11584900D01*
X12577550Y-11544900D02*
X12537550Y-11584900D01*
X12555000Y-7880000D02*
X12595000Y-7920000D01*
X12595000Y-7880000D02*
X12555000Y-7920000D01*
X12600000Y-7570000D02*
X12640000Y-7610000D01*
X12640000Y-7570000D02*
X12600000Y-7610000D01*
X12600000Y-9270000D02*
X12640000Y-9310000D01*
X12640000Y-9270000D02*
X12600000Y-9310000D01*
X12600000Y-10970000D02*
X12640000Y-11010000D01*
X12640000Y-10970000D02*
X12600000Y-11010000D01*
X12625000Y-12750000D02*
X12665000Y-12790000D01*
X12665000Y-12750000D02*
X12625000Y-12790000D01*
X12630000Y-9080000D02*
X12670000Y-9120000D01*
X12670000Y-9080000D02*
X12630000Y-9120000D01*
X12630000Y-10780000D02*
X12670000Y-10820000D01*
X12670000Y-10780000D02*
X12630000Y-10820000D01*
X12655000Y-7380000D02*
X12695000Y-7420000D01*
X12695000Y-7380000D02*
X12655000Y-7420000D01*
X12842500Y-11980888D02*
X12882500Y-12020888D01*
X12882500Y-11980888D02*
X12842500Y-12020888D01*
X12917500Y-11805888D02*
X12957500Y-11845888D01*
X12957500Y-11805888D02*
X12917500Y-11845888D01*
X12930000Y-11342550D02*
X12970000Y-11382550D01*
X12970000Y-11342550D02*
X12930000Y-11382550D01*
X12942500Y-11905888D02*
X12982500Y-11945888D01*
X12982500Y-11905888D02*
X12942500Y-11945888D01*
X13030000Y-7830000D02*
X13070000Y-7870000D01*
X13070000Y-7830000D02*
X13030000Y-7870000D01*
X13305000Y-6505000D02*
X13345000Y-6545000D01*
X13345000Y-6505000D02*
X13305000Y-6545000D01*
X13305000Y-8205000D02*
X13345000Y-8245000D01*
X13345000Y-8205000D02*
X13305000Y-8245000D01*
X13305000Y-9905000D02*
X13345000Y-9945000D01*
X13345000Y-9905000D02*
X13305000Y-9945000D01*
X13330000Y-6405000D02*
X13370000Y-6445000D01*
X13370000Y-6405000D02*
X13330000Y-6445000D01*
X13355000Y-9980000D02*
X13395000Y-10020000D01*
X13395000Y-9980000D02*
X13355000Y-10020000D01*
X13430000Y-8230000D02*
X13470000Y-8270000D01*
X13470000Y-8230000D02*
X13430000Y-8270000D01*
X13505000Y-6667342D02*
X13545000Y-6707342D01*
X13545000Y-6667342D02*
X13505000Y-6707342D01*
X13505000Y-9780000D02*
X13545000Y-9820000D01*
X13545000Y-9780000D02*
X13505000Y-9820000D01*
X13605000Y-6305000D02*
X13645000Y-6345000D01*
X13645000Y-6305000D02*
X13605000Y-6345000D01*
X13685000Y-12970000D02*
X13725000Y-13010000D01*
X13725000Y-12970000D02*
X13685000Y-13010000D01*
X13705000Y-6805000D02*
X13745000Y-6845000D01*
X13745000Y-6805000D02*
X13705000Y-6845000D01*
X13755000Y-7055000D02*
X13795000Y-7095000D01*
X13795000Y-7055000D02*
X13755000Y-7095000D01*
X13780000Y-9905000D02*
X13820000Y-9945000D01*
X13820000Y-9905000D02*
X13780000Y-9945000D01*
X13837550Y-7180000D02*
X13877550Y-7220000D01*
X13877550Y-7180000D02*
X13837550Y-7220000D01*
X13837550Y-8555000D02*
X13877550Y-8595000D01*
X13877550Y-8555000D02*
X13837550Y-8595000D01*
X13855000Y-11755000D02*
X13895000Y-11795000D01*
X13895000Y-11755000D02*
X13855000Y-11795000D01*
X13855000Y-11905888D02*
X13895000Y-11945888D01*
X13895000Y-11905888D02*
X13855000Y-11945888D01*
X13962450Y-8555000D02*
X14002450Y-8595000D01*
X14002450Y-8555000D02*
X13962450Y-8595000D01*
X14005000Y-6705000D02*
X14045000Y-6745000D01*
X14045000Y-6705000D02*
X14005000Y-6745000D01*
X14005000Y-11330000D02*
X14045000Y-11370000D01*
X14045000Y-11330000D02*
X14005000Y-11370000D01*
X14055000Y-11980888D02*
X14095000Y-12020888D01*
X14095000Y-11980888D02*
X14055000Y-12020888D01*
X14105000Y-8555000D02*
X14145000Y-8595000D01*
X14145000Y-8555000D02*
X14105000Y-8595000D01*
X14130000Y-6730000D02*
X14170000Y-6770000D01*
X14170000Y-6730000D02*
X14130000Y-6770000D01*
X14230000Y-8355000D02*
X14270000Y-8395000D01*
X14270000Y-8355000D02*
X14230000Y-8395000D01*
X14230000Y-10055000D02*
X14270000Y-10095000D01*
X14270000Y-10055000D02*
X14230000Y-10095000D01*
X14255000Y-6755000D02*
X14295000Y-6795000D01*
X14295000Y-6755000D02*
X14255000Y-6795000D01*
X14255000Y-8455000D02*
X14295000Y-8495000D01*
X14295000Y-8455000D02*
X14255000Y-8495000D01*
X14255000Y-10155000D02*
X14295000Y-10195000D01*
X14295000Y-10155000D02*
X14255000Y-10195000D01*
X14400000Y-7820000D02*
X14440000Y-7860000D01*
X14440000Y-7820000D02*
X14400000Y-7860000D01*
X14400000Y-9520000D02*
X14440000Y-9560000D01*
X14440000Y-9520000D02*
X14400000Y-9560000D01*
X14400000Y-11220000D02*
X14440000Y-11260000D01*
X14440000Y-11220000D02*
X14400000Y-11260000D01*
X14405000Y-9330000D02*
X14445000Y-9370000D01*
X14445000Y-9330000D02*
X14405000Y-9370000D01*
X14430000Y-7605000D02*
X14470000Y-7645000D01*
X14470000Y-7605000D02*
X14430000Y-7645000D01*
X14430000Y-11030000D02*
X14470000Y-11070000D01*
X14470000Y-11030000D02*
X14430000Y-11070000D01*
X14980000Y-8255000D02*
X15020000Y-8295000D01*
X15020000Y-8255000D02*
X14980000Y-8295000D01*
X15030000Y-12005000D02*
X15070000Y-12045000D01*
X15070000Y-12005000D02*
X15030000Y-12045000D01*
X15031837Y-13177427D02*
X15071837Y-13217427D01*
X15071837Y-13177427D02*
X15031837Y-13217427D01*
X15080000Y-12980000D02*
X15120000Y-13020000D01*
X15120000Y-12980000D02*
X15080000Y-13020000D01*
X15105000Y-6755000D02*
X15145000Y-6795000D01*
X15145000Y-6755000D02*
X15105000Y-6795000D01*
X15105000Y-8455000D02*
X15145000Y-8495000D01*
X15145000Y-8455000D02*
X15105000Y-8495000D01*
X15105000Y-10155000D02*
X15145000Y-10195000D01*
X15145000Y-10155000D02*
X15105000Y-10195000D01*
X15155000Y-8530000D02*
X15195000Y-8570000D01*
X15195000Y-8530000D02*
X15155000Y-8570000D01*
X15155000Y-10230000D02*
X15195000Y-10270000D01*
X15195000Y-10230000D02*
X15155000Y-10270000D01*
X15155000Y-12030000D02*
X15195000Y-12070000D01*
X15195000Y-12030000D02*
X15155000Y-12070000D01*
X15205000Y-6630000D02*
X15245000Y-6670000D01*
X15245000Y-6630000D02*
X15205000Y-6670000D01*
X15230000Y-6830000D02*
X15270000Y-6870000D01*
X15270000Y-6830000D02*
X15230000Y-6870000D01*
X15399159Y-6560841D02*
X15439159Y-6600841D01*
X15439159Y-6560841D02*
X15399159Y-6600841D01*
X15605000Y-12009950D02*
X15645000Y-12049950D01*
X15645000Y-12009950D02*
X15605000Y-12049950D01*
X15607998Y-6952002D02*
X15647998Y-6992002D01*
X15647998Y-6952002D02*
X15607998Y-6992002D01*
X15750050Y-8930000D02*
X15790050Y-8970000D01*
X15790050Y-8930000D02*
X15750050Y-8970000D01*
X15880000Y-8930000D02*
X15920000Y-8970000D01*
X15920000Y-8930000D02*
X15880000Y-8970000D01*
X16030000Y-8605000D02*
X16070000Y-8645000D01*
X16070000Y-8605000D02*
X16030000Y-8645000D01*
X16030000Y-10305000D02*
X16070000Y-10345000D01*
X16070000Y-10305000D02*
X16030000Y-10345000D01*
X16052002Y-6902002D02*
X16092002Y-6942002D01*
X16092002Y-6902002D02*
X16052002Y-6942002D01*
X16055000Y-7005000D02*
X16095000Y-7045000D01*
X16095000Y-7005000D02*
X16055000Y-7045000D01*
X16055000Y-8705000D02*
X16095000Y-8745000D01*
X16095000Y-8705000D02*
X16055000Y-8745000D01*
X16055000Y-10405000D02*
X16095000Y-10445000D01*
X16095000Y-10405000D02*
X16055000Y-10445000D01*
X16055000Y-12380000D02*
X16095000Y-12420000D01*
X16095000Y-12380000D02*
X16055000Y-12420000D01*
X16200000Y-8070000D02*
X16240000Y-8110000D01*
X16240000Y-8070000D02*
X16200000Y-8110000D01*
X16200000Y-9770000D02*
X16240000Y-9810000D01*
X16240000Y-9770000D02*
X16200000Y-9810000D01*
X16200000Y-11470000D02*
X16240000Y-11510000D01*
X16240000Y-11470000D02*
X16200000Y-11510000D01*
X16205000Y-9555000D02*
X16245000Y-9595000D01*
X16245000Y-9555000D02*
X16205000Y-9595000D01*
X16205000Y-11255000D02*
X16245000Y-11295000D01*
X16245000Y-11255000D02*
X16205000Y-11295000D01*
X16205000Y-12405000D02*
X16245000Y-12445000D01*
X16245000Y-12405000D02*
X16205000Y-12445000D01*
X16605000Y-13155000D02*
X16645000Y-13195000D01*
X16645000Y-13155000D02*
X16605000Y-13195000D01*
X16619159Y-7840841D02*
X16659159Y-7880841D01*
X16659159Y-7840841D02*
X16619159Y-7880841D01*
X16680000Y-13755000D02*
X16720000Y-13795000D01*
X16720000Y-13755000D02*
X16680000Y-13795000D01*
X16699805Y-7371877D02*
X16739805Y-7411877D01*
X16739805Y-7371877D02*
X16699805Y-7411877D01*
X16730000Y-7805000D02*
X16770000Y-7845000D01*
X16770000Y-7805000D02*
X16730000Y-7845000D01*
X16811659Y-7498341D02*
X16851659Y-7538341D01*
X16851659Y-7498341D02*
X16811659Y-7538341D01*
X16905000Y-8705000D02*
X16945000Y-8745000D01*
X16945000Y-8705000D02*
X16905000Y-8745000D01*
X16905000Y-9905000D02*
X16945000Y-9945000D01*
X16945000Y-9905000D02*
X16905000Y-9945000D01*
X16905000Y-10405000D02*
X16945000Y-10445000D01*
X16945000Y-10405000D02*
X16905000Y-10445000D01*
X16930000Y-7005000D02*
X16970000Y-7045000D01*
X16970000Y-7005000D02*
X16930000Y-7045000D01*
X16930000Y-8605000D02*
X16970000Y-8645000D01*
X16970000Y-8605000D02*
X16930000Y-8645000D01*
X16938318Y-8071682D02*
X16978318Y-8111682D01*
X16978318Y-8071682D02*
X16938318Y-8111682D01*
X16952468Y-6877342D02*
X16992468Y-6917342D01*
X16992468Y-6877342D02*
X16952468Y-6917342D01*
X16955000Y-8880000D02*
X16995000Y-8920000D01*
X16995000Y-8880000D02*
X16955000Y-8920000D01*
X16955000Y-10480000D02*
X16995000Y-10520000D01*
X16995000Y-10480000D02*
X16955000Y-10520000D01*
X16980000Y-13580000D02*
X17020000Y-13620000D01*
X17020000Y-13580000D02*
X16980000Y-13620000D01*
X17005000Y-7267550D02*
X17045000Y-7307550D01*
X17045000Y-7267550D02*
X17005000Y-7307550D01*
X17005000Y-13480000D02*
X17045000Y-13520000D01*
X17045000Y-13480000D02*
X17005000Y-13520000D01*
X17030000Y-13830000D02*
X17070000Y-13870000D01*
X17070000Y-13830000D02*
X17030000Y-13870000D01*
X17055000Y-9880000D02*
X17095000Y-9920000D01*
X17095000Y-9880000D02*
X17055000Y-9920000D01*
X17071421Y-7058032D02*
X17111421Y-7098032D01*
X17111421Y-7058032D02*
X17071421Y-7098032D01*
X17130000Y-10405000D02*
X17170000Y-10445000D01*
X17170000Y-10405000D02*
X17130000Y-10445000D01*
X17176589Y-7670771D02*
X17216589Y-7710771D01*
X17216589Y-7670771D02*
X17176589Y-7710771D01*
X17180000Y-6805000D02*
X17220000Y-6845000D01*
X17220000Y-6805000D02*
X17180000Y-6845000D01*
X17267550Y-9930000D02*
X17307550Y-9970000D01*
X17307550Y-9930000D02*
X17267550Y-9970000D01*
X17280000Y-7680000D02*
X17320000Y-7720000D01*
X17320000Y-7680000D02*
X17280000Y-7720000D01*
X17305000Y-10030000D02*
X17345000Y-10070000D01*
X17345000Y-10030000D02*
X17305000Y-10070000D01*
X17334950Y-6737419D02*
X17374950Y-6777419D01*
X17374950Y-6737419D02*
X17334950Y-6777419D01*
X17341259Y-10491259D02*
X17381259Y-10531259D01*
X17381259Y-10491259D02*
X17341259Y-10531259D01*
X17375000Y-10130000D02*
X17415000Y-10170000D01*
X17415000Y-10130000D02*
X17375000Y-10170000D01*
X17437450Y-9130000D02*
X17477450Y-9170000D01*
X17477450Y-9130000D02*
X17437450Y-9170000D01*
X17480000Y-10905000D02*
X17520000Y-10945000D01*
X17520000Y-10905000D02*
X17480000Y-10945000D01*
X17505000Y-12655000D02*
X17545000Y-12695000D01*
X17545000Y-12655000D02*
X17505000Y-12695000D01*
X17536659Y-10486659D02*
X17576659Y-10526659D01*
X17576659Y-10486659D02*
X17536659Y-10526659D01*
X17555000Y-12555000D02*
X17595000Y-12595000D01*
X17595000Y-12555000D02*
X17555000Y-12595000D01*
X17792500Y-12217500D02*
X17832500Y-12257500D01*
X17832500Y-12217500D02*
X17792500Y-12257500D01*
X17855000Y-12555000D02*
X17895000Y-12595000D01*
X17895000Y-12555000D02*
X17855000Y-12595000D01*
X18030000Y-10655000D02*
X18070000Y-10695000D01*
X18070000Y-10655000D02*
X18030000Y-10695000D01*
X18050955Y-13842487D02*
X18090955Y-13882487D01*
X18090955Y-13842487D02*
X18050955Y-13882487D01*
X18055000Y-7861200D02*
X18095000Y-7901200D01*
X18095000Y-7861200D02*
X18055000Y-7901200D01*
X18055000Y-13305000D02*
X18095000Y-13345000D01*
X18095000Y-13305000D02*
X18055000Y-13345000D01*
X18129950Y-9639200D02*
X18169950Y-9679200D01*
X18169950Y-9639200D02*
X18129950Y-9679200D01*
X18155000Y-12280000D02*
X18195000Y-12320000D01*
X18195000Y-12280000D02*
X18155000Y-12320000D01*
X18305000Y-10580000D02*
X18345000Y-10620000D01*
X18345000Y-10580000D02*
X18305000Y-10620000D01*
X18330000Y-8623200D02*
X18370000Y-8663200D01*
X18370000Y-8623200D02*
X18330000Y-8663200D01*
X18380788Y-10671450D02*
X18420788Y-10711450D01*
X18420788Y-10671450D02*
X18380788Y-10711450D01*
X18405000Y-8830000D02*
X18445000Y-8870000D01*
X18445000Y-8830000D02*
X18405000Y-8870000D01*
X18405000Y-9030000D02*
X18445000Y-9070000D01*
X18445000Y-9030000D02*
X18405000Y-9070000D01*
X18405000Y-9258200D02*
X18445000Y-9298200D01*
X18445000Y-9258200D02*
X18405000Y-9298200D01*
X18443777Y-7941223D02*
X18483777Y-7981223D01*
X18483777Y-7941223D02*
X18443777Y-7981223D01*
X18480000Y-10462450D02*
X18520000Y-10502450D01*
X18520000Y-10462450D02*
X18480000Y-10502450D01*
X18480000Y-14280000D02*
X18520000Y-14320000D01*
X18520000Y-14280000D02*
X18480000Y-14320000D01*
X18483550Y-8324000D02*
X18523550Y-8364000D01*
X18523550Y-8324000D02*
X18483550Y-8364000D01*
X18547434Y-7822434D02*
X18587434Y-7862434D01*
X18587434Y-7822434D02*
X18547434Y-7862434D01*
X18592450Y-8105000D02*
X18632450Y-8145000D01*
X18632450Y-8105000D02*
X18592450Y-8145000D01*
X18655000Y-7731727D02*
X18695000Y-7771727D01*
X18695000Y-7731727D02*
X18655000Y-7771727D01*
X18680000Y-14380000D02*
X18720000Y-14420000D01*
X18720000Y-14380000D02*
X18680000Y-14420000D01*
X18701088Y-10580000D02*
X18741088Y-10620000D01*
X18741088Y-10580000D02*
X18701088Y-10620000D01*
X18705000Y-8246000D02*
X18745000Y-8286000D01*
X18745000Y-8246000D02*
X18705000Y-8286000D01*
X18705000Y-10430000D02*
X18745000Y-10470000D01*
X18745000Y-10430000D02*
X18705000Y-10470000D01*
X18740100Y-8861796D02*
X18780100Y-8901796D01*
X18780100Y-8861796D02*
X18740100Y-8901796D01*
X18797060Y-9836837D02*
X18837060Y-9876837D01*
X18837060Y-9836837D02*
X18797060Y-9876837D01*
X18882550Y-9054000D02*
X18922550Y-9094000D01*
X18922550Y-9054000D02*
X18882550Y-9094000D01*
X18903793Y-9634498D02*
X18943793Y-9674498D01*
X18943793Y-9634498D02*
X18903793Y-9674498D01*
X18905000Y-11655000D02*
X18945000Y-11695000D01*
X18945000Y-11655000D02*
X18905000Y-11695000D01*
X18906883Y-9770198D02*
X18946883Y-9810198D01*
X18946883Y-9770198D02*
X18906883Y-9810198D01*
X18912550Y-10244000D02*
X18952550Y-10284000D01*
X18952550Y-10244000D02*
X18912550Y-10284000D01*
X18917550Y-9396550D02*
X18957550Y-9436550D01*
X18957550Y-9396550D02*
X18917550Y-9436550D01*
X18917704Y-10463650D02*
X18957704Y-10503650D01*
X18957704Y-10463650D02*
X18917704Y-10503650D01*
X18922550Y-9214000D02*
X18962550Y-9254000D01*
X18962550Y-9214000D02*
X18922550Y-9254000D01*
X18926342Y-10338750D02*
X18966342Y-10378750D01*
X18966342Y-10338750D02*
X18926342Y-10378750D01*
X18930000Y-10064000D02*
X18970000Y-10104000D01*
X18970000Y-10064000D02*
X18930000Y-10104000D01*
X18930100Y-9559000D02*
X18970100Y-9599000D01*
X18970100Y-9559000D02*
X18930100Y-9599000D01*
X18980000Y-11080000D02*
X19020000Y-11120000D01*
X19020000Y-11080000D02*
X18980000Y-11120000D01*
X18988550Y-8621000D02*
X19028550Y-8661000D01*
X19028550Y-8621000D02*
X18988550Y-8661000D01*
X19027550Y-8502000D02*
X19067550Y-8542000D01*
X19067550Y-8502000D02*
X19027550Y-8542000D01*
X19030000Y-13480000D02*
X19070000Y-13520000D01*
X19070000Y-13480000D02*
X19030000Y-13520000D01*
X19032550Y-7774000D02*
X19072550Y-7814000D01*
X19072550Y-7774000D02*
X19032550Y-7814000D01*
X19055000Y-9830750D02*
X19095000Y-9870750D01*
X19095000Y-9830750D02*
X19055000Y-9870750D01*
X19062550Y-10584000D02*
X19102550Y-10624000D01*
X19102550Y-10584000D02*
X19062550Y-10624000D01*
X19062550Y-10724000D02*
X19102550Y-10764000D01*
X19102550Y-10724000D02*
X19062550Y-10764000D01*
X19112000Y-11330000D02*
X19152000Y-11370000D01*
X19152000Y-11330000D02*
X19112000Y-11370000D01*
X19130000Y-13555000D02*
X19170000Y-13595000D01*
X19170000Y-13555000D02*
X19130000Y-13595000D01*
X19235429Y-15090500D02*
X19275429Y-15130500D01*
X19275429Y-15090500D02*
X19235429Y-15130500D01*
X19255000Y-11680000D02*
X19295000Y-11720000D01*
X19295000Y-11680000D02*
X19255000Y-11720000D01*
X19279275Y-11055725D02*
X19319275Y-11095725D01*
X19319275Y-11055725D02*
X19279275Y-11095725D01*
X19630000Y-14155000D02*
X19670000Y-14195000D01*
X19670000Y-14155000D02*
X19630000Y-14195000D01*
X19675955Y-14767487D02*
X19715955Y-14807487D01*
X19715955Y-14767487D02*
X19675955Y-14807487D01*
D13*
X18587500Y-11475000D02*
G75*
G03*
X18587500Y-11475000I-37500J0D01*
G01*
X18787500Y-11475000D02*
G75*
G03*
X18787500Y-11475000I-37500J0D01*
G01*
D14*
X17698550Y-7967560D02*
X17698550Y-8048840D01*
X17657910Y-8008200D02*
X17739190Y-8008200D01*
X17698550Y-8221560D02*
X17698550Y-8302840D01*
X17657910Y-8262200D02*
X17739190Y-8262200D01*
X17698550Y-8475560D02*
X17698550Y-8556840D01*
X17657910Y-8516200D02*
X17739190Y-8516200D01*
X17698550Y-8729560D02*
X17698550Y-8810840D01*
X17657910Y-8770200D02*
X17739190Y-8770200D01*
X17698550Y-8983560D02*
X17698550Y-9064840D01*
X17657910Y-9024200D02*
X17739190Y-9024200D01*
X17698550Y-9237560D02*
X17698550Y-9318840D01*
X17657910Y-9278200D02*
X17739190Y-9278200D01*
X17698550Y-9491560D02*
X17698550Y-9572840D01*
X17657910Y-9532200D02*
X17739190Y-9532200D01*
X17698550Y-9745560D02*
X17698550Y-9826840D01*
X17657910Y-9786200D02*
X17739190Y-9786200D01*
X17698550Y-9999560D02*
X17698550Y-10080840D01*
X17657910Y-10040200D02*
X17739190Y-10040200D01*
X17698550Y-10253560D02*
X17698550Y-10334840D01*
X17657910Y-10294200D02*
X17739190Y-10294200D01*
X17698550Y-10507560D02*
X17698550Y-10588840D01*
X17657910Y-10548200D02*
X17739190Y-10548200D01*
X17698550Y-10761560D02*
X17698550Y-10842840D01*
X17657910Y-10802200D02*
X17739190Y-10802200D01*
X17831190Y-7840560D02*
X17831190Y-7921840D01*
X17790550Y-7881200D02*
X17871830Y-7881200D01*
X17831190Y-8094560D02*
X17831190Y-8175840D01*
X17790550Y-8135200D02*
X17871830Y-8135200D01*
X17831190Y-8348560D02*
X17831190Y-8429840D01*
X17790550Y-8389200D02*
X17871830Y-8389200D01*
X17831190Y-8602560D02*
X17831190Y-8683840D01*
X17790550Y-8643200D02*
X17871830Y-8643200D01*
X17831190Y-8856560D02*
X17831190Y-8937840D01*
X17790550Y-8897200D02*
X17871830Y-8897200D01*
X17831190Y-9110560D02*
X17831190Y-9191840D01*
X17790550Y-9151200D02*
X17871830Y-9151200D01*
X17831190Y-9364560D02*
X17831190Y-9445840D01*
X17790550Y-9405200D02*
X17871830Y-9405200D01*
X17831190Y-9618560D02*
X17831190Y-9699840D01*
X17790550Y-9659200D02*
X17871830Y-9659200D01*
X17831190Y-9872560D02*
X17831190Y-9953840D01*
X17790550Y-9913200D02*
X17871830Y-9913200D01*
X17831190Y-10126560D02*
X17831190Y-10207840D01*
X17790550Y-10167200D02*
X17871830Y-10167200D01*
X17831190Y-10380560D02*
X17831190Y-10461840D01*
X17790550Y-10421200D02*
X17871830Y-10421200D01*
X17831190Y-10634560D02*
X17831190Y-10715840D01*
X17790550Y-10675200D02*
X17871830Y-10675200D01*
X18143689Y-11201193D02*
X18143689Y-11282473D01*
X18103049Y-11241833D02*
X18184329Y-11241833D01*
X18397689Y-11201193D02*
X18397689Y-11282473D01*
X18357049Y-11241833D02*
X18438329Y-11241833D01*
X18651689Y-11201193D02*
X18651689Y-11282473D01*
X18611049Y-11241833D02*
X18692329Y-11241833D01*
X18905689Y-11201193D02*
X18905689Y-11282473D01*
X18865049Y-11241833D02*
X18946329Y-11241833D01*
X19222550Y-7967560D02*
X19222550Y-8048840D01*
X19181910Y-8008200D02*
X19263190Y-8008200D01*
X19222550Y-8221560D02*
X19222550Y-8302840D01*
X19181910Y-8262200D02*
X19263190Y-8262200D01*
X19222550Y-8475560D02*
X19222550Y-8556840D01*
X19181910Y-8516200D02*
X19263190Y-8516200D01*
X19222550Y-8729560D02*
X19222550Y-8810840D01*
X19181910Y-8770200D02*
X19263190Y-8770200D01*
X19222550Y-8983560D02*
X19222550Y-9064840D01*
X19181910Y-9024200D02*
X19263190Y-9024200D01*
X19222550Y-9237560D02*
X19222550Y-9318840D01*
X19181910Y-9278200D02*
X19263190Y-9278200D01*
X19222550Y-9491560D02*
X19222550Y-9572840D01*
X19181910Y-9532200D02*
X19263190Y-9532200D01*
X19222550Y-9745560D02*
X19222550Y-9826840D01*
X19181910Y-9786200D02*
X19263190Y-9786200D01*
X19222550Y-9999560D02*
X19222550Y-10080840D01*
X19181910Y-10040200D02*
X19263190Y-10040200D01*
X19222550Y-10253560D02*
X19222550Y-10334840D01*
X19181910Y-10294200D02*
X19263190Y-10294200D01*
X19222550Y-10507560D02*
X19222550Y-10588840D01*
X19181910Y-10548200D02*
X19263190Y-10548200D01*
X19222550Y-10761560D02*
X19222550Y-10842840D01*
X19181910Y-10802200D02*
X19263190Y-10802200D01*
X19353190Y-7840560D02*
X19353190Y-7921840D01*
X19312550Y-7881200D02*
X19393830Y-7881200D01*
X19353190Y-8094560D02*
X19353190Y-8175840D01*
X19312550Y-8135200D02*
X19393830Y-8135200D01*
X19353190Y-8348560D02*
X19353190Y-8429840D01*
X19312550Y-8389200D02*
X19393830Y-8389200D01*
X19353190Y-8602560D02*
X19353190Y-8683840D01*
X19312550Y-8643200D02*
X19393830Y-8643200D01*
X19353190Y-8856560D02*
X19353190Y-8937840D01*
X19312550Y-8897200D02*
X19393830Y-8897200D01*
X19353190Y-9110560D02*
X19353190Y-9191840D01*
X19312550Y-9151200D02*
X19393830Y-9151200D01*
X19353190Y-9364560D02*
X19353190Y-9445840D01*
X19312550Y-9405200D02*
X19393830Y-9405200D01*
X19353190Y-9618560D02*
X19353190Y-9699840D01*
X19312550Y-9659200D02*
X19393830Y-9659200D01*
X19353190Y-9872560D02*
X19353190Y-9953840D01*
X19312550Y-9913200D02*
X19393830Y-9913200D01*
X19353190Y-10126560D02*
X19353190Y-10207840D01*
X19312550Y-10167200D02*
X19393830Y-10167200D01*
X19353190Y-10380560D02*
X19353190Y-10461840D01*
X19312550Y-10421200D02*
X19393830Y-10421200D01*
X19353190Y-10634560D02*
X19353190Y-10715840D01*
X19312550Y-10675200D02*
X19393830Y-10675200D01*
D15*
X18189504Y-11708462D02*
X18189504Y-11616538D01*
X18097579Y-11616538D01*
X18097579Y-11708462D01*
X18189504Y-11708462D01*
X18752421Y-12033462D02*
X18752421Y-11941538D01*
X18660496Y-11941538D01*
X18660496Y-12033462D01*
X18752421Y-12033462D01*
D16*
X17776000Y-11410000D02*
X17886000Y-11300000D01*
X17776000Y-11190000D01*
X17666000Y-11300000D01*
X17776000Y-11410000D01*
X19225000Y-12260000D02*
X19335000Y-12150000D01*
X19225000Y-12040000D01*
X19115000Y-12150000D01*
X19225000Y-12260000D01*
D17*
X8245000Y-8370000D02*
X8655000Y-8780000D01*
X8655000Y-8370000D02*
X8245000Y-8780000D01*
X8655000Y-8575000D02*
G75*
G03*
X8655000Y-8575000I-205000J0D01*
G01*
X8245000Y-10045000D02*
X8655000Y-10455000D01*
X8655000Y-10045000D02*
X8245000Y-10455000D01*
X8655000Y-10250000D02*
G75*
G03*
X8655000Y-10250000I-205000J0D01*
G01*
X11795000Y-7920000D02*
X12205000Y-8330000D01*
X12205000Y-7920000D02*
X11795000Y-8330000D01*
X12205000Y-8125000D02*
G75*
G03*
X12205000Y-8125000I-205000J0D01*
G01*
X13245000Y-11220000D02*
X13655000Y-11630000D01*
X13655000Y-11220000D02*
X13245000Y-11630000D01*
X13655000Y-11425000D02*
G75*
G03*
X13655000Y-11425000I-205000J0D01*
G01*
X15445000Y-8145000D02*
X15855000Y-8555000D01*
X15855000Y-8145000D02*
X15445000Y-8555000D01*
X15855000Y-8350000D02*
G75*
G03*
X15855000Y-8350000I-205000J0D01*
G01*
X16420000Y-11895003D02*
X16830000Y-12305003D01*
X16830000Y-11895003D02*
X16420000Y-12305003D01*
X16830000Y-12100003D02*
G75*
G03*
X16830000Y-12100003I-205000J0D01*
G01*
D11*
X6852115Y-15802313D02*
X6852115Y-15602313D01*
X6852115Y-15602313D02*
X6899734Y-15602313D01*
X6899734Y-15602313D02*
X6928305Y-15611836D01*
X6928305Y-15611836D02*
X6947353Y-15630884D01*
X6947353Y-15630884D02*
X6956876Y-15649932D01*
X6956876Y-15649932D02*
X6966400Y-15688027D01*
X6966400Y-15688027D02*
X6966400Y-15716598D01*
X6966400Y-15716598D02*
X6956876Y-15754693D01*
X6956876Y-15754693D02*
X6947353Y-15773741D01*
X6947353Y-15773741D02*
X6928305Y-15792789D01*
X6928305Y-15792789D02*
X6899734Y-15802313D01*
X6899734Y-15802313D02*
X6852115Y-15802313D01*
X7052115Y-15802313D02*
X7052115Y-15668979D01*
X7052115Y-15707074D02*
X7061638Y-15688027D01*
X7061638Y-15688027D02*
X7071162Y-15678503D01*
X7071162Y-15678503D02*
X7090210Y-15668979D01*
X7090210Y-15668979D02*
X7109257Y-15668979D01*
X7175924Y-15802313D02*
X7175924Y-15668979D01*
X7175924Y-15602313D02*
X7166400Y-15611836D01*
X7166400Y-15611836D02*
X7175924Y-15621360D01*
X7175924Y-15621360D02*
X7185448Y-15611836D01*
X7185448Y-15611836D02*
X7175924Y-15602313D01*
X7175924Y-15602313D02*
X7175924Y-15621360D01*
X7299734Y-15802313D02*
X7280686Y-15792789D01*
X7280686Y-15792789D02*
X7271162Y-15773741D01*
X7271162Y-15773741D02*
X7271162Y-15602313D01*
X7404495Y-15802313D02*
X7385448Y-15792789D01*
X7385448Y-15792789D02*
X7375924Y-15773741D01*
X7375924Y-15773741D02*
X7375924Y-15602313D01*
X7633067Y-15802313D02*
X7633067Y-15602313D01*
X7633067Y-15602313D02*
X7699734Y-15745170D01*
X7699734Y-15745170D02*
X7766400Y-15602313D01*
X7766400Y-15602313D02*
X7766400Y-15802313D01*
X7947353Y-15802313D02*
X7947353Y-15697551D01*
X7947353Y-15697551D02*
X7937829Y-15678503D01*
X7937829Y-15678503D02*
X7918781Y-15668979D01*
X7918781Y-15668979D02*
X7880686Y-15668979D01*
X7880686Y-15668979D02*
X7861638Y-15678503D01*
X7947353Y-15792789D02*
X7928305Y-15802313D01*
X7928305Y-15802313D02*
X7880686Y-15802313D01*
X7880686Y-15802313D02*
X7861638Y-15792789D01*
X7861638Y-15792789D02*
X7852115Y-15773741D01*
X7852115Y-15773741D02*
X7852115Y-15754693D01*
X7852115Y-15754693D02*
X7861638Y-15735646D01*
X7861638Y-15735646D02*
X7880686Y-15726122D01*
X7880686Y-15726122D02*
X7928305Y-15726122D01*
X7928305Y-15726122D02*
X7947353Y-15716598D01*
X8042591Y-15668979D02*
X8042591Y-15868979D01*
X8042591Y-15678503D02*
X8061638Y-15668979D01*
X8061638Y-15668979D02*
X8099734Y-15668979D01*
X8099734Y-15668979D02*
X8118781Y-15678503D01*
X8118781Y-15678503D02*
X8128305Y-15688027D01*
X8128305Y-15688027D02*
X8137829Y-15707074D01*
X8137829Y-15707074D02*
X8137829Y-15764217D01*
X8137829Y-15764217D02*
X8128305Y-15783265D01*
X8128305Y-15783265D02*
X8118781Y-15792789D01*
X8118781Y-15792789D02*
X8099734Y-15802313D01*
X8099734Y-15802313D02*
X8061638Y-15802313D01*
X8061638Y-15802313D02*
X8042591Y-15792789D01*
X8223543Y-15783265D02*
X8233067Y-15792789D01*
X8233067Y-15792789D02*
X8223543Y-15802313D01*
X8223543Y-15802313D02*
X8214019Y-15792789D01*
X8214019Y-15792789D02*
X8223543Y-15783265D01*
X8223543Y-15783265D02*
X8223543Y-15802313D01*
X8223543Y-15678503D02*
X8233067Y-15688027D01*
X8233067Y-15688027D02*
X8223543Y-15697551D01*
X8223543Y-15697551D02*
X8214019Y-15688027D01*
X8214019Y-15688027D02*
X8223543Y-15678503D01*
X8223543Y-15678503D02*
X8223543Y-15697551D01*
D12*
X6551338Y-16110829D02*
X6591338Y-16150829D01*
X6591338Y-16110829D02*
X6551338Y-16150829D01*
D11*
X6890210Y-16022313D02*
X6909257Y-16022313D01*
X6909257Y-16022313D02*
X6928305Y-16031836D01*
X6928305Y-16031836D02*
X6937829Y-16041360D01*
X6937829Y-16041360D02*
X6947353Y-16060408D01*
X6947353Y-16060408D02*
X6956876Y-16098503D01*
X6956876Y-16098503D02*
X6956876Y-16146122D01*
X6956876Y-16146122D02*
X6947353Y-16184217D01*
X6947353Y-16184217D02*
X6937829Y-16203265D01*
X6937829Y-16203265D02*
X6928305Y-16212789D01*
X6928305Y-16212789D02*
X6909257Y-16222313D01*
X6909257Y-16222313D02*
X6890210Y-16222313D01*
X6890210Y-16222313D02*
X6871162Y-16212789D01*
X6871162Y-16212789D02*
X6861638Y-16203265D01*
X6861638Y-16203265D02*
X6852115Y-16184217D01*
X6852115Y-16184217D02*
X6842591Y-16146122D01*
X6842591Y-16146122D02*
X6842591Y-16098503D01*
X6842591Y-16098503D02*
X6852115Y-16060408D01*
X6852115Y-16060408D02*
X6861638Y-16041360D01*
X6861638Y-16041360D02*
X6871162Y-16031836D01*
X6871162Y-16031836D02*
X6890210Y-16022313D01*
X7042591Y-16203265D02*
X7052115Y-16212789D01*
X7052115Y-16212789D02*
X7042591Y-16222313D01*
X7042591Y-16222313D02*
X7033067Y-16212789D01*
X7033067Y-16212789D02*
X7042591Y-16203265D01*
X7042591Y-16203265D02*
X7042591Y-16222313D01*
X7223543Y-16088979D02*
X7223543Y-16222313D01*
X7175924Y-16012789D02*
X7128305Y-16155646D01*
X7128305Y-16155646D02*
X7252115Y-16155646D01*
X7366400Y-16022313D02*
X7385448Y-16022313D01*
X7385448Y-16022313D02*
X7404496Y-16031836D01*
X7404496Y-16031836D02*
X7414019Y-16041360D01*
X7414019Y-16041360D02*
X7423543Y-16060408D01*
X7423543Y-16060408D02*
X7433067Y-16098503D01*
X7433067Y-16098503D02*
X7433067Y-16146122D01*
X7433067Y-16146122D02*
X7423543Y-16184217D01*
X7423543Y-16184217D02*
X7414019Y-16203265D01*
X7414019Y-16203265D02*
X7404496Y-16212789D01*
X7404496Y-16212789D02*
X7385448Y-16222313D01*
X7385448Y-16222313D02*
X7366400Y-16222313D01*
X7366400Y-16222313D02*
X7347353Y-16212789D01*
X7347353Y-16212789D02*
X7337829Y-16203265D01*
X7337829Y-16203265D02*
X7328305Y-16184217D01*
X7328305Y-16184217D02*
X7318781Y-16146122D01*
X7318781Y-16146122D02*
X7318781Y-16098503D01*
X7318781Y-16098503D02*
X7328305Y-16060408D01*
X7328305Y-16060408D02*
X7337829Y-16041360D01*
X7337829Y-16041360D02*
X7347353Y-16031836D01*
X7347353Y-16031836D02*
X7366400Y-16022313D01*
X7556876Y-16022313D02*
X7575924Y-16022313D01*
X7575924Y-16022313D02*
X7594972Y-16031836D01*
X7594972Y-16031836D02*
X7604496Y-16041360D01*
X7604496Y-16041360D02*
X7614019Y-16060408D01*
X7614019Y-16060408D02*
X7623543Y-16098503D01*
X7623543Y-16098503D02*
X7623543Y-16146122D01*
X7623543Y-16146122D02*
X7614019Y-16184217D01*
X7614019Y-16184217D02*
X7604496Y-16203265D01*
X7604496Y-16203265D02*
X7594972Y-16212789D01*
X7594972Y-16212789D02*
X7575924Y-16222313D01*
X7575924Y-16222313D02*
X7556876Y-16222313D01*
X7556876Y-16222313D02*
X7537829Y-16212789D01*
X7537829Y-16212789D02*
X7528305Y-16203265D01*
X7528305Y-16203265D02*
X7518781Y-16184217D01*
X7518781Y-16184217D02*
X7509257Y-16146122D01*
X7509257Y-16146122D02*
X7509257Y-16098503D01*
X7509257Y-16098503D02*
X7518781Y-16060408D01*
X7518781Y-16060408D02*
X7528305Y-16041360D01*
X7528305Y-16041360D02*
X7537829Y-16031836D01*
X7537829Y-16031836D02*
X7556876Y-16022313D01*
X7709257Y-16222313D02*
X7709257Y-16088979D01*
X7709257Y-16108027D02*
X7718781Y-16098503D01*
X7718781Y-16098503D02*
X7737829Y-16088979D01*
X7737829Y-16088979D02*
X7766400Y-16088979D01*
X7766400Y-16088979D02*
X7785448Y-16098503D01*
X7785448Y-16098503D02*
X7794972Y-16117551D01*
X7794972Y-16117551D02*
X7794972Y-16222313D01*
X7794972Y-16117551D02*
X7804496Y-16098503D01*
X7804496Y-16098503D02*
X7823543Y-16088979D01*
X7823543Y-16088979D02*
X7852115Y-16088979D01*
X7852115Y-16088979D02*
X7871162Y-16098503D01*
X7871162Y-16098503D02*
X7880686Y-16117551D01*
X7880686Y-16117551D02*
X7880686Y-16222313D01*
X7975924Y-16222313D02*
X7975924Y-16088979D01*
X7975924Y-16108027D02*
X7985448Y-16098503D01*
X7985448Y-16098503D02*
X8004496Y-16088979D01*
X8004496Y-16088979D02*
X8033067Y-16088979D01*
X8033067Y-16088979D02*
X8052115Y-16098503D01*
X8052115Y-16098503D02*
X8061638Y-16117551D01*
X8061638Y-16117551D02*
X8061638Y-16222313D01*
X8061638Y-16117551D02*
X8071162Y-16098503D01*
X8071162Y-16098503D02*
X8090210Y-16088979D01*
X8090210Y-16088979D02*
X8118781Y-16088979D01*
X8118781Y-16088979D02*
X8137829Y-16098503D01*
X8137829Y-16098503D02*
X8147353Y-16117551D01*
X8147353Y-16117551D02*
X8147353Y-16222313D01*
X8537829Y-16012789D02*
X8366400Y-16269932D01*
X8794972Y-16022313D02*
X8814020Y-16022313D01*
X8814020Y-16022313D02*
X8833067Y-16031836D01*
X8833067Y-16031836D02*
X8842591Y-16041360D01*
X8842591Y-16041360D02*
X8852115Y-16060408D01*
X8852115Y-16060408D02*
X8861639Y-16098503D01*
X8861639Y-16098503D02*
X8861639Y-16146122D01*
X8861639Y-16146122D02*
X8852115Y-16184217D01*
X8852115Y-16184217D02*
X8842591Y-16203265D01*
X8842591Y-16203265D02*
X8833067Y-16212789D01*
X8833067Y-16212789D02*
X8814020Y-16222313D01*
X8814020Y-16222313D02*
X8794972Y-16222313D01*
X8794972Y-16222313D02*
X8775924Y-16212789D01*
X8775924Y-16212789D02*
X8766401Y-16203265D01*
X8766401Y-16203265D02*
X8756877Y-16184217D01*
X8756877Y-16184217D02*
X8747353Y-16146122D01*
X8747353Y-16146122D02*
X8747353Y-16098503D01*
X8747353Y-16098503D02*
X8756877Y-16060408D01*
X8756877Y-16060408D02*
X8766401Y-16041360D01*
X8766401Y-16041360D02*
X8775924Y-16031836D01*
X8775924Y-16031836D02*
X8794972Y-16022313D01*
X8947353Y-16203265D02*
X8956877Y-16212789D01*
X8956877Y-16212789D02*
X8947353Y-16222313D01*
X8947353Y-16222313D02*
X8937829Y-16212789D01*
X8937829Y-16212789D02*
X8947353Y-16203265D01*
X8947353Y-16203265D02*
X8947353Y-16222313D01*
X9080686Y-16022313D02*
X9099734Y-16022313D01*
X9099734Y-16022313D02*
X9118782Y-16031836D01*
X9118782Y-16031836D02*
X9128305Y-16041360D01*
X9128305Y-16041360D02*
X9137829Y-16060408D01*
X9137829Y-16060408D02*
X9147353Y-16098503D01*
X9147353Y-16098503D02*
X9147353Y-16146122D01*
X9147353Y-16146122D02*
X9137829Y-16184217D01*
X9137829Y-16184217D02*
X9128305Y-16203265D01*
X9128305Y-16203265D02*
X9118782Y-16212789D01*
X9118782Y-16212789D02*
X9099734Y-16222313D01*
X9099734Y-16222313D02*
X9080686Y-16222313D01*
X9080686Y-16222313D02*
X9061639Y-16212789D01*
X9061639Y-16212789D02*
X9052115Y-16203265D01*
X9052115Y-16203265D02*
X9042591Y-16184217D01*
X9042591Y-16184217D02*
X9033067Y-16146122D01*
X9033067Y-16146122D02*
X9033067Y-16098503D01*
X9033067Y-16098503D02*
X9042591Y-16060408D01*
X9042591Y-16060408D02*
X9052115Y-16041360D01*
X9052115Y-16041360D02*
X9061639Y-16031836D01*
X9061639Y-16031836D02*
X9080686Y-16022313D01*
X9337829Y-16222313D02*
X9223543Y-16222313D01*
X9280686Y-16222313D02*
X9280686Y-16022313D01*
X9280686Y-16022313D02*
X9261639Y-16050884D01*
X9261639Y-16050884D02*
X9242591Y-16069932D01*
X9242591Y-16069932D02*
X9223543Y-16079455D01*
X9518782Y-16022313D02*
X9423543Y-16022313D01*
X9423543Y-16022313D02*
X9414020Y-16117551D01*
X9414020Y-16117551D02*
X9423543Y-16108027D01*
X9423543Y-16108027D02*
X9442591Y-16098503D01*
X9442591Y-16098503D02*
X9490210Y-16098503D01*
X9490210Y-16098503D02*
X9509258Y-16108027D01*
X9509258Y-16108027D02*
X9518782Y-16117551D01*
X9518782Y-16117551D02*
X9528305Y-16136598D01*
X9528305Y-16136598D02*
X9528305Y-16184217D01*
X9528305Y-16184217D02*
X9518782Y-16203265D01*
X9518782Y-16203265D02*
X9509258Y-16212789D01*
X9509258Y-16212789D02*
X9490210Y-16222313D01*
X9490210Y-16222313D02*
X9442591Y-16222313D01*
X9442591Y-16222313D02*
X9423543Y-16212789D01*
X9423543Y-16212789D02*
X9414020Y-16203265D01*
X9594972Y-16022313D02*
X9728305Y-16022313D01*
X9728305Y-16022313D02*
X9642591Y-16222313D01*
X9794972Y-16022313D02*
X9794972Y-16060408D01*
X9871163Y-16022313D02*
X9871163Y-16060408D01*
X10166401Y-16298503D02*
X10156877Y-16288979D01*
X10156877Y-16288979D02*
X10137829Y-16260408D01*
X10137829Y-16260408D02*
X10128305Y-16241360D01*
X10128305Y-16241360D02*
X10118782Y-16212789D01*
X10118782Y-16212789D02*
X10109258Y-16165170D01*
X10109258Y-16165170D02*
X10109258Y-16127074D01*
X10109258Y-16127074D02*
X10118782Y-16079455D01*
X10118782Y-16079455D02*
X10128305Y-16050884D01*
X10128305Y-16050884D02*
X10137829Y-16031836D01*
X10137829Y-16031836D02*
X10156877Y-16003265D01*
X10156877Y-16003265D02*
X10166401Y-15993741D01*
X10233067Y-16041360D02*
X10242591Y-16031836D01*
X10242591Y-16031836D02*
X10261639Y-16022313D01*
X10261639Y-16022313D02*
X10309258Y-16022313D01*
X10309258Y-16022313D02*
X10328305Y-16031836D01*
X10328305Y-16031836D02*
X10337829Y-16041360D01*
X10337829Y-16041360D02*
X10347353Y-16060408D01*
X10347353Y-16060408D02*
X10347353Y-16079455D01*
X10347353Y-16079455D02*
X10337829Y-16108027D01*
X10337829Y-16108027D02*
X10223544Y-16222313D01*
X10223544Y-16222313D02*
X10347353Y-16222313D01*
X10518782Y-16022313D02*
X10480686Y-16022313D01*
X10480686Y-16022313D02*
X10461639Y-16031836D01*
X10461639Y-16031836D02*
X10452115Y-16041360D01*
X10452115Y-16041360D02*
X10433067Y-16069932D01*
X10433067Y-16069932D02*
X10423544Y-16108027D01*
X10423544Y-16108027D02*
X10423544Y-16184217D01*
X10423544Y-16184217D02*
X10433067Y-16203265D01*
X10433067Y-16203265D02*
X10442591Y-16212789D01*
X10442591Y-16212789D02*
X10461639Y-16222313D01*
X10461639Y-16222313D02*
X10499734Y-16222313D01*
X10499734Y-16222313D02*
X10518782Y-16212789D01*
X10518782Y-16212789D02*
X10528305Y-16203265D01*
X10528305Y-16203265D02*
X10537829Y-16184217D01*
X10537829Y-16184217D02*
X10537829Y-16136598D01*
X10537829Y-16136598D02*
X10528305Y-16117551D01*
X10528305Y-16117551D02*
X10518782Y-16108027D01*
X10518782Y-16108027D02*
X10499734Y-16098503D01*
X10499734Y-16098503D02*
X10461639Y-16098503D01*
X10461639Y-16098503D02*
X10442591Y-16108027D01*
X10442591Y-16108027D02*
X10433067Y-16117551D01*
X10433067Y-16117551D02*
X10423544Y-16136598D01*
X10633067Y-16222313D02*
X10671163Y-16222313D01*
X10671163Y-16222313D02*
X10690210Y-16212789D01*
X10690210Y-16212789D02*
X10699734Y-16203265D01*
X10699734Y-16203265D02*
X10718782Y-16174693D01*
X10718782Y-16174693D02*
X10728305Y-16136598D01*
X10728305Y-16136598D02*
X10728305Y-16060408D01*
X10728305Y-16060408D02*
X10718782Y-16041360D01*
X10718782Y-16041360D02*
X10709258Y-16031836D01*
X10709258Y-16031836D02*
X10690210Y-16022313D01*
X10690210Y-16022313D02*
X10652115Y-16022313D01*
X10652115Y-16022313D02*
X10633067Y-16031836D01*
X10633067Y-16031836D02*
X10623544Y-16041360D01*
X10623544Y-16041360D02*
X10614020Y-16060408D01*
X10614020Y-16060408D02*
X10614020Y-16108027D01*
X10614020Y-16108027D02*
X10623544Y-16127074D01*
X10623544Y-16127074D02*
X10633067Y-16136598D01*
X10633067Y-16136598D02*
X10652115Y-16146122D01*
X10652115Y-16146122D02*
X10690210Y-16146122D01*
X10690210Y-16146122D02*
X10709258Y-16136598D01*
X10709258Y-16136598D02*
X10718782Y-16127074D01*
X10718782Y-16127074D02*
X10728305Y-16108027D01*
X10966401Y-16222313D02*
X10966401Y-16022313D01*
X11052115Y-16222313D02*
X11052115Y-16117551D01*
X11052115Y-16117551D02*
X11042591Y-16098503D01*
X11042591Y-16098503D02*
X11023544Y-16088979D01*
X11023544Y-16088979D02*
X10994972Y-16088979D01*
X10994972Y-16088979D02*
X10975925Y-16098503D01*
X10975925Y-16098503D02*
X10966401Y-16108027D01*
X11175925Y-16222313D02*
X11156877Y-16212789D01*
X11156877Y-16212789D02*
X11147353Y-16203265D01*
X11147353Y-16203265D02*
X11137829Y-16184217D01*
X11137829Y-16184217D02*
X11137829Y-16127074D01*
X11137829Y-16127074D02*
X11147353Y-16108027D01*
X11147353Y-16108027D02*
X11156877Y-16098503D01*
X11156877Y-16098503D02*
X11175925Y-16088979D01*
X11175925Y-16088979D02*
X11204496Y-16088979D01*
X11204496Y-16088979D02*
X11223544Y-16098503D01*
X11223544Y-16098503D02*
X11233067Y-16108027D01*
X11233067Y-16108027D02*
X11242591Y-16127074D01*
X11242591Y-16127074D02*
X11242591Y-16184217D01*
X11242591Y-16184217D02*
X11233067Y-16203265D01*
X11233067Y-16203265D02*
X11223544Y-16212789D01*
X11223544Y-16212789D02*
X11204496Y-16222313D01*
X11204496Y-16222313D02*
X11175925Y-16222313D01*
X11356877Y-16222313D02*
X11337829Y-16212789D01*
X11337829Y-16212789D02*
X11328305Y-16193741D01*
X11328305Y-16193741D02*
X11328305Y-16022313D01*
X11509258Y-16212789D02*
X11490210Y-16222313D01*
X11490210Y-16222313D02*
X11452115Y-16222313D01*
X11452115Y-16222313D02*
X11433067Y-16212789D01*
X11433067Y-16212789D02*
X11423544Y-16193741D01*
X11423544Y-16193741D02*
X11423544Y-16117551D01*
X11423544Y-16117551D02*
X11433067Y-16098503D01*
X11433067Y-16098503D02*
X11452115Y-16088979D01*
X11452115Y-16088979D02*
X11490210Y-16088979D01*
X11490210Y-16088979D02*
X11509258Y-16098503D01*
X11509258Y-16098503D02*
X11518782Y-16117551D01*
X11518782Y-16117551D02*
X11518782Y-16136598D01*
X11518782Y-16136598D02*
X11423544Y-16155646D01*
X11594972Y-16212789D02*
X11614020Y-16222313D01*
X11614020Y-16222313D02*
X11652115Y-16222313D01*
X11652115Y-16222313D02*
X11671163Y-16212789D01*
X11671163Y-16212789D02*
X11680686Y-16193741D01*
X11680686Y-16193741D02*
X11680686Y-16184217D01*
X11680686Y-16184217D02*
X11671163Y-16165170D01*
X11671163Y-16165170D02*
X11652115Y-16155646D01*
X11652115Y-16155646D02*
X11623544Y-16155646D01*
X11623544Y-16155646D02*
X11604496Y-16146122D01*
X11604496Y-16146122D02*
X11594972Y-16127074D01*
X11594972Y-16127074D02*
X11594972Y-16117551D01*
X11594972Y-16117551D02*
X11604496Y-16098503D01*
X11604496Y-16098503D02*
X11623544Y-16088979D01*
X11623544Y-16088979D02*
X11652115Y-16088979D01*
X11652115Y-16088979D02*
X11671163Y-16098503D01*
X11747353Y-16298503D02*
X11756877Y-16288979D01*
X11756877Y-16288979D02*
X11775925Y-16260408D01*
X11775925Y-16260408D02*
X11785448Y-16241360D01*
X11785448Y-16241360D02*
X11794972Y-16212789D01*
X11794972Y-16212789D02*
X11804496Y-16165170D01*
X11804496Y-16165170D02*
X11804496Y-16127074D01*
X11804496Y-16127074D02*
X11794972Y-16079455D01*
X11794972Y-16079455D02*
X11785448Y-16050884D01*
X11785448Y-16050884D02*
X11775925Y-16031836D01*
X11775925Y-16031836D02*
X11756877Y-16003265D01*
X11756877Y-16003265D02*
X11747353Y-15993741D01*
D13*
X6591338Y-16394829D02*
G75*
G03*
X6591338Y-16394829I-37500J0D01*
G01*
D11*
X6890210Y-16286313D02*
X6909257Y-16286313D01*
X6909257Y-16286313D02*
X6928305Y-16295836D01*
X6928305Y-16295836D02*
X6937829Y-16305360D01*
X6937829Y-16305360D02*
X6947353Y-16324408D01*
X6947353Y-16324408D02*
X6956876Y-16362503D01*
X6956876Y-16362503D02*
X6956876Y-16410122D01*
X6956876Y-16410122D02*
X6947353Y-16448217D01*
X6947353Y-16448217D02*
X6937829Y-16467265D01*
X6937829Y-16467265D02*
X6928305Y-16476789D01*
X6928305Y-16476789D02*
X6909257Y-16486313D01*
X6909257Y-16486313D02*
X6890210Y-16486313D01*
X6890210Y-16486313D02*
X6871162Y-16476789D01*
X6871162Y-16476789D02*
X6861638Y-16467265D01*
X6861638Y-16467265D02*
X6852115Y-16448217D01*
X6852115Y-16448217D02*
X6842591Y-16410122D01*
X6842591Y-16410122D02*
X6842591Y-16362503D01*
X6842591Y-16362503D02*
X6852115Y-16324408D01*
X6852115Y-16324408D02*
X6861638Y-16305360D01*
X6861638Y-16305360D02*
X6871162Y-16295836D01*
X6871162Y-16295836D02*
X6890210Y-16286313D01*
X7042591Y-16467265D02*
X7052115Y-16476789D01*
X7052115Y-16476789D02*
X7042591Y-16486313D01*
X7042591Y-16486313D02*
X7033067Y-16476789D01*
X7033067Y-16476789D02*
X7042591Y-16467265D01*
X7042591Y-16467265D02*
X7042591Y-16486313D01*
X7118781Y-16286313D02*
X7252115Y-16286313D01*
X7252115Y-16286313D02*
X7166400Y-16486313D01*
X7423543Y-16286313D02*
X7328305Y-16286313D01*
X7328305Y-16286313D02*
X7318781Y-16381551D01*
X7318781Y-16381551D02*
X7328305Y-16372027D01*
X7328305Y-16372027D02*
X7347353Y-16362503D01*
X7347353Y-16362503D02*
X7394972Y-16362503D01*
X7394972Y-16362503D02*
X7414019Y-16372027D01*
X7414019Y-16372027D02*
X7423543Y-16381551D01*
X7423543Y-16381551D02*
X7433067Y-16400598D01*
X7433067Y-16400598D02*
X7433067Y-16448217D01*
X7433067Y-16448217D02*
X7423543Y-16467265D01*
X7423543Y-16467265D02*
X7414019Y-16476789D01*
X7414019Y-16476789D02*
X7394972Y-16486313D01*
X7394972Y-16486313D02*
X7347353Y-16486313D01*
X7347353Y-16486313D02*
X7328305Y-16476789D01*
X7328305Y-16476789D02*
X7318781Y-16467265D01*
X7556876Y-16286313D02*
X7575924Y-16286313D01*
X7575924Y-16286313D02*
X7594972Y-16295836D01*
X7594972Y-16295836D02*
X7604496Y-16305360D01*
X7604496Y-16305360D02*
X7614019Y-16324408D01*
X7614019Y-16324408D02*
X7623543Y-16362503D01*
X7623543Y-16362503D02*
X7623543Y-16410122D01*
X7623543Y-16410122D02*
X7614019Y-16448217D01*
X7614019Y-16448217D02*
X7604496Y-16467265D01*
X7604496Y-16467265D02*
X7594972Y-16476789D01*
X7594972Y-16476789D02*
X7575924Y-16486313D01*
X7575924Y-16486313D02*
X7556876Y-16486313D01*
X7556876Y-16486313D02*
X7537829Y-16476789D01*
X7537829Y-16476789D02*
X7528305Y-16467265D01*
X7528305Y-16467265D02*
X7518781Y-16448217D01*
X7518781Y-16448217D02*
X7509257Y-16410122D01*
X7509257Y-16410122D02*
X7509257Y-16362503D01*
X7509257Y-16362503D02*
X7518781Y-16324408D01*
X7518781Y-16324408D02*
X7528305Y-16305360D01*
X7528305Y-16305360D02*
X7537829Y-16295836D01*
X7537829Y-16295836D02*
X7556876Y-16286313D01*
X7709257Y-16486313D02*
X7709257Y-16352979D01*
X7709257Y-16372027D02*
X7718781Y-16362503D01*
X7718781Y-16362503D02*
X7737829Y-16352979D01*
X7737829Y-16352979D02*
X7766400Y-16352979D01*
X7766400Y-16352979D02*
X7785448Y-16362503D01*
X7785448Y-16362503D02*
X7794972Y-16381551D01*
X7794972Y-16381551D02*
X7794972Y-16486313D01*
X7794972Y-16381551D02*
X7804496Y-16362503D01*
X7804496Y-16362503D02*
X7823543Y-16352979D01*
X7823543Y-16352979D02*
X7852115Y-16352979D01*
X7852115Y-16352979D02*
X7871162Y-16362503D01*
X7871162Y-16362503D02*
X7880686Y-16381551D01*
X7880686Y-16381551D02*
X7880686Y-16486313D01*
X7975924Y-16486313D02*
X7975924Y-16352979D01*
X7975924Y-16372027D02*
X7985448Y-16362503D01*
X7985448Y-16362503D02*
X8004496Y-16352979D01*
X8004496Y-16352979D02*
X8033067Y-16352979D01*
X8033067Y-16352979D02*
X8052115Y-16362503D01*
X8052115Y-16362503D02*
X8061638Y-16381551D01*
X8061638Y-16381551D02*
X8061638Y-16486313D01*
X8061638Y-16381551D02*
X8071162Y-16362503D01*
X8071162Y-16362503D02*
X8090210Y-16352979D01*
X8090210Y-16352979D02*
X8118781Y-16352979D01*
X8118781Y-16352979D02*
X8137829Y-16362503D01*
X8137829Y-16362503D02*
X8147353Y-16381551D01*
X8147353Y-16381551D02*
X8147353Y-16486313D01*
X8537829Y-16276789D02*
X8366400Y-16533932D01*
X8794972Y-16286313D02*
X8814020Y-16286313D01*
X8814020Y-16286313D02*
X8833067Y-16295836D01*
X8833067Y-16295836D02*
X8842591Y-16305360D01*
X8842591Y-16305360D02*
X8852115Y-16324408D01*
X8852115Y-16324408D02*
X8861639Y-16362503D01*
X8861639Y-16362503D02*
X8861639Y-16410122D01*
X8861639Y-16410122D02*
X8852115Y-16448217D01*
X8852115Y-16448217D02*
X8842591Y-16467265D01*
X8842591Y-16467265D02*
X8833067Y-16476789D01*
X8833067Y-16476789D02*
X8814020Y-16486313D01*
X8814020Y-16486313D02*
X8794972Y-16486313D01*
X8794972Y-16486313D02*
X8775924Y-16476789D01*
X8775924Y-16476789D02*
X8766401Y-16467265D01*
X8766401Y-16467265D02*
X8756877Y-16448217D01*
X8756877Y-16448217D02*
X8747353Y-16410122D01*
X8747353Y-16410122D02*
X8747353Y-16362503D01*
X8747353Y-16362503D02*
X8756877Y-16324408D01*
X8756877Y-16324408D02*
X8766401Y-16305360D01*
X8766401Y-16305360D02*
X8775924Y-16295836D01*
X8775924Y-16295836D02*
X8794972Y-16286313D01*
X8947353Y-16467265D02*
X8956877Y-16476789D01*
X8956877Y-16476789D02*
X8947353Y-16486313D01*
X8947353Y-16486313D02*
X8937829Y-16476789D01*
X8937829Y-16476789D02*
X8947353Y-16467265D01*
X8947353Y-16467265D02*
X8947353Y-16486313D01*
X9080686Y-16286313D02*
X9099734Y-16286313D01*
X9099734Y-16286313D02*
X9118782Y-16295836D01*
X9118782Y-16295836D02*
X9128305Y-16305360D01*
X9128305Y-16305360D02*
X9137829Y-16324408D01*
X9137829Y-16324408D02*
X9147353Y-16362503D01*
X9147353Y-16362503D02*
X9147353Y-16410122D01*
X9147353Y-16410122D02*
X9137829Y-16448217D01*
X9137829Y-16448217D02*
X9128305Y-16467265D01*
X9128305Y-16467265D02*
X9118782Y-16476789D01*
X9118782Y-16476789D02*
X9099734Y-16486313D01*
X9099734Y-16486313D02*
X9080686Y-16486313D01*
X9080686Y-16486313D02*
X9061639Y-16476789D01*
X9061639Y-16476789D02*
X9052115Y-16467265D01*
X9052115Y-16467265D02*
X9042591Y-16448217D01*
X9042591Y-16448217D02*
X9033067Y-16410122D01*
X9033067Y-16410122D02*
X9033067Y-16362503D01*
X9033067Y-16362503D02*
X9042591Y-16324408D01*
X9042591Y-16324408D02*
X9052115Y-16305360D01*
X9052115Y-16305360D02*
X9061639Y-16295836D01*
X9061639Y-16295836D02*
X9080686Y-16286313D01*
X9223543Y-16305360D02*
X9233067Y-16295836D01*
X9233067Y-16295836D02*
X9252115Y-16286313D01*
X9252115Y-16286313D02*
X9299734Y-16286313D01*
X9299734Y-16286313D02*
X9318782Y-16295836D01*
X9318782Y-16295836D02*
X9328305Y-16305360D01*
X9328305Y-16305360D02*
X9337829Y-16324408D01*
X9337829Y-16324408D02*
X9337829Y-16343455D01*
X9337829Y-16343455D02*
X9328305Y-16372027D01*
X9328305Y-16372027D02*
X9214020Y-16486313D01*
X9214020Y-16486313D02*
X9337829Y-16486313D01*
X9433067Y-16486313D02*
X9471162Y-16486313D01*
X9471162Y-16486313D02*
X9490210Y-16476789D01*
X9490210Y-16476789D02*
X9499734Y-16467265D01*
X9499734Y-16467265D02*
X9518782Y-16438693D01*
X9518782Y-16438693D02*
X9528305Y-16400598D01*
X9528305Y-16400598D02*
X9528305Y-16324408D01*
X9528305Y-16324408D02*
X9518782Y-16305360D01*
X9518782Y-16305360D02*
X9509258Y-16295836D01*
X9509258Y-16295836D02*
X9490210Y-16286313D01*
X9490210Y-16286313D02*
X9452115Y-16286313D01*
X9452115Y-16286313D02*
X9433067Y-16295836D01*
X9433067Y-16295836D02*
X9423543Y-16305360D01*
X9423543Y-16305360D02*
X9414020Y-16324408D01*
X9414020Y-16324408D02*
X9414020Y-16372027D01*
X9414020Y-16372027D02*
X9423543Y-16391074D01*
X9423543Y-16391074D02*
X9433067Y-16400598D01*
X9433067Y-16400598D02*
X9452115Y-16410122D01*
X9452115Y-16410122D02*
X9490210Y-16410122D01*
X9490210Y-16410122D02*
X9509258Y-16400598D01*
X9509258Y-16400598D02*
X9518782Y-16391074D01*
X9518782Y-16391074D02*
X9528305Y-16372027D01*
X9709258Y-16286313D02*
X9614020Y-16286313D01*
X9614020Y-16286313D02*
X9604496Y-16381551D01*
X9604496Y-16381551D02*
X9614020Y-16372027D01*
X9614020Y-16372027D02*
X9633067Y-16362503D01*
X9633067Y-16362503D02*
X9680686Y-16362503D01*
X9680686Y-16362503D02*
X9699734Y-16372027D01*
X9699734Y-16372027D02*
X9709258Y-16381551D01*
X9709258Y-16381551D02*
X9718782Y-16400598D01*
X9718782Y-16400598D02*
X9718782Y-16448217D01*
X9718782Y-16448217D02*
X9709258Y-16467265D01*
X9709258Y-16467265D02*
X9699734Y-16476789D01*
X9699734Y-16476789D02*
X9680686Y-16486313D01*
X9680686Y-16486313D02*
X9633067Y-16486313D01*
X9633067Y-16486313D02*
X9614020Y-16476789D01*
X9614020Y-16476789D02*
X9604496Y-16467265D01*
X9794972Y-16286313D02*
X9794972Y-16324408D01*
X9871163Y-16286313D02*
X9871163Y-16324408D01*
X10166401Y-16562503D02*
X10156877Y-16552979D01*
X10156877Y-16552979D02*
X10137829Y-16524408D01*
X10137829Y-16524408D02*
X10128305Y-16505360D01*
X10128305Y-16505360D02*
X10118782Y-16476789D01*
X10118782Y-16476789D02*
X10109258Y-16429170D01*
X10109258Y-16429170D02*
X10109258Y-16391074D01*
X10109258Y-16391074D02*
X10118782Y-16343455D01*
X10118782Y-16343455D02*
X10128305Y-16314884D01*
X10128305Y-16314884D02*
X10137829Y-16295836D01*
X10137829Y-16295836D02*
X10156877Y-16267265D01*
X10156877Y-16267265D02*
X10166401Y-16257741D01*
X10233067Y-16305360D02*
X10242591Y-16295836D01*
X10242591Y-16295836D02*
X10261639Y-16286313D01*
X10261639Y-16286313D02*
X10309258Y-16286313D01*
X10309258Y-16286313D02*
X10328305Y-16295836D01*
X10328305Y-16295836D02*
X10337829Y-16305360D01*
X10337829Y-16305360D02*
X10347353Y-16324408D01*
X10347353Y-16324408D02*
X10347353Y-16343455D01*
X10347353Y-16343455D02*
X10337829Y-16372027D01*
X10337829Y-16372027D02*
X10223544Y-16486313D01*
X10223544Y-16486313D02*
X10347353Y-16486313D01*
X10585448Y-16486313D02*
X10585448Y-16286313D01*
X10671163Y-16486313D02*
X10671163Y-16381551D01*
X10671163Y-16381551D02*
X10661639Y-16362503D01*
X10661639Y-16362503D02*
X10642591Y-16352979D01*
X10642591Y-16352979D02*
X10614020Y-16352979D01*
X10614020Y-16352979D02*
X10594972Y-16362503D01*
X10594972Y-16362503D02*
X10585448Y-16372027D01*
X10794972Y-16486313D02*
X10775925Y-16476789D01*
X10775925Y-16476789D02*
X10766401Y-16467265D01*
X10766401Y-16467265D02*
X10756877Y-16448217D01*
X10756877Y-16448217D02*
X10756877Y-16391074D01*
X10756877Y-16391074D02*
X10766401Y-16372027D01*
X10766401Y-16372027D02*
X10775925Y-16362503D01*
X10775925Y-16362503D02*
X10794972Y-16352979D01*
X10794972Y-16352979D02*
X10823544Y-16352979D01*
X10823544Y-16352979D02*
X10842591Y-16362503D01*
X10842591Y-16362503D02*
X10852115Y-16372027D01*
X10852115Y-16372027D02*
X10861639Y-16391074D01*
X10861639Y-16391074D02*
X10861639Y-16448217D01*
X10861639Y-16448217D02*
X10852115Y-16467265D01*
X10852115Y-16467265D02*
X10842591Y-16476789D01*
X10842591Y-16476789D02*
X10823544Y-16486313D01*
X10823544Y-16486313D02*
X10794972Y-16486313D01*
X10975925Y-16486313D02*
X10956877Y-16476789D01*
X10956877Y-16476789D02*
X10947353Y-16457741D01*
X10947353Y-16457741D02*
X10947353Y-16286313D01*
X11128306Y-16476789D02*
X11109258Y-16486313D01*
X11109258Y-16486313D02*
X11071163Y-16486313D01*
X11071163Y-16486313D02*
X11052115Y-16476789D01*
X11052115Y-16476789D02*
X11042591Y-16457741D01*
X11042591Y-16457741D02*
X11042591Y-16381551D01*
X11042591Y-16381551D02*
X11052115Y-16362503D01*
X11052115Y-16362503D02*
X11071163Y-16352979D01*
X11071163Y-16352979D02*
X11109258Y-16352979D01*
X11109258Y-16352979D02*
X11128306Y-16362503D01*
X11128306Y-16362503D02*
X11137829Y-16381551D01*
X11137829Y-16381551D02*
X11137829Y-16400598D01*
X11137829Y-16400598D02*
X11042591Y-16419646D01*
X11214020Y-16476789D02*
X11233067Y-16486313D01*
X11233067Y-16486313D02*
X11271163Y-16486313D01*
X11271163Y-16486313D02*
X11290210Y-16476789D01*
X11290210Y-16476789D02*
X11299734Y-16457741D01*
X11299734Y-16457741D02*
X11299734Y-16448217D01*
X11299734Y-16448217D02*
X11290210Y-16429170D01*
X11290210Y-16429170D02*
X11271163Y-16419646D01*
X11271163Y-16419646D02*
X11242591Y-16419646D01*
X11242591Y-16419646D02*
X11223544Y-16410122D01*
X11223544Y-16410122D02*
X11214020Y-16391074D01*
X11214020Y-16391074D02*
X11214020Y-16381551D01*
X11214020Y-16381551D02*
X11223544Y-16362503D01*
X11223544Y-16362503D02*
X11242591Y-16352979D01*
X11242591Y-16352979D02*
X11271163Y-16352979D01*
X11271163Y-16352979D02*
X11290210Y-16362503D01*
X11366401Y-16562503D02*
X11375925Y-16552979D01*
X11375925Y-16552979D02*
X11394972Y-16524408D01*
X11394972Y-16524408D02*
X11404496Y-16505360D01*
X11404496Y-16505360D02*
X11414020Y-16476789D01*
X11414020Y-16476789D02*
X11423544Y-16429170D01*
X11423544Y-16429170D02*
X11423544Y-16391074D01*
X11423544Y-16391074D02*
X11414020Y-16343455D01*
X11414020Y-16343455D02*
X11404496Y-16314884D01*
X11404496Y-16314884D02*
X11394972Y-16295836D01*
X11394972Y-16295836D02*
X11375925Y-16267265D01*
X11375925Y-16267265D02*
X11366401Y-16257741D01*
D14*
X6550698Y-16618189D02*
X6550698Y-16699469D01*
X6510058Y-16658829D02*
X6591338Y-16658829D01*
D11*
X6890210Y-16550313D02*
X6909257Y-16550313D01*
X6909257Y-16550313D02*
X6928305Y-16559836D01*
X6928305Y-16559836D02*
X6937829Y-16569360D01*
X6937829Y-16569360D02*
X6947353Y-16588408D01*
X6947353Y-16588408D02*
X6956876Y-16626503D01*
X6956876Y-16626503D02*
X6956876Y-16674122D01*
X6956876Y-16674122D02*
X6947353Y-16712217D01*
X6947353Y-16712217D02*
X6937829Y-16731265D01*
X6937829Y-16731265D02*
X6928305Y-16740789D01*
X6928305Y-16740789D02*
X6909257Y-16750313D01*
X6909257Y-16750313D02*
X6890210Y-16750313D01*
X6890210Y-16750313D02*
X6871162Y-16740789D01*
X6871162Y-16740789D02*
X6861638Y-16731265D01*
X6861638Y-16731265D02*
X6852115Y-16712217D01*
X6852115Y-16712217D02*
X6842591Y-16674122D01*
X6842591Y-16674122D02*
X6842591Y-16626503D01*
X6842591Y-16626503D02*
X6852115Y-16588408D01*
X6852115Y-16588408D02*
X6861638Y-16569360D01*
X6861638Y-16569360D02*
X6871162Y-16559836D01*
X6871162Y-16559836D02*
X6890210Y-16550313D01*
X7042591Y-16731265D02*
X7052115Y-16740789D01*
X7052115Y-16740789D02*
X7042591Y-16750313D01*
X7042591Y-16750313D02*
X7033067Y-16740789D01*
X7033067Y-16740789D02*
X7042591Y-16731265D01*
X7042591Y-16731265D02*
X7042591Y-16750313D01*
X7166400Y-16636027D02*
X7147353Y-16626503D01*
X7147353Y-16626503D02*
X7137829Y-16616979D01*
X7137829Y-16616979D02*
X7128305Y-16597932D01*
X7128305Y-16597932D02*
X7128305Y-16588408D01*
X7128305Y-16588408D02*
X7137829Y-16569360D01*
X7137829Y-16569360D02*
X7147353Y-16559836D01*
X7147353Y-16559836D02*
X7166400Y-16550313D01*
X7166400Y-16550313D02*
X7204496Y-16550313D01*
X7204496Y-16550313D02*
X7223543Y-16559836D01*
X7223543Y-16559836D02*
X7233067Y-16569360D01*
X7233067Y-16569360D02*
X7242591Y-16588408D01*
X7242591Y-16588408D02*
X7242591Y-16597932D01*
X7242591Y-16597932D02*
X7233067Y-16616979D01*
X7233067Y-16616979D02*
X7223543Y-16626503D01*
X7223543Y-16626503D02*
X7204496Y-16636027D01*
X7204496Y-16636027D02*
X7166400Y-16636027D01*
X7166400Y-16636027D02*
X7147353Y-16645551D01*
X7147353Y-16645551D02*
X7137829Y-16655074D01*
X7137829Y-16655074D02*
X7128305Y-16674122D01*
X7128305Y-16674122D02*
X7128305Y-16712217D01*
X7128305Y-16712217D02*
X7137829Y-16731265D01*
X7137829Y-16731265D02*
X7147353Y-16740789D01*
X7147353Y-16740789D02*
X7166400Y-16750313D01*
X7166400Y-16750313D02*
X7204496Y-16750313D01*
X7204496Y-16750313D02*
X7223543Y-16740789D01*
X7223543Y-16740789D02*
X7233067Y-16731265D01*
X7233067Y-16731265D02*
X7242591Y-16712217D01*
X7242591Y-16712217D02*
X7242591Y-16674122D01*
X7242591Y-16674122D02*
X7233067Y-16655074D01*
X7233067Y-16655074D02*
X7223543Y-16645551D01*
X7223543Y-16645551D02*
X7204496Y-16636027D01*
X7433067Y-16750313D02*
X7318781Y-16750313D01*
X7375924Y-16750313D02*
X7375924Y-16550313D01*
X7375924Y-16550313D02*
X7356876Y-16578884D01*
X7356876Y-16578884D02*
X7337829Y-16597932D01*
X7337829Y-16597932D02*
X7318781Y-16607455D01*
X7499734Y-16550313D02*
X7623543Y-16550313D01*
X7623543Y-16550313D02*
X7556876Y-16626503D01*
X7556876Y-16626503D02*
X7585448Y-16626503D01*
X7585448Y-16626503D02*
X7604496Y-16636027D01*
X7604496Y-16636027D02*
X7614019Y-16645551D01*
X7614019Y-16645551D02*
X7623543Y-16664598D01*
X7623543Y-16664598D02*
X7623543Y-16712217D01*
X7623543Y-16712217D02*
X7614019Y-16731265D01*
X7614019Y-16731265D02*
X7604496Y-16740789D01*
X7604496Y-16740789D02*
X7585448Y-16750313D01*
X7585448Y-16750313D02*
X7528305Y-16750313D01*
X7528305Y-16750313D02*
X7509257Y-16740789D01*
X7509257Y-16740789D02*
X7499734Y-16731265D01*
X7709257Y-16750313D02*
X7709257Y-16616979D01*
X7709257Y-16636027D02*
X7718781Y-16626503D01*
X7718781Y-16626503D02*
X7737829Y-16616979D01*
X7737829Y-16616979D02*
X7766400Y-16616979D01*
X7766400Y-16616979D02*
X7785448Y-16626503D01*
X7785448Y-16626503D02*
X7794972Y-16645551D01*
X7794972Y-16645551D02*
X7794972Y-16750313D01*
X7794972Y-16645551D02*
X7804496Y-16626503D01*
X7804496Y-16626503D02*
X7823543Y-16616979D01*
X7823543Y-16616979D02*
X7852115Y-16616979D01*
X7852115Y-16616979D02*
X7871162Y-16626503D01*
X7871162Y-16626503D02*
X7880686Y-16645551D01*
X7880686Y-16645551D02*
X7880686Y-16750313D01*
X7975924Y-16750313D02*
X7975924Y-16616979D01*
X7975924Y-16636027D02*
X7985448Y-16626503D01*
X7985448Y-16626503D02*
X8004496Y-16616979D01*
X8004496Y-16616979D02*
X8033067Y-16616979D01*
X8033067Y-16616979D02*
X8052115Y-16626503D01*
X8052115Y-16626503D02*
X8061638Y-16645551D01*
X8061638Y-16645551D02*
X8061638Y-16750313D01*
X8061638Y-16645551D02*
X8071162Y-16626503D01*
X8071162Y-16626503D02*
X8090210Y-16616979D01*
X8090210Y-16616979D02*
X8118781Y-16616979D01*
X8118781Y-16616979D02*
X8137829Y-16626503D01*
X8137829Y-16626503D02*
X8147353Y-16645551D01*
X8147353Y-16645551D02*
X8147353Y-16750313D01*
X8537829Y-16540789D02*
X8366400Y-16797932D01*
X8794972Y-16550313D02*
X8814020Y-16550313D01*
X8814020Y-16550313D02*
X8833067Y-16559836D01*
X8833067Y-16559836D02*
X8842591Y-16569360D01*
X8842591Y-16569360D02*
X8852115Y-16588408D01*
X8852115Y-16588408D02*
X8861639Y-16626503D01*
X8861639Y-16626503D02*
X8861639Y-16674122D01*
X8861639Y-16674122D02*
X8852115Y-16712217D01*
X8852115Y-16712217D02*
X8842591Y-16731265D01*
X8842591Y-16731265D02*
X8833067Y-16740789D01*
X8833067Y-16740789D02*
X8814020Y-16750313D01*
X8814020Y-16750313D02*
X8794972Y-16750313D01*
X8794972Y-16750313D02*
X8775924Y-16740789D01*
X8775924Y-16740789D02*
X8766401Y-16731265D01*
X8766401Y-16731265D02*
X8756877Y-16712217D01*
X8756877Y-16712217D02*
X8747353Y-16674122D01*
X8747353Y-16674122D02*
X8747353Y-16626503D01*
X8747353Y-16626503D02*
X8756877Y-16588408D01*
X8756877Y-16588408D02*
X8766401Y-16569360D01*
X8766401Y-16569360D02*
X8775924Y-16559836D01*
X8775924Y-16559836D02*
X8794972Y-16550313D01*
X8947353Y-16731265D02*
X8956877Y-16740789D01*
X8956877Y-16740789D02*
X8947353Y-16750313D01*
X8947353Y-16750313D02*
X8937829Y-16740789D01*
X8937829Y-16740789D02*
X8947353Y-16731265D01*
X8947353Y-16731265D02*
X8947353Y-16750313D01*
X9080686Y-16550313D02*
X9099734Y-16550313D01*
X9099734Y-16550313D02*
X9118782Y-16559836D01*
X9118782Y-16559836D02*
X9128305Y-16569360D01*
X9128305Y-16569360D02*
X9137829Y-16588408D01*
X9137829Y-16588408D02*
X9147353Y-16626503D01*
X9147353Y-16626503D02*
X9147353Y-16674122D01*
X9147353Y-16674122D02*
X9137829Y-16712217D01*
X9137829Y-16712217D02*
X9128305Y-16731265D01*
X9128305Y-16731265D02*
X9118782Y-16740789D01*
X9118782Y-16740789D02*
X9099734Y-16750313D01*
X9099734Y-16750313D02*
X9080686Y-16750313D01*
X9080686Y-16750313D02*
X9061639Y-16740789D01*
X9061639Y-16740789D02*
X9052115Y-16731265D01*
X9052115Y-16731265D02*
X9042591Y-16712217D01*
X9042591Y-16712217D02*
X9033067Y-16674122D01*
X9033067Y-16674122D02*
X9033067Y-16626503D01*
X9033067Y-16626503D02*
X9042591Y-16588408D01*
X9042591Y-16588408D02*
X9052115Y-16569360D01*
X9052115Y-16569360D02*
X9061639Y-16559836D01*
X9061639Y-16559836D02*
X9080686Y-16550313D01*
X9214020Y-16550313D02*
X9337829Y-16550313D01*
X9337829Y-16550313D02*
X9271162Y-16626503D01*
X9271162Y-16626503D02*
X9299734Y-16626503D01*
X9299734Y-16626503D02*
X9318782Y-16636027D01*
X9318782Y-16636027D02*
X9328305Y-16645551D01*
X9328305Y-16645551D02*
X9337829Y-16664598D01*
X9337829Y-16664598D02*
X9337829Y-16712217D01*
X9337829Y-16712217D02*
X9328305Y-16731265D01*
X9328305Y-16731265D02*
X9318782Y-16740789D01*
X9318782Y-16740789D02*
X9299734Y-16750313D01*
X9299734Y-16750313D02*
X9242591Y-16750313D01*
X9242591Y-16750313D02*
X9223543Y-16740789D01*
X9223543Y-16740789D02*
X9214020Y-16731265D01*
X9414020Y-16569360D02*
X9423543Y-16559836D01*
X9423543Y-16559836D02*
X9442591Y-16550313D01*
X9442591Y-16550313D02*
X9490210Y-16550313D01*
X9490210Y-16550313D02*
X9509258Y-16559836D01*
X9509258Y-16559836D02*
X9518782Y-16569360D01*
X9518782Y-16569360D02*
X9528305Y-16588408D01*
X9528305Y-16588408D02*
X9528305Y-16607455D01*
X9528305Y-16607455D02*
X9518782Y-16636027D01*
X9518782Y-16636027D02*
X9404496Y-16750313D01*
X9404496Y-16750313D02*
X9528305Y-16750313D01*
X9652115Y-16550313D02*
X9671163Y-16550313D01*
X9671163Y-16550313D02*
X9690210Y-16559836D01*
X9690210Y-16559836D02*
X9699734Y-16569360D01*
X9699734Y-16569360D02*
X9709258Y-16588408D01*
X9709258Y-16588408D02*
X9718782Y-16626503D01*
X9718782Y-16626503D02*
X9718782Y-16674122D01*
X9718782Y-16674122D02*
X9709258Y-16712217D01*
X9709258Y-16712217D02*
X9699734Y-16731265D01*
X9699734Y-16731265D02*
X9690210Y-16740789D01*
X9690210Y-16740789D02*
X9671163Y-16750313D01*
X9671163Y-16750313D02*
X9652115Y-16750313D01*
X9652115Y-16750313D02*
X9633067Y-16740789D01*
X9633067Y-16740789D02*
X9623543Y-16731265D01*
X9623543Y-16731265D02*
X9614020Y-16712217D01*
X9614020Y-16712217D02*
X9604496Y-16674122D01*
X9604496Y-16674122D02*
X9604496Y-16626503D01*
X9604496Y-16626503D02*
X9614020Y-16588408D01*
X9614020Y-16588408D02*
X9623543Y-16569360D01*
X9623543Y-16569360D02*
X9633067Y-16559836D01*
X9633067Y-16559836D02*
X9652115Y-16550313D01*
X9794972Y-16550313D02*
X9794972Y-16588408D01*
X9871163Y-16550313D02*
X9871163Y-16588408D01*
X10166401Y-16826503D02*
X10156877Y-16816979D01*
X10156877Y-16816979D02*
X10137829Y-16788408D01*
X10137829Y-16788408D02*
X10128305Y-16769360D01*
X10128305Y-16769360D02*
X10118782Y-16740789D01*
X10118782Y-16740789D02*
X10109258Y-16693170D01*
X10109258Y-16693170D02*
X10109258Y-16655074D01*
X10109258Y-16655074D02*
X10118782Y-16607455D01*
X10118782Y-16607455D02*
X10128305Y-16578884D01*
X10128305Y-16578884D02*
X10137829Y-16559836D01*
X10137829Y-16559836D02*
X10156877Y-16531265D01*
X10156877Y-16531265D02*
X10166401Y-16521741D01*
X10337829Y-16550313D02*
X10242591Y-16550313D01*
X10242591Y-16550313D02*
X10233067Y-16645551D01*
X10233067Y-16645551D02*
X10242591Y-16636027D01*
X10242591Y-16636027D02*
X10261639Y-16626503D01*
X10261639Y-16626503D02*
X10309258Y-16626503D01*
X10309258Y-16626503D02*
X10328305Y-16636027D01*
X10328305Y-16636027D02*
X10337829Y-16645551D01*
X10337829Y-16645551D02*
X10347353Y-16664598D01*
X10347353Y-16664598D02*
X10347353Y-16712217D01*
X10347353Y-16712217D02*
X10337829Y-16731265D01*
X10337829Y-16731265D02*
X10328305Y-16740789D01*
X10328305Y-16740789D02*
X10309258Y-16750313D01*
X10309258Y-16750313D02*
X10261639Y-16750313D01*
X10261639Y-16750313D02*
X10242591Y-16740789D01*
X10242591Y-16740789D02*
X10233067Y-16731265D01*
X10423544Y-16569360D02*
X10433067Y-16559836D01*
X10433067Y-16559836D02*
X10452115Y-16550313D01*
X10452115Y-16550313D02*
X10499734Y-16550313D01*
X10499734Y-16550313D02*
X10518782Y-16559836D01*
X10518782Y-16559836D02*
X10528305Y-16569360D01*
X10528305Y-16569360D02*
X10537829Y-16588408D01*
X10537829Y-16588408D02*
X10537829Y-16607455D01*
X10537829Y-16607455D02*
X10528305Y-16636027D01*
X10528305Y-16636027D02*
X10414020Y-16750313D01*
X10414020Y-16750313D02*
X10537829Y-16750313D01*
X10775925Y-16750313D02*
X10775925Y-16550313D01*
X10861639Y-16750313D02*
X10861639Y-16645551D01*
X10861639Y-16645551D02*
X10852115Y-16626503D01*
X10852115Y-16626503D02*
X10833067Y-16616979D01*
X10833067Y-16616979D02*
X10804496Y-16616979D01*
X10804496Y-16616979D02*
X10785448Y-16626503D01*
X10785448Y-16626503D02*
X10775925Y-16636027D01*
X10985448Y-16750313D02*
X10966401Y-16740789D01*
X10966401Y-16740789D02*
X10956877Y-16731265D01*
X10956877Y-16731265D02*
X10947353Y-16712217D01*
X10947353Y-16712217D02*
X10947353Y-16655074D01*
X10947353Y-16655074D02*
X10956877Y-16636027D01*
X10956877Y-16636027D02*
X10966401Y-16626503D01*
X10966401Y-16626503D02*
X10985448Y-16616979D01*
X10985448Y-16616979D02*
X11014020Y-16616979D01*
X11014020Y-16616979D02*
X11033067Y-16626503D01*
X11033067Y-16626503D02*
X11042591Y-16636027D01*
X11042591Y-16636027D02*
X11052115Y-16655074D01*
X11052115Y-16655074D02*
X11052115Y-16712217D01*
X11052115Y-16712217D02*
X11042591Y-16731265D01*
X11042591Y-16731265D02*
X11033067Y-16740789D01*
X11033067Y-16740789D02*
X11014020Y-16750313D01*
X11014020Y-16750313D02*
X10985448Y-16750313D01*
X11166401Y-16750313D02*
X11147353Y-16740789D01*
X11147353Y-16740789D02*
X11137829Y-16721741D01*
X11137829Y-16721741D02*
X11137829Y-16550313D01*
X11318782Y-16740789D02*
X11299734Y-16750313D01*
X11299734Y-16750313D02*
X11261639Y-16750313D01*
X11261639Y-16750313D02*
X11242591Y-16740789D01*
X11242591Y-16740789D02*
X11233067Y-16721741D01*
X11233067Y-16721741D02*
X11233067Y-16645551D01*
X11233067Y-16645551D02*
X11242591Y-16626503D01*
X11242591Y-16626503D02*
X11261639Y-16616979D01*
X11261639Y-16616979D02*
X11299734Y-16616979D01*
X11299734Y-16616979D02*
X11318782Y-16626503D01*
X11318782Y-16626503D02*
X11328305Y-16645551D01*
X11328305Y-16645551D02*
X11328305Y-16664598D01*
X11328305Y-16664598D02*
X11233067Y-16683646D01*
X11404496Y-16740789D02*
X11423544Y-16750313D01*
X11423544Y-16750313D02*
X11461639Y-16750313D01*
X11461639Y-16750313D02*
X11480686Y-16740789D01*
X11480686Y-16740789D02*
X11490210Y-16721741D01*
X11490210Y-16721741D02*
X11490210Y-16712217D01*
X11490210Y-16712217D02*
X11480686Y-16693170D01*
X11480686Y-16693170D02*
X11461639Y-16683646D01*
X11461639Y-16683646D02*
X11433067Y-16683646D01*
X11433067Y-16683646D02*
X11414020Y-16674122D01*
X11414020Y-16674122D02*
X11404496Y-16655074D01*
X11404496Y-16655074D02*
X11404496Y-16645551D01*
X11404496Y-16645551D02*
X11414020Y-16626503D01*
X11414020Y-16626503D02*
X11433067Y-16616979D01*
X11433067Y-16616979D02*
X11461639Y-16616979D01*
X11461639Y-16616979D02*
X11480686Y-16626503D01*
X11556877Y-16826503D02*
X11566401Y-16816979D01*
X11566401Y-16816979D02*
X11585448Y-16788408D01*
X11585448Y-16788408D02*
X11594972Y-16769360D01*
X11594972Y-16769360D02*
X11604496Y-16740789D01*
X11604496Y-16740789D02*
X11614020Y-16693170D01*
X11614020Y-16693170D02*
X11614020Y-16655074D01*
X11614020Y-16655074D02*
X11604496Y-16607455D01*
X11604496Y-16607455D02*
X11594972Y-16578884D01*
X11594972Y-16578884D02*
X11585448Y-16559836D01*
X11585448Y-16559836D02*
X11566401Y-16531265D01*
X11566401Y-16531265D02*
X11556877Y-16521741D01*
D15*
X6572300Y-16968791D02*
X6572300Y-16876866D01*
X6480375Y-16876866D01*
X6480375Y-16968791D01*
X6572300Y-16968791D01*
D11*
X6956876Y-17014313D02*
X6842591Y-17014313D01*
X6899734Y-17014313D02*
X6899734Y-16814313D01*
X6899734Y-16814313D02*
X6880686Y-16842884D01*
X6880686Y-16842884D02*
X6861638Y-16861932D01*
X6861638Y-16861932D02*
X6842591Y-16871455D01*
X7042591Y-16995265D02*
X7052115Y-17004789D01*
X7052115Y-17004789D02*
X7042591Y-17014313D01*
X7042591Y-17014313D02*
X7033067Y-17004789D01*
X7033067Y-17004789D02*
X7042591Y-16995265D01*
X7042591Y-16995265D02*
X7042591Y-17014313D01*
X7118781Y-16814313D02*
X7242591Y-16814313D01*
X7242591Y-16814313D02*
X7175924Y-16890503D01*
X7175924Y-16890503D02*
X7204496Y-16890503D01*
X7204496Y-16890503D02*
X7223543Y-16900027D01*
X7223543Y-16900027D02*
X7233067Y-16909551D01*
X7233067Y-16909551D02*
X7242591Y-16928598D01*
X7242591Y-16928598D02*
X7242591Y-16976217D01*
X7242591Y-16976217D02*
X7233067Y-16995265D01*
X7233067Y-16995265D02*
X7223543Y-17004789D01*
X7223543Y-17004789D02*
X7204496Y-17014313D01*
X7204496Y-17014313D02*
X7147353Y-17014313D01*
X7147353Y-17014313D02*
X7128305Y-17004789D01*
X7128305Y-17004789D02*
X7118781Y-16995265D01*
X7366400Y-16814313D02*
X7385448Y-16814313D01*
X7385448Y-16814313D02*
X7404496Y-16823836D01*
X7404496Y-16823836D02*
X7414019Y-16833360D01*
X7414019Y-16833360D02*
X7423543Y-16852408D01*
X7423543Y-16852408D02*
X7433067Y-16890503D01*
X7433067Y-16890503D02*
X7433067Y-16938122D01*
X7433067Y-16938122D02*
X7423543Y-16976217D01*
X7423543Y-16976217D02*
X7414019Y-16995265D01*
X7414019Y-16995265D02*
X7404496Y-17004789D01*
X7404496Y-17004789D02*
X7385448Y-17014313D01*
X7385448Y-17014313D02*
X7366400Y-17014313D01*
X7366400Y-17014313D02*
X7347353Y-17004789D01*
X7347353Y-17004789D02*
X7337829Y-16995265D01*
X7337829Y-16995265D02*
X7328305Y-16976217D01*
X7328305Y-16976217D02*
X7318781Y-16938122D01*
X7318781Y-16938122D02*
X7318781Y-16890503D01*
X7318781Y-16890503D02*
X7328305Y-16852408D01*
X7328305Y-16852408D02*
X7337829Y-16833360D01*
X7337829Y-16833360D02*
X7347353Y-16823836D01*
X7347353Y-16823836D02*
X7366400Y-16814313D01*
X7556876Y-16814313D02*
X7575924Y-16814313D01*
X7575924Y-16814313D02*
X7594972Y-16823836D01*
X7594972Y-16823836D02*
X7604496Y-16833360D01*
X7604496Y-16833360D02*
X7614019Y-16852408D01*
X7614019Y-16852408D02*
X7623543Y-16890503D01*
X7623543Y-16890503D02*
X7623543Y-16938122D01*
X7623543Y-16938122D02*
X7614019Y-16976217D01*
X7614019Y-16976217D02*
X7604496Y-16995265D01*
X7604496Y-16995265D02*
X7594972Y-17004789D01*
X7594972Y-17004789D02*
X7575924Y-17014313D01*
X7575924Y-17014313D02*
X7556876Y-17014313D01*
X7556876Y-17014313D02*
X7537829Y-17004789D01*
X7537829Y-17004789D02*
X7528305Y-16995265D01*
X7528305Y-16995265D02*
X7518781Y-16976217D01*
X7518781Y-16976217D02*
X7509257Y-16938122D01*
X7509257Y-16938122D02*
X7509257Y-16890503D01*
X7509257Y-16890503D02*
X7518781Y-16852408D01*
X7518781Y-16852408D02*
X7528305Y-16833360D01*
X7528305Y-16833360D02*
X7537829Y-16823836D01*
X7537829Y-16823836D02*
X7556876Y-16814313D01*
X7709257Y-17014313D02*
X7709257Y-16880979D01*
X7709257Y-16900027D02*
X7718781Y-16890503D01*
X7718781Y-16890503D02*
X7737829Y-16880979D01*
X7737829Y-16880979D02*
X7766400Y-16880979D01*
X7766400Y-16880979D02*
X7785448Y-16890503D01*
X7785448Y-16890503D02*
X7794972Y-16909551D01*
X7794972Y-16909551D02*
X7794972Y-17014313D01*
X7794972Y-16909551D02*
X7804496Y-16890503D01*
X7804496Y-16890503D02*
X7823543Y-16880979D01*
X7823543Y-16880979D02*
X7852115Y-16880979D01*
X7852115Y-16880979D02*
X7871162Y-16890503D01*
X7871162Y-16890503D02*
X7880686Y-16909551D01*
X7880686Y-16909551D02*
X7880686Y-17014313D01*
X7975924Y-17014313D02*
X7975924Y-16880979D01*
X7975924Y-16900027D02*
X7985448Y-16890503D01*
X7985448Y-16890503D02*
X8004496Y-16880979D01*
X8004496Y-16880979D02*
X8033067Y-16880979D01*
X8033067Y-16880979D02*
X8052115Y-16890503D01*
X8052115Y-16890503D02*
X8061638Y-16909551D01*
X8061638Y-16909551D02*
X8061638Y-17014313D01*
X8061638Y-16909551D02*
X8071162Y-16890503D01*
X8071162Y-16890503D02*
X8090210Y-16880979D01*
X8090210Y-16880979D02*
X8118781Y-16880979D01*
X8118781Y-16880979D02*
X8137829Y-16890503D01*
X8137829Y-16890503D02*
X8147353Y-16909551D01*
X8147353Y-16909551D02*
X8147353Y-17014313D01*
X8537829Y-16804789D02*
X8366400Y-17061932D01*
X8794972Y-16814313D02*
X8814020Y-16814313D01*
X8814020Y-16814313D02*
X8833067Y-16823836D01*
X8833067Y-16823836D02*
X8842591Y-16833360D01*
X8842591Y-16833360D02*
X8852115Y-16852408D01*
X8852115Y-16852408D02*
X8861639Y-16890503D01*
X8861639Y-16890503D02*
X8861639Y-16938122D01*
X8861639Y-16938122D02*
X8852115Y-16976217D01*
X8852115Y-16976217D02*
X8842591Y-16995265D01*
X8842591Y-16995265D02*
X8833067Y-17004789D01*
X8833067Y-17004789D02*
X8814020Y-17014313D01*
X8814020Y-17014313D02*
X8794972Y-17014313D01*
X8794972Y-17014313D02*
X8775924Y-17004789D01*
X8775924Y-17004789D02*
X8766401Y-16995265D01*
X8766401Y-16995265D02*
X8756877Y-16976217D01*
X8756877Y-16976217D02*
X8747353Y-16938122D01*
X8747353Y-16938122D02*
X8747353Y-16890503D01*
X8747353Y-16890503D02*
X8756877Y-16852408D01*
X8756877Y-16852408D02*
X8766401Y-16833360D01*
X8766401Y-16833360D02*
X8775924Y-16823836D01*
X8775924Y-16823836D02*
X8794972Y-16814313D01*
X8947353Y-16995265D02*
X8956877Y-17004789D01*
X8956877Y-17004789D02*
X8947353Y-17014313D01*
X8947353Y-17014313D02*
X8937829Y-17004789D01*
X8937829Y-17004789D02*
X8947353Y-16995265D01*
X8947353Y-16995265D02*
X8947353Y-17014313D01*
X9080686Y-16814313D02*
X9099734Y-16814313D01*
X9099734Y-16814313D02*
X9118782Y-16823836D01*
X9118782Y-16823836D02*
X9128305Y-16833360D01*
X9128305Y-16833360D02*
X9137829Y-16852408D01*
X9137829Y-16852408D02*
X9147353Y-16890503D01*
X9147353Y-16890503D02*
X9147353Y-16938122D01*
X9147353Y-16938122D02*
X9137829Y-16976217D01*
X9137829Y-16976217D02*
X9128305Y-16995265D01*
X9128305Y-16995265D02*
X9118782Y-17004789D01*
X9118782Y-17004789D02*
X9099734Y-17014313D01*
X9099734Y-17014313D02*
X9080686Y-17014313D01*
X9080686Y-17014313D02*
X9061639Y-17004789D01*
X9061639Y-17004789D02*
X9052115Y-16995265D01*
X9052115Y-16995265D02*
X9042591Y-16976217D01*
X9042591Y-16976217D02*
X9033067Y-16938122D01*
X9033067Y-16938122D02*
X9033067Y-16890503D01*
X9033067Y-16890503D02*
X9042591Y-16852408D01*
X9042591Y-16852408D02*
X9052115Y-16833360D01*
X9052115Y-16833360D02*
X9061639Y-16823836D01*
X9061639Y-16823836D02*
X9080686Y-16814313D01*
X9328305Y-16814313D02*
X9233067Y-16814313D01*
X9233067Y-16814313D02*
X9223543Y-16909551D01*
X9223543Y-16909551D02*
X9233067Y-16900027D01*
X9233067Y-16900027D02*
X9252115Y-16890503D01*
X9252115Y-16890503D02*
X9299734Y-16890503D01*
X9299734Y-16890503D02*
X9318782Y-16900027D01*
X9318782Y-16900027D02*
X9328305Y-16909551D01*
X9328305Y-16909551D02*
X9337829Y-16928598D01*
X9337829Y-16928598D02*
X9337829Y-16976217D01*
X9337829Y-16976217D02*
X9328305Y-16995265D01*
X9328305Y-16995265D02*
X9318782Y-17004789D01*
X9318782Y-17004789D02*
X9299734Y-17014313D01*
X9299734Y-17014313D02*
X9252115Y-17014313D01*
X9252115Y-17014313D02*
X9233067Y-17004789D01*
X9233067Y-17004789D02*
X9223543Y-16995265D01*
X9528305Y-17014313D02*
X9414020Y-17014313D01*
X9471162Y-17014313D02*
X9471162Y-16814313D01*
X9471162Y-16814313D02*
X9452115Y-16842884D01*
X9452115Y-16842884D02*
X9433067Y-16861932D01*
X9433067Y-16861932D02*
X9414020Y-16871455D01*
X9604496Y-16833360D02*
X9614020Y-16823836D01*
X9614020Y-16823836D02*
X9633067Y-16814313D01*
X9633067Y-16814313D02*
X9680686Y-16814313D01*
X9680686Y-16814313D02*
X9699734Y-16823836D01*
X9699734Y-16823836D02*
X9709258Y-16833360D01*
X9709258Y-16833360D02*
X9718782Y-16852408D01*
X9718782Y-16852408D02*
X9718782Y-16871455D01*
X9718782Y-16871455D02*
X9709258Y-16900027D01*
X9709258Y-16900027D02*
X9594972Y-17014313D01*
X9594972Y-17014313D02*
X9718782Y-17014313D01*
X9794972Y-16814313D02*
X9794972Y-16852408D01*
X9871163Y-16814313D02*
X9871163Y-16852408D01*
X10166401Y-17090503D02*
X10156877Y-17080979D01*
X10156877Y-17080979D02*
X10137829Y-17052408D01*
X10137829Y-17052408D02*
X10128305Y-17033360D01*
X10128305Y-17033360D02*
X10118782Y-17004789D01*
X10118782Y-17004789D02*
X10109258Y-16957170D01*
X10109258Y-16957170D02*
X10109258Y-16919075D01*
X10109258Y-16919075D02*
X10118782Y-16871455D01*
X10118782Y-16871455D02*
X10128305Y-16842884D01*
X10128305Y-16842884D02*
X10137829Y-16823836D01*
X10137829Y-16823836D02*
X10156877Y-16795265D01*
X10156877Y-16795265D02*
X10166401Y-16785741D01*
X10233067Y-16833360D02*
X10242591Y-16823836D01*
X10242591Y-16823836D02*
X10261639Y-16814313D01*
X10261639Y-16814313D02*
X10309258Y-16814313D01*
X10309258Y-16814313D02*
X10328305Y-16823836D01*
X10328305Y-16823836D02*
X10337829Y-16833360D01*
X10337829Y-16833360D02*
X10347353Y-16852408D01*
X10347353Y-16852408D02*
X10347353Y-16871455D01*
X10347353Y-16871455D02*
X10337829Y-16900027D01*
X10337829Y-16900027D02*
X10223544Y-17014313D01*
X10223544Y-17014313D02*
X10347353Y-17014313D01*
X10585448Y-17014313D02*
X10585448Y-16814313D01*
X10671163Y-17014313D02*
X10671163Y-16909551D01*
X10671163Y-16909551D02*
X10661639Y-16890503D01*
X10661639Y-16890503D02*
X10642591Y-16880979D01*
X10642591Y-16880979D02*
X10614020Y-16880979D01*
X10614020Y-16880979D02*
X10594972Y-16890503D01*
X10594972Y-16890503D02*
X10585448Y-16900027D01*
X10794972Y-17014313D02*
X10775925Y-17004789D01*
X10775925Y-17004789D02*
X10766401Y-16995265D01*
X10766401Y-16995265D02*
X10756877Y-16976217D01*
X10756877Y-16976217D02*
X10756877Y-16919075D01*
X10756877Y-16919075D02*
X10766401Y-16900027D01*
X10766401Y-16900027D02*
X10775925Y-16890503D01*
X10775925Y-16890503D02*
X10794972Y-16880979D01*
X10794972Y-16880979D02*
X10823544Y-16880979D01*
X10823544Y-16880979D02*
X10842591Y-16890503D01*
X10842591Y-16890503D02*
X10852115Y-16900027D01*
X10852115Y-16900027D02*
X10861639Y-16919075D01*
X10861639Y-16919075D02*
X10861639Y-16976217D01*
X10861639Y-16976217D02*
X10852115Y-16995265D01*
X10852115Y-16995265D02*
X10842591Y-17004789D01*
X10842591Y-17004789D02*
X10823544Y-17014313D01*
X10823544Y-17014313D02*
X10794972Y-17014313D01*
X10975925Y-17014313D02*
X10956877Y-17004789D01*
X10956877Y-17004789D02*
X10947353Y-16985741D01*
X10947353Y-16985741D02*
X10947353Y-16814313D01*
X11128306Y-17004789D02*
X11109258Y-17014313D01*
X11109258Y-17014313D02*
X11071163Y-17014313D01*
X11071163Y-17014313D02*
X11052115Y-17004789D01*
X11052115Y-17004789D02*
X11042591Y-16985741D01*
X11042591Y-16985741D02*
X11042591Y-16909551D01*
X11042591Y-16909551D02*
X11052115Y-16890503D01*
X11052115Y-16890503D02*
X11071163Y-16880979D01*
X11071163Y-16880979D02*
X11109258Y-16880979D01*
X11109258Y-16880979D02*
X11128306Y-16890503D01*
X11128306Y-16890503D02*
X11137829Y-16909551D01*
X11137829Y-16909551D02*
X11137829Y-16928598D01*
X11137829Y-16928598D02*
X11042591Y-16947646D01*
X11214020Y-17004789D02*
X11233067Y-17014313D01*
X11233067Y-17014313D02*
X11271163Y-17014313D01*
X11271163Y-17014313D02*
X11290210Y-17004789D01*
X11290210Y-17004789D02*
X11299734Y-16985741D01*
X11299734Y-16985741D02*
X11299734Y-16976217D01*
X11299734Y-16976217D02*
X11290210Y-16957170D01*
X11290210Y-16957170D02*
X11271163Y-16947646D01*
X11271163Y-16947646D02*
X11242591Y-16947646D01*
X11242591Y-16947646D02*
X11223544Y-16938122D01*
X11223544Y-16938122D02*
X11214020Y-16919075D01*
X11214020Y-16919075D02*
X11214020Y-16909551D01*
X11214020Y-16909551D02*
X11223544Y-16890503D01*
X11223544Y-16890503D02*
X11242591Y-16880979D01*
X11242591Y-16880979D02*
X11271163Y-16880979D01*
X11271163Y-16880979D02*
X11290210Y-16890503D01*
X11366401Y-17090503D02*
X11375925Y-17080979D01*
X11375925Y-17080979D02*
X11394972Y-17052408D01*
X11394972Y-17052408D02*
X11404496Y-17033360D01*
X11404496Y-17033360D02*
X11414020Y-17004789D01*
X11414020Y-17004789D02*
X11423544Y-16957170D01*
X11423544Y-16957170D02*
X11423544Y-16919075D01*
X11423544Y-16919075D02*
X11414020Y-16871455D01*
X11414020Y-16871455D02*
X11404496Y-16842884D01*
X11404496Y-16842884D02*
X11394972Y-16823836D01*
X11394972Y-16823836D02*
X11375925Y-16795265D01*
X11375925Y-16795265D02*
X11366401Y-16785741D01*
X6491338Y-17286829D02*
X6591338Y-17186829D01*
X6491338Y-17086829D01*
X6391338Y-17186829D01*
X6491338Y-17286829D01*
X6842591Y-17097360D02*
X6852115Y-17087836D01*
X6852115Y-17087836D02*
X6871162Y-17078313D01*
X6871162Y-17078313D02*
X6918781Y-17078313D01*
X6918781Y-17078313D02*
X6937829Y-17087836D01*
X6937829Y-17087836D02*
X6947353Y-17097360D01*
X6947353Y-17097360D02*
X6956876Y-17116408D01*
X6956876Y-17116408D02*
X6956876Y-17135455D01*
X6956876Y-17135455D02*
X6947353Y-17164027D01*
X6947353Y-17164027D02*
X6833067Y-17278313D01*
X6833067Y-17278313D02*
X6956876Y-17278313D01*
X7042591Y-17259265D02*
X7052115Y-17268789D01*
X7052115Y-17268789D02*
X7042591Y-17278313D01*
X7042591Y-17278313D02*
X7033067Y-17268789D01*
X7033067Y-17268789D02*
X7042591Y-17259265D01*
X7042591Y-17259265D02*
X7042591Y-17278313D01*
X7128305Y-17097360D02*
X7137829Y-17087836D01*
X7137829Y-17087836D02*
X7156876Y-17078313D01*
X7156876Y-17078313D02*
X7204496Y-17078313D01*
X7204496Y-17078313D02*
X7223543Y-17087836D01*
X7223543Y-17087836D02*
X7233067Y-17097360D01*
X7233067Y-17097360D02*
X7242591Y-17116408D01*
X7242591Y-17116408D02*
X7242591Y-17135455D01*
X7242591Y-17135455D02*
X7233067Y-17164027D01*
X7233067Y-17164027D02*
X7118781Y-17278313D01*
X7118781Y-17278313D02*
X7242591Y-17278313D01*
X7366400Y-17078313D02*
X7385448Y-17078313D01*
X7385448Y-17078313D02*
X7404496Y-17087836D01*
X7404496Y-17087836D02*
X7414019Y-17097360D01*
X7414019Y-17097360D02*
X7423543Y-17116408D01*
X7423543Y-17116408D02*
X7433067Y-17154503D01*
X7433067Y-17154503D02*
X7433067Y-17202122D01*
X7433067Y-17202122D02*
X7423543Y-17240217D01*
X7423543Y-17240217D02*
X7414019Y-17259265D01*
X7414019Y-17259265D02*
X7404496Y-17268789D01*
X7404496Y-17268789D02*
X7385448Y-17278313D01*
X7385448Y-17278313D02*
X7366400Y-17278313D01*
X7366400Y-17278313D02*
X7347353Y-17268789D01*
X7347353Y-17268789D02*
X7337829Y-17259265D01*
X7337829Y-17259265D02*
X7328305Y-17240217D01*
X7328305Y-17240217D02*
X7318781Y-17202122D01*
X7318781Y-17202122D02*
X7318781Y-17154503D01*
X7318781Y-17154503D02*
X7328305Y-17116408D01*
X7328305Y-17116408D02*
X7337829Y-17097360D01*
X7337829Y-17097360D02*
X7347353Y-17087836D01*
X7347353Y-17087836D02*
X7366400Y-17078313D01*
X7556876Y-17078313D02*
X7575924Y-17078313D01*
X7575924Y-17078313D02*
X7594972Y-17087836D01*
X7594972Y-17087836D02*
X7604496Y-17097360D01*
X7604496Y-17097360D02*
X7614019Y-17116408D01*
X7614019Y-17116408D02*
X7623543Y-17154503D01*
X7623543Y-17154503D02*
X7623543Y-17202122D01*
X7623543Y-17202122D02*
X7614019Y-17240217D01*
X7614019Y-17240217D02*
X7604496Y-17259265D01*
X7604496Y-17259265D02*
X7594972Y-17268789D01*
X7594972Y-17268789D02*
X7575924Y-17278313D01*
X7575924Y-17278313D02*
X7556876Y-17278313D01*
X7556876Y-17278313D02*
X7537829Y-17268789D01*
X7537829Y-17268789D02*
X7528305Y-17259265D01*
X7528305Y-17259265D02*
X7518781Y-17240217D01*
X7518781Y-17240217D02*
X7509257Y-17202122D01*
X7509257Y-17202122D02*
X7509257Y-17154503D01*
X7509257Y-17154503D02*
X7518781Y-17116408D01*
X7518781Y-17116408D02*
X7528305Y-17097360D01*
X7528305Y-17097360D02*
X7537829Y-17087836D01*
X7537829Y-17087836D02*
X7556876Y-17078313D01*
X7709257Y-17278313D02*
X7709257Y-17144979D01*
X7709257Y-17164027D02*
X7718781Y-17154503D01*
X7718781Y-17154503D02*
X7737829Y-17144979D01*
X7737829Y-17144979D02*
X7766400Y-17144979D01*
X7766400Y-17144979D02*
X7785448Y-17154503D01*
X7785448Y-17154503D02*
X7794972Y-17173551D01*
X7794972Y-17173551D02*
X7794972Y-17278313D01*
X7794972Y-17173551D02*
X7804496Y-17154503D01*
X7804496Y-17154503D02*
X7823543Y-17144979D01*
X7823543Y-17144979D02*
X7852115Y-17144979D01*
X7852115Y-17144979D02*
X7871162Y-17154503D01*
X7871162Y-17154503D02*
X7880686Y-17173551D01*
X7880686Y-17173551D02*
X7880686Y-17278313D01*
X7975924Y-17278313D02*
X7975924Y-17144979D01*
X7975924Y-17164027D02*
X7985448Y-17154503D01*
X7985448Y-17154503D02*
X8004496Y-17144979D01*
X8004496Y-17144979D02*
X8033067Y-17144979D01*
X8033067Y-17144979D02*
X8052115Y-17154503D01*
X8052115Y-17154503D02*
X8061638Y-17173551D01*
X8061638Y-17173551D02*
X8061638Y-17278313D01*
X8061638Y-17173551D02*
X8071162Y-17154503D01*
X8071162Y-17154503D02*
X8090210Y-17144979D01*
X8090210Y-17144979D02*
X8118781Y-17144979D01*
X8118781Y-17144979D02*
X8137829Y-17154503D01*
X8137829Y-17154503D02*
X8147353Y-17173551D01*
X8147353Y-17173551D02*
X8147353Y-17278313D01*
X8537829Y-17068789D02*
X8366400Y-17325932D01*
X8794972Y-17078313D02*
X8814020Y-17078313D01*
X8814020Y-17078313D02*
X8833067Y-17087836D01*
X8833067Y-17087836D02*
X8842591Y-17097360D01*
X8842591Y-17097360D02*
X8852115Y-17116408D01*
X8852115Y-17116408D02*
X8861639Y-17154503D01*
X8861639Y-17154503D02*
X8861639Y-17202122D01*
X8861639Y-17202122D02*
X8852115Y-17240217D01*
X8852115Y-17240217D02*
X8842591Y-17259265D01*
X8842591Y-17259265D02*
X8833067Y-17268789D01*
X8833067Y-17268789D02*
X8814020Y-17278313D01*
X8814020Y-17278313D02*
X8794972Y-17278313D01*
X8794972Y-17278313D02*
X8775924Y-17268789D01*
X8775924Y-17268789D02*
X8766401Y-17259265D01*
X8766401Y-17259265D02*
X8756877Y-17240217D01*
X8756877Y-17240217D02*
X8747353Y-17202122D01*
X8747353Y-17202122D02*
X8747353Y-17154503D01*
X8747353Y-17154503D02*
X8756877Y-17116408D01*
X8756877Y-17116408D02*
X8766401Y-17097360D01*
X8766401Y-17097360D02*
X8775924Y-17087836D01*
X8775924Y-17087836D02*
X8794972Y-17078313D01*
X8947353Y-17259265D02*
X8956877Y-17268789D01*
X8956877Y-17268789D02*
X8947353Y-17278313D01*
X8947353Y-17278313D02*
X8937829Y-17268789D01*
X8937829Y-17268789D02*
X8947353Y-17259265D01*
X8947353Y-17259265D02*
X8947353Y-17278313D01*
X9080686Y-17078313D02*
X9099734Y-17078313D01*
X9099734Y-17078313D02*
X9118782Y-17087836D01*
X9118782Y-17087836D02*
X9128305Y-17097360D01*
X9128305Y-17097360D02*
X9137829Y-17116408D01*
X9137829Y-17116408D02*
X9147353Y-17154503D01*
X9147353Y-17154503D02*
X9147353Y-17202122D01*
X9147353Y-17202122D02*
X9137829Y-17240217D01*
X9137829Y-17240217D02*
X9128305Y-17259265D01*
X9128305Y-17259265D02*
X9118782Y-17268789D01*
X9118782Y-17268789D02*
X9099734Y-17278313D01*
X9099734Y-17278313D02*
X9080686Y-17278313D01*
X9080686Y-17278313D02*
X9061639Y-17268789D01*
X9061639Y-17268789D02*
X9052115Y-17259265D01*
X9052115Y-17259265D02*
X9042591Y-17240217D01*
X9042591Y-17240217D02*
X9033067Y-17202122D01*
X9033067Y-17202122D02*
X9033067Y-17154503D01*
X9033067Y-17154503D02*
X9042591Y-17116408D01*
X9042591Y-17116408D02*
X9052115Y-17097360D01*
X9052115Y-17097360D02*
X9061639Y-17087836D01*
X9061639Y-17087836D02*
X9080686Y-17078313D01*
X9261639Y-17164027D02*
X9242591Y-17154503D01*
X9242591Y-17154503D02*
X9233067Y-17144979D01*
X9233067Y-17144979D02*
X9223543Y-17125932D01*
X9223543Y-17125932D02*
X9223543Y-17116408D01*
X9223543Y-17116408D02*
X9233067Y-17097360D01*
X9233067Y-17097360D02*
X9242591Y-17087836D01*
X9242591Y-17087836D02*
X9261639Y-17078313D01*
X9261639Y-17078313D02*
X9299734Y-17078313D01*
X9299734Y-17078313D02*
X9318782Y-17087836D01*
X9318782Y-17087836D02*
X9328305Y-17097360D01*
X9328305Y-17097360D02*
X9337829Y-17116408D01*
X9337829Y-17116408D02*
X9337829Y-17125932D01*
X9337829Y-17125932D02*
X9328305Y-17144979D01*
X9328305Y-17144979D02*
X9318782Y-17154503D01*
X9318782Y-17154503D02*
X9299734Y-17164027D01*
X9299734Y-17164027D02*
X9261639Y-17164027D01*
X9261639Y-17164027D02*
X9242591Y-17173551D01*
X9242591Y-17173551D02*
X9233067Y-17183075D01*
X9233067Y-17183075D02*
X9223543Y-17202122D01*
X9223543Y-17202122D02*
X9223543Y-17240217D01*
X9223543Y-17240217D02*
X9233067Y-17259265D01*
X9233067Y-17259265D02*
X9242591Y-17268789D01*
X9242591Y-17268789D02*
X9261639Y-17278313D01*
X9261639Y-17278313D02*
X9299734Y-17278313D01*
X9299734Y-17278313D02*
X9318782Y-17268789D01*
X9318782Y-17268789D02*
X9328305Y-17259265D01*
X9328305Y-17259265D02*
X9337829Y-17240217D01*
X9337829Y-17240217D02*
X9337829Y-17202122D01*
X9337829Y-17202122D02*
X9328305Y-17183075D01*
X9328305Y-17183075D02*
X9318782Y-17173551D01*
X9318782Y-17173551D02*
X9299734Y-17164027D01*
X9509258Y-17078313D02*
X9471162Y-17078313D01*
X9471162Y-17078313D02*
X9452115Y-17087836D01*
X9452115Y-17087836D02*
X9442591Y-17097360D01*
X9442591Y-17097360D02*
X9423543Y-17125932D01*
X9423543Y-17125932D02*
X9414020Y-17164027D01*
X9414020Y-17164027D02*
X9414020Y-17240217D01*
X9414020Y-17240217D02*
X9423543Y-17259265D01*
X9423543Y-17259265D02*
X9433067Y-17268789D01*
X9433067Y-17268789D02*
X9452115Y-17278313D01*
X9452115Y-17278313D02*
X9490210Y-17278313D01*
X9490210Y-17278313D02*
X9509258Y-17268789D01*
X9509258Y-17268789D02*
X9518782Y-17259265D01*
X9518782Y-17259265D02*
X9528305Y-17240217D01*
X9528305Y-17240217D02*
X9528305Y-17192598D01*
X9528305Y-17192598D02*
X9518782Y-17173551D01*
X9518782Y-17173551D02*
X9509258Y-17164027D01*
X9509258Y-17164027D02*
X9490210Y-17154503D01*
X9490210Y-17154503D02*
X9452115Y-17154503D01*
X9452115Y-17154503D02*
X9433067Y-17164027D01*
X9433067Y-17164027D02*
X9423543Y-17173551D01*
X9423543Y-17173551D02*
X9414020Y-17192598D01*
X9699734Y-17078313D02*
X9661639Y-17078313D01*
X9661639Y-17078313D02*
X9642591Y-17087836D01*
X9642591Y-17087836D02*
X9633067Y-17097360D01*
X9633067Y-17097360D02*
X9614020Y-17125932D01*
X9614020Y-17125932D02*
X9604496Y-17164027D01*
X9604496Y-17164027D02*
X9604496Y-17240217D01*
X9604496Y-17240217D02*
X9614020Y-17259265D01*
X9614020Y-17259265D02*
X9623543Y-17268789D01*
X9623543Y-17268789D02*
X9642591Y-17278313D01*
X9642591Y-17278313D02*
X9680686Y-17278313D01*
X9680686Y-17278313D02*
X9699734Y-17268789D01*
X9699734Y-17268789D02*
X9709258Y-17259265D01*
X9709258Y-17259265D02*
X9718782Y-17240217D01*
X9718782Y-17240217D02*
X9718782Y-17192598D01*
X9718782Y-17192598D02*
X9709258Y-17173551D01*
X9709258Y-17173551D02*
X9699734Y-17164027D01*
X9699734Y-17164027D02*
X9680686Y-17154503D01*
X9680686Y-17154503D02*
X9642591Y-17154503D01*
X9642591Y-17154503D02*
X9623543Y-17164027D01*
X9623543Y-17164027D02*
X9614020Y-17173551D01*
X9614020Y-17173551D02*
X9604496Y-17192598D01*
X9794972Y-17078313D02*
X9794972Y-17116408D01*
X9871163Y-17078313D02*
X9871163Y-17116408D01*
X10166401Y-17354503D02*
X10156877Y-17344979D01*
X10156877Y-17344979D02*
X10137829Y-17316408D01*
X10137829Y-17316408D02*
X10128305Y-17297360D01*
X10128305Y-17297360D02*
X10118782Y-17268789D01*
X10118782Y-17268789D02*
X10109258Y-17221170D01*
X10109258Y-17221170D02*
X10109258Y-17183075D01*
X10109258Y-17183075D02*
X10118782Y-17135455D01*
X10118782Y-17135455D02*
X10128305Y-17106884D01*
X10128305Y-17106884D02*
X10137829Y-17087836D01*
X10137829Y-17087836D02*
X10156877Y-17059265D01*
X10156877Y-17059265D02*
X10166401Y-17049741D01*
X10233067Y-17097360D02*
X10242591Y-17087836D01*
X10242591Y-17087836D02*
X10261639Y-17078313D01*
X10261639Y-17078313D02*
X10309258Y-17078313D01*
X10309258Y-17078313D02*
X10328305Y-17087836D01*
X10328305Y-17087836D02*
X10337829Y-17097360D01*
X10337829Y-17097360D02*
X10347353Y-17116408D01*
X10347353Y-17116408D02*
X10347353Y-17135455D01*
X10347353Y-17135455D02*
X10337829Y-17164027D01*
X10337829Y-17164027D02*
X10223544Y-17278313D01*
X10223544Y-17278313D02*
X10347353Y-17278313D01*
X10585448Y-17278313D02*
X10585448Y-17078313D01*
X10671163Y-17278313D02*
X10671163Y-17173551D01*
X10671163Y-17173551D02*
X10661639Y-17154503D01*
X10661639Y-17154503D02*
X10642591Y-17144979D01*
X10642591Y-17144979D02*
X10614020Y-17144979D01*
X10614020Y-17144979D02*
X10594972Y-17154503D01*
X10594972Y-17154503D02*
X10585448Y-17164027D01*
X10794972Y-17278313D02*
X10775925Y-17268789D01*
X10775925Y-17268789D02*
X10766401Y-17259265D01*
X10766401Y-17259265D02*
X10756877Y-17240217D01*
X10756877Y-17240217D02*
X10756877Y-17183075D01*
X10756877Y-17183075D02*
X10766401Y-17164027D01*
X10766401Y-17164027D02*
X10775925Y-17154503D01*
X10775925Y-17154503D02*
X10794972Y-17144979D01*
X10794972Y-17144979D02*
X10823544Y-17144979D01*
X10823544Y-17144979D02*
X10842591Y-17154503D01*
X10842591Y-17154503D02*
X10852115Y-17164027D01*
X10852115Y-17164027D02*
X10861639Y-17183075D01*
X10861639Y-17183075D02*
X10861639Y-17240217D01*
X10861639Y-17240217D02*
X10852115Y-17259265D01*
X10852115Y-17259265D02*
X10842591Y-17268789D01*
X10842591Y-17268789D02*
X10823544Y-17278313D01*
X10823544Y-17278313D02*
X10794972Y-17278313D01*
X10975925Y-17278313D02*
X10956877Y-17268789D01*
X10956877Y-17268789D02*
X10947353Y-17249741D01*
X10947353Y-17249741D02*
X10947353Y-17078313D01*
X11128306Y-17268789D02*
X11109258Y-17278313D01*
X11109258Y-17278313D02*
X11071163Y-17278313D01*
X11071163Y-17278313D02*
X11052115Y-17268789D01*
X11052115Y-17268789D02*
X11042591Y-17249741D01*
X11042591Y-17249741D02*
X11042591Y-17173551D01*
X11042591Y-17173551D02*
X11052115Y-17154503D01*
X11052115Y-17154503D02*
X11071163Y-17144979D01*
X11071163Y-17144979D02*
X11109258Y-17144979D01*
X11109258Y-17144979D02*
X11128306Y-17154503D01*
X11128306Y-17154503D02*
X11137829Y-17173551D01*
X11137829Y-17173551D02*
X11137829Y-17192598D01*
X11137829Y-17192598D02*
X11042591Y-17211646D01*
X11214020Y-17268789D02*
X11233067Y-17278313D01*
X11233067Y-17278313D02*
X11271163Y-17278313D01*
X11271163Y-17278313D02*
X11290210Y-17268789D01*
X11290210Y-17268789D02*
X11299734Y-17249741D01*
X11299734Y-17249741D02*
X11299734Y-17240217D01*
X11299734Y-17240217D02*
X11290210Y-17221170D01*
X11290210Y-17221170D02*
X11271163Y-17211646D01*
X11271163Y-17211646D02*
X11242591Y-17211646D01*
X11242591Y-17211646D02*
X11223544Y-17202122D01*
X11223544Y-17202122D02*
X11214020Y-17183075D01*
X11214020Y-17183075D02*
X11214020Y-17173551D01*
X11214020Y-17173551D02*
X11223544Y-17154503D01*
X11223544Y-17154503D02*
X11242591Y-17144979D01*
X11242591Y-17144979D02*
X11271163Y-17144979D01*
X11271163Y-17144979D02*
X11290210Y-17154503D01*
X11366401Y-17354503D02*
X11375925Y-17344979D01*
X11375925Y-17344979D02*
X11394972Y-17316408D01*
X11394972Y-17316408D02*
X11404496Y-17297360D01*
X11404496Y-17297360D02*
X11414020Y-17268789D01*
X11414020Y-17268789D02*
X11423544Y-17221170D01*
X11423544Y-17221170D02*
X11423544Y-17183075D01*
X11423544Y-17183075D02*
X11414020Y-17135455D01*
X11414020Y-17135455D02*
X11404496Y-17106884D01*
X11404496Y-17106884D02*
X11394972Y-17087836D01*
X11394972Y-17087836D02*
X11375925Y-17059265D01*
X11375925Y-17059265D02*
X11366401Y-17049741D01*
X6391338Y-17406829D02*
X6591338Y-17606829D01*
X6591338Y-17406829D02*
X6391338Y-17606829D01*
X6591338Y-17506829D02*
G75*
G03*
X6591338Y-17506829I-100000J0D01*
G01*
X6937829Y-17464979D02*
X6937829Y-17598313D01*
X6890210Y-17388789D02*
X6842591Y-17531646D01*
X6842591Y-17531646D02*
X6966400Y-17531646D01*
X7042591Y-17579265D02*
X7052115Y-17588789D01*
X7052115Y-17588789D02*
X7042591Y-17598313D01*
X7042591Y-17598313D02*
X7033067Y-17588789D01*
X7033067Y-17588789D02*
X7042591Y-17579265D01*
X7042591Y-17579265D02*
X7042591Y-17598313D01*
X7242591Y-17598313D02*
X7128305Y-17598313D01*
X7185448Y-17598313D02*
X7185448Y-17398313D01*
X7185448Y-17398313D02*
X7166400Y-17426884D01*
X7166400Y-17426884D02*
X7147353Y-17445932D01*
X7147353Y-17445932D02*
X7128305Y-17455455D01*
X7366400Y-17398313D02*
X7385448Y-17398313D01*
X7385448Y-17398313D02*
X7404496Y-17407836D01*
X7404496Y-17407836D02*
X7414019Y-17417360D01*
X7414019Y-17417360D02*
X7423543Y-17436408D01*
X7423543Y-17436408D02*
X7433067Y-17474503D01*
X7433067Y-17474503D02*
X7433067Y-17522122D01*
X7433067Y-17522122D02*
X7423543Y-17560217D01*
X7423543Y-17560217D02*
X7414019Y-17579265D01*
X7414019Y-17579265D02*
X7404496Y-17588789D01*
X7404496Y-17588789D02*
X7385448Y-17598313D01*
X7385448Y-17598313D02*
X7366400Y-17598313D01*
X7366400Y-17598313D02*
X7347353Y-17588789D01*
X7347353Y-17588789D02*
X7337829Y-17579265D01*
X7337829Y-17579265D02*
X7328305Y-17560217D01*
X7328305Y-17560217D02*
X7318781Y-17522122D01*
X7318781Y-17522122D02*
X7318781Y-17474503D01*
X7318781Y-17474503D02*
X7328305Y-17436408D01*
X7328305Y-17436408D02*
X7337829Y-17417360D01*
X7337829Y-17417360D02*
X7347353Y-17407836D01*
X7347353Y-17407836D02*
X7366400Y-17398313D01*
X7556876Y-17398313D02*
X7575924Y-17398313D01*
X7575924Y-17398313D02*
X7594972Y-17407836D01*
X7594972Y-17407836D02*
X7604496Y-17417360D01*
X7604496Y-17417360D02*
X7614019Y-17436408D01*
X7614019Y-17436408D02*
X7623543Y-17474503D01*
X7623543Y-17474503D02*
X7623543Y-17522122D01*
X7623543Y-17522122D02*
X7614019Y-17560217D01*
X7614019Y-17560217D02*
X7604496Y-17579265D01*
X7604496Y-17579265D02*
X7594972Y-17588789D01*
X7594972Y-17588789D02*
X7575924Y-17598313D01*
X7575924Y-17598313D02*
X7556876Y-17598313D01*
X7556876Y-17598313D02*
X7537829Y-17588789D01*
X7537829Y-17588789D02*
X7528305Y-17579265D01*
X7528305Y-17579265D02*
X7518781Y-17560217D01*
X7518781Y-17560217D02*
X7509257Y-17522122D01*
X7509257Y-17522122D02*
X7509257Y-17474503D01*
X7509257Y-17474503D02*
X7518781Y-17436408D01*
X7518781Y-17436408D02*
X7528305Y-17417360D01*
X7528305Y-17417360D02*
X7537829Y-17407836D01*
X7537829Y-17407836D02*
X7556876Y-17398313D01*
X7709257Y-17598313D02*
X7709257Y-17464979D01*
X7709257Y-17484027D02*
X7718781Y-17474503D01*
X7718781Y-17474503D02*
X7737829Y-17464979D01*
X7737829Y-17464979D02*
X7766400Y-17464979D01*
X7766400Y-17464979D02*
X7785448Y-17474503D01*
X7785448Y-17474503D02*
X7794972Y-17493551D01*
X7794972Y-17493551D02*
X7794972Y-17598313D01*
X7794972Y-17493551D02*
X7804496Y-17474503D01*
X7804496Y-17474503D02*
X7823543Y-17464979D01*
X7823543Y-17464979D02*
X7852115Y-17464979D01*
X7852115Y-17464979D02*
X7871162Y-17474503D01*
X7871162Y-17474503D02*
X7880686Y-17493551D01*
X7880686Y-17493551D02*
X7880686Y-17598313D01*
X7975924Y-17598313D02*
X7975924Y-17464979D01*
X7975924Y-17484027D02*
X7985448Y-17474503D01*
X7985448Y-17474503D02*
X8004496Y-17464979D01*
X8004496Y-17464979D02*
X8033067Y-17464979D01*
X8033067Y-17464979D02*
X8052115Y-17474503D01*
X8052115Y-17474503D02*
X8061638Y-17493551D01*
X8061638Y-17493551D02*
X8061638Y-17598313D01*
X8061638Y-17493551D02*
X8071162Y-17474503D01*
X8071162Y-17474503D02*
X8090210Y-17464979D01*
X8090210Y-17464979D02*
X8118781Y-17464979D01*
X8118781Y-17464979D02*
X8137829Y-17474503D01*
X8137829Y-17474503D02*
X8147353Y-17493551D01*
X8147353Y-17493551D02*
X8147353Y-17598313D01*
X8537829Y-17388789D02*
X8366400Y-17645932D01*
X8794972Y-17398313D02*
X8814020Y-17398313D01*
X8814020Y-17398313D02*
X8833067Y-17407836D01*
X8833067Y-17407836D02*
X8842591Y-17417360D01*
X8842591Y-17417360D02*
X8852115Y-17436408D01*
X8852115Y-17436408D02*
X8861639Y-17474503D01*
X8861639Y-17474503D02*
X8861639Y-17522122D01*
X8861639Y-17522122D02*
X8852115Y-17560217D01*
X8852115Y-17560217D02*
X8842591Y-17579265D01*
X8842591Y-17579265D02*
X8833067Y-17588789D01*
X8833067Y-17588789D02*
X8814020Y-17598313D01*
X8814020Y-17598313D02*
X8794972Y-17598313D01*
X8794972Y-17598313D02*
X8775924Y-17588789D01*
X8775924Y-17588789D02*
X8766401Y-17579265D01*
X8766401Y-17579265D02*
X8756877Y-17560217D01*
X8756877Y-17560217D02*
X8747353Y-17522122D01*
X8747353Y-17522122D02*
X8747353Y-17474503D01*
X8747353Y-17474503D02*
X8756877Y-17436408D01*
X8756877Y-17436408D02*
X8766401Y-17417360D01*
X8766401Y-17417360D02*
X8775924Y-17407836D01*
X8775924Y-17407836D02*
X8794972Y-17398313D01*
X8947353Y-17579265D02*
X8956877Y-17588789D01*
X8956877Y-17588789D02*
X8947353Y-17598313D01*
X8947353Y-17598313D02*
X8937829Y-17588789D01*
X8937829Y-17588789D02*
X8947353Y-17579265D01*
X8947353Y-17579265D02*
X8947353Y-17598313D01*
X9147353Y-17598313D02*
X9033067Y-17598313D01*
X9090210Y-17598313D02*
X9090210Y-17398313D01*
X9090210Y-17398313D02*
X9071162Y-17426884D01*
X9071162Y-17426884D02*
X9052115Y-17445932D01*
X9052115Y-17445932D02*
X9033067Y-17455455D01*
X9318782Y-17398313D02*
X9280686Y-17398313D01*
X9280686Y-17398313D02*
X9261639Y-17407836D01*
X9261639Y-17407836D02*
X9252115Y-17417360D01*
X9252115Y-17417360D02*
X9233067Y-17445932D01*
X9233067Y-17445932D02*
X9223543Y-17484027D01*
X9223543Y-17484027D02*
X9223543Y-17560217D01*
X9223543Y-17560217D02*
X9233067Y-17579265D01*
X9233067Y-17579265D02*
X9242591Y-17588789D01*
X9242591Y-17588789D02*
X9261639Y-17598313D01*
X9261639Y-17598313D02*
X9299734Y-17598313D01*
X9299734Y-17598313D02*
X9318782Y-17588789D01*
X9318782Y-17588789D02*
X9328305Y-17579265D01*
X9328305Y-17579265D02*
X9337829Y-17560217D01*
X9337829Y-17560217D02*
X9337829Y-17512598D01*
X9337829Y-17512598D02*
X9328305Y-17493551D01*
X9328305Y-17493551D02*
X9318782Y-17484027D01*
X9318782Y-17484027D02*
X9299734Y-17474503D01*
X9299734Y-17474503D02*
X9261639Y-17474503D01*
X9261639Y-17474503D02*
X9242591Y-17484027D01*
X9242591Y-17484027D02*
X9233067Y-17493551D01*
X9233067Y-17493551D02*
X9223543Y-17512598D01*
X9528305Y-17598313D02*
X9414020Y-17598313D01*
X9471162Y-17598313D02*
X9471162Y-17398313D01*
X9471162Y-17398313D02*
X9452115Y-17426884D01*
X9452115Y-17426884D02*
X9433067Y-17445932D01*
X9433067Y-17445932D02*
X9414020Y-17455455D01*
X9699734Y-17464979D02*
X9699734Y-17598313D01*
X9652115Y-17388789D02*
X9604496Y-17531646D01*
X9604496Y-17531646D02*
X9728305Y-17531646D01*
X9794972Y-17398313D02*
X9794972Y-17436408D01*
X9871163Y-17398313D02*
X9871163Y-17436408D01*
X10166401Y-17674503D02*
X10156877Y-17664979D01*
X10156877Y-17664979D02*
X10137829Y-17636408D01*
X10137829Y-17636408D02*
X10128305Y-17617360D01*
X10128305Y-17617360D02*
X10118782Y-17588789D01*
X10118782Y-17588789D02*
X10109258Y-17541170D01*
X10109258Y-17541170D02*
X10109258Y-17503075D01*
X10109258Y-17503075D02*
X10118782Y-17455455D01*
X10118782Y-17455455D02*
X10128305Y-17426884D01*
X10128305Y-17426884D02*
X10137829Y-17407836D01*
X10137829Y-17407836D02*
X10156877Y-17379265D01*
X10156877Y-17379265D02*
X10166401Y-17369741D01*
X10328305Y-17398313D02*
X10290210Y-17398313D01*
X10290210Y-17398313D02*
X10271163Y-17407836D01*
X10271163Y-17407836D02*
X10261639Y-17417360D01*
X10261639Y-17417360D02*
X10242591Y-17445932D01*
X10242591Y-17445932D02*
X10233067Y-17484027D01*
X10233067Y-17484027D02*
X10233067Y-17560217D01*
X10233067Y-17560217D02*
X10242591Y-17579265D01*
X10242591Y-17579265D02*
X10252115Y-17588789D01*
X10252115Y-17588789D02*
X10271163Y-17598313D01*
X10271163Y-17598313D02*
X10309258Y-17598313D01*
X10309258Y-17598313D02*
X10328305Y-17588789D01*
X10328305Y-17588789D02*
X10337829Y-17579265D01*
X10337829Y-17579265D02*
X10347353Y-17560217D01*
X10347353Y-17560217D02*
X10347353Y-17512598D01*
X10347353Y-17512598D02*
X10337829Y-17493551D01*
X10337829Y-17493551D02*
X10328305Y-17484027D01*
X10328305Y-17484027D02*
X10309258Y-17474503D01*
X10309258Y-17474503D02*
X10271163Y-17474503D01*
X10271163Y-17474503D02*
X10252115Y-17484027D01*
X10252115Y-17484027D02*
X10242591Y-17493551D01*
X10242591Y-17493551D02*
X10233067Y-17512598D01*
X10585448Y-17598313D02*
X10585448Y-17398313D01*
X10671163Y-17598313D02*
X10671163Y-17493551D01*
X10671163Y-17493551D02*
X10661639Y-17474503D01*
X10661639Y-17474503D02*
X10642591Y-17464979D01*
X10642591Y-17464979D02*
X10614020Y-17464979D01*
X10614020Y-17464979D02*
X10594972Y-17474503D01*
X10594972Y-17474503D02*
X10585448Y-17484027D01*
X10794972Y-17598313D02*
X10775925Y-17588789D01*
X10775925Y-17588789D02*
X10766401Y-17579265D01*
X10766401Y-17579265D02*
X10756877Y-17560217D01*
X10756877Y-17560217D02*
X10756877Y-17503075D01*
X10756877Y-17503075D02*
X10766401Y-17484027D01*
X10766401Y-17484027D02*
X10775925Y-17474503D01*
X10775925Y-17474503D02*
X10794972Y-17464979D01*
X10794972Y-17464979D02*
X10823544Y-17464979D01*
X10823544Y-17464979D02*
X10842591Y-17474503D01*
X10842591Y-17474503D02*
X10852115Y-17484027D01*
X10852115Y-17484027D02*
X10861639Y-17503075D01*
X10861639Y-17503075D02*
X10861639Y-17560217D01*
X10861639Y-17560217D02*
X10852115Y-17579265D01*
X10852115Y-17579265D02*
X10842591Y-17588789D01*
X10842591Y-17588789D02*
X10823544Y-17598313D01*
X10823544Y-17598313D02*
X10794972Y-17598313D01*
X10975925Y-17598313D02*
X10956877Y-17588789D01*
X10956877Y-17588789D02*
X10947353Y-17569741D01*
X10947353Y-17569741D02*
X10947353Y-17398313D01*
X11128306Y-17588789D02*
X11109258Y-17598313D01*
X11109258Y-17598313D02*
X11071163Y-17598313D01*
X11071163Y-17598313D02*
X11052115Y-17588789D01*
X11052115Y-17588789D02*
X11042591Y-17569741D01*
X11042591Y-17569741D02*
X11042591Y-17493551D01*
X11042591Y-17493551D02*
X11052115Y-17474503D01*
X11052115Y-17474503D02*
X11071163Y-17464979D01*
X11071163Y-17464979D02*
X11109258Y-17464979D01*
X11109258Y-17464979D02*
X11128306Y-17474503D01*
X11128306Y-17474503D02*
X11137829Y-17493551D01*
X11137829Y-17493551D02*
X11137829Y-17512598D01*
X11137829Y-17512598D02*
X11042591Y-17531646D01*
X11214020Y-17588789D02*
X11233067Y-17598313D01*
X11233067Y-17598313D02*
X11271163Y-17598313D01*
X11271163Y-17598313D02*
X11290210Y-17588789D01*
X11290210Y-17588789D02*
X11299734Y-17569741D01*
X11299734Y-17569741D02*
X11299734Y-17560217D01*
X11299734Y-17560217D02*
X11290210Y-17541170D01*
X11290210Y-17541170D02*
X11271163Y-17531646D01*
X11271163Y-17531646D02*
X11242591Y-17531646D01*
X11242591Y-17531646D02*
X11223544Y-17522122D01*
X11223544Y-17522122D02*
X11214020Y-17503075D01*
X11214020Y-17503075D02*
X11214020Y-17493551D01*
X11214020Y-17493551D02*
X11223544Y-17474503D01*
X11223544Y-17474503D02*
X11242591Y-17464979D01*
X11242591Y-17464979D02*
X11271163Y-17464979D01*
X11271163Y-17464979D02*
X11290210Y-17474503D01*
X11366401Y-17674503D02*
X11375925Y-17664979D01*
X11375925Y-17664979D02*
X11394972Y-17636408D01*
X11394972Y-17636408D02*
X11404496Y-17617360D01*
X11404496Y-17617360D02*
X11414020Y-17588789D01*
X11414020Y-17588789D02*
X11423544Y-17541170D01*
X11423544Y-17541170D02*
X11423544Y-17503075D01*
X11423544Y-17503075D02*
X11414020Y-17455455D01*
X11414020Y-17455455D02*
X11404496Y-17426884D01*
X11404496Y-17426884D02*
X11394972Y-17407836D01*
X11394972Y-17407836D02*
X11375925Y-17379265D01*
X11375925Y-17379265D02*
X11366401Y-17369741D01*
M02*
