G04 #@! TF.GenerationSoftware,KiCad,Pcbnew,7.0.8*
G04 #@! TF.CreationDate,2024-02-29T00:10:42-05:00*
G04 #@! TF.ProjectId,heawood4,68656177-6f6f-4643-942e-6b696361645f,1.0*
G04 #@! TF.SameCoordinates,Original*
G04 #@! TF.FileFunction,Soldermask,Bot*
G04 #@! TF.FilePolarity,Negative*
%FSLAX46Y46*%
G04 Gerber Fmt 4.6, Leading zero omitted, Abs format (unit mm)*
G04 Created by KiCad (PCBNEW 7.0.8) date 2024-02-29 00:10:42*
%MOMM*%
%LPD*%
G01*
G04 APERTURE LIST*
G04 Aperture macros list*
%AMRoundRect*
0 Rectangle with rounded corners*
0 $1 Rounding radius*
0 $2 $3 $4 $5 $6 $7 $8 $9 X,Y pos of 4 corners*
0 Add a 4 corners polygon primitive as box body*
4,1,4,$2,$3,$4,$5,$6,$7,$8,$9,$2,$3,0*
0 Add four circle primitives for the rounded corners*
1,1,$1+$1,$2,$3*
1,1,$1+$1,$4,$5*
1,1,$1+$1,$6,$7*
1,1,$1+$1,$8,$9*
0 Add four rect primitives between the rounded corners*
20,1,$1+$1,$2,$3,$4,$5,0*
20,1,$1+$1,$4,$5,$6,$7,0*
20,1,$1+$1,$6,$7,$8,$9,0*
20,1,$1+$1,$8,$9,$2,$3,0*%
G04 Aperture macros list end*
%ADD10C,0.125000*%
%ADD11RoundRect,0.200000X-0.850000X-0.500000X0.850000X-0.500000X0.850000X0.500000X-0.850000X0.500000X0*%
%ADD12RoundRect,0.200000X-0.950446X-0.262967X0.691627X-0.702959X0.950446X0.262967X-0.691627X0.702959X0*%
%ADD13RoundRect,0.200000X0.008013X-0.986122X0.858013X0.486122X-0.008013X0.986122X-0.858013X-0.486122X0*%
%ADD14RoundRect,0.200000X0.400000X-0.500000X0.400000X0.500000X-0.400000X0.500000X-0.400000X-0.500000X0*%
%ADD15C,1.300000*%
%ADD16RoundRect,0.200000X0.750000X-0.350000X0.750000X0.350000X-0.750000X0.350000X-0.750000X-0.350000X0*%
%ADD17C,5.400000*%
%ADD18RoundRect,0.450000X-0.350000X-0.625000X0.350000X-0.625000X0.350000X0.625000X-0.350000X0.625000X0*%
%ADD19O,1.600000X2.150000*%
%ADD20C,2.200000*%
%ADD21C,3.400000*%
%ADD22C,3.800000*%
%ADD23RoundRect,0.200000X-0.552628X1.242820X-1.352628X-0.142820X0.552628X-1.242820X1.352628X0.142820X0*%
%ADD24RoundRect,0.200000X1.057442X0.855463X-0.488040X1.269574X-1.057442X-0.855463X0.488040X-1.269574X0*%
%ADD25RoundRect,0.200000X0.800000X1.100000X-0.800000X1.100000X-0.800000X-1.100000X0.800000X-1.100000X0*%
%ADD26C,1.924000*%
%ADD27C,2.400000*%
%ADD28C,1.797000*%
%ADD29RoundRect,0.200000X-0.571500X0.317500X-0.571500X-0.317500X0.571500X-0.317500X0.571500X0.317500X0*%
%ADD30C,4.400000*%
G04 APERTURE END LIST*
D10*
X111929668Y-117651119D02*
X111929668Y-116651119D01*
X111929668Y-117127309D02*
X111358240Y-117127309D01*
X111358240Y-117651119D02*
X111358240Y-116651119D01*
X110501097Y-117603500D02*
X110596335Y-117651119D01*
X110596335Y-117651119D02*
X110786811Y-117651119D01*
X110786811Y-117651119D02*
X110882049Y-117603500D01*
X110882049Y-117603500D02*
X110929668Y-117508261D01*
X110929668Y-117508261D02*
X110929668Y-117127309D01*
X110929668Y-117127309D02*
X110882049Y-117032071D01*
X110882049Y-117032071D02*
X110786811Y-116984452D01*
X110786811Y-116984452D02*
X110596335Y-116984452D01*
X110596335Y-116984452D02*
X110501097Y-117032071D01*
X110501097Y-117032071D02*
X110453478Y-117127309D01*
X110453478Y-117127309D02*
X110453478Y-117222547D01*
X110453478Y-117222547D02*
X110929668Y-117317785D01*
X109596335Y-117651119D02*
X109596335Y-117127309D01*
X109596335Y-117127309D02*
X109643954Y-117032071D01*
X109643954Y-117032071D02*
X109739192Y-116984452D01*
X109739192Y-116984452D02*
X109929668Y-116984452D01*
X109929668Y-116984452D02*
X110024906Y-117032071D01*
X109596335Y-117603500D02*
X109691573Y-117651119D01*
X109691573Y-117651119D02*
X109929668Y-117651119D01*
X109929668Y-117651119D02*
X110024906Y-117603500D01*
X110024906Y-117603500D02*
X110072525Y-117508261D01*
X110072525Y-117508261D02*
X110072525Y-117413023D01*
X110072525Y-117413023D02*
X110024906Y-117317785D01*
X110024906Y-117317785D02*
X109929668Y-117270166D01*
X109929668Y-117270166D02*
X109691573Y-117270166D01*
X109691573Y-117270166D02*
X109596335Y-117222547D01*
X109215382Y-116984452D02*
X109024906Y-117651119D01*
X109024906Y-117651119D02*
X108834430Y-117174928D01*
X108834430Y-117174928D02*
X108643954Y-117651119D01*
X108643954Y-117651119D02*
X108453478Y-116984452D01*
X107929668Y-117651119D02*
X108024906Y-117603500D01*
X108024906Y-117603500D02*
X108072525Y-117555880D01*
X108072525Y-117555880D02*
X108120144Y-117460642D01*
X108120144Y-117460642D02*
X108120144Y-117174928D01*
X108120144Y-117174928D02*
X108072525Y-117079690D01*
X108072525Y-117079690D02*
X108024906Y-117032071D01*
X108024906Y-117032071D02*
X107929668Y-116984452D01*
X107929668Y-116984452D02*
X107786811Y-116984452D01*
X107786811Y-116984452D02*
X107691573Y-117032071D01*
X107691573Y-117032071D02*
X107643954Y-117079690D01*
X107643954Y-117079690D02*
X107596335Y-117174928D01*
X107596335Y-117174928D02*
X107596335Y-117460642D01*
X107596335Y-117460642D02*
X107643954Y-117555880D01*
X107643954Y-117555880D02*
X107691573Y-117603500D01*
X107691573Y-117603500D02*
X107786811Y-117651119D01*
X107786811Y-117651119D02*
X107929668Y-117651119D01*
X107024906Y-117651119D02*
X107120144Y-117603500D01*
X107120144Y-117603500D02*
X107167763Y-117555880D01*
X107167763Y-117555880D02*
X107215382Y-117460642D01*
X107215382Y-117460642D02*
X107215382Y-117174928D01*
X107215382Y-117174928D02*
X107167763Y-117079690D01*
X107167763Y-117079690D02*
X107120144Y-117032071D01*
X107120144Y-117032071D02*
X107024906Y-116984452D01*
X107024906Y-116984452D02*
X106882049Y-116984452D01*
X106882049Y-116984452D02*
X106786811Y-117032071D01*
X106786811Y-117032071D02*
X106739192Y-117079690D01*
X106739192Y-117079690D02*
X106691573Y-117174928D01*
X106691573Y-117174928D02*
X106691573Y-117460642D01*
X106691573Y-117460642D02*
X106739192Y-117555880D01*
X106739192Y-117555880D02*
X106786811Y-117603500D01*
X106786811Y-117603500D02*
X106882049Y-117651119D01*
X106882049Y-117651119D02*
X107024906Y-117651119D01*
X105834430Y-117651119D02*
X105834430Y-116651119D01*
X105834430Y-117603500D02*
X105929668Y-117651119D01*
X105929668Y-117651119D02*
X106120144Y-117651119D01*
X106120144Y-117651119D02*
X106215382Y-117603500D01*
X106215382Y-117603500D02*
X106263001Y-117555880D01*
X106263001Y-117555880D02*
X106310620Y-117460642D01*
X106310620Y-117460642D02*
X106310620Y-117174928D01*
X106310620Y-117174928D02*
X106263001Y-117079690D01*
X106263001Y-117079690D02*
X106215382Y-117032071D01*
X106215382Y-117032071D02*
X106120144Y-116984452D01*
X106120144Y-116984452D02*
X105929668Y-116984452D01*
X105929668Y-116984452D02*
X105834430Y-117032071D01*
X104929668Y-116984452D02*
X104929668Y-117651119D01*
X105167763Y-116603500D02*
X105405858Y-117317785D01*
X105405858Y-117317785D02*
X104786811Y-117317785D01*
X104453477Y-116746357D02*
X104405858Y-116698738D01*
X104405858Y-116698738D02*
X104310620Y-116651119D01*
X104310620Y-116651119D02*
X104072525Y-116651119D01*
X104072525Y-116651119D02*
X103977287Y-116698738D01*
X103977287Y-116698738D02*
X103929668Y-116746357D01*
X103929668Y-116746357D02*
X103882049Y-116841595D01*
X103882049Y-116841595D02*
X103882049Y-116936833D01*
X103882049Y-116936833D02*
X103929668Y-117079690D01*
X103929668Y-117079690D02*
X104501096Y-117651119D01*
X104501096Y-117651119D02*
X103882049Y-117651119D01*
X111167763Y-118880166D02*
X110405859Y-118880166D01*
X110072525Y-118261119D02*
X109501097Y-118261119D01*
X109786811Y-119261119D02*
X109786811Y-118261119D01*
X109167763Y-119261119D02*
X109167763Y-118594452D01*
X109167763Y-118784928D02*
X109120144Y-118689690D01*
X109120144Y-118689690D02*
X109072525Y-118642071D01*
X109072525Y-118642071D02*
X108977287Y-118594452D01*
X108977287Y-118594452D02*
X108882049Y-118594452D01*
X108548715Y-119261119D02*
X108548715Y-118594452D01*
X108548715Y-118261119D02*
X108596334Y-118308738D01*
X108596334Y-118308738D02*
X108548715Y-118356357D01*
X108548715Y-118356357D02*
X108501096Y-118308738D01*
X108501096Y-118308738D02*
X108548715Y-118261119D01*
X108548715Y-118261119D02*
X108548715Y-118356357D01*
X107929668Y-119261119D02*
X108024906Y-119213500D01*
X108024906Y-119213500D02*
X108072525Y-119118261D01*
X108072525Y-119118261D02*
X108072525Y-118261119D01*
X107548715Y-119261119D02*
X107548715Y-118594452D01*
X107548715Y-118261119D02*
X107596334Y-118308738D01*
X107596334Y-118308738D02*
X107548715Y-118356357D01*
X107548715Y-118356357D02*
X107501096Y-118308738D01*
X107501096Y-118308738D02*
X107548715Y-118261119D01*
X107548715Y-118261119D02*
X107548715Y-118356357D01*
X106643954Y-118594452D02*
X106643954Y-119261119D01*
X107072525Y-118594452D02*
X107072525Y-119118261D01*
X107072525Y-119118261D02*
X107024906Y-119213500D01*
X107024906Y-119213500D02*
X106929668Y-119261119D01*
X106929668Y-119261119D02*
X106786811Y-119261119D01*
X106786811Y-119261119D02*
X106691573Y-119213500D01*
X106691573Y-119213500D02*
X106643954Y-119165880D01*
X106167763Y-118880166D02*
X105405859Y-118880166D01*
D11*
X108250331Y-84097921D03*
X108250331Y-85497921D03*
X113750331Y-85497921D03*
X113750331Y-84097921D03*
X162250331Y-86597921D03*
X162250331Y-87997921D03*
X167750331Y-87997921D03*
X167750331Y-86597921D03*
X90250331Y-106097921D03*
X90250331Y-107497921D03*
X95750331Y-107497921D03*
X95750331Y-106097921D03*
X108250331Y-67097921D03*
X108250331Y-68497921D03*
X113750331Y-68497921D03*
X113750331Y-67097921D03*
D12*
X153492185Y-121070326D03*
X153129838Y-122422622D03*
X158442430Y-123846127D03*
X158804777Y-122493830D03*
D13*
X170946828Y-132930244D03*
X172159263Y-133630244D03*
X174909263Y-128867104D03*
X173696828Y-128167104D03*
X187196828Y-142180244D03*
X188409263Y-142880244D03*
X191159263Y-138117104D03*
X189946828Y-137417104D03*
D11*
X90250331Y-72097921D03*
X90250331Y-73497921D03*
X95750331Y-73497921D03*
X95750331Y-72097921D03*
X126250331Y-64597921D03*
X126250331Y-65997921D03*
X131750331Y-65997921D03*
X131750331Y-64597921D03*
X144250331Y-67097921D03*
X144250331Y-68497921D03*
X149750331Y-68497921D03*
X149750331Y-67097921D03*
X162250331Y-69597921D03*
X162250331Y-70997921D03*
X167750331Y-70997921D03*
X167750331Y-69597921D03*
X72250331Y-97597921D03*
X72250331Y-98997921D03*
X77750331Y-98997921D03*
X77750331Y-97597921D03*
X90250331Y-89097921D03*
X90250331Y-90497921D03*
X95750331Y-90497921D03*
X95750331Y-89097921D03*
X126250331Y-81597921D03*
X126250331Y-82997921D03*
X131750331Y-82997921D03*
X131750331Y-81597921D03*
X144250331Y-84097921D03*
X144250331Y-85497921D03*
X149750331Y-85497921D03*
X149750331Y-84097921D03*
X131500331Y-118597921D03*
X131500331Y-119997921D03*
X137000331Y-119997921D03*
X137000331Y-118597921D03*
X108250331Y-101097921D03*
X108250331Y-102497921D03*
X113750331Y-102497921D03*
X113750331Y-101097921D03*
X126250331Y-98597921D03*
X126250331Y-99997921D03*
X131750331Y-99997921D03*
X131750331Y-98597921D03*
X144250331Y-101097921D03*
X144250331Y-102497921D03*
X149750331Y-102497921D03*
X149750331Y-101097921D03*
X162250331Y-103597921D03*
X162250331Y-104997921D03*
X167750331Y-104997921D03*
X167750331Y-103597921D03*
X72250331Y-80597921D03*
X72250331Y-81997921D03*
X77750331Y-81997921D03*
X77750331Y-80597921D03*
D14*
X191970000Y-117900000D03*
X194180000Y-117900000D03*
D15*
X193080000Y-115750000D03*
X193080000Y-112750000D03*
D14*
X191970000Y-110600000D03*
X194180000Y-110600000D03*
D16*
X191320000Y-112000000D03*
X191320000Y-115000000D03*
X191320000Y-116500000D03*
D17*
X134500000Y-114250000D03*
X84500000Y-102500000D03*
X166250000Y-121000032D03*
D18*
X185500000Y-114750000D03*
D19*
X187500000Y-114750000D03*
D20*
X179750000Y-128486860D03*
D21*
X182704294Y-130769873D03*
X182109550Y-136200000D03*
D22*
X177000000Y-133250000D03*
D21*
X177704294Y-139430127D03*
D20*
X174250000Y-138013140D03*
D23*
X176304294Y-141854998D03*
X183509550Y-133775129D03*
D20*
X160062592Y-128423505D03*
D21*
X158621999Y-131868021D03*
X153222968Y-132698962D03*
D22*
X154750000Y-127000000D03*
D21*
X148962740Y-129279830D03*
D20*
X149437408Y-125576495D03*
D24*
X146258148Y-128555137D03*
X155927560Y-133423656D03*
D20*
X80500000Y-86000000D03*
D21*
X80000000Y-89700000D03*
X75000000Y-91900000D03*
D22*
X75000000Y-86000000D03*
D21*
X70000000Y-89700000D03*
D20*
X69500000Y-86000000D03*
D25*
X67200000Y-89700000D03*
X77800000Y-91900000D03*
D20*
X98500000Y-77500000D03*
D21*
X98000000Y-81200000D03*
X93000000Y-83400000D03*
D22*
X93000000Y-77500000D03*
D21*
X88000000Y-81200000D03*
D20*
X87500000Y-77500000D03*
D25*
X85200000Y-81200000D03*
X95800000Y-83400000D03*
D20*
X116500000Y-72500000D03*
D21*
X116000000Y-76200000D03*
X111000000Y-78400000D03*
D22*
X111000000Y-72500000D03*
D21*
X106000000Y-76200000D03*
D20*
X105500000Y-72500000D03*
D25*
X103200000Y-76200000D03*
X113800000Y-78400000D03*
D20*
X134500000Y-70000000D03*
D21*
X134000000Y-73700000D03*
X129000000Y-75900000D03*
D22*
X129000000Y-70000000D03*
D21*
X124000000Y-73700000D03*
D20*
X123500000Y-70000000D03*
D25*
X121200000Y-73700000D03*
X131800000Y-75900000D03*
D20*
X152500000Y-72500000D03*
D21*
X152000000Y-76200000D03*
X147000000Y-78400000D03*
D22*
X147000000Y-72500000D03*
D21*
X142000000Y-76200000D03*
D20*
X141500000Y-72500000D03*
D25*
X139200000Y-76200000D03*
X149800000Y-78400000D03*
D20*
X170500000Y-75000000D03*
D21*
X170000000Y-78700000D03*
X165000000Y-80900000D03*
D22*
X165000000Y-75000000D03*
D21*
X160000000Y-78700000D03*
D20*
X159500000Y-75000000D03*
D25*
X157200000Y-78700000D03*
X167800000Y-80900000D03*
D20*
X80500000Y-103000000D03*
D21*
X80000000Y-106700000D03*
X75000000Y-108900000D03*
D22*
X75000000Y-103000000D03*
D21*
X70000000Y-106700000D03*
D20*
X69500000Y-103000000D03*
D25*
X67200000Y-106700000D03*
X77800000Y-108900000D03*
D20*
X98500000Y-94500000D03*
D21*
X98000000Y-98200000D03*
X93000000Y-100400000D03*
D22*
X93000000Y-94500000D03*
D21*
X88000000Y-98200000D03*
D20*
X87500000Y-94500000D03*
D25*
X85200000Y-98200000D03*
X95800000Y-100400000D03*
D20*
X116500000Y-89500000D03*
D21*
X116000000Y-93200000D03*
X111000000Y-95400000D03*
D22*
X111000000Y-89500000D03*
D21*
X106000000Y-93200000D03*
D20*
X105500000Y-89500000D03*
D25*
X103200000Y-93200000D03*
X113800000Y-95400000D03*
D20*
X134500000Y-87000000D03*
D21*
X134000000Y-90700000D03*
X129000000Y-92900000D03*
D22*
X129000000Y-87000000D03*
D21*
X124000000Y-90700000D03*
D20*
X123500000Y-87000000D03*
D25*
X121200000Y-90700000D03*
X131800000Y-92900000D03*
D20*
X152500000Y-89500000D03*
D21*
X152000000Y-93200000D03*
X147000000Y-95400000D03*
D22*
X147000000Y-89500000D03*
D21*
X142000000Y-93200000D03*
D20*
X141500000Y-89500000D03*
D25*
X139200000Y-93200000D03*
X149800000Y-95400000D03*
D20*
X170500000Y-92000000D03*
D21*
X170000000Y-95700000D03*
X165000000Y-97900000D03*
D22*
X165000000Y-92000000D03*
D21*
X160000000Y-95700000D03*
D20*
X159500000Y-92000000D03*
D25*
X157200000Y-95700000D03*
X167800000Y-97900000D03*
D20*
X139750000Y-124000000D03*
D21*
X139250000Y-127700000D03*
X134250000Y-129900000D03*
D22*
X134250000Y-124000000D03*
D21*
X129250000Y-127700000D03*
D20*
X128750000Y-124000000D03*
D25*
X126450000Y-127700000D03*
X137050000Y-129900000D03*
D20*
X98500000Y-111500000D03*
D21*
X98000000Y-115200000D03*
X93000000Y-117400000D03*
D22*
X93000000Y-111500000D03*
D21*
X88000000Y-115200000D03*
D20*
X87500000Y-111500000D03*
D25*
X85200000Y-115200000D03*
X95800000Y-117400000D03*
D20*
X116500000Y-106500000D03*
D21*
X116000000Y-110200000D03*
X111000000Y-112400000D03*
D22*
X111000000Y-106500000D03*
D21*
X106000000Y-110200000D03*
D20*
X105500000Y-106500000D03*
D25*
X103200000Y-110200000D03*
X113800000Y-112400000D03*
D20*
X134500000Y-104000000D03*
D21*
X134000000Y-107700000D03*
X129000000Y-109900000D03*
D22*
X129000000Y-104000000D03*
D21*
X124000000Y-107700000D03*
D20*
X123500000Y-104000000D03*
D25*
X121200000Y-107700000D03*
X131800000Y-109900000D03*
D20*
X152500000Y-106500000D03*
D21*
X152000000Y-110200000D03*
X147000000Y-112400000D03*
D22*
X147000000Y-106500000D03*
D21*
X142000000Y-110200000D03*
D20*
X141500000Y-106500000D03*
D25*
X139200000Y-110200000D03*
X149800000Y-112400000D03*
D20*
X170500000Y-109000000D03*
D21*
X170000000Y-112700000D03*
X165000000Y-114900000D03*
D22*
X165000000Y-109000000D03*
D21*
X160000000Y-112700000D03*
D20*
X159500000Y-109000000D03*
D25*
X157200000Y-112700000D03*
X167800000Y-114900000D03*
D26*
X178311900Y-78812000D03*
X178311900Y-81352000D03*
X178311900Y-83892000D03*
X178311900Y-86432000D03*
X178311900Y-88972000D03*
X178311900Y-91512000D03*
X178311900Y-94052000D03*
X178311900Y-96592000D03*
X178311900Y-99132000D03*
X178311900Y-101672000D03*
X178311900Y-104212000D03*
X178311900Y-106752000D03*
X193531900Y-106752000D03*
X193531900Y-104212000D03*
X193531900Y-101672000D03*
X193531900Y-99132000D03*
X193531900Y-96592000D03*
X193531900Y-94052000D03*
X193531900Y-91512000D03*
X193531900Y-88972000D03*
X193531900Y-86432000D03*
X193531900Y-83892000D03*
X193531900Y-81352000D03*
X193531900Y-78812000D03*
X176985500Y-80082000D03*
X176985500Y-82622000D03*
X176985500Y-85162000D03*
X176985500Y-87702000D03*
X176985500Y-90242000D03*
X176985500Y-92782000D03*
X176985500Y-95322000D03*
X176985500Y-97862000D03*
X176985500Y-100402000D03*
X176985500Y-102942000D03*
X176985500Y-105482000D03*
X176985500Y-108022000D03*
X192225500Y-108022000D03*
X192225500Y-105482000D03*
X192225500Y-102942000D03*
X192225500Y-100402000D03*
X192225500Y-97862000D03*
X192225500Y-95322000D03*
X192225500Y-92782000D03*
X192225500Y-90242000D03*
X192225500Y-87702000D03*
X192225500Y-85162000D03*
X192225500Y-82622000D03*
X192225500Y-80082000D03*
D27*
X187064583Y-119875000D03*
X181435417Y-116625000D03*
D28*
X181436893Y-112418328D03*
X183976893Y-112418328D03*
X186516893Y-112418328D03*
X189056893Y-112418328D03*
D20*
X196000000Y-137736860D03*
D21*
X198954294Y-140019873D03*
X198359550Y-145450000D03*
D22*
X193250000Y-142500000D03*
D21*
X193954294Y-148680127D03*
D20*
X190500000Y-147263140D03*
D23*
X192554294Y-151104998D03*
X199759550Y-143025129D03*
D29*
X189000500Y-107789620D03*
X189000500Y-108790380D03*
X186500500Y-107789620D03*
X186500500Y-108790380D03*
X184000500Y-107789620D03*
X184000500Y-108790380D03*
X181500500Y-107789620D03*
X181500500Y-108790380D03*
D30*
X192250000Y-121500000D03*
X177760000Y-113000000D03*
D17*
X120000000Y-81250000D03*
X84500000Y-85750000D03*
X156500000Y-83500000D03*
M02*
