M48
; DRILL file {KiCad 7.0.8} date Thu Feb 29 00:10:49 2024
; FORMAT={-:-/ absolute / inch / decimal}
; #@! TF.CreationDate,2024-02-29T00:10:49-05:00
; #@! TF.GenerationSoftware,Kicad,Pcbnew,7.0.8
; #@! TF.FileFunction,NonPlated,1,2,NPTH
FMAT,2
INCH
; #@! TA.AperFunction,NonPlated,NPTH,ComponentDrill
T1C0.0354
; #@! TA.AperFunction,NonPlated,NPTH,ComponentDrill
T2C0.0709
; #@! TA.AperFunction,NonPlated,NPTH,ComponentDrill
T3C0.1181
; #@! TA.AperFunction,NonPlated,NPTH,ComponentDrill
T4C0.1339
%
G90
G05
T1
X7.6016Y-4.439
X7.6016Y-4.5571
T2
X2.7362Y-3.3858
X2.7362Y-4.0551
X3.1693Y-3.3858
X3.1693Y-4.0551
X3.4449Y-3.0512
X3.4449Y-3.7205
X3.4449Y-4.3898
X3.878Y-3.0512
X3.878Y-3.7205
X3.878Y-4.3898
X4.1535Y-2.8543
X4.1535Y-3.5236
X4.1535Y-4.1929
X4.5866Y-2.8543
X4.5866Y-3.5236
X4.5866Y-4.1929
X4.8622Y-2.7559
X4.8622Y-3.4252
X4.8622Y-4.0945
X5.0689Y-4.8819
X5.2953Y-2.7559
X5.2953Y-3.4252
X5.2953Y-4.0945
X5.502Y-4.8819
X5.5709Y-2.8543
X5.5709Y-3.5236
X5.5709Y-4.1929
X5.8834Y-4.944
X6.0039Y-2.8543
X6.0039Y-3.5236
X6.0039Y-4.1929
X6.2795Y-2.9528
X6.2795Y-3.622
X6.2795Y-4.2913
X6.3017Y-5.056
X6.7126Y-2.9528
X6.7126Y-3.622
X6.7126Y-4.2913
X6.8602Y-5.4336
X7.0768Y-5.0585
X7.5Y-5.7978
X7.7165Y-5.4227
T3
X2.7559Y-3.5315
X2.7559Y-4.2008
X2.9528Y-3.6181
X2.9528Y-4.2874
X3.1496Y-3.5315
X3.1496Y-4.2008
X3.4646Y-3.1969
X3.4646Y-3.8661
X3.4646Y-4.5354
X3.6614Y-3.2835
X3.6614Y-3.9528
X3.6614Y-4.622
X3.8583Y-3.1969
X3.8583Y-3.8661
X3.8583Y-4.5354
X4.1732Y-3.0
X4.1732Y-3.6693
X4.1732Y-4.3386
X4.3701Y-3.0866
X4.3701Y-3.7559
X4.3701Y-4.4252
X4.5669Y-3.0
X4.5669Y-3.6693
X4.5669Y-4.3386
X4.8819Y-2.9016
X4.8819Y-3.5709
X4.8819Y-4.2402
X5.0787Y-2.9882
X5.0787Y-3.6575
X5.0787Y-4.3268
X5.0886Y-5.0276
X5.2756Y-2.9016
X5.2756Y-3.5709
X5.2756Y-4.2402
X5.2854Y-5.1142
X5.4823Y-5.0276
X5.5906Y-3.0
X5.5906Y-3.6693
X5.5906Y-4.3386
X5.7874Y-3.0866
X5.7874Y-3.7559
X5.7874Y-4.4252
X5.8647Y-5.0898
X5.9843Y-3.0
X5.9843Y-3.6693
X5.9843Y-4.3386
X6.0324Y-5.2244
X6.245Y-5.1917
X6.2992Y-3.0984
X6.2992Y-3.7677
X6.2992Y-4.437
X6.4961Y-3.185
X6.4961Y-3.8543
X6.4961Y-4.5236
X6.6929Y-3.0984
X6.6929Y-3.7677
X6.6929Y-4.437
X6.9962Y-5.4894
X7.1697Y-5.3622
X7.1931Y-5.1484
X7.636Y-5.8535
X7.8094Y-5.7264
X7.8328Y-5.5126
T4
X2.9528Y-3.3858
X2.9528Y-4.0551
X3.6614Y-3.0512
X3.6614Y-3.7205
X3.6614Y-4.3898
X4.3701Y-2.8543
X4.3701Y-3.5236
X4.3701Y-4.1929
X5.0787Y-2.7559
X5.0787Y-3.4252
X5.0787Y-4.0945
X5.2854Y-4.8819
X5.7874Y-2.8543
X5.7874Y-3.5236
X5.7874Y-4.1929
X6.0925Y-5.0
X6.4961Y-2.9528
X6.4961Y-3.622
X6.4961Y-4.2913
X6.9685Y-5.2461
X7.6083Y-5.6102
T0
M30
