G04 #@! TF.GenerationSoftware,KiCad,Pcbnew,7.0.8*
G04 #@! TF.CreationDate,2024-02-29T00:10:42-05:00*
G04 #@! TF.ProjectId,heawood4,68656177-6f6f-4643-942e-6b696361645f,1.0*
G04 #@! TF.SameCoordinates,Original*
G04 #@! TF.FileFunction,Legend,Bot*
G04 #@! TF.FilePolarity,Positive*
%FSLAX46Y46*%
G04 Gerber Fmt 4.6, Leading zero omitted, Abs format (unit mm)*
G04 Created by KiCad (PCBNEW 7.0.8) date 2024-02-29 00:10:42*
%MOMM*%
%LPD*%
G01*
G04 APERTURE LIST*
%ADD10C,0.125000*%
%ADD11C,0.150000*%
%ADD12C,0.120000*%
G04 APERTURE END LIST*
D10*
X190411738Y-80485964D02*
X190578404Y-80128821D01*
X190697452Y-80485964D02*
X190697452Y-79735964D01*
X190697452Y-79735964D02*
X190506976Y-79735964D01*
X190506976Y-79735964D02*
X190459357Y-79771678D01*
X190459357Y-79771678D02*
X190435547Y-79807392D01*
X190435547Y-79807392D02*
X190411738Y-79878821D01*
X190411738Y-79878821D02*
X190411738Y-79985964D01*
X190411738Y-79985964D02*
X190435547Y-80057392D01*
X190435547Y-80057392D02*
X190459357Y-80093107D01*
X190459357Y-80093107D02*
X190506976Y-80128821D01*
X190506976Y-80128821D02*
X190697452Y-80128821D01*
X190221261Y-80271678D02*
X189983166Y-80271678D01*
X190268880Y-80485964D02*
X190102214Y-79735964D01*
X190102214Y-79735964D02*
X189935547Y-80485964D01*
X189816500Y-79735964D02*
X189697452Y-80485964D01*
X189697452Y-80485964D02*
X189602214Y-79950250D01*
X189602214Y-79950250D02*
X189506976Y-80485964D01*
X189506976Y-80485964D02*
X189387929Y-79735964D01*
X175147928Y-80485964D02*
X175386023Y-80485964D01*
X175386023Y-80485964D02*
X175386023Y-79735964D01*
X174981261Y-80093107D02*
X174814594Y-80093107D01*
X174743166Y-80485964D02*
X174981261Y-80485964D01*
X174981261Y-80485964D02*
X174981261Y-79735964D01*
X174981261Y-79735964D02*
X174743166Y-79735964D01*
X174528880Y-80485964D02*
X174528880Y-79735964D01*
X174528880Y-79735964D02*
X174409832Y-79735964D01*
X174409832Y-79735964D02*
X174338404Y-79771678D01*
X174338404Y-79771678D02*
X174290785Y-79843107D01*
X174290785Y-79843107D02*
X174266975Y-79914535D01*
X174266975Y-79914535D02*
X174243166Y-80057392D01*
X174243166Y-80057392D02*
X174243166Y-80164535D01*
X174243166Y-80164535D02*
X174266975Y-80307392D01*
X174266975Y-80307392D02*
X174290785Y-80378821D01*
X174290785Y-80378821D02*
X174338404Y-80450250D01*
X174338404Y-80450250D02*
X174409832Y-80485964D01*
X174409832Y-80485964D02*
X174528880Y-80485964D01*
X190383952Y-82248178D02*
X190431571Y-82212464D01*
X190431571Y-82212464D02*
X190503000Y-82212464D01*
X190503000Y-82212464D02*
X190574428Y-82248178D01*
X190574428Y-82248178D02*
X190622047Y-82319607D01*
X190622047Y-82319607D02*
X190645857Y-82391035D01*
X190645857Y-82391035D02*
X190669666Y-82533892D01*
X190669666Y-82533892D02*
X190669666Y-82641035D01*
X190669666Y-82641035D02*
X190645857Y-82783892D01*
X190645857Y-82783892D02*
X190622047Y-82855321D01*
X190622047Y-82855321D02*
X190574428Y-82926750D01*
X190574428Y-82926750D02*
X190503000Y-82962464D01*
X190503000Y-82962464D02*
X190455381Y-82962464D01*
X190455381Y-82962464D02*
X190383952Y-82926750D01*
X190383952Y-82926750D02*
X190360143Y-82891035D01*
X190360143Y-82891035D02*
X190360143Y-82641035D01*
X190360143Y-82641035D02*
X190455381Y-82641035D01*
X190145857Y-82962464D02*
X190145857Y-82212464D01*
X190145857Y-82212464D02*
X189860143Y-82962464D01*
X189860143Y-82962464D02*
X189860143Y-82212464D01*
X189622047Y-82962464D02*
X189622047Y-82212464D01*
X189622047Y-82212464D02*
X189502999Y-82212464D01*
X189502999Y-82212464D02*
X189431571Y-82248178D01*
X189431571Y-82248178D02*
X189383952Y-82319607D01*
X189383952Y-82319607D02*
X189360142Y-82391035D01*
X189360142Y-82391035D02*
X189336333Y-82533892D01*
X189336333Y-82533892D02*
X189336333Y-82641035D01*
X189336333Y-82641035D02*
X189360142Y-82783892D01*
X189360142Y-82783892D02*
X189383952Y-82855321D01*
X189383952Y-82855321D02*
X189431571Y-82926750D01*
X189431571Y-82926750D02*
X189502999Y-82962464D01*
X189502999Y-82962464D02*
X189622047Y-82962464D01*
X175425499Y-83130464D02*
X175425499Y-82380464D01*
X175425499Y-82380464D02*
X175306451Y-82380464D01*
X175306451Y-82380464D02*
X175235023Y-82416178D01*
X175235023Y-82416178D02*
X175187404Y-82487607D01*
X175187404Y-82487607D02*
X175163594Y-82559035D01*
X175163594Y-82559035D02*
X175139785Y-82701892D01*
X175139785Y-82701892D02*
X175139785Y-82809035D01*
X175139785Y-82809035D02*
X175163594Y-82951892D01*
X175163594Y-82951892D02*
X175187404Y-83023321D01*
X175187404Y-83023321D02*
X175235023Y-83094750D01*
X175235023Y-83094750D02*
X175306451Y-83130464D01*
X175306451Y-83130464D02*
X175425499Y-83130464D01*
X174949308Y-82916178D02*
X174711213Y-82916178D01*
X174996927Y-83130464D02*
X174830261Y-82380464D01*
X174830261Y-82380464D02*
X174663594Y-83130464D01*
X174568356Y-82380464D02*
X174282642Y-82380464D01*
X174425499Y-83130464D02*
X174425499Y-82380464D01*
X174139785Y-82916178D02*
X173901690Y-82916178D01*
X174187404Y-83130464D02*
X174020738Y-82380464D01*
X174020738Y-82380464D02*
X173854071Y-83130464D01*
X190340309Y-85565964D02*
X190506975Y-85208821D01*
X190626023Y-85565964D02*
X190626023Y-84815964D01*
X190626023Y-84815964D02*
X190435547Y-84815964D01*
X190435547Y-84815964D02*
X190387928Y-84851678D01*
X190387928Y-84851678D02*
X190364118Y-84887392D01*
X190364118Y-84887392D02*
X190340309Y-84958821D01*
X190340309Y-84958821D02*
X190340309Y-85065964D01*
X190340309Y-85065964D02*
X190364118Y-85137392D01*
X190364118Y-85137392D02*
X190387928Y-85173107D01*
X190387928Y-85173107D02*
X190435547Y-85208821D01*
X190435547Y-85208821D02*
X190626023Y-85208821D01*
X190149832Y-85530250D02*
X190078404Y-85565964D01*
X190078404Y-85565964D02*
X189959356Y-85565964D01*
X189959356Y-85565964D02*
X189911737Y-85530250D01*
X189911737Y-85530250D02*
X189887928Y-85494535D01*
X189887928Y-85494535D02*
X189864118Y-85423107D01*
X189864118Y-85423107D02*
X189864118Y-85351678D01*
X189864118Y-85351678D02*
X189887928Y-85280250D01*
X189887928Y-85280250D02*
X189911737Y-85244535D01*
X189911737Y-85244535D02*
X189959356Y-85208821D01*
X189959356Y-85208821D02*
X190054594Y-85173107D01*
X190054594Y-85173107D02*
X190102213Y-85137392D01*
X190102213Y-85137392D02*
X190126023Y-85101678D01*
X190126023Y-85101678D02*
X190149832Y-85030250D01*
X190149832Y-85030250D02*
X190149832Y-84958821D01*
X190149832Y-84958821D02*
X190126023Y-84887392D01*
X190126023Y-84887392D02*
X190102213Y-84851678D01*
X190102213Y-84851678D02*
X190054594Y-84815964D01*
X190054594Y-84815964D02*
X189935547Y-84815964D01*
X189935547Y-84815964D02*
X189864118Y-84851678D01*
X189721261Y-84815964D02*
X189435547Y-84815964D01*
X189578404Y-85565964D02*
X189578404Y-84815964D01*
X175207452Y-84851678D02*
X175255071Y-84815964D01*
X175255071Y-84815964D02*
X175326500Y-84815964D01*
X175326500Y-84815964D02*
X175397928Y-84851678D01*
X175397928Y-84851678D02*
X175445547Y-84923107D01*
X175445547Y-84923107D02*
X175469357Y-84994535D01*
X175469357Y-84994535D02*
X175493166Y-85137392D01*
X175493166Y-85137392D02*
X175493166Y-85244535D01*
X175493166Y-85244535D02*
X175469357Y-85387392D01*
X175469357Y-85387392D02*
X175445547Y-85458821D01*
X175445547Y-85458821D02*
X175397928Y-85530250D01*
X175397928Y-85530250D02*
X175326500Y-85565964D01*
X175326500Y-85565964D02*
X175278881Y-85565964D01*
X175278881Y-85565964D02*
X175207452Y-85530250D01*
X175207452Y-85530250D02*
X175183643Y-85494535D01*
X175183643Y-85494535D02*
X175183643Y-85244535D01*
X175183643Y-85244535D02*
X175278881Y-85244535D01*
X174969357Y-85565964D02*
X174969357Y-84815964D01*
X174969357Y-84815964D02*
X174683643Y-85565964D01*
X174683643Y-85565964D02*
X174683643Y-84815964D01*
X174445547Y-85565964D02*
X174445547Y-84815964D01*
X174445547Y-84815964D02*
X174326499Y-84815964D01*
X174326499Y-84815964D02*
X174255071Y-84851678D01*
X174255071Y-84851678D02*
X174207452Y-84923107D01*
X174207452Y-84923107D02*
X174183642Y-84994535D01*
X174183642Y-84994535D02*
X174159833Y-85137392D01*
X174159833Y-85137392D02*
X174159833Y-85244535D01*
X174159833Y-85244535D02*
X174183642Y-85387392D01*
X174183642Y-85387392D02*
X174207452Y-85458821D01*
X174207452Y-85458821D02*
X174255071Y-85530250D01*
X174255071Y-85530250D02*
X174326499Y-85565964D01*
X174326499Y-85565964D02*
X174445547Y-85565964D01*
X190669665Y-87355964D02*
X190502999Y-88105964D01*
X190502999Y-88105964D02*
X190336332Y-87355964D01*
X189883952Y-88034535D02*
X189907761Y-88070250D01*
X189907761Y-88070250D02*
X189979190Y-88105964D01*
X189979190Y-88105964D02*
X190026809Y-88105964D01*
X190026809Y-88105964D02*
X190098237Y-88070250D01*
X190098237Y-88070250D02*
X190145856Y-87998821D01*
X190145856Y-87998821D02*
X190169666Y-87927392D01*
X190169666Y-87927392D02*
X190193475Y-87784535D01*
X190193475Y-87784535D02*
X190193475Y-87677392D01*
X190193475Y-87677392D02*
X190169666Y-87534535D01*
X190169666Y-87534535D02*
X190145856Y-87463107D01*
X190145856Y-87463107D02*
X190098237Y-87391678D01*
X190098237Y-87391678D02*
X190026809Y-87355964D01*
X190026809Y-87355964D02*
X189979190Y-87355964D01*
X189979190Y-87355964D02*
X189907761Y-87391678D01*
X189907761Y-87391678D02*
X189883952Y-87427392D01*
X189383952Y-88034535D02*
X189407761Y-88070250D01*
X189407761Y-88070250D02*
X189479190Y-88105964D01*
X189479190Y-88105964D02*
X189526809Y-88105964D01*
X189526809Y-88105964D02*
X189598237Y-88070250D01*
X189598237Y-88070250D02*
X189645856Y-87998821D01*
X189645856Y-87998821D02*
X189669666Y-87927392D01*
X189669666Y-87927392D02*
X189693475Y-87784535D01*
X189693475Y-87784535D02*
X189693475Y-87677392D01*
X189693475Y-87677392D02*
X189669666Y-87534535D01*
X189669666Y-87534535D02*
X189645856Y-87463107D01*
X189645856Y-87463107D02*
X189598237Y-87391678D01*
X189598237Y-87391678D02*
X189526809Y-87355964D01*
X189526809Y-87355964D02*
X189479190Y-87355964D01*
X189479190Y-87355964D02*
X189407761Y-87391678D01*
X189407761Y-87391678D02*
X189383952Y-87427392D01*
X175207452Y-87391678D02*
X175255071Y-87355964D01*
X175255071Y-87355964D02*
X175326500Y-87355964D01*
X175326500Y-87355964D02*
X175397928Y-87391678D01*
X175397928Y-87391678D02*
X175445547Y-87463107D01*
X175445547Y-87463107D02*
X175469357Y-87534535D01*
X175469357Y-87534535D02*
X175493166Y-87677392D01*
X175493166Y-87677392D02*
X175493166Y-87784535D01*
X175493166Y-87784535D02*
X175469357Y-87927392D01*
X175469357Y-87927392D02*
X175445547Y-87998821D01*
X175445547Y-87998821D02*
X175397928Y-88070250D01*
X175397928Y-88070250D02*
X175326500Y-88105964D01*
X175326500Y-88105964D02*
X175278881Y-88105964D01*
X175278881Y-88105964D02*
X175207452Y-88070250D01*
X175207452Y-88070250D02*
X175183643Y-88034535D01*
X175183643Y-88034535D02*
X175183643Y-87784535D01*
X175183643Y-87784535D02*
X175278881Y-87784535D01*
X174969357Y-88105964D02*
X174969357Y-87355964D01*
X174969357Y-87355964D02*
X174683643Y-88105964D01*
X174683643Y-88105964D02*
X174683643Y-87355964D01*
X174445547Y-88105964D02*
X174445547Y-87355964D01*
X174445547Y-87355964D02*
X174326499Y-87355964D01*
X174326499Y-87355964D02*
X174255071Y-87391678D01*
X174255071Y-87391678D02*
X174207452Y-87463107D01*
X174207452Y-87463107D02*
X174183642Y-87534535D01*
X174183642Y-87534535D02*
X174159833Y-87677392D01*
X174159833Y-87677392D02*
X174159833Y-87784535D01*
X174159833Y-87784535D02*
X174183642Y-87927392D01*
X174183642Y-87927392D02*
X174207452Y-87998821D01*
X174207452Y-87998821D02*
X174255071Y-88070250D01*
X174255071Y-88070250D02*
X174326499Y-88105964D01*
X174326499Y-88105964D02*
X174445547Y-88105964D01*
X190423119Y-98159035D02*
X190446928Y-98194750D01*
X190446928Y-98194750D02*
X190518357Y-98230464D01*
X190518357Y-98230464D02*
X190565976Y-98230464D01*
X190565976Y-98230464D02*
X190637404Y-98194750D01*
X190637404Y-98194750D02*
X190685023Y-98123321D01*
X190685023Y-98123321D02*
X190708833Y-98051892D01*
X190708833Y-98051892D02*
X190732642Y-97909035D01*
X190732642Y-97909035D02*
X190732642Y-97801892D01*
X190732642Y-97801892D02*
X190708833Y-97659035D01*
X190708833Y-97659035D02*
X190685023Y-97587607D01*
X190685023Y-97587607D02*
X190637404Y-97516178D01*
X190637404Y-97516178D02*
X190565976Y-97480464D01*
X190565976Y-97480464D02*
X190518357Y-97480464D01*
X190518357Y-97480464D02*
X190446928Y-97516178D01*
X190446928Y-97516178D02*
X190423119Y-97551892D01*
X190113595Y-97480464D02*
X190018357Y-97480464D01*
X190018357Y-97480464D02*
X189970738Y-97516178D01*
X189970738Y-97516178D02*
X189923119Y-97587607D01*
X189923119Y-97587607D02*
X189899309Y-97730464D01*
X189899309Y-97730464D02*
X189899309Y-97980464D01*
X189899309Y-97980464D02*
X189923119Y-98123321D01*
X189923119Y-98123321D02*
X189970738Y-98194750D01*
X189970738Y-98194750D02*
X190018357Y-98230464D01*
X190018357Y-98230464D02*
X190113595Y-98230464D01*
X190113595Y-98230464D02*
X190161214Y-98194750D01*
X190161214Y-98194750D02*
X190208833Y-98123321D01*
X190208833Y-98123321D02*
X190232642Y-97980464D01*
X190232642Y-97980464D02*
X190232642Y-97730464D01*
X190232642Y-97730464D02*
X190208833Y-97587607D01*
X190208833Y-97587607D02*
X190161214Y-97516178D01*
X190161214Y-97516178D02*
X190113595Y-97480464D01*
X189446928Y-98230464D02*
X189685023Y-98230464D01*
X189685023Y-98230464D02*
X189685023Y-97480464D01*
X189327880Y-97480464D02*
X189018356Y-97480464D01*
X189018356Y-97480464D02*
X189185023Y-97766178D01*
X189185023Y-97766178D02*
X189113594Y-97766178D01*
X189113594Y-97766178D02*
X189065975Y-97801892D01*
X189065975Y-97801892D02*
X189042166Y-97837607D01*
X189042166Y-97837607D02*
X189018356Y-97909035D01*
X189018356Y-97909035D02*
X189018356Y-98087607D01*
X189018356Y-98087607D02*
X189042166Y-98159035D01*
X189042166Y-98159035D02*
X189065975Y-98194750D01*
X189065975Y-98194750D02*
X189113594Y-98230464D01*
X189113594Y-98230464D02*
X189256451Y-98230464D01*
X189256451Y-98230464D02*
X189304070Y-98194750D01*
X189304070Y-98194750D02*
X189327880Y-98159035D01*
X175206452Y-95662464D02*
X175373118Y-95305321D01*
X175492166Y-95662464D02*
X175492166Y-94912464D01*
X175492166Y-94912464D02*
X175301690Y-94912464D01*
X175301690Y-94912464D02*
X175254071Y-94948178D01*
X175254071Y-94948178D02*
X175230261Y-94983892D01*
X175230261Y-94983892D02*
X175206452Y-95055321D01*
X175206452Y-95055321D02*
X175206452Y-95162464D01*
X175206452Y-95162464D02*
X175230261Y-95233892D01*
X175230261Y-95233892D02*
X175254071Y-95269607D01*
X175254071Y-95269607D02*
X175301690Y-95305321D01*
X175301690Y-95305321D02*
X175492166Y-95305321D01*
X174896928Y-94912464D02*
X174801690Y-94912464D01*
X174801690Y-94912464D02*
X174754071Y-94948178D01*
X174754071Y-94948178D02*
X174706452Y-95019607D01*
X174706452Y-95019607D02*
X174682642Y-95162464D01*
X174682642Y-95162464D02*
X174682642Y-95412464D01*
X174682642Y-95412464D02*
X174706452Y-95555321D01*
X174706452Y-95555321D02*
X174754071Y-95626750D01*
X174754071Y-95626750D02*
X174801690Y-95662464D01*
X174801690Y-95662464D02*
X174896928Y-95662464D01*
X174896928Y-95662464D02*
X174944547Y-95626750D01*
X174944547Y-95626750D02*
X174992166Y-95555321D01*
X174992166Y-95555321D02*
X175015975Y-95412464D01*
X175015975Y-95412464D02*
X175015975Y-95162464D01*
X175015975Y-95162464D02*
X174992166Y-95019607D01*
X174992166Y-95019607D02*
X174944547Y-94948178D01*
X174944547Y-94948178D02*
X174896928Y-94912464D01*
X174515975Y-94912464D02*
X174396927Y-95662464D01*
X174396927Y-95662464D02*
X174301689Y-95126750D01*
X174301689Y-95126750D02*
X174206451Y-95662464D01*
X174206451Y-95662464D02*
X174087404Y-94912464D01*
X173801689Y-94912464D02*
X173754070Y-94912464D01*
X173754070Y-94912464D02*
X173706451Y-94948178D01*
X173706451Y-94948178D02*
X173682641Y-94983892D01*
X173682641Y-94983892D02*
X173658832Y-95055321D01*
X173658832Y-95055321D02*
X173635022Y-95198178D01*
X173635022Y-95198178D02*
X173635022Y-95376750D01*
X173635022Y-95376750D02*
X173658832Y-95519607D01*
X173658832Y-95519607D02*
X173682641Y-95591035D01*
X173682641Y-95591035D02*
X173706451Y-95626750D01*
X173706451Y-95626750D02*
X173754070Y-95662464D01*
X173754070Y-95662464D02*
X173801689Y-95662464D01*
X173801689Y-95662464D02*
X173849308Y-95626750D01*
X173849308Y-95626750D02*
X173873117Y-95591035D01*
X173873117Y-95591035D02*
X173896927Y-95519607D01*
X173896927Y-95519607D02*
X173920736Y-95376750D01*
X173920736Y-95376750D02*
X173920736Y-95198178D01*
X173920736Y-95198178D02*
X173896927Y-95055321D01*
X173896927Y-95055321D02*
X173873117Y-94983892D01*
X173873117Y-94983892D02*
X173849308Y-94948178D01*
X173849308Y-94948178D02*
X173801689Y-94912464D01*
X190423119Y-95659035D02*
X190446928Y-95694750D01*
X190446928Y-95694750D02*
X190518357Y-95730464D01*
X190518357Y-95730464D02*
X190565976Y-95730464D01*
X190565976Y-95730464D02*
X190637404Y-95694750D01*
X190637404Y-95694750D02*
X190685023Y-95623321D01*
X190685023Y-95623321D02*
X190708833Y-95551892D01*
X190708833Y-95551892D02*
X190732642Y-95409035D01*
X190732642Y-95409035D02*
X190732642Y-95301892D01*
X190732642Y-95301892D02*
X190708833Y-95159035D01*
X190708833Y-95159035D02*
X190685023Y-95087607D01*
X190685023Y-95087607D02*
X190637404Y-95016178D01*
X190637404Y-95016178D02*
X190565976Y-94980464D01*
X190565976Y-94980464D02*
X190518357Y-94980464D01*
X190518357Y-94980464D02*
X190446928Y-95016178D01*
X190446928Y-95016178D02*
X190423119Y-95051892D01*
X190113595Y-94980464D02*
X190018357Y-94980464D01*
X190018357Y-94980464D02*
X189970738Y-95016178D01*
X189970738Y-95016178D02*
X189923119Y-95087607D01*
X189923119Y-95087607D02*
X189899309Y-95230464D01*
X189899309Y-95230464D02*
X189899309Y-95480464D01*
X189899309Y-95480464D02*
X189923119Y-95623321D01*
X189923119Y-95623321D02*
X189970738Y-95694750D01*
X189970738Y-95694750D02*
X190018357Y-95730464D01*
X190018357Y-95730464D02*
X190113595Y-95730464D01*
X190113595Y-95730464D02*
X190161214Y-95694750D01*
X190161214Y-95694750D02*
X190208833Y-95623321D01*
X190208833Y-95623321D02*
X190232642Y-95480464D01*
X190232642Y-95480464D02*
X190232642Y-95230464D01*
X190232642Y-95230464D02*
X190208833Y-95087607D01*
X190208833Y-95087607D02*
X190161214Y-95016178D01*
X190161214Y-95016178D02*
X190113595Y-94980464D01*
X189446928Y-95730464D02*
X189685023Y-95730464D01*
X189685023Y-95730464D02*
X189685023Y-94980464D01*
X189304070Y-95051892D02*
X189280261Y-95016178D01*
X189280261Y-95016178D02*
X189232642Y-94980464D01*
X189232642Y-94980464D02*
X189113594Y-94980464D01*
X189113594Y-94980464D02*
X189065975Y-95016178D01*
X189065975Y-95016178D02*
X189042166Y-95051892D01*
X189042166Y-95051892D02*
X189018356Y-95123321D01*
X189018356Y-95123321D02*
X189018356Y-95194750D01*
X189018356Y-95194750D02*
X189042166Y-95301892D01*
X189042166Y-95301892D02*
X189327880Y-95730464D01*
X189327880Y-95730464D02*
X189018356Y-95730464D01*
X175421737Y-93150250D02*
X175350309Y-93185964D01*
X175350309Y-93185964D02*
X175231261Y-93185964D01*
X175231261Y-93185964D02*
X175183642Y-93150250D01*
X175183642Y-93150250D02*
X175159833Y-93114535D01*
X175159833Y-93114535D02*
X175136023Y-93043107D01*
X175136023Y-93043107D02*
X175136023Y-92971678D01*
X175136023Y-92971678D02*
X175159833Y-92900250D01*
X175159833Y-92900250D02*
X175183642Y-92864535D01*
X175183642Y-92864535D02*
X175231261Y-92828821D01*
X175231261Y-92828821D02*
X175326499Y-92793107D01*
X175326499Y-92793107D02*
X175374118Y-92757392D01*
X175374118Y-92757392D02*
X175397928Y-92721678D01*
X175397928Y-92721678D02*
X175421737Y-92650250D01*
X175421737Y-92650250D02*
X175421737Y-92578821D01*
X175421737Y-92578821D02*
X175397928Y-92507392D01*
X175397928Y-92507392D02*
X175374118Y-92471678D01*
X175374118Y-92471678D02*
X175326499Y-92435964D01*
X175326499Y-92435964D02*
X175207452Y-92435964D01*
X175207452Y-92435964D02*
X175136023Y-92471678D01*
X174636024Y-93114535D02*
X174659833Y-93150250D01*
X174659833Y-93150250D02*
X174731262Y-93185964D01*
X174731262Y-93185964D02*
X174778881Y-93185964D01*
X174778881Y-93185964D02*
X174850309Y-93150250D01*
X174850309Y-93150250D02*
X174897928Y-93078821D01*
X174897928Y-93078821D02*
X174921738Y-93007392D01*
X174921738Y-93007392D02*
X174945547Y-92864535D01*
X174945547Y-92864535D02*
X174945547Y-92757392D01*
X174945547Y-92757392D02*
X174921738Y-92614535D01*
X174921738Y-92614535D02*
X174897928Y-92543107D01*
X174897928Y-92543107D02*
X174850309Y-92471678D01*
X174850309Y-92471678D02*
X174778881Y-92435964D01*
X174778881Y-92435964D02*
X174731262Y-92435964D01*
X174731262Y-92435964D02*
X174659833Y-92471678D01*
X174659833Y-92471678D02*
X174636024Y-92507392D01*
X174183643Y-93185964D02*
X174421738Y-93185964D01*
X174421738Y-93185964D02*
X174421738Y-92435964D01*
X190423119Y-93114535D02*
X190446928Y-93150250D01*
X190446928Y-93150250D02*
X190518357Y-93185964D01*
X190518357Y-93185964D02*
X190565976Y-93185964D01*
X190565976Y-93185964D02*
X190637404Y-93150250D01*
X190637404Y-93150250D02*
X190685023Y-93078821D01*
X190685023Y-93078821D02*
X190708833Y-93007392D01*
X190708833Y-93007392D02*
X190732642Y-92864535D01*
X190732642Y-92864535D02*
X190732642Y-92757392D01*
X190732642Y-92757392D02*
X190708833Y-92614535D01*
X190708833Y-92614535D02*
X190685023Y-92543107D01*
X190685023Y-92543107D02*
X190637404Y-92471678D01*
X190637404Y-92471678D02*
X190565976Y-92435964D01*
X190565976Y-92435964D02*
X190518357Y-92435964D01*
X190518357Y-92435964D02*
X190446928Y-92471678D01*
X190446928Y-92471678D02*
X190423119Y-92507392D01*
X190113595Y-92435964D02*
X190018357Y-92435964D01*
X190018357Y-92435964D02*
X189970738Y-92471678D01*
X189970738Y-92471678D02*
X189923119Y-92543107D01*
X189923119Y-92543107D02*
X189899309Y-92685964D01*
X189899309Y-92685964D02*
X189899309Y-92935964D01*
X189899309Y-92935964D02*
X189923119Y-93078821D01*
X189923119Y-93078821D02*
X189970738Y-93150250D01*
X189970738Y-93150250D02*
X190018357Y-93185964D01*
X190018357Y-93185964D02*
X190113595Y-93185964D01*
X190113595Y-93185964D02*
X190161214Y-93150250D01*
X190161214Y-93150250D02*
X190208833Y-93078821D01*
X190208833Y-93078821D02*
X190232642Y-92935964D01*
X190232642Y-92935964D02*
X190232642Y-92685964D01*
X190232642Y-92685964D02*
X190208833Y-92543107D01*
X190208833Y-92543107D02*
X190161214Y-92471678D01*
X190161214Y-92471678D02*
X190113595Y-92435964D01*
X189446928Y-93185964D02*
X189685023Y-93185964D01*
X189685023Y-93185964D02*
X189685023Y-92435964D01*
X189018356Y-93185964D02*
X189304070Y-93185964D01*
X189161213Y-93185964D02*
X189161213Y-92435964D01*
X189161213Y-92435964D02*
X189208832Y-92543107D01*
X189208832Y-92543107D02*
X189256451Y-92614535D01*
X189256451Y-92614535D02*
X189304070Y-92650250D01*
X175433641Y-90610250D02*
X175362213Y-90645964D01*
X175362213Y-90645964D02*
X175243165Y-90645964D01*
X175243165Y-90645964D02*
X175195546Y-90610250D01*
X175195546Y-90610250D02*
X175171737Y-90574535D01*
X175171737Y-90574535D02*
X175147927Y-90503107D01*
X175147927Y-90503107D02*
X175147927Y-90431678D01*
X175147927Y-90431678D02*
X175171737Y-90360250D01*
X175171737Y-90360250D02*
X175195546Y-90324535D01*
X175195546Y-90324535D02*
X175243165Y-90288821D01*
X175243165Y-90288821D02*
X175338403Y-90253107D01*
X175338403Y-90253107D02*
X175386022Y-90217392D01*
X175386022Y-90217392D02*
X175409832Y-90181678D01*
X175409832Y-90181678D02*
X175433641Y-90110250D01*
X175433641Y-90110250D02*
X175433641Y-90038821D01*
X175433641Y-90038821D02*
X175409832Y-89967392D01*
X175409832Y-89967392D02*
X175386022Y-89931678D01*
X175386022Y-89931678D02*
X175338403Y-89895964D01*
X175338403Y-89895964D02*
X175219356Y-89895964D01*
X175219356Y-89895964D02*
X175147927Y-89931678D01*
X174933642Y-90645964D02*
X174933642Y-89895964D01*
X174933642Y-89895964D02*
X174814594Y-89895964D01*
X174814594Y-89895964D02*
X174743166Y-89931678D01*
X174743166Y-89931678D02*
X174695547Y-90003107D01*
X174695547Y-90003107D02*
X174671737Y-90074535D01*
X174671737Y-90074535D02*
X174647928Y-90217392D01*
X174647928Y-90217392D02*
X174647928Y-90324535D01*
X174647928Y-90324535D02*
X174671737Y-90467392D01*
X174671737Y-90467392D02*
X174695547Y-90538821D01*
X174695547Y-90538821D02*
X174743166Y-90610250D01*
X174743166Y-90610250D02*
X174814594Y-90645964D01*
X174814594Y-90645964D02*
X174933642Y-90645964D01*
X174457451Y-90431678D02*
X174219356Y-90431678D01*
X174505070Y-90645964D02*
X174338404Y-89895964D01*
X174338404Y-89895964D02*
X174171737Y-90645964D01*
X190423119Y-90609035D02*
X190446928Y-90644750D01*
X190446928Y-90644750D02*
X190518357Y-90680464D01*
X190518357Y-90680464D02*
X190565976Y-90680464D01*
X190565976Y-90680464D02*
X190637404Y-90644750D01*
X190637404Y-90644750D02*
X190685023Y-90573321D01*
X190685023Y-90573321D02*
X190708833Y-90501892D01*
X190708833Y-90501892D02*
X190732642Y-90359035D01*
X190732642Y-90359035D02*
X190732642Y-90251892D01*
X190732642Y-90251892D02*
X190708833Y-90109035D01*
X190708833Y-90109035D02*
X190685023Y-90037607D01*
X190685023Y-90037607D02*
X190637404Y-89966178D01*
X190637404Y-89966178D02*
X190565976Y-89930464D01*
X190565976Y-89930464D02*
X190518357Y-89930464D01*
X190518357Y-89930464D02*
X190446928Y-89966178D01*
X190446928Y-89966178D02*
X190423119Y-90001892D01*
X190113595Y-89930464D02*
X190018357Y-89930464D01*
X190018357Y-89930464D02*
X189970738Y-89966178D01*
X189970738Y-89966178D02*
X189923119Y-90037607D01*
X189923119Y-90037607D02*
X189899309Y-90180464D01*
X189899309Y-90180464D02*
X189899309Y-90430464D01*
X189899309Y-90430464D02*
X189923119Y-90573321D01*
X189923119Y-90573321D02*
X189970738Y-90644750D01*
X189970738Y-90644750D02*
X190018357Y-90680464D01*
X190018357Y-90680464D02*
X190113595Y-90680464D01*
X190113595Y-90680464D02*
X190161214Y-90644750D01*
X190161214Y-90644750D02*
X190208833Y-90573321D01*
X190208833Y-90573321D02*
X190232642Y-90430464D01*
X190232642Y-90430464D02*
X190232642Y-90180464D01*
X190232642Y-90180464D02*
X190208833Y-90037607D01*
X190208833Y-90037607D02*
X190161214Y-89966178D01*
X190161214Y-89966178D02*
X190113595Y-89930464D01*
X189446928Y-90680464D02*
X189685023Y-90680464D01*
X189685023Y-90680464D02*
X189685023Y-89930464D01*
X189185023Y-89930464D02*
X189137404Y-89930464D01*
X189137404Y-89930464D02*
X189089785Y-89966178D01*
X189089785Y-89966178D02*
X189065975Y-90001892D01*
X189065975Y-90001892D02*
X189042166Y-90073321D01*
X189042166Y-90073321D02*
X189018356Y-90216178D01*
X189018356Y-90216178D02*
X189018356Y-90394750D01*
X189018356Y-90394750D02*
X189042166Y-90537607D01*
X189042166Y-90537607D02*
X189065975Y-90609035D01*
X189065975Y-90609035D02*
X189089785Y-90644750D01*
X189089785Y-90644750D02*
X189137404Y-90680464D01*
X189137404Y-90680464D02*
X189185023Y-90680464D01*
X189185023Y-90680464D02*
X189232642Y-90644750D01*
X189232642Y-90644750D02*
X189256451Y-90609035D01*
X189256451Y-90609035D02*
X189280261Y-90537607D01*
X189280261Y-90537607D02*
X189304070Y-90394750D01*
X189304070Y-90394750D02*
X189304070Y-90216178D01*
X189304070Y-90216178D02*
X189280261Y-90073321D01*
X189280261Y-90073321D02*
X189256451Y-90001892D01*
X189256451Y-90001892D02*
X189232642Y-89966178D01*
X189232642Y-89966178D02*
X189185023Y-89930464D01*
X190522880Y-107969607D02*
X190451452Y-108005321D01*
X190451452Y-108005321D02*
X190427642Y-108041035D01*
X190427642Y-108041035D02*
X190403833Y-108112464D01*
X190403833Y-108112464D02*
X190403833Y-108219607D01*
X190403833Y-108219607D02*
X190427642Y-108291035D01*
X190427642Y-108291035D02*
X190451452Y-108326750D01*
X190451452Y-108326750D02*
X190499071Y-108362464D01*
X190499071Y-108362464D02*
X190689547Y-108362464D01*
X190689547Y-108362464D02*
X190689547Y-107612464D01*
X190689547Y-107612464D02*
X190522880Y-107612464D01*
X190522880Y-107612464D02*
X190475261Y-107648178D01*
X190475261Y-107648178D02*
X190451452Y-107683892D01*
X190451452Y-107683892D02*
X190427642Y-107755321D01*
X190427642Y-107755321D02*
X190427642Y-107826750D01*
X190427642Y-107826750D02*
X190451452Y-107898178D01*
X190451452Y-107898178D02*
X190475261Y-107933892D01*
X190475261Y-107933892D02*
X190522880Y-107969607D01*
X190522880Y-107969607D02*
X190689547Y-107969607D01*
X189975261Y-107612464D02*
X190070499Y-107612464D01*
X190070499Y-107612464D02*
X190118118Y-107648178D01*
X190118118Y-107648178D02*
X190141928Y-107683892D01*
X190141928Y-107683892D02*
X190189547Y-107791035D01*
X190189547Y-107791035D02*
X190213356Y-107933892D01*
X190213356Y-107933892D02*
X190213356Y-108219607D01*
X190213356Y-108219607D02*
X190189547Y-108291035D01*
X190189547Y-108291035D02*
X190165737Y-108326750D01*
X190165737Y-108326750D02*
X190118118Y-108362464D01*
X190118118Y-108362464D02*
X190022880Y-108362464D01*
X190022880Y-108362464D02*
X189975261Y-108326750D01*
X189975261Y-108326750D02*
X189951452Y-108291035D01*
X189951452Y-108291035D02*
X189927642Y-108219607D01*
X189927642Y-108219607D02*
X189927642Y-108041035D01*
X189927642Y-108041035D02*
X189951452Y-107969607D01*
X189951452Y-107969607D02*
X189975261Y-107933892D01*
X189975261Y-107933892D02*
X190022880Y-107898178D01*
X190022880Y-107898178D02*
X190118118Y-107898178D01*
X190118118Y-107898178D02*
X190165737Y-107933892D01*
X190165737Y-107933892D02*
X190189547Y-107969607D01*
X190189547Y-107969607D02*
X190213356Y-108041035D01*
X175028880Y-108033107D02*
X174957452Y-108068821D01*
X174957452Y-108068821D02*
X174933642Y-108104535D01*
X174933642Y-108104535D02*
X174909833Y-108175964D01*
X174909833Y-108175964D02*
X174909833Y-108283107D01*
X174909833Y-108283107D02*
X174933642Y-108354535D01*
X174933642Y-108354535D02*
X174957452Y-108390250D01*
X174957452Y-108390250D02*
X175005071Y-108425964D01*
X175005071Y-108425964D02*
X175195547Y-108425964D01*
X175195547Y-108425964D02*
X175195547Y-107675964D01*
X175195547Y-107675964D02*
X175028880Y-107675964D01*
X175028880Y-107675964D02*
X174981261Y-107711678D01*
X174981261Y-107711678D02*
X174957452Y-107747392D01*
X174957452Y-107747392D02*
X174933642Y-107818821D01*
X174933642Y-107818821D02*
X174933642Y-107890250D01*
X174933642Y-107890250D02*
X174957452Y-107961678D01*
X174957452Y-107961678D02*
X174981261Y-107997392D01*
X174981261Y-107997392D02*
X175028880Y-108033107D01*
X175028880Y-108033107D02*
X175195547Y-108033107D01*
X174457452Y-107675964D02*
X174695547Y-107675964D01*
X174695547Y-107675964D02*
X174719356Y-108033107D01*
X174719356Y-108033107D02*
X174695547Y-107997392D01*
X174695547Y-107997392D02*
X174647928Y-107961678D01*
X174647928Y-107961678D02*
X174528880Y-107961678D01*
X174528880Y-107961678D02*
X174481261Y-107997392D01*
X174481261Y-107997392D02*
X174457452Y-108033107D01*
X174457452Y-108033107D02*
X174433642Y-108104535D01*
X174433642Y-108104535D02*
X174433642Y-108283107D01*
X174433642Y-108283107D02*
X174457452Y-108354535D01*
X174457452Y-108354535D02*
X174481261Y-108390250D01*
X174481261Y-108390250D02*
X174528880Y-108425964D01*
X174528880Y-108425964D02*
X174647928Y-108425964D01*
X174647928Y-108425964D02*
X174695547Y-108390250D01*
X174695547Y-108390250D02*
X174719356Y-108354535D01*
X175028880Y-105493107D02*
X174957452Y-105528821D01*
X174957452Y-105528821D02*
X174933642Y-105564535D01*
X174933642Y-105564535D02*
X174909833Y-105635964D01*
X174909833Y-105635964D02*
X174909833Y-105743107D01*
X174909833Y-105743107D02*
X174933642Y-105814535D01*
X174933642Y-105814535D02*
X174957452Y-105850250D01*
X174957452Y-105850250D02*
X175005071Y-105885964D01*
X175005071Y-105885964D02*
X175195547Y-105885964D01*
X175195547Y-105885964D02*
X175195547Y-105135964D01*
X175195547Y-105135964D02*
X175028880Y-105135964D01*
X175028880Y-105135964D02*
X174981261Y-105171678D01*
X174981261Y-105171678D02*
X174957452Y-105207392D01*
X174957452Y-105207392D02*
X174933642Y-105278821D01*
X174933642Y-105278821D02*
X174933642Y-105350250D01*
X174933642Y-105350250D02*
X174957452Y-105421678D01*
X174957452Y-105421678D02*
X174981261Y-105457392D01*
X174981261Y-105457392D02*
X175028880Y-105493107D01*
X175028880Y-105493107D02*
X175195547Y-105493107D01*
X174481261Y-105385964D02*
X174481261Y-105885964D01*
X174600309Y-105100250D02*
X174719356Y-105635964D01*
X174719356Y-105635964D02*
X174409833Y-105635964D01*
X190586380Y-105366107D02*
X190514952Y-105401821D01*
X190514952Y-105401821D02*
X190491142Y-105437535D01*
X190491142Y-105437535D02*
X190467333Y-105508964D01*
X190467333Y-105508964D02*
X190467333Y-105616107D01*
X190467333Y-105616107D02*
X190491142Y-105687535D01*
X190491142Y-105687535D02*
X190514952Y-105723250D01*
X190514952Y-105723250D02*
X190562571Y-105758964D01*
X190562571Y-105758964D02*
X190753047Y-105758964D01*
X190753047Y-105758964D02*
X190753047Y-105008964D01*
X190753047Y-105008964D02*
X190586380Y-105008964D01*
X190586380Y-105008964D02*
X190538761Y-105044678D01*
X190538761Y-105044678D02*
X190514952Y-105080392D01*
X190514952Y-105080392D02*
X190491142Y-105151821D01*
X190491142Y-105151821D02*
X190491142Y-105223250D01*
X190491142Y-105223250D02*
X190514952Y-105294678D01*
X190514952Y-105294678D02*
X190538761Y-105330392D01*
X190538761Y-105330392D02*
X190586380Y-105366107D01*
X190586380Y-105366107D02*
X190753047Y-105366107D01*
X190276856Y-105080392D02*
X190253047Y-105044678D01*
X190253047Y-105044678D02*
X190205428Y-105008964D01*
X190205428Y-105008964D02*
X190086380Y-105008964D01*
X190086380Y-105008964D02*
X190038761Y-105044678D01*
X190038761Y-105044678D02*
X190014952Y-105080392D01*
X190014952Y-105080392D02*
X189991142Y-105151821D01*
X189991142Y-105151821D02*
X189991142Y-105223250D01*
X189991142Y-105223250D02*
X190014952Y-105330392D01*
X190014952Y-105330392D02*
X190300666Y-105758964D01*
X190300666Y-105758964D02*
X189991142Y-105758964D01*
X175206452Y-103380464D02*
X175373118Y-103023321D01*
X175492166Y-103380464D02*
X175492166Y-102630464D01*
X175492166Y-102630464D02*
X175301690Y-102630464D01*
X175301690Y-102630464D02*
X175254071Y-102666178D01*
X175254071Y-102666178D02*
X175230261Y-102701892D01*
X175230261Y-102701892D02*
X175206452Y-102773321D01*
X175206452Y-102773321D02*
X175206452Y-102880464D01*
X175206452Y-102880464D02*
X175230261Y-102951892D01*
X175230261Y-102951892D02*
X175254071Y-102987607D01*
X175254071Y-102987607D02*
X175301690Y-103023321D01*
X175301690Y-103023321D02*
X175492166Y-103023321D01*
X174896928Y-102630464D02*
X174801690Y-102630464D01*
X174801690Y-102630464D02*
X174754071Y-102666178D01*
X174754071Y-102666178D02*
X174706452Y-102737607D01*
X174706452Y-102737607D02*
X174682642Y-102880464D01*
X174682642Y-102880464D02*
X174682642Y-103130464D01*
X174682642Y-103130464D02*
X174706452Y-103273321D01*
X174706452Y-103273321D02*
X174754071Y-103344750D01*
X174754071Y-103344750D02*
X174801690Y-103380464D01*
X174801690Y-103380464D02*
X174896928Y-103380464D01*
X174896928Y-103380464D02*
X174944547Y-103344750D01*
X174944547Y-103344750D02*
X174992166Y-103273321D01*
X174992166Y-103273321D02*
X175015975Y-103130464D01*
X175015975Y-103130464D02*
X175015975Y-102880464D01*
X175015975Y-102880464D02*
X174992166Y-102737607D01*
X174992166Y-102737607D02*
X174944547Y-102666178D01*
X174944547Y-102666178D02*
X174896928Y-102630464D01*
X174515975Y-102630464D02*
X174396927Y-103380464D01*
X174396927Y-103380464D02*
X174301689Y-102844750D01*
X174301689Y-102844750D02*
X174206451Y-103380464D01*
X174206451Y-103380464D02*
X174087404Y-102630464D01*
X173944546Y-102630464D02*
X173635022Y-102630464D01*
X173635022Y-102630464D02*
X173801689Y-102916178D01*
X173801689Y-102916178D02*
X173730260Y-102916178D01*
X173730260Y-102916178D02*
X173682641Y-102951892D01*
X173682641Y-102951892D02*
X173658832Y-102987607D01*
X173658832Y-102987607D02*
X173635022Y-103059035D01*
X173635022Y-103059035D02*
X173635022Y-103237607D01*
X173635022Y-103237607D02*
X173658832Y-103309035D01*
X173658832Y-103309035D02*
X173682641Y-103344750D01*
X173682641Y-103344750D02*
X173730260Y-103380464D01*
X173730260Y-103380464D02*
X173873117Y-103380464D01*
X173873117Y-103380464D02*
X173920736Y-103344750D01*
X173920736Y-103344750D02*
X173944546Y-103309035D01*
X190423119Y-103309035D02*
X190446928Y-103344750D01*
X190446928Y-103344750D02*
X190518357Y-103380464D01*
X190518357Y-103380464D02*
X190565976Y-103380464D01*
X190565976Y-103380464D02*
X190637404Y-103344750D01*
X190637404Y-103344750D02*
X190685023Y-103273321D01*
X190685023Y-103273321D02*
X190708833Y-103201892D01*
X190708833Y-103201892D02*
X190732642Y-103059035D01*
X190732642Y-103059035D02*
X190732642Y-102951892D01*
X190732642Y-102951892D02*
X190708833Y-102809035D01*
X190708833Y-102809035D02*
X190685023Y-102737607D01*
X190685023Y-102737607D02*
X190637404Y-102666178D01*
X190637404Y-102666178D02*
X190565976Y-102630464D01*
X190565976Y-102630464D02*
X190518357Y-102630464D01*
X190518357Y-102630464D02*
X190446928Y-102666178D01*
X190446928Y-102666178D02*
X190423119Y-102701892D01*
X190113595Y-102630464D02*
X190018357Y-102630464D01*
X190018357Y-102630464D02*
X189970738Y-102666178D01*
X189970738Y-102666178D02*
X189923119Y-102737607D01*
X189923119Y-102737607D02*
X189899309Y-102880464D01*
X189899309Y-102880464D02*
X189899309Y-103130464D01*
X189899309Y-103130464D02*
X189923119Y-103273321D01*
X189923119Y-103273321D02*
X189970738Y-103344750D01*
X189970738Y-103344750D02*
X190018357Y-103380464D01*
X190018357Y-103380464D02*
X190113595Y-103380464D01*
X190113595Y-103380464D02*
X190161214Y-103344750D01*
X190161214Y-103344750D02*
X190208833Y-103273321D01*
X190208833Y-103273321D02*
X190232642Y-103130464D01*
X190232642Y-103130464D02*
X190232642Y-102880464D01*
X190232642Y-102880464D02*
X190208833Y-102737607D01*
X190208833Y-102737607D02*
X190161214Y-102666178D01*
X190161214Y-102666178D02*
X190113595Y-102630464D01*
X189446928Y-103380464D02*
X189685023Y-103380464D01*
X189685023Y-103380464D02*
X189685023Y-102630464D01*
X189042166Y-102630464D02*
X189280261Y-102630464D01*
X189280261Y-102630464D02*
X189304070Y-102987607D01*
X189304070Y-102987607D02*
X189280261Y-102951892D01*
X189280261Y-102951892D02*
X189232642Y-102916178D01*
X189232642Y-102916178D02*
X189113594Y-102916178D01*
X189113594Y-102916178D02*
X189065975Y-102951892D01*
X189065975Y-102951892D02*
X189042166Y-102987607D01*
X189042166Y-102987607D02*
X189018356Y-103059035D01*
X189018356Y-103059035D02*
X189018356Y-103237607D01*
X189018356Y-103237607D02*
X189042166Y-103309035D01*
X189042166Y-103309035D02*
X189065975Y-103344750D01*
X189065975Y-103344750D02*
X189113594Y-103380464D01*
X189113594Y-103380464D02*
X189232642Y-103380464D01*
X189232642Y-103380464D02*
X189280261Y-103344750D01*
X189280261Y-103344750D02*
X189304070Y-103309035D01*
X175206452Y-100869464D02*
X175373118Y-100512321D01*
X175492166Y-100869464D02*
X175492166Y-100119464D01*
X175492166Y-100119464D02*
X175301690Y-100119464D01*
X175301690Y-100119464D02*
X175254071Y-100155178D01*
X175254071Y-100155178D02*
X175230261Y-100190892D01*
X175230261Y-100190892D02*
X175206452Y-100262321D01*
X175206452Y-100262321D02*
X175206452Y-100369464D01*
X175206452Y-100369464D02*
X175230261Y-100440892D01*
X175230261Y-100440892D02*
X175254071Y-100476607D01*
X175254071Y-100476607D02*
X175301690Y-100512321D01*
X175301690Y-100512321D02*
X175492166Y-100512321D01*
X174896928Y-100119464D02*
X174801690Y-100119464D01*
X174801690Y-100119464D02*
X174754071Y-100155178D01*
X174754071Y-100155178D02*
X174706452Y-100226607D01*
X174706452Y-100226607D02*
X174682642Y-100369464D01*
X174682642Y-100369464D02*
X174682642Y-100619464D01*
X174682642Y-100619464D02*
X174706452Y-100762321D01*
X174706452Y-100762321D02*
X174754071Y-100833750D01*
X174754071Y-100833750D02*
X174801690Y-100869464D01*
X174801690Y-100869464D02*
X174896928Y-100869464D01*
X174896928Y-100869464D02*
X174944547Y-100833750D01*
X174944547Y-100833750D02*
X174992166Y-100762321D01*
X174992166Y-100762321D02*
X175015975Y-100619464D01*
X175015975Y-100619464D02*
X175015975Y-100369464D01*
X175015975Y-100369464D02*
X174992166Y-100226607D01*
X174992166Y-100226607D02*
X174944547Y-100155178D01*
X174944547Y-100155178D02*
X174896928Y-100119464D01*
X174515975Y-100119464D02*
X174396927Y-100869464D01*
X174396927Y-100869464D02*
X174301689Y-100333750D01*
X174301689Y-100333750D02*
X174206451Y-100869464D01*
X174206451Y-100869464D02*
X174087404Y-100119464D01*
X173920736Y-100190892D02*
X173896927Y-100155178D01*
X173896927Y-100155178D02*
X173849308Y-100119464D01*
X173849308Y-100119464D02*
X173730260Y-100119464D01*
X173730260Y-100119464D02*
X173682641Y-100155178D01*
X173682641Y-100155178D02*
X173658832Y-100190892D01*
X173658832Y-100190892D02*
X173635022Y-100262321D01*
X173635022Y-100262321D02*
X173635022Y-100333750D01*
X173635022Y-100333750D02*
X173658832Y-100440892D01*
X173658832Y-100440892D02*
X173944546Y-100869464D01*
X173944546Y-100869464D02*
X173635022Y-100869464D01*
X190373119Y-100671035D02*
X190396928Y-100706750D01*
X190396928Y-100706750D02*
X190468357Y-100742464D01*
X190468357Y-100742464D02*
X190515976Y-100742464D01*
X190515976Y-100742464D02*
X190587404Y-100706750D01*
X190587404Y-100706750D02*
X190635023Y-100635321D01*
X190635023Y-100635321D02*
X190658833Y-100563892D01*
X190658833Y-100563892D02*
X190682642Y-100421035D01*
X190682642Y-100421035D02*
X190682642Y-100313892D01*
X190682642Y-100313892D02*
X190658833Y-100171035D01*
X190658833Y-100171035D02*
X190635023Y-100099607D01*
X190635023Y-100099607D02*
X190587404Y-100028178D01*
X190587404Y-100028178D02*
X190515976Y-99992464D01*
X190515976Y-99992464D02*
X190468357Y-99992464D01*
X190468357Y-99992464D02*
X190396928Y-100028178D01*
X190396928Y-100028178D02*
X190373119Y-100063892D01*
X190063595Y-99992464D02*
X189968357Y-99992464D01*
X189968357Y-99992464D02*
X189920738Y-100028178D01*
X189920738Y-100028178D02*
X189873119Y-100099607D01*
X189873119Y-100099607D02*
X189849309Y-100242464D01*
X189849309Y-100242464D02*
X189849309Y-100492464D01*
X189849309Y-100492464D02*
X189873119Y-100635321D01*
X189873119Y-100635321D02*
X189920738Y-100706750D01*
X189920738Y-100706750D02*
X189968357Y-100742464D01*
X189968357Y-100742464D02*
X190063595Y-100742464D01*
X190063595Y-100742464D02*
X190111214Y-100706750D01*
X190111214Y-100706750D02*
X190158833Y-100635321D01*
X190158833Y-100635321D02*
X190182642Y-100492464D01*
X190182642Y-100492464D02*
X190182642Y-100242464D01*
X190182642Y-100242464D02*
X190158833Y-100099607D01*
X190158833Y-100099607D02*
X190111214Y-100028178D01*
X190111214Y-100028178D02*
X190063595Y-99992464D01*
X189396928Y-100742464D02*
X189635023Y-100742464D01*
X189635023Y-100742464D02*
X189635023Y-99992464D01*
X189015975Y-100242464D02*
X189015975Y-100742464D01*
X189135023Y-99956750D02*
X189254070Y-100492464D01*
X189254070Y-100492464D02*
X188944547Y-100492464D01*
X175206452Y-98265964D02*
X175373118Y-97908821D01*
X175492166Y-98265964D02*
X175492166Y-97515964D01*
X175492166Y-97515964D02*
X175301690Y-97515964D01*
X175301690Y-97515964D02*
X175254071Y-97551678D01*
X175254071Y-97551678D02*
X175230261Y-97587392D01*
X175230261Y-97587392D02*
X175206452Y-97658821D01*
X175206452Y-97658821D02*
X175206452Y-97765964D01*
X175206452Y-97765964D02*
X175230261Y-97837392D01*
X175230261Y-97837392D02*
X175254071Y-97873107D01*
X175254071Y-97873107D02*
X175301690Y-97908821D01*
X175301690Y-97908821D02*
X175492166Y-97908821D01*
X174896928Y-97515964D02*
X174801690Y-97515964D01*
X174801690Y-97515964D02*
X174754071Y-97551678D01*
X174754071Y-97551678D02*
X174706452Y-97623107D01*
X174706452Y-97623107D02*
X174682642Y-97765964D01*
X174682642Y-97765964D02*
X174682642Y-98015964D01*
X174682642Y-98015964D02*
X174706452Y-98158821D01*
X174706452Y-98158821D02*
X174754071Y-98230250D01*
X174754071Y-98230250D02*
X174801690Y-98265964D01*
X174801690Y-98265964D02*
X174896928Y-98265964D01*
X174896928Y-98265964D02*
X174944547Y-98230250D01*
X174944547Y-98230250D02*
X174992166Y-98158821D01*
X174992166Y-98158821D02*
X175015975Y-98015964D01*
X175015975Y-98015964D02*
X175015975Y-97765964D01*
X175015975Y-97765964D02*
X174992166Y-97623107D01*
X174992166Y-97623107D02*
X174944547Y-97551678D01*
X174944547Y-97551678D02*
X174896928Y-97515964D01*
X174515975Y-97515964D02*
X174396927Y-98265964D01*
X174396927Y-98265964D02*
X174301689Y-97730250D01*
X174301689Y-97730250D02*
X174206451Y-98265964D01*
X174206451Y-98265964D02*
X174087404Y-97515964D01*
X173635022Y-98265964D02*
X173920736Y-98265964D01*
X173777879Y-98265964D02*
X173777879Y-97515964D01*
X173777879Y-97515964D02*
X173825498Y-97623107D01*
X173825498Y-97623107D02*
X173873117Y-97694535D01*
X173873117Y-97694535D02*
X173920736Y-97730250D01*
D11*
X185390374Y-119433575D02*
X185917144Y-119187849D01*
X185885246Y-119719289D02*
X186385246Y-118853264D01*
X186385246Y-118853264D02*
X186055331Y-118662788D01*
X186055331Y-118662788D02*
X185949043Y-118656408D01*
X185949043Y-118656408D02*
X185883994Y-118673838D01*
X185883994Y-118673838D02*
X185795136Y-118732507D01*
X185795136Y-118732507D02*
X185723707Y-118856225D01*
X185723707Y-118856225D02*
X185717328Y-118962513D01*
X185717328Y-118962513D02*
X185734757Y-119027562D01*
X185734757Y-119027562D02*
X185793426Y-119116420D01*
X185793426Y-119116420D02*
X186123341Y-119306896D01*
X185281125Y-118765657D02*
X184992450Y-118598990D01*
X184606827Y-118981194D02*
X185019220Y-119219289D01*
X185019220Y-119219289D02*
X185519220Y-118353264D01*
X185519220Y-118353264D02*
X185106827Y-118115169D01*
X184300722Y-118749478D02*
X184153195Y-118719289D01*
X184153195Y-118719289D02*
X183946998Y-118600242D01*
X183946998Y-118600242D02*
X183888329Y-118511383D01*
X183888329Y-118511383D02*
X183870899Y-118446334D01*
X183870899Y-118446334D02*
X183877279Y-118340046D01*
X183877279Y-118340046D02*
X183924898Y-118257568D01*
X183924898Y-118257568D02*
X184013757Y-118198899D01*
X184013757Y-118198899D02*
X184078805Y-118181469D01*
X184078805Y-118181469D02*
X184185093Y-118187849D01*
X184185093Y-118187849D02*
X184373860Y-118241847D01*
X184373860Y-118241847D02*
X184480148Y-118248227D01*
X184480148Y-118248227D02*
X184545197Y-118230797D01*
X184545197Y-118230797D02*
X184634056Y-118172128D01*
X184634056Y-118172128D02*
X184681675Y-118089650D01*
X184681675Y-118089650D02*
X184688054Y-117983361D01*
X184688054Y-117983361D02*
X184670625Y-117918313D01*
X184670625Y-117918313D02*
X184611955Y-117829454D01*
X184611955Y-117829454D02*
X184405759Y-117710407D01*
X184405759Y-117710407D02*
X184258231Y-117680217D01*
X183672792Y-117837085D02*
X183384117Y-117670419D01*
X182998494Y-118052622D02*
X183410887Y-118290718D01*
X183410887Y-118290718D02*
X183910887Y-117424692D01*
X183910887Y-117424692D02*
X183498494Y-117186597D01*
X183251058Y-117043740D02*
X182756187Y-116758026D01*
X182503622Y-117766908D02*
X183003622Y-116900883D01*
X186639273Y-109773147D02*
X186448797Y-109773147D01*
X186448797Y-109773147D02*
X186353559Y-109820766D01*
X186353559Y-109820766D02*
X186258321Y-109916004D01*
X186258321Y-109916004D02*
X186210702Y-110106480D01*
X186210702Y-110106480D02*
X186210702Y-110439813D01*
X186210702Y-110439813D02*
X186258321Y-110630289D01*
X186258321Y-110630289D02*
X186353559Y-110725528D01*
X186353559Y-110725528D02*
X186448797Y-110773147D01*
X186448797Y-110773147D02*
X186639273Y-110773147D01*
X186639273Y-110773147D02*
X186734511Y-110725528D01*
X186734511Y-110725528D02*
X186829749Y-110630289D01*
X186829749Y-110630289D02*
X186877368Y-110439813D01*
X186877368Y-110439813D02*
X186877368Y-110106480D01*
X186877368Y-110106480D02*
X186829749Y-109916004D01*
X186829749Y-109916004D02*
X186734511Y-109820766D01*
X186734511Y-109820766D02*
X186639273Y-109773147D01*
X185305940Y-110773147D02*
X185782130Y-110773147D01*
X185782130Y-110773147D02*
X185782130Y-109773147D01*
X184972606Y-110249337D02*
X184639273Y-110249337D01*
X184496416Y-110773147D02*
X184972606Y-110773147D01*
X184972606Y-110773147D02*
X184972606Y-109773147D01*
X184972606Y-109773147D02*
X184496416Y-109773147D01*
X184067844Y-110773147D02*
X184067844Y-109773147D01*
X184067844Y-109773147D02*
X183829749Y-109773147D01*
X183829749Y-109773147D02*
X183686892Y-109820766D01*
X183686892Y-109820766D02*
X183591654Y-109916004D01*
X183591654Y-109916004D02*
X183544035Y-110011242D01*
X183544035Y-110011242D02*
X183496416Y-110201718D01*
X183496416Y-110201718D02*
X183496416Y-110344575D01*
X183496416Y-110344575D02*
X183544035Y-110535051D01*
X183544035Y-110535051D02*
X183591654Y-110630289D01*
X183591654Y-110630289D02*
X183686892Y-110725528D01*
X183686892Y-110725528D02*
X183829749Y-110773147D01*
X183829749Y-110773147D02*
X184067844Y-110773147D01*
D12*
X107100331Y-82947921D02*
X114900331Y-82947921D01*
X114900331Y-85047921D02*
X114900331Y-86647921D01*
X114900331Y-85847921D02*
X114114660Y-86626302D01*
X114900331Y-86647921D02*
X107100331Y-86647921D01*
X161100331Y-85447921D02*
X168900331Y-85447921D01*
X168900331Y-87547921D02*
X168900331Y-89147921D01*
X168900331Y-88347921D02*
X168114660Y-89126302D01*
X168900331Y-89147921D02*
X161100331Y-89147921D01*
X89100331Y-104947921D02*
X96900331Y-104947921D01*
X96900331Y-107047921D02*
X96900331Y-108647921D01*
X96900331Y-107847921D02*
X96114660Y-108626302D01*
X96900331Y-108647921D02*
X89100331Y-108647921D01*
X107100331Y-65947921D02*
X114900331Y-65947921D01*
X114900331Y-68047921D02*
X114900331Y-69647921D01*
X114900331Y-68847921D02*
X114114660Y-69626302D01*
X114900331Y-69647921D02*
X107100331Y-69647921D01*
X152679012Y-119661869D02*
X160213233Y-121680658D01*
X159669713Y-123709102D02*
X159255603Y-125254583D01*
X159462658Y-124481843D02*
X158502298Y-125030354D01*
X159255603Y-125254583D02*
X151721381Y-123235795D01*
X169375899Y-133351173D02*
X173275899Y-126596175D01*
X175094552Y-127646175D02*
X176480193Y-128446175D01*
X175787372Y-128046175D02*
X176068635Y-129115776D01*
X176480193Y-128446175D02*
X172580193Y-135201173D01*
X185625899Y-142601173D02*
X189525899Y-135846175D01*
X191344552Y-136896175D02*
X192730193Y-137696175D01*
X192037372Y-137296175D02*
X192318635Y-138365776D01*
X192730193Y-137696175D02*
X188830193Y-144451173D01*
X89100331Y-70947921D02*
X96900331Y-70947921D01*
X96900331Y-73047921D02*
X96900331Y-74647921D01*
X96900331Y-73847921D02*
X96114660Y-74626302D01*
X96900331Y-74647921D02*
X89100331Y-74647921D01*
X125100331Y-63447921D02*
X132900331Y-63447921D01*
X132900331Y-65547921D02*
X132900331Y-67147921D01*
X132900331Y-66347921D02*
X132114660Y-67126302D01*
X132900331Y-67147921D02*
X125100331Y-67147921D01*
X143100331Y-65947921D02*
X150900331Y-65947921D01*
X150900331Y-68047921D02*
X150900331Y-69647921D01*
X150900331Y-68847921D02*
X150114660Y-69626302D01*
X150900331Y-69647921D02*
X143100331Y-69647921D01*
X161100331Y-68447921D02*
X168900331Y-68447921D01*
X168900331Y-70547921D02*
X168900331Y-72147921D01*
X168900331Y-71347921D02*
X168114660Y-72126302D01*
X168900331Y-72147921D02*
X161100331Y-72147921D01*
X71100331Y-96447921D02*
X78900331Y-96447921D01*
X78900331Y-98547921D02*
X78900331Y-100147921D01*
X78900331Y-99347921D02*
X78114660Y-100126302D01*
X78900331Y-100147921D02*
X71100331Y-100147921D01*
X89100331Y-87947921D02*
X96900331Y-87947921D01*
X96900331Y-90047921D02*
X96900331Y-91647921D01*
X96900331Y-90847921D02*
X96114660Y-91626302D01*
X96900331Y-91647921D02*
X89100331Y-91647921D01*
X125100331Y-80447921D02*
X132900331Y-80447921D01*
X132900331Y-82547921D02*
X132900331Y-84147921D01*
X132900331Y-83347921D02*
X132114660Y-84126302D01*
X132900331Y-84147921D02*
X125100331Y-84147921D01*
X143100331Y-82947921D02*
X150900331Y-82947921D01*
X150900331Y-85047921D02*
X150900331Y-86647921D01*
X150900331Y-85847921D02*
X150114660Y-86626302D01*
X150900331Y-86647921D02*
X143100331Y-86647921D01*
X130350331Y-117447921D02*
X138150331Y-117447921D01*
X138150331Y-119547921D02*
X138150331Y-121147921D01*
X138150331Y-120347921D02*
X137364660Y-121126302D01*
X138150331Y-121147921D02*
X130350331Y-121147921D01*
X107100331Y-99947921D02*
X114900331Y-99947921D01*
X114900331Y-102047921D02*
X114900331Y-103647921D01*
X114900331Y-102847921D02*
X114114660Y-103626302D01*
X114900331Y-103647921D02*
X107100331Y-103647921D01*
X125100331Y-97447921D02*
X132900331Y-97447921D01*
X132900331Y-99547921D02*
X132900331Y-101147921D01*
X132900331Y-100347921D02*
X132114660Y-101126302D01*
X132900331Y-101147921D02*
X125100331Y-101147921D01*
X143100331Y-99947921D02*
X150900331Y-99947921D01*
X150900331Y-102047921D02*
X150900331Y-103647921D01*
X150900331Y-102847921D02*
X150114660Y-103626302D01*
X150900331Y-103647921D02*
X143100331Y-103647921D01*
X161100331Y-102447921D02*
X168900331Y-102447921D01*
X168900331Y-104547921D02*
X168900331Y-106147921D01*
X168900331Y-105347921D02*
X168114660Y-106126302D01*
X168900331Y-106147921D02*
X161100331Y-106147921D01*
X71100331Y-79447921D02*
X78900331Y-79447921D01*
X78900331Y-81547921D02*
X78900331Y-83147921D01*
X78900331Y-82347921D02*
X78114660Y-83126302D01*
X78900331Y-83147921D02*
X71100331Y-83147921D01*
X193470000Y-117700000D02*
X192680000Y-117700000D01*
X191630000Y-115650000D02*
X191630000Y-115850000D01*
X191630000Y-112650000D02*
X191630000Y-114350000D01*
X194480000Y-111400000D02*
X194480000Y-117100000D01*
X192680000Y-110800000D02*
X193470000Y-110800000D01*
D11*
X182112066Y-133545642D02*
X184407034Y-134870642D01*
X184700094Y-135213045D02*
X181625704Y-133438045D01*
X184779998Y-135374648D02*
X181532403Y-133499648D01*
X184816601Y-135511250D02*
X181395799Y-133536250D01*
X184853203Y-135647853D02*
X181215897Y-133547853D01*
X184864806Y-135827757D02*
X181054294Y-133627757D01*
X184833107Y-135982661D02*
X180935993Y-133732661D01*
X184801408Y-136137564D02*
X180860993Y-133862564D01*
X184773059Y-136236667D02*
X183473059Y-138488333D01*
X180746041Y-133911667D02*
X179458541Y-136141682D01*
X184726408Y-136267468D02*
X180742691Y-133967468D01*
X184651408Y-136397372D02*
X180667691Y-134097372D01*
X184576408Y-136527276D02*
X180592691Y-134227276D01*
X184501408Y-136657180D02*
X180517691Y-134357181D01*
X184426407Y-136787083D02*
X180442691Y-134487083D01*
X184351408Y-136916987D02*
X180367691Y-134616987D01*
X184276408Y-137046891D02*
X180292691Y-134746891D01*
X184201408Y-137176795D02*
X180217691Y-134876795D01*
X184126408Y-137306699D02*
X180142691Y-135006699D01*
X184051408Y-137436603D02*
X180067691Y-135136603D01*
X183976408Y-137566506D02*
X179992691Y-135266506D01*
X183901408Y-137696410D02*
X179917691Y-135396410D01*
X183826408Y-137826314D02*
X179842691Y-135526314D01*
X183751408Y-137956218D02*
X179767691Y-135656218D01*
X183676408Y-138086122D02*
X179692691Y-135786122D01*
X183601408Y-138216025D02*
X179617691Y-135916025D01*
X183526408Y-138345929D02*
X179585993Y-136070929D01*
X183451408Y-138475833D02*
X179467691Y-136175833D01*
X183376408Y-138605737D02*
X179392691Y-136305737D01*
X183258107Y-138710641D02*
X179317691Y-136435642D01*
X183096505Y-138790544D02*
X179156089Y-136515544D01*
X182934902Y-138870448D02*
X179037788Y-136620448D01*
X182754998Y-138882051D02*
X178944486Y-136682051D01*
X182488492Y-138843653D02*
X178851185Y-136743653D01*
X182308588Y-138855256D02*
X178714583Y-136780256D01*
X182085383Y-138841858D02*
X178491377Y-136766858D01*
X181905479Y-138853461D02*
X178311474Y-136778461D01*
X181682274Y-138840064D02*
X177828461Y-136615064D01*
X181477370Y-138894967D02*
X177623557Y-136669967D01*
X181272466Y-138949871D02*
X177461955Y-136749871D01*
X181110864Y-139029775D02*
X177300352Y-136829775D01*
X180949261Y-139109679D02*
X177095448Y-136884679D01*
X180787659Y-139189583D02*
X176933846Y-136964583D01*
X180669358Y-139294486D02*
X176728942Y-137019486D01*
X180507755Y-139374390D02*
X176567339Y-137099390D01*
X180389454Y-139479294D02*
X176405737Y-137179294D01*
X176328285Y-137163445D02*
X177853461Y-136571762D01*
X176328285Y-137163445D02*
X175053285Y-139371809D01*
X180314454Y-139609198D02*
X176287436Y-137284198D01*
X180239454Y-139739102D02*
X176212436Y-137414102D01*
X180121152Y-139844005D02*
X176180737Y-137569005D01*
X180067803Y-139986409D02*
X179080303Y-141696809D01*
X180046152Y-139973909D02*
X176062436Y-137673909D01*
X179971152Y-140103813D02*
X175987436Y-137803813D01*
X179896152Y-140233717D02*
X175912436Y-137933717D01*
X179821152Y-140363621D02*
X175837436Y-138063621D01*
X179746152Y-140493524D02*
X175762436Y-138193524D01*
X179671152Y-140623428D02*
X175687436Y-138323428D01*
X179596152Y-140753332D02*
X175612436Y-138453332D01*
X179521152Y-140883236D02*
X175537436Y-138583236D01*
X179446152Y-141013140D02*
X175462436Y-138713140D01*
X179371152Y-141143044D02*
X175387436Y-138843044D01*
X179296152Y-141272947D02*
X175312436Y-138972946D01*
X179221152Y-141402851D02*
X175237436Y-139102851D01*
X179146152Y-141532755D02*
X175162436Y-139232755D01*
X179071152Y-141662659D02*
X175087436Y-139362659D01*
X178866249Y-141717563D02*
X175099038Y-139542563D01*
X178704646Y-141797466D02*
X175153942Y-139747466D01*
X178499742Y-141852370D02*
X175208846Y-139952370D01*
X178294838Y-141907274D02*
X175263750Y-140157274D01*
X178046633Y-141937178D02*
X175318653Y-140362178D01*
X177885031Y-142017082D02*
X175373557Y-140567082D01*
X177680127Y-142071985D02*
X179080303Y-141696809D01*
X175428461Y-140771985D02*
X175053285Y-139371809D01*
X175428461Y-140771985D02*
X177680127Y-142071985D01*
X184773059Y-136236667D02*
G75*
G03*
X184407034Y-134870642I-866024J500000D01*
G01*
X182112066Y-133545642D02*
G75*
G03*
X180746041Y-133911667I-500000J-866024D01*
G01*
X177853461Y-136571762D02*
G75*
G03*
X179458541Y-136141682I587500J1017580D01*
G01*
X182433059Y-138883474D02*
G75*
G03*
X183471514Y-138488591I255142J891927D01*
G01*
X182433060Y-138883471D02*
G75*
G03*
X180067803Y-139986409I-395049J-2240438D01*
G01*
X155787532Y-132014394D02*
X155101662Y-134574098D01*
X154846775Y-134945794D02*
X155765582Y-131516757D01*
X154711359Y-135064800D02*
X155681931Y-131442579D01*
X154588885Y-135135511D02*
X155611220Y-131320104D01*
X154466410Y-135206222D02*
X155553450Y-131149333D01*
X154295640Y-135263992D02*
X155434443Y-131013918D01*
X154137810Y-135273465D02*
X155302496Y-130926799D01*
X153979980Y-135282938D02*
X155157607Y-130887976D01*
X153876917Y-135281205D02*
X151365510Y-134608275D01*
X155080425Y-130789650D02*
X152593166Y-130123191D01*
X153835091Y-135244116D02*
X155025659Y-130800857D01*
X153690202Y-135205293D02*
X154880770Y-130762034D01*
X153545313Y-135166470D02*
X154735881Y-130723211D01*
X153400424Y-135127647D02*
X154590992Y-130684388D01*
X153255536Y-135088824D02*
X154446103Y-130645565D01*
X153110647Y-135050001D02*
X154301214Y-130606742D01*
X152965758Y-135011178D02*
X154156325Y-130567920D01*
X152820869Y-134972356D02*
X154011437Y-130529097D01*
X152675980Y-134933533D02*
X153866548Y-130490274D01*
X152531091Y-134894710D02*
X153721659Y-130451451D01*
X152386202Y-134855887D02*
X153576770Y-130412628D01*
X152241313Y-134817064D02*
X153431881Y-130373805D01*
X152096425Y-134778241D02*
X153286992Y-130334982D01*
X151951536Y-134739418D02*
X153142103Y-130296160D01*
X151806647Y-134700596D02*
X152997214Y-130257337D01*
X151661758Y-134661773D02*
X152852326Y-130218514D01*
X151516869Y-134622950D02*
X152694496Y-130227987D01*
X151371980Y-134584127D02*
X152562548Y-130140868D01*
X151227091Y-134545304D02*
X152417659Y-130102045D01*
X151095143Y-134458185D02*
X152272770Y-130063223D01*
X150976136Y-134322770D02*
X152153763Y-129927807D01*
X150857130Y-134187354D02*
X152021815Y-129840688D01*
X150799360Y-134016583D02*
X151938164Y-129766510D01*
X150767472Y-133749220D02*
X151854512Y-129692332D01*
X150709702Y-133578449D02*
X151783801Y-129569857D01*
X150664873Y-133359382D02*
X151738973Y-129350790D01*
X150607104Y-133188611D02*
X151681203Y-129180019D01*
X150562275Y-132969544D02*
X151714020Y-128671174D01*
X150456209Y-132785833D02*
X151607954Y-128487463D01*
X150350143Y-132602121D02*
X151488947Y-128352047D01*
X150231136Y-132466705D02*
X151369940Y-128216632D01*
X150112129Y-132331290D02*
X151263874Y-128032920D01*
X149993122Y-132195875D02*
X151144867Y-127897505D01*
X149861174Y-132108755D02*
X151038801Y-127713793D01*
X149742167Y-131973340D02*
X150919794Y-127578377D01*
X149610219Y-131886221D02*
X150800787Y-127442962D01*
X150796050Y-127364047D02*
X151762316Y-128684115D01*
X150796050Y-127364047D02*
X148332939Y-126704059D01*
X149465330Y-131847398D02*
X150668839Y-127355843D01*
X149320441Y-131808575D02*
X150523950Y-127317020D01*
X149188494Y-131721456D02*
X150366120Y-127326493D01*
X149037134Y-131706781D02*
X147129431Y-131195614D01*
X149043605Y-131682633D02*
X150234172Y-127239374D01*
X148898716Y-131643810D02*
X150089283Y-127200551D01*
X148753827Y-131604987D02*
X149944395Y-127161729D01*
X148608938Y-131566164D02*
X149799506Y-127122906D01*
X148464049Y-131527342D02*
X149654617Y-127084083D01*
X148319160Y-131488519D02*
X149509728Y-127045260D01*
X148174271Y-131449696D02*
X149364839Y-127006437D01*
X148029383Y-131410873D02*
X149219950Y-126967614D01*
X147884494Y-131372050D02*
X149075061Y-126928791D01*
X147739605Y-131333227D02*
X148930172Y-126889969D01*
X147594716Y-131294404D02*
X148785284Y-126851146D01*
X147449827Y-131255582D02*
X148640395Y-126812323D01*
X147304938Y-131216759D02*
X148495506Y-126773500D01*
X147160049Y-131177936D02*
X148350617Y-126734677D01*
X147053983Y-130994224D02*
X148179846Y-126792447D01*
X146934976Y-130858809D02*
X147996134Y-126898513D01*
X146828910Y-130675097D02*
X147812423Y-127004579D01*
X146722844Y-130491385D02*
X147628711Y-127110645D01*
X146629719Y-130259377D02*
X147444999Y-127216711D01*
X146510712Y-130123962D02*
X147261287Y-127322777D01*
X146404646Y-129940250D02*
X147129431Y-131195614D01*
X147077576Y-127428843D02*
X148332939Y-126704059D01*
X147077576Y-127428843D02*
X146404646Y-129940250D01*
X153876917Y-135281204D02*
G75*
G03*
X155101661Y-134574098I258820J965924D01*
G01*
X155787532Y-132014394D02*
G75*
G03*
X155080425Y-130789651I-965924J258819D01*
G01*
X151762316Y-128684115D02*
G75*
G03*
X152593166Y-130123191I1134963J-304113D01*
G01*
X150714661Y-133705983D02*
G75*
G03*
X151364862Y-134606850I927571J-15600D01*
G01*
X150714663Y-133705983D02*
G75*
G03*
X149037134Y-131706782I-2266342J-198279D01*
G01*
X77300000Y-90575000D02*
X77300000Y-93225000D01*
X77150000Y-93650000D02*
X77150000Y-90100000D01*
X77050000Y-93800000D02*
X77050000Y-90050000D01*
X76950000Y-93900000D02*
X76950000Y-89950000D01*
X76850000Y-94000000D02*
X76850000Y-89800000D01*
X76700000Y-94100000D02*
X76700000Y-89700000D01*
X76550000Y-94150000D02*
X76550000Y-89650000D01*
X76400000Y-94200000D02*
X76400000Y-89650000D01*
X76300000Y-94225000D02*
X73700000Y-94225000D01*
X76300000Y-89575000D02*
X73725000Y-89575000D01*
X76250000Y-94200000D02*
X76250000Y-89600000D01*
X76100000Y-94200000D02*
X76100000Y-89600000D01*
X75950000Y-94200000D02*
X75950000Y-89600000D01*
X75800000Y-94200000D02*
X75800000Y-89600000D01*
X75650000Y-94200000D02*
X75650000Y-89600000D01*
X75500000Y-94200000D02*
X75500000Y-89600000D01*
X75350000Y-94200000D02*
X75350000Y-89600000D01*
X75200000Y-94200000D02*
X75200000Y-89600000D01*
X75050000Y-94200000D02*
X75050000Y-89600000D01*
X74900000Y-94200000D02*
X74900000Y-89600000D01*
X74750000Y-94200000D02*
X74750000Y-89600000D01*
X74600000Y-94200000D02*
X74600000Y-89600000D01*
X74450000Y-94200000D02*
X74450000Y-89600000D01*
X74300000Y-94200000D02*
X74300000Y-89600000D01*
X74150000Y-94200000D02*
X74150000Y-89600000D01*
X74000000Y-94200000D02*
X74000000Y-89600000D01*
X73850000Y-94200000D02*
X73850000Y-89650000D01*
X73700000Y-94200000D02*
X73700000Y-89600000D01*
X73550000Y-94200000D02*
X73550000Y-89600000D01*
X73400000Y-94150000D02*
X73400000Y-89600000D01*
X73250000Y-94050000D02*
X73250000Y-89500000D01*
X73100000Y-93950000D02*
X73100000Y-89450000D01*
X73000000Y-93800000D02*
X73000000Y-89400000D01*
X72900000Y-93550000D02*
X72900000Y-89350000D01*
X72800000Y-93400000D02*
X72800000Y-89250000D01*
X72700000Y-93200000D02*
X72700000Y-89050000D01*
X72600000Y-93050000D02*
X72600000Y-88900000D01*
X72500000Y-92850000D02*
X72500000Y-88400000D01*
X72350000Y-92700000D02*
X72350000Y-88250000D01*
X72200000Y-92550000D02*
X72200000Y-88150000D01*
X72050000Y-92450000D02*
X72050000Y-88050000D01*
X71900000Y-92350000D02*
X71900000Y-87900000D01*
X71750000Y-92250000D02*
X71750000Y-87800000D01*
X71600000Y-92200000D02*
X71600000Y-87650000D01*
X71450000Y-92100000D02*
X71450000Y-87550000D01*
X71300000Y-92050000D02*
X71300000Y-87450000D01*
X71275000Y-87375000D02*
X72550000Y-88400000D01*
X71275000Y-87375000D02*
X68725000Y-87375000D01*
X71150000Y-92050000D02*
X71150000Y-87400000D01*
X71000000Y-92050000D02*
X71000000Y-87400000D01*
X70850000Y-92000000D02*
X70850000Y-87450000D01*
X70700000Y-92025000D02*
X68725000Y-92025000D01*
X70700000Y-92000000D02*
X70700000Y-87400000D01*
X70550000Y-92000000D02*
X70550000Y-87400000D01*
X70400000Y-92000000D02*
X70400000Y-87400000D01*
X70250000Y-92000000D02*
X70250000Y-87400000D01*
X70100000Y-92000000D02*
X70100000Y-87400000D01*
X69950000Y-92000000D02*
X69950000Y-87400000D01*
X69800000Y-92000000D02*
X69800000Y-87400000D01*
X69650000Y-92000000D02*
X69650000Y-87400000D01*
X69500000Y-92000000D02*
X69500000Y-87400000D01*
X69350000Y-92000000D02*
X69350000Y-87400000D01*
X69200000Y-92000000D02*
X69200000Y-87400000D01*
X69050000Y-92000000D02*
X69050000Y-87400000D01*
X68900000Y-92000000D02*
X68900000Y-87400000D01*
X68750000Y-92000000D02*
X68750000Y-87400000D01*
X68600000Y-91850000D02*
X68600000Y-87500000D01*
X68450000Y-91750000D02*
X68450000Y-87650000D01*
X68300000Y-91600000D02*
X68300000Y-87800000D01*
X68150000Y-91450000D02*
X68150000Y-87950000D01*
X68000000Y-91250000D02*
X68000000Y-88100000D01*
X67850000Y-91150000D02*
X67850000Y-88250000D01*
X67700000Y-91000000D02*
X68725000Y-92025000D01*
X67700000Y-88400000D02*
X68725000Y-87375000D01*
X67700000Y-88400000D02*
X67700000Y-91000000D01*
X76300000Y-94225000D02*
G75*
G03*
X77300000Y-93225000I1J999999D01*
G01*
X77300000Y-90575000D02*
G75*
G03*
X76300000Y-89575000I-999999J1D01*
G01*
X72550000Y-88400000D02*
G75*
G03*
X73725000Y-89575000I1175000J0D01*
G01*
X72837798Y-93521905D02*
G75*
G03*
X73699005Y-94223790I900002J225005D01*
G01*
X72837801Y-93521904D02*
G75*
G03*
X70700000Y-92025000I-2137801J-778096D01*
G01*
X95300000Y-82075000D02*
X95300000Y-84725000D01*
X95150000Y-85150000D02*
X95150000Y-81600000D01*
X95050000Y-85300000D02*
X95050000Y-81550000D01*
X94950000Y-85400000D02*
X94950000Y-81450000D01*
X94850000Y-85500000D02*
X94850000Y-81300000D01*
X94700000Y-85600000D02*
X94700000Y-81200000D01*
X94550000Y-85650000D02*
X94550000Y-81150000D01*
X94400000Y-85700000D02*
X94400000Y-81150000D01*
X94300000Y-85725000D02*
X91700000Y-85725000D01*
X94300000Y-81075000D02*
X91725000Y-81075000D01*
X94250000Y-85700000D02*
X94250000Y-81100000D01*
X94100000Y-85700000D02*
X94100000Y-81100000D01*
X93950000Y-85700000D02*
X93950000Y-81100000D01*
X93800000Y-85700000D02*
X93800000Y-81100000D01*
X93650000Y-85700000D02*
X93650000Y-81100000D01*
X93500000Y-85700000D02*
X93500000Y-81100000D01*
X93350000Y-85700000D02*
X93350000Y-81100000D01*
X93200000Y-85700000D02*
X93200000Y-81100000D01*
X93050000Y-85700000D02*
X93050000Y-81100000D01*
X92900000Y-85700000D02*
X92900000Y-81100000D01*
X92750000Y-85700000D02*
X92750000Y-81100000D01*
X92600000Y-85700000D02*
X92600000Y-81100000D01*
X92450000Y-85700000D02*
X92450000Y-81100000D01*
X92300000Y-85700000D02*
X92300000Y-81100000D01*
X92150000Y-85700000D02*
X92150000Y-81100000D01*
X92000000Y-85700000D02*
X92000000Y-81100000D01*
X91850000Y-85700000D02*
X91850000Y-81150000D01*
X91700000Y-85700000D02*
X91700000Y-81100000D01*
X91550000Y-85700000D02*
X91550000Y-81100000D01*
X91400000Y-85650000D02*
X91400000Y-81100000D01*
X91250000Y-85550000D02*
X91250000Y-81000000D01*
X91100000Y-85450000D02*
X91100000Y-80950000D01*
X91000000Y-85300000D02*
X91000000Y-80900000D01*
X90900000Y-85050000D02*
X90900000Y-80850000D01*
X90800000Y-84900000D02*
X90800000Y-80750000D01*
X90700000Y-84700000D02*
X90700000Y-80550000D01*
X90600000Y-84550000D02*
X90600000Y-80400000D01*
X90500000Y-84350000D02*
X90500000Y-79900000D01*
X90350000Y-84200000D02*
X90350000Y-79750000D01*
X90200000Y-84050000D02*
X90200000Y-79650000D01*
X90050000Y-83950000D02*
X90050000Y-79550000D01*
X89900000Y-83850000D02*
X89900000Y-79400000D01*
X89750000Y-83750000D02*
X89750000Y-79300000D01*
X89600000Y-83700000D02*
X89600000Y-79150000D01*
X89450000Y-83600000D02*
X89450000Y-79050000D01*
X89300000Y-83550000D02*
X89300000Y-78950000D01*
X89275000Y-78875000D02*
X90550000Y-79900000D01*
X89275000Y-78875000D02*
X86725000Y-78875000D01*
X89150000Y-83550000D02*
X89150000Y-78900000D01*
X89000000Y-83550000D02*
X89000000Y-78900000D01*
X88850000Y-83500000D02*
X88850000Y-78950000D01*
X88700000Y-83525000D02*
X86725000Y-83525000D01*
X88700000Y-83500000D02*
X88700000Y-78900000D01*
X88550000Y-83500000D02*
X88550000Y-78900000D01*
X88400000Y-83500000D02*
X88400000Y-78900000D01*
X88250000Y-83500000D02*
X88250000Y-78900000D01*
X88100000Y-83500000D02*
X88100000Y-78900000D01*
X87950000Y-83500000D02*
X87950000Y-78900000D01*
X87800000Y-83500000D02*
X87800000Y-78900000D01*
X87650000Y-83500000D02*
X87650000Y-78900000D01*
X87500000Y-83500000D02*
X87500000Y-78900000D01*
X87350000Y-83500000D02*
X87350000Y-78900000D01*
X87200000Y-83500000D02*
X87200000Y-78900000D01*
X87050000Y-83500000D02*
X87050000Y-78900000D01*
X86900000Y-83500000D02*
X86900000Y-78900000D01*
X86750000Y-83500000D02*
X86750000Y-78900000D01*
X86600000Y-83350000D02*
X86600000Y-79000000D01*
X86450000Y-83250000D02*
X86450000Y-79150000D01*
X86300000Y-83100000D02*
X86300000Y-79300000D01*
X86150000Y-82950000D02*
X86150000Y-79450000D01*
X86000000Y-82750000D02*
X86000000Y-79600000D01*
X85850000Y-82650000D02*
X85850000Y-79750000D01*
X85700000Y-82500000D02*
X86725000Y-83525000D01*
X85700000Y-79900000D02*
X86725000Y-78875000D01*
X85700000Y-79900000D02*
X85700000Y-82500000D01*
X94300000Y-85725000D02*
G75*
G03*
X95300000Y-84725000I1J999999D01*
G01*
X95300000Y-82075000D02*
G75*
G03*
X94300000Y-81075000I-999999J1D01*
G01*
X90550000Y-79900000D02*
G75*
G03*
X91725000Y-81075000I1175000J0D01*
G01*
X90837798Y-85021905D02*
G75*
G03*
X91699005Y-85723790I900002J225005D01*
G01*
X90837801Y-85021904D02*
G75*
G03*
X88700000Y-83525000I-2137801J-778096D01*
G01*
X113300000Y-77075000D02*
X113300000Y-79725000D01*
X113150000Y-80150000D02*
X113150000Y-76600000D01*
X113050000Y-80300000D02*
X113050000Y-76550000D01*
X112950000Y-80400000D02*
X112950000Y-76450000D01*
X112850000Y-80500000D02*
X112850000Y-76300000D01*
X112700000Y-80600000D02*
X112700000Y-76200000D01*
X112550000Y-80650000D02*
X112550000Y-76150000D01*
X112400000Y-80700000D02*
X112400000Y-76150000D01*
X112300000Y-80725000D02*
X109700000Y-80725000D01*
X112300000Y-76075000D02*
X109725000Y-76075000D01*
X112250000Y-80700000D02*
X112250000Y-76100000D01*
X112100000Y-80700000D02*
X112100000Y-76100000D01*
X111950000Y-80700000D02*
X111950000Y-76100000D01*
X111800000Y-80700000D02*
X111800000Y-76100000D01*
X111650000Y-80700000D02*
X111650000Y-76100000D01*
X111500000Y-80700000D02*
X111500000Y-76100000D01*
X111350000Y-80700000D02*
X111350000Y-76100000D01*
X111200000Y-80700000D02*
X111200000Y-76100000D01*
X111050000Y-80700000D02*
X111050000Y-76100000D01*
X110900000Y-80700000D02*
X110900000Y-76100000D01*
X110750000Y-80700000D02*
X110750000Y-76100000D01*
X110600000Y-80700000D02*
X110600000Y-76100000D01*
X110450000Y-80700000D02*
X110450000Y-76100000D01*
X110300000Y-80700000D02*
X110300000Y-76100000D01*
X110150000Y-80700000D02*
X110150000Y-76100000D01*
X110000000Y-80700000D02*
X110000000Y-76100000D01*
X109850000Y-80700000D02*
X109850000Y-76150000D01*
X109700000Y-80700000D02*
X109700000Y-76100000D01*
X109550000Y-80700000D02*
X109550000Y-76100000D01*
X109400000Y-80650000D02*
X109400000Y-76100000D01*
X109250000Y-80550000D02*
X109250000Y-76000000D01*
X109100000Y-80450000D02*
X109100000Y-75950000D01*
X109000000Y-80300000D02*
X109000000Y-75900000D01*
X108900000Y-80050000D02*
X108900000Y-75850000D01*
X108800000Y-79900000D02*
X108800000Y-75750000D01*
X108700000Y-79700000D02*
X108700000Y-75550000D01*
X108600000Y-79550000D02*
X108600000Y-75400000D01*
X108500000Y-79350000D02*
X108500000Y-74900000D01*
X108350000Y-79200000D02*
X108350000Y-74750000D01*
X108200000Y-79050000D02*
X108200000Y-74650000D01*
X108050000Y-78950000D02*
X108050000Y-74550000D01*
X107900000Y-78850000D02*
X107900000Y-74400000D01*
X107750000Y-78750000D02*
X107750000Y-74300000D01*
X107600000Y-78700000D02*
X107600000Y-74150000D01*
X107450000Y-78600000D02*
X107450000Y-74050000D01*
X107300000Y-78550000D02*
X107300000Y-73950000D01*
X107275000Y-73875000D02*
X108550000Y-74900000D01*
X107275000Y-73875000D02*
X104725000Y-73875000D01*
X107150000Y-78550000D02*
X107150000Y-73900000D01*
X107000000Y-78550000D02*
X107000000Y-73900000D01*
X106850000Y-78500000D02*
X106850000Y-73950000D01*
X106700000Y-78525000D02*
X104725000Y-78525000D01*
X106700000Y-78500000D02*
X106700000Y-73900000D01*
X106550000Y-78500000D02*
X106550000Y-73900000D01*
X106400000Y-78500000D02*
X106400000Y-73900000D01*
X106250000Y-78500000D02*
X106250000Y-73900000D01*
X106100000Y-78500000D02*
X106100000Y-73900000D01*
X105950000Y-78500000D02*
X105950000Y-73900000D01*
X105800000Y-78500000D02*
X105800000Y-73900000D01*
X105650000Y-78500000D02*
X105650000Y-73900000D01*
X105500000Y-78500000D02*
X105500000Y-73900000D01*
X105350000Y-78500000D02*
X105350000Y-73900000D01*
X105200000Y-78500000D02*
X105200000Y-73900000D01*
X105050000Y-78500000D02*
X105050000Y-73900000D01*
X104900000Y-78500000D02*
X104900000Y-73900000D01*
X104750000Y-78500000D02*
X104750000Y-73900000D01*
X104600000Y-78350000D02*
X104600000Y-74000000D01*
X104450000Y-78250000D02*
X104450000Y-74150000D01*
X104300000Y-78100000D02*
X104300000Y-74300000D01*
X104150000Y-77950000D02*
X104150000Y-74450000D01*
X104000000Y-77750000D02*
X104000000Y-74600000D01*
X103850000Y-77650000D02*
X103850000Y-74750000D01*
X103700000Y-77500000D02*
X104725000Y-78525000D01*
X103700000Y-74900000D02*
X104725000Y-73875000D01*
X103700000Y-74900000D02*
X103700000Y-77500000D01*
X112300000Y-80725000D02*
G75*
G03*
X113300000Y-79725000I1J999999D01*
G01*
X113300000Y-77075000D02*
G75*
G03*
X112300000Y-76075000I-999999J1D01*
G01*
X108550000Y-74900000D02*
G75*
G03*
X109725000Y-76075000I1175000J0D01*
G01*
X108837798Y-80021905D02*
G75*
G03*
X109699005Y-80723790I900002J225005D01*
G01*
X108837801Y-80021904D02*
G75*
G03*
X106700000Y-78525000I-2137801J-778096D01*
G01*
X131300000Y-74575000D02*
X131300000Y-77225000D01*
X131150000Y-77650000D02*
X131150000Y-74100000D01*
X131050000Y-77800000D02*
X131050000Y-74050000D01*
X130950000Y-77900000D02*
X130950000Y-73950000D01*
X130850000Y-78000000D02*
X130850000Y-73800000D01*
X130700000Y-78100000D02*
X130700000Y-73700000D01*
X130550000Y-78150000D02*
X130550000Y-73650000D01*
X130400000Y-78200000D02*
X130400000Y-73650000D01*
X130300000Y-78225000D02*
X127700000Y-78225000D01*
X130300000Y-73575000D02*
X127725000Y-73575000D01*
X130250000Y-78200000D02*
X130250000Y-73600000D01*
X130100000Y-78200000D02*
X130100000Y-73600000D01*
X129950000Y-78200000D02*
X129950000Y-73600000D01*
X129800000Y-78200000D02*
X129800000Y-73600000D01*
X129650000Y-78200000D02*
X129650000Y-73600000D01*
X129500000Y-78200000D02*
X129500000Y-73600000D01*
X129350000Y-78200000D02*
X129350000Y-73600000D01*
X129200000Y-78200000D02*
X129200000Y-73600000D01*
X129050000Y-78200000D02*
X129050000Y-73600000D01*
X128900000Y-78200000D02*
X128900000Y-73600000D01*
X128750000Y-78200000D02*
X128750000Y-73600000D01*
X128600000Y-78200000D02*
X128600000Y-73600000D01*
X128450000Y-78200000D02*
X128450000Y-73600000D01*
X128300000Y-78200000D02*
X128300000Y-73600000D01*
X128150000Y-78200000D02*
X128150000Y-73600000D01*
X128000000Y-78200000D02*
X128000000Y-73600000D01*
X127850000Y-78200000D02*
X127850000Y-73650000D01*
X127700000Y-78200000D02*
X127700000Y-73600000D01*
X127550000Y-78200000D02*
X127550000Y-73600000D01*
X127400000Y-78150000D02*
X127400000Y-73600000D01*
X127250000Y-78050000D02*
X127250000Y-73500000D01*
X127100000Y-77950000D02*
X127100000Y-73450000D01*
X127000000Y-77800000D02*
X127000000Y-73400000D01*
X126900000Y-77550000D02*
X126900000Y-73350000D01*
X126800000Y-77400000D02*
X126800000Y-73250000D01*
X126700000Y-77200000D02*
X126700000Y-73050000D01*
X126600000Y-77050000D02*
X126600000Y-72900000D01*
X126500000Y-76850000D02*
X126500000Y-72400000D01*
X126350000Y-76700000D02*
X126350000Y-72250000D01*
X126200000Y-76550000D02*
X126200000Y-72150000D01*
X126050000Y-76450000D02*
X126050000Y-72050000D01*
X125900000Y-76350000D02*
X125900000Y-71900000D01*
X125750000Y-76250000D02*
X125750000Y-71800000D01*
X125600000Y-76200000D02*
X125600000Y-71650000D01*
X125450000Y-76100000D02*
X125450000Y-71550000D01*
X125300000Y-76050000D02*
X125300000Y-71450000D01*
X125275000Y-71375000D02*
X126550000Y-72400000D01*
X125275000Y-71375000D02*
X122725000Y-71375000D01*
X125150000Y-76050000D02*
X125150000Y-71400000D01*
X125000000Y-76050000D02*
X125000000Y-71400000D01*
X124850000Y-76000000D02*
X124850000Y-71450000D01*
X124700000Y-76025000D02*
X122725000Y-76025000D01*
X124700000Y-76000000D02*
X124700000Y-71400000D01*
X124550000Y-76000000D02*
X124550000Y-71400000D01*
X124400000Y-76000000D02*
X124400000Y-71400000D01*
X124250000Y-76000000D02*
X124250000Y-71400000D01*
X124100000Y-76000000D02*
X124100000Y-71400000D01*
X123950000Y-76000000D02*
X123950000Y-71400000D01*
X123800000Y-76000000D02*
X123800000Y-71400000D01*
X123650000Y-76000000D02*
X123650000Y-71400000D01*
X123500000Y-76000000D02*
X123500000Y-71400000D01*
X123350000Y-76000000D02*
X123350000Y-71400000D01*
X123200000Y-76000000D02*
X123200000Y-71400000D01*
X123050000Y-76000000D02*
X123050000Y-71400000D01*
X122900000Y-76000000D02*
X122900000Y-71400000D01*
X122750000Y-76000000D02*
X122750000Y-71400000D01*
X122600000Y-75850000D02*
X122600000Y-71500000D01*
X122450000Y-75750000D02*
X122450000Y-71650000D01*
X122300000Y-75600000D02*
X122300000Y-71800000D01*
X122150000Y-75450000D02*
X122150000Y-71950000D01*
X122000000Y-75250000D02*
X122000000Y-72100000D01*
X121850000Y-75150000D02*
X121850000Y-72250000D01*
X121700000Y-75000000D02*
X122725000Y-76025000D01*
X121700000Y-72400000D02*
X122725000Y-71375000D01*
X121700000Y-72400000D02*
X121700000Y-75000000D01*
X130300000Y-78225000D02*
G75*
G03*
X131300000Y-77225000I1J999999D01*
G01*
X131300000Y-74575000D02*
G75*
G03*
X130300000Y-73575000I-999999J1D01*
G01*
X126550000Y-72400000D02*
G75*
G03*
X127725000Y-73575000I1175000J0D01*
G01*
X126837798Y-77521905D02*
G75*
G03*
X127699005Y-78223790I900002J225005D01*
G01*
X126837801Y-77521904D02*
G75*
G03*
X124700000Y-76025000I-2137801J-778096D01*
G01*
X149300000Y-77075000D02*
X149300000Y-79725000D01*
X149150000Y-80150000D02*
X149150000Y-76600000D01*
X149050000Y-80300000D02*
X149050000Y-76550000D01*
X148950000Y-80400000D02*
X148950000Y-76450000D01*
X148850000Y-80500000D02*
X148850000Y-76300000D01*
X148700000Y-80600000D02*
X148700000Y-76200000D01*
X148550000Y-80650000D02*
X148550000Y-76150000D01*
X148400000Y-80700000D02*
X148400000Y-76150000D01*
X148300000Y-80725000D02*
X145700000Y-80725000D01*
X148300000Y-76075000D02*
X145725000Y-76075000D01*
X148250000Y-80700000D02*
X148250000Y-76100000D01*
X148100000Y-80700000D02*
X148100000Y-76100000D01*
X147950000Y-80700000D02*
X147950000Y-76100000D01*
X147800000Y-80700000D02*
X147800000Y-76100000D01*
X147650000Y-80700000D02*
X147650000Y-76100000D01*
X147500000Y-80700000D02*
X147500000Y-76100000D01*
X147350000Y-80700000D02*
X147350000Y-76100000D01*
X147200000Y-80700000D02*
X147200000Y-76100000D01*
X147050000Y-80700000D02*
X147050000Y-76100000D01*
X146900000Y-80700000D02*
X146900000Y-76100000D01*
X146750000Y-80700000D02*
X146750000Y-76100000D01*
X146600000Y-80700000D02*
X146600000Y-76100000D01*
X146450000Y-80700000D02*
X146450000Y-76100000D01*
X146300000Y-80700000D02*
X146300000Y-76100000D01*
X146150000Y-80700000D02*
X146150000Y-76100000D01*
X146000000Y-80700000D02*
X146000000Y-76100000D01*
X145850000Y-80700000D02*
X145850000Y-76150000D01*
X145700000Y-80700000D02*
X145700000Y-76100000D01*
X145550000Y-80700000D02*
X145550000Y-76100000D01*
X145400000Y-80650000D02*
X145400000Y-76100000D01*
X145250000Y-80550000D02*
X145250000Y-76000000D01*
X145100000Y-80450000D02*
X145100000Y-75950000D01*
X145000000Y-80300000D02*
X145000000Y-75900000D01*
X144900000Y-80050000D02*
X144900000Y-75850000D01*
X144800000Y-79900000D02*
X144800000Y-75750000D01*
X144700000Y-79700000D02*
X144700000Y-75550000D01*
X144600000Y-79550000D02*
X144600000Y-75400000D01*
X144500000Y-79350000D02*
X144500000Y-74900000D01*
X144350000Y-79200000D02*
X144350000Y-74750000D01*
X144200000Y-79050000D02*
X144200000Y-74650000D01*
X144050000Y-78950000D02*
X144050000Y-74550000D01*
X143900000Y-78850000D02*
X143900000Y-74400000D01*
X143750000Y-78750000D02*
X143750000Y-74300000D01*
X143600000Y-78700000D02*
X143600000Y-74150000D01*
X143450000Y-78600000D02*
X143450000Y-74050000D01*
X143300000Y-78550000D02*
X143300000Y-73950000D01*
X143275000Y-73875000D02*
X144550000Y-74900000D01*
X143275000Y-73875000D02*
X140725000Y-73875000D01*
X143150000Y-78550000D02*
X143150000Y-73900000D01*
X143000000Y-78550000D02*
X143000000Y-73900000D01*
X142850000Y-78500000D02*
X142850000Y-73950000D01*
X142700000Y-78525000D02*
X140725000Y-78525000D01*
X142700000Y-78500000D02*
X142700000Y-73900000D01*
X142550000Y-78500000D02*
X142550000Y-73900000D01*
X142400000Y-78500000D02*
X142400000Y-73900000D01*
X142250000Y-78500000D02*
X142250000Y-73900000D01*
X142100000Y-78500000D02*
X142100000Y-73900000D01*
X141950000Y-78500000D02*
X141950000Y-73900000D01*
X141800000Y-78500000D02*
X141800000Y-73900000D01*
X141650000Y-78500000D02*
X141650000Y-73900000D01*
X141500000Y-78500000D02*
X141500000Y-73900000D01*
X141350000Y-78500000D02*
X141350000Y-73900000D01*
X141200000Y-78500000D02*
X141200000Y-73900000D01*
X141050000Y-78500000D02*
X141050000Y-73900000D01*
X140900000Y-78500000D02*
X140900000Y-73900000D01*
X140750000Y-78500000D02*
X140750000Y-73900000D01*
X140600000Y-78350000D02*
X140600000Y-74000000D01*
X140450000Y-78250000D02*
X140450000Y-74150000D01*
X140300000Y-78100000D02*
X140300000Y-74300000D01*
X140150000Y-77950000D02*
X140150000Y-74450000D01*
X140000000Y-77750000D02*
X140000000Y-74600000D01*
X139850000Y-77650000D02*
X139850000Y-74750000D01*
X139700000Y-77500000D02*
X140725000Y-78525000D01*
X139700000Y-74900000D02*
X140725000Y-73875000D01*
X139700000Y-74900000D02*
X139700000Y-77500000D01*
X148300000Y-80725000D02*
G75*
G03*
X149300000Y-79725000I1J999999D01*
G01*
X149300000Y-77075000D02*
G75*
G03*
X148300000Y-76075000I-999999J1D01*
G01*
X144550000Y-74900000D02*
G75*
G03*
X145725000Y-76075000I1175000J0D01*
G01*
X144837798Y-80021905D02*
G75*
G03*
X145699005Y-80723790I900002J225005D01*
G01*
X144837801Y-80021904D02*
G75*
G03*
X142700000Y-78525000I-2137801J-778096D01*
G01*
X167300000Y-79575000D02*
X167300000Y-82225000D01*
X167150000Y-82650000D02*
X167150000Y-79100000D01*
X167050000Y-82800000D02*
X167050000Y-79050000D01*
X166950000Y-82900000D02*
X166950000Y-78950000D01*
X166850000Y-83000000D02*
X166850000Y-78800000D01*
X166700000Y-83100000D02*
X166700000Y-78700000D01*
X166550000Y-83150000D02*
X166550000Y-78650000D01*
X166400000Y-83200000D02*
X166400000Y-78650000D01*
X166300000Y-83225000D02*
X163700000Y-83225000D01*
X166300000Y-78575000D02*
X163725000Y-78575000D01*
X166250000Y-83200000D02*
X166250000Y-78600000D01*
X166100000Y-83200000D02*
X166100000Y-78600000D01*
X165950000Y-83200000D02*
X165950000Y-78600000D01*
X165800000Y-83200000D02*
X165800000Y-78600000D01*
X165650000Y-83200000D02*
X165650000Y-78600000D01*
X165500000Y-83200000D02*
X165500000Y-78600000D01*
X165350000Y-83200000D02*
X165350000Y-78600000D01*
X165200000Y-83200000D02*
X165200000Y-78600000D01*
X165050000Y-83200000D02*
X165050000Y-78600000D01*
X164900000Y-83200000D02*
X164900000Y-78600000D01*
X164750000Y-83200000D02*
X164750000Y-78600000D01*
X164600000Y-83200000D02*
X164600000Y-78600000D01*
X164450000Y-83200000D02*
X164450000Y-78600000D01*
X164300000Y-83200000D02*
X164300000Y-78600000D01*
X164150000Y-83200000D02*
X164150000Y-78600000D01*
X164000000Y-83200000D02*
X164000000Y-78600000D01*
X163850000Y-83200000D02*
X163850000Y-78650000D01*
X163700000Y-83200000D02*
X163700000Y-78600000D01*
X163550000Y-83200000D02*
X163550000Y-78600000D01*
X163400000Y-83150000D02*
X163400000Y-78600000D01*
X163250000Y-83050000D02*
X163250000Y-78500000D01*
X163100000Y-82950000D02*
X163100000Y-78450000D01*
X163000000Y-82800000D02*
X163000000Y-78400000D01*
X162900000Y-82550000D02*
X162900000Y-78350000D01*
X162800000Y-82400000D02*
X162800000Y-78250000D01*
X162700000Y-82200000D02*
X162700000Y-78050000D01*
X162600000Y-82050000D02*
X162600000Y-77900000D01*
X162500000Y-81850000D02*
X162500000Y-77400000D01*
X162350000Y-81700000D02*
X162350000Y-77250000D01*
X162200000Y-81550000D02*
X162200000Y-77150000D01*
X162050000Y-81450000D02*
X162050000Y-77050000D01*
X161900000Y-81350000D02*
X161900000Y-76900000D01*
X161750000Y-81250000D02*
X161750000Y-76800000D01*
X161600000Y-81200000D02*
X161600000Y-76650000D01*
X161450000Y-81100000D02*
X161450000Y-76550000D01*
X161300000Y-81050000D02*
X161300000Y-76450000D01*
X161275000Y-76375000D02*
X162550000Y-77400000D01*
X161275000Y-76375000D02*
X158725000Y-76375000D01*
X161150000Y-81050000D02*
X161150000Y-76400000D01*
X161000000Y-81050000D02*
X161000000Y-76400000D01*
X160850000Y-81000000D02*
X160850000Y-76450000D01*
X160700000Y-81025000D02*
X158725000Y-81025000D01*
X160700000Y-81000000D02*
X160700000Y-76400000D01*
X160550000Y-81000000D02*
X160550000Y-76400000D01*
X160400000Y-81000000D02*
X160400000Y-76400000D01*
X160250000Y-81000000D02*
X160250000Y-76400000D01*
X160100000Y-81000000D02*
X160100000Y-76400000D01*
X159950000Y-81000000D02*
X159950000Y-76400000D01*
X159800000Y-81000000D02*
X159800000Y-76400000D01*
X159650000Y-81000000D02*
X159650000Y-76400000D01*
X159500000Y-81000000D02*
X159500000Y-76400000D01*
X159350000Y-81000000D02*
X159350000Y-76400000D01*
X159200000Y-81000000D02*
X159200000Y-76400000D01*
X159050000Y-81000000D02*
X159050000Y-76400000D01*
X158900000Y-81000000D02*
X158900000Y-76400000D01*
X158750000Y-81000000D02*
X158750000Y-76400000D01*
X158600000Y-80850000D02*
X158600000Y-76500000D01*
X158450000Y-80750000D02*
X158450000Y-76650000D01*
X158300000Y-80600000D02*
X158300000Y-76800000D01*
X158150000Y-80450000D02*
X158150000Y-76950000D01*
X158000000Y-80250000D02*
X158000000Y-77100000D01*
X157850000Y-80150000D02*
X157850000Y-77250000D01*
X157700000Y-80000000D02*
X158725000Y-81025000D01*
X157700000Y-77400000D02*
X158725000Y-76375000D01*
X157700000Y-77400000D02*
X157700000Y-80000000D01*
X166300000Y-83225000D02*
G75*
G03*
X167300000Y-82225000I1J999999D01*
G01*
X167300000Y-79575000D02*
G75*
G03*
X166300000Y-78575000I-999999J1D01*
G01*
X162550000Y-77400000D02*
G75*
G03*
X163725000Y-78575000I1175000J0D01*
G01*
X162837798Y-82521905D02*
G75*
G03*
X163699005Y-83223790I900002J225005D01*
G01*
X162837801Y-82521904D02*
G75*
G03*
X160700000Y-81025000I-2137801J-778096D01*
G01*
X77300000Y-107575000D02*
X77300000Y-110225000D01*
X77150000Y-110650000D02*
X77150000Y-107100000D01*
X77050000Y-110800000D02*
X77050000Y-107050000D01*
X76950000Y-110900000D02*
X76950000Y-106950000D01*
X76850000Y-111000000D02*
X76850000Y-106800000D01*
X76700000Y-111100000D02*
X76700000Y-106700000D01*
X76550000Y-111150000D02*
X76550000Y-106650000D01*
X76400000Y-111200000D02*
X76400000Y-106650000D01*
X76300000Y-111225000D02*
X73700000Y-111225000D01*
X76300000Y-106575000D02*
X73725000Y-106575000D01*
X76250000Y-111200000D02*
X76250000Y-106600000D01*
X76100000Y-111200000D02*
X76100000Y-106600000D01*
X75950000Y-111200000D02*
X75950000Y-106600000D01*
X75800000Y-111200000D02*
X75800000Y-106600000D01*
X75650000Y-111200000D02*
X75650000Y-106600000D01*
X75500000Y-111200000D02*
X75500000Y-106600000D01*
X75350000Y-111200000D02*
X75350000Y-106600000D01*
X75200000Y-111200000D02*
X75200000Y-106600000D01*
X75050000Y-111200000D02*
X75050000Y-106600000D01*
X74900000Y-111200000D02*
X74900000Y-106600000D01*
X74750000Y-111200000D02*
X74750000Y-106600000D01*
X74600000Y-111200000D02*
X74600000Y-106600000D01*
X74450000Y-111200000D02*
X74450000Y-106600000D01*
X74300000Y-111200000D02*
X74300000Y-106600000D01*
X74150000Y-111200000D02*
X74150000Y-106600000D01*
X74000000Y-111200000D02*
X74000000Y-106600000D01*
X73850000Y-111200000D02*
X73850000Y-106650000D01*
X73700000Y-111200000D02*
X73700000Y-106600000D01*
X73550000Y-111200000D02*
X73550000Y-106600000D01*
X73400000Y-111150000D02*
X73400000Y-106600000D01*
X73250000Y-111050000D02*
X73250000Y-106500000D01*
X73100000Y-110950000D02*
X73100000Y-106450000D01*
X73000000Y-110800000D02*
X73000000Y-106400000D01*
X72900000Y-110550000D02*
X72900000Y-106350000D01*
X72800000Y-110400000D02*
X72800000Y-106250000D01*
X72700000Y-110200000D02*
X72700000Y-106050000D01*
X72600000Y-110050000D02*
X72600000Y-105900000D01*
X72500000Y-109850000D02*
X72500000Y-105400000D01*
X72350000Y-109700000D02*
X72350000Y-105250000D01*
X72200000Y-109550000D02*
X72200000Y-105150000D01*
X72050000Y-109450000D02*
X72050000Y-105050000D01*
X71900000Y-109350000D02*
X71900000Y-104900000D01*
X71750000Y-109250000D02*
X71750000Y-104800000D01*
X71600000Y-109200000D02*
X71600000Y-104650000D01*
X71450000Y-109100000D02*
X71450000Y-104550000D01*
X71300000Y-109050000D02*
X71300000Y-104450000D01*
X71275000Y-104375000D02*
X72550000Y-105400000D01*
X71275000Y-104375000D02*
X68725000Y-104375000D01*
X71150000Y-109050000D02*
X71150000Y-104400000D01*
X71000000Y-109050000D02*
X71000000Y-104400000D01*
X70850000Y-109000000D02*
X70850000Y-104450000D01*
X70700000Y-109025000D02*
X68725000Y-109025000D01*
X70700000Y-109000000D02*
X70700000Y-104400000D01*
X70550000Y-109000000D02*
X70550000Y-104400000D01*
X70400000Y-109000000D02*
X70400000Y-104400000D01*
X70250000Y-109000000D02*
X70250000Y-104400000D01*
X70100000Y-109000000D02*
X70100000Y-104400000D01*
X69950000Y-109000000D02*
X69950000Y-104400000D01*
X69800000Y-109000000D02*
X69800000Y-104400000D01*
X69650000Y-109000000D02*
X69650000Y-104400000D01*
X69500000Y-109000000D02*
X69500000Y-104400000D01*
X69350000Y-109000000D02*
X69350000Y-104400000D01*
X69200000Y-109000000D02*
X69200000Y-104400000D01*
X69050000Y-109000000D02*
X69050000Y-104400000D01*
X68900000Y-109000000D02*
X68900000Y-104400000D01*
X68750000Y-109000000D02*
X68750000Y-104400000D01*
X68600000Y-108850000D02*
X68600000Y-104500000D01*
X68450000Y-108750000D02*
X68450000Y-104650000D01*
X68300000Y-108600000D02*
X68300000Y-104800000D01*
X68150000Y-108450000D02*
X68150000Y-104950000D01*
X68000000Y-108250000D02*
X68000000Y-105100000D01*
X67850000Y-108150000D02*
X67850000Y-105250000D01*
X67700000Y-108000000D02*
X68725000Y-109025000D01*
X67700000Y-105400000D02*
X68725000Y-104375000D01*
X67700000Y-105400000D02*
X67700000Y-108000000D01*
X76300000Y-111225000D02*
G75*
G03*
X77300000Y-110225000I1J999999D01*
G01*
X77300000Y-107575000D02*
G75*
G03*
X76300000Y-106575000I-999999J1D01*
G01*
X72550000Y-105400000D02*
G75*
G03*
X73725000Y-106575000I1175000J0D01*
G01*
X72837798Y-110521905D02*
G75*
G03*
X73699005Y-111223790I900002J225005D01*
G01*
X72837801Y-110521904D02*
G75*
G03*
X70700000Y-109025000I-2137801J-778096D01*
G01*
X95300000Y-99075000D02*
X95300000Y-101725000D01*
X95150000Y-102150000D02*
X95150000Y-98600000D01*
X95050000Y-102300000D02*
X95050000Y-98550000D01*
X94950000Y-102400000D02*
X94950000Y-98450000D01*
X94850000Y-102500000D02*
X94850000Y-98300000D01*
X94700000Y-102600000D02*
X94700000Y-98200000D01*
X94550000Y-102650000D02*
X94550000Y-98150000D01*
X94400000Y-102700000D02*
X94400000Y-98150000D01*
X94300000Y-102725000D02*
X91700000Y-102725000D01*
X94300000Y-98075000D02*
X91725000Y-98075000D01*
X94250000Y-102700000D02*
X94250000Y-98100000D01*
X94100000Y-102700000D02*
X94100000Y-98100000D01*
X93950000Y-102700000D02*
X93950000Y-98100000D01*
X93800000Y-102700000D02*
X93800000Y-98100000D01*
X93650000Y-102700000D02*
X93650000Y-98100000D01*
X93500000Y-102700000D02*
X93500000Y-98100000D01*
X93350000Y-102700000D02*
X93350000Y-98100000D01*
X93200000Y-102700000D02*
X93200000Y-98100000D01*
X93050000Y-102700000D02*
X93050000Y-98100000D01*
X92900000Y-102700000D02*
X92900000Y-98100000D01*
X92750000Y-102700000D02*
X92750000Y-98100000D01*
X92600000Y-102700000D02*
X92600000Y-98100000D01*
X92450000Y-102700000D02*
X92450000Y-98100000D01*
X92300000Y-102700000D02*
X92300000Y-98100000D01*
X92150000Y-102700000D02*
X92150000Y-98100000D01*
X92000000Y-102700000D02*
X92000000Y-98100000D01*
X91850000Y-102700000D02*
X91850000Y-98150000D01*
X91700000Y-102700000D02*
X91700000Y-98100000D01*
X91550000Y-102700000D02*
X91550000Y-98100000D01*
X91400000Y-102650000D02*
X91400000Y-98100000D01*
X91250000Y-102550000D02*
X91250000Y-98000000D01*
X91100000Y-102450000D02*
X91100000Y-97950000D01*
X91000000Y-102300000D02*
X91000000Y-97900000D01*
X90900000Y-102050000D02*
X90900000Y-97850000D01*
X90800000Y-101900000D02*
X90800000Y-97750000D01*
X90700000Y-101700000D02*
X90700000Y-97550000D01*
X90600000Y-101550000D02*
X90600000Y-97400000D01*
X90500000Y-101350000D02*
X90500000Y-96900000D01*
X90350000Y-101200000D02*
X90350000Y-96750000D01*
X90200000Y-101050000D02*
X90200000Y-96650000D01*
X90050000Y-100950000D02*
X90050000Y-96550000D01*
X89900000Y-100850000D02*
X89900000Y-96400000D01*
X89750000Y-100750000D02*
X89750000Y-96300000D01*
X89600000Y-100700000D02*
X89600000Y-96150000D01*
X89450000Y-100600000D02*
X89450000Y-96050000D01*
X89300000Y-100550000D02*
X89300000Y-95950000D01*
X89275000Y-95875000D02*
X90550000Y-96900000D01*
X89275000Y-95875000D02*
X86725000Y-95875000D01*
X89150000Y-100550000D02*
X89150000Y-95900000D01*
X89000000Y-100550000D02*
X89000000Y-95900000D01*
X88850000Y-100500000D02*
X88850000Y-95950000D01*
X88700000Y-100525000D02*
X86725000Y-100525000D01*
X88700000Y-100500000D02*
X88700000Y-95900000D01*
X88550000Y-100500000D02*
X88550000Y-95900000D01*
X88400000Y-100500000D02*
X88400000Y-95900000D01*
X88250000Y-100500000D02*
X88250000Y-95900000D01*
X88100000Y-100500000D02*
X88100000Y-95900000D01*
X87950000Y-100500000D02*
X87950000Y-95900000D01*
X87800000Y-100500000D02*
X87800000Y-95900000D01*
X87650000Y-100500000D02*
X87650000Y-95900000D01*
X87500000Y-100500000D02*
X87500000Y-95900000D01*
X87350000Y-100500000D02*
X87350000Y-95900000D01*
X87200000Y-100500000D02*
X87200000Y-95900000D01*
X87050000Y-100500000D02*
X87050000Y-95900000D01*
X86900000Y-100500000D02*
X86900000Y-95900000D01*
X86750000Y-100500000D02*
X86750000Y-95900000D01*
X86600000Y-100350000D02*
X86600000Y-96000000D01*
X86450000Y-100250000D02*
X86450000Y-96150000D01*
X86300000Y-100100000D02*
X86300000Y-96300000D01*
X86150000Y-99950000D02*
X86150000Y-96450000D01*
X86000000Y-99750000D02*
X86000000Y-96600000D01*
X85850000Y-99650000D02*
X85850000Y-96750000D01*
X85700000Y-99500000D02*
X86725000Y-100525000D01*
X85700000Y-96900000D02*
X86725000Y-95875000D01*
X85700000Y-96900000D02*
X85700000Y-99500000D01*
X94300000Y-102725000D02*
G75*
G03*
X95300000Y-101725000I1J999999D01*
G01*
X95300000Y-99075000D02*
G75*
G03*
X94300000Y-98075000I-999999J1D01*
G01*
X90550000Y-96900000D02*
G75*
G03*
X91725000Y-98075000I1175000J0D01*
G01*
X90837798Y-102021905D02*
G75*
G03*
X91699005Y-102723790I900002J225005D01*
G01*
X90837801Y-102021904D02*
G75*
G03*
X88700000Y-100525000I-2137801J-778096D01*
G01*
X113300000Y-94075000D02*
X113300000Y-96725000D01*
X113150000Y-97150000D02*
X113150000Y-93600000D01*
X113050000Y-97300000D02*
X113050000Y-93550000D01*
X112950000Y-97400000D02*
X112950000Y-93450000D01*
X112850000Y-97500000D02*
X112850000Y-93300000D01*
X112700000Y-97600000D02*
X112700000Y-93200000D01*
X112550000Y-97650000D02*
X112550000Y-93150000D01*
X112400000Y-97700000D02*
X112400000Y-93150000D01*
X112300000Y-97725000D02*
X109700000Y-97725000D01*
X112300000Y-93075000D02*
X109725000Y-93075000D01*
X112250000Y-97700000D02*
X112250000Y-93100000D01*
X112100000Y-97700000D02*
X112100000Y-93100000D01*
X111950000Y-97700000D02*
X111950000Y-93100000D01*
X111800000Y-97700000D02*
X111800000Y-93100000D01*
X111650000Y-97700000D02*
X111650000Y-93100000D01*
X111500000Y-97700000D02*
X111500000Y-93100000D01*
X111350000Y-97700000D02*
X111350000Y-93100000D01*
X111200000Y-97700000D02*
X111200000Y-93100000D01*
X111050000Y-97700000D02*
X111050000Y-93100000D01*
X110900000Y-97700000D02*
X110900000Y-93100000D01*
X110750000Y-97700000D02*
X110750000Y-93100000D01*
X110600000Y-97700000D02*
X110600000Y-93100000D01*
X110450000Y-97700000D02*
X110450000Y-93100000D01*
X110300000Y-97700000D02*
X110300000Y-93100000D01*
X110150000Y-97700000D02*
X110150000Y-93100000D01*
X110000000Y-97700000D02*
X110000000Y-93100000D01*
X109850000Y-97700000D02*
X109850000Y-93150000D01*
X109700000Y-97700000D02*
X109700000Y-93100000D01*
X109550000Y-97700000D02*
X109550000Y-93100000D01*
X109400000Y-97650000D02*
X109400000Y-93100000D01*
X109250000Y-97550000D02*
X109250000Y-93000000D01*
X109100000Y-97450000D02*
X109100000Y-92950000D01*
X109000000Y-97300000D02*
X109000000Y-92900000D01*
X108900000Y-97050000D02*
X108900000Y-92850000D01*
X108800000Y-96900000D02*
X108800000Y-92750000D01*
X108700000Y-96700000D02*
X108700000Y-92550000D01*
X108600000Y-96550000D02*
X108600000Y-92400000D01*
X108500000Y-96350000D02*
X108500000Y-91900000D01*
X108350000Y-96200000D02*
X108350000Y-91750000D01*
X108200000Y-96050000D02*
X108200000Y-91650000D01*
X108050000Y-95950000D02*
X108050000Y-91550000D01*
X107900000Y-95850000D02*
X107900000Y-91400000D01*
X107750000Y-95750000D02*
X107750000Y-91300000D01*
X107600000Y-95700000D02*
X107600000Y-91150000D01*
X107450000Y-95600000D02*
X107450000Y-91050000D01*
X107300000Y-95550000D02*
X107300000Y-90950000D01*
X107275000Y-90875000D02*
X108550000Y-91900000D01*
X107275000Y-90875000D02*
X104725000Y-90875000D01*
X107150000Y-95550000D02*
X107150000Y-90900000D01*
X107000000Y-95550000D02*
X107000000Y-90900000D01*
X106850000Y-95500000D02*
X106850000Y-90950000D01*
X106700000Y-95525000D02*
X104725000Y-95525000D01*
X106700000Y-95500000D02*
X106700000Y-90900000D01*
X106550000Y-95500000D02*
X106550000Y-90900000D01*
X106400000Y-95500000D02*
X106400000Y-90900000D01*
X106250000Y-95500000D02*
X106250000Y-90900000D01*
X106100000Y-95500000D02*
X106100000Y-90900000D01*
X105950000Y-95500000D02*
X105950000Y-90900000D01*
X105800000Y-95500000D02*
X105800000Y-90900000D01*
X105650000Y-95500000D02*
X105650000Y-90900000D01*
X105500000Y-95500000D02*
X105500000Y-90900000D01*
X105350000Y-95500000D02*
X105350000Y-90900000D01*
X105200000Y-95500000D02*
X105200000Y-90900000D01*
X105050000Y-95500000D02*
X105050000Y-90900000D01*
X104900000Y-95500000D02*
X104900000Y-90900000D01*
X104750000Y-95500000D02*
X104750000Y-90900000D01*
X104600000Y-95350000D02*
X104600000Y-91000000D01*
X104450000Y-95250000D02*
X104450000Y-91150000D01*
X104300000Y-95100000D02*
X104300000Y-91300000D01*
X104150000Y-94950000D02*
X104150000Y-91450000D01*
X104000000Y-94750000D02*
X104000000Y-91600000D01*
X103850000Y-94650000D02*
X103850000Y-91750000D01*
X103700000Y-94500000D02*
X104725000Y-95525000D01*
X103700000Y-91900000D02*
X104725000Y-90875000D01*
X103700000Y-91900000D02*
X103700000Y-94500000D01*
X112300000Y-97725000D02*
G75*
G03*
X113300000Y-96725000I1J999999D01*
G01*
X113300000Y-94075000D02*
G75*
G03*
X112300000Y-93075000I-999999J1D01*
G01*
X108550000Y-91900000D02*
G75*
G03*
X109725000Y-93075000I1175000J0D01*
G01*
X108837798Y-97021905D02*
G75*
G03*
X109699005Y-97723790I900002J225005D01*
G01*
X108837801Y-97021904D02*
G75*
G03*
X106700000Y-95525000I-2137801J-778096D01*
G01*
X131300000Y-91575000D02*
X131300000Y-94225000D01*
X131150000Y-94650000D02*
X131150000Y-91100000D01*
X131050000Y-94800000D02*
X131050000Y-91050000D01*
X130950000Y-94900000D02*
X130950000Y-90950000D01*
X130850000Y-95000000D02*
X130850000Y-90800000D01*
X130700000Y-95100000D02*
X130700000Y-90700000D01*
X130550000Y-95150000D02*
X130550000Y-90650000D01*
X130400000Y-95200000D02*
X130400000Y-90650000D01*
X130300000Y-95225000D02*
X127700000Y-95225000D01*
X130300000Y-90575000D02*
X127725000Y-90575000D01*
X130250000Y-95200000D02*
X130250000Y-90600000D01*
X130100000Y-95200000D02*
X130100000Y-90600000D01*
X129950000Y-95200000D02*
X129950000Y-90600000D01*
X129800000Y-95200000D02*
X129800000Y-90600000D01*
X129650000Y-95200000D02*
X129650000Y-90600000D01*
X129500000Y-95200000D02*
X129500000Y-90600000D01*
X129350000Y-95200000D02*
X129350000Y-90600000D01*
X129200000Y-95200000D02*
X129200000Y-90600000D01*
X129050000Y-95200000D02*
X129050000Y-90600000D01*
X128900000Y-95200000D02*
X128900000Y-90600000D01*
X128750000Y-95200000D02*
X128750000Y-90600000D01*
X128600000Y-95200000D02*
X128600000Y-90600000D01*
X128450000Y-95200000D02*
X128450000Y-90600000D01*
X128300000Y-95200000D02*
X128300000Y-90600000D01*
X128150000Y-95200000D02*
X128150000Y-90600000D01*
X128000000Y-95200000D02*
X128000000Y-90600000D01*
X127850000Y-95200000D02*
X127850000Y-90650000D01*
X127700000Y-95200000D02*
X127700000Y-90600000D01*
X127550000Y-95200000D02*
X127550000Y-90600000D01*
X127400000Y-95150000D02*
X127400000Y-90600000D01*
X127250000Y-95050000D02*
X127250000Y-90500000D01*
X127100000Y-94950000D02*
X127100000Y-90450000D01*
X127000000Y-94800000D02*
X127000000Y-90400000D01*
X126900000Y-94550000D02*
X126900000Y-90350000D01*
X126800000Y-94400000D02*
X126800000Y-90250000D01*
X126700000Y-94200000D02*
X126700000Y-90050000D01*
X126600000Y-94050000D02*
X126600000Y-89900000D01*
X126500000Y-93850000D02*
X126500000Y-89400000D01*
X126350000Y-93700000D02*
X126350000Y-89250000D01*
X126200000Y-93550000D02*
X126200000Y-89150000D01*
X126050000Y-93450000D02*
X126050000Y-89050000D01*
X125900000Y-93350000D02*
X125900000Y-88900000D01*
X125750000Y-93250000D02*
X125750000Y-88800000D01*
X125600000Y-93200000D02*
X125600000Y-88650000D01*
X125450000Y-93100000D02*
X125450000Y-88550000D01*
X125300000Y-93050000D02*
X125300000Y-88450000D01*
X125275000Y-88375000D02*
X126550000Y-89400000D01*
X125275000Y-88375000D02*
X122725000Y-88375000D01*
X125150000Y-93050000D02*
X125150000Y-88400000D01*
X125000000Y-93050000D02*
X125000000Y-88400000D01*
X124850000Y-93000000D02*
X124850000Y-88450000D01*
X124700000Y-93025000D02*
X122725000Y-93025000D01*
X124700000Y-93000000D02*
X124700000Y-88400000D01*
X124550000Y-93000000D02*
X124550000Y-88400000D01*
X124400000Y-93000000D02*
X124400000Y-88400000D01*
X124250000Y-93000000D02*
X124250000Y-88400000D01*
X124100000Y-93000000D02*
X124100000Y-88400000D01*
X123950000Y-93000000D02*
X123950000Y-88400000D01*
X123800000Y-93000000D02*
X123800000Y-88400000D01*
X123650000Y-93000000D02*
X123650000Y-88400000D01*
X123500000Y-93000000D02*
X123500000Y-88400000D01*
X123350000Y-93000000D02*
X123350000Y-88400000D01*
X123200000Y-93000000D02*
X123200000Y-88400000D01*
X123050000Y-93000000D02*
X123050000Y-88400000D01*
X122900000Y-93000000D02*
X122900000Y-88400000D01*
X122750000Y-93000000D02*
X122750000Y-88400000D01*
X122600000Y-92850000D02*
X122600000Y-88500000D01*
X122450000Y-92750000D02*
X122450000Y-88650000D01*
X122300000Y-92600000D02*
X122300000Y-88800000D01*
X122150000Y-92450000D02*
X122150000Y-88950000D01*
X122000000Y-92250000D02*
X122000000Y-89100000D01*
X121850000Y-92150000D02*
X121850000Y-89250000D01*
X121700000Y-92000000D02*
X122725000Y-93025000D01*
X121700000Y-89400000D02*
X122725000Y-88375000D01*
X121700000Y-89400000D02*
X121700000Y-92000000D01*
X130300000Y-95225000D02*
G75*
G03*
X131300000Y-94225000I1J999999D01*
G01*
X131300000Y-91575000D02*
G75*
G03*
X130300000Y-90575000I-999999J1D01*
G01*
X126550000Y-89400000D02*
G75*
G03*
X127725000Y-90575000I1175000J0D01*
G01*
X126837798Y-94521905D02*
G75*
G03*
X127699005Y-95223790I900002J225005D01*
G01*
X126837801Y-94521904D02*
G75*
G03*
X124700000Y-93025000I-2137801J-778096D01*
G01*
X149300000Y-94075000D02*
X149300000Y-96725000D01*
X149150000Y-97150000D02*
X149150000Y-93600000D01*
X149050000Y-97300000D02*
X149050000Y-93550000D01*
X148950000Y-97400000D02*
X148950000Y-93450000D01*
X148850000Y-97500000D02*
X148850000Y-93300000D01*
X148700000Y-97600000D02*
X148700000Y-93200000D01*
X148550000Y-97650000D02*
X148550000Y-93150000D01*
X148400000Y-97700000D02*
X148400000Y-93150000D01*
X148300000Y-97725000D02*
X145700000Y-97725000D01*
X148300000Y-93075000D02*
X145725000Y-93075000D01*
X148250000Y-97700000D02*
X148250000Y-93100000D01*
X148100000Y-97700000D02*
X148100000Y-93100000D01*
X147950000Y-97700000D02*
X147950000Y-93100000D01*
X147800000Y-97700000D02*
X147800000Y-93100000D01*
X147650000Y-97700000D02*
X147650000Y-93100000D01*
X147500000Y-97700000D02*
X147500000Y-93100000D01*
X147350000Y-97700000D02*
X147350000Y-93100000D01*
X147200000Y-97700000D02*
X147200000Y-93100000D01*
X147050000Y-97700000D02*
X147050000Y-93100000D01*
X146900000Y-97700000D02*
X146900000Y-93100000D01*
X146750000Y-97700000D02*
X146750000Y-93100000D01*
X146600000Y-97700000D02*
X146600000Y-93100000D01*
X146450000Y-97700000D02*
X146450000Y-93100000D01*
X146300000Y-97700000D02*
X146300000Y-93100000D01*
X146150000Y-97700000D02*
X146150000Y-93100000D01*
X146000000Y-97700000D02*
X146000000Y-93100000D01*
X145850000Y-97700000D02*
X145850000Y-93150000D01*
X145700000Y-97700000D02*
X145700000Y-93100000D01*
X145550000Y-97700000D02*
X145550000Y-93100000D01*
X145400000Y-97650000D02*
X145400000Y-93100000D01*
X145250000Y-97550000D02*
X145250000Y-93000000D01*
X145100000Y-97450000D02*
X145100000Y-92950000D01*
X145000000Y-97300000D02*
X145000000Y-92900000D01*
X144900000Y-97050000D02*
X144900000Y-92850000D01*
X144800000Y-96900000D02*
X144800000Y-92750000D01*
X144700000Y-96700000D02*
X144700000Y-92550000D01*
X144600000Y-96550000D02*
X144600000Y-92400000D01*
X144500000Y-96350000D02*
X144500000Y-91900000D01*
X144350000Y-96200000D02*
X144350000Y-91750000D01*
X144200000Y-96050000D02*
X144200000Y-91650000D01*
X144050000Y-95950000D02*
X144050000Y-91550000D01*
X143900000Y-95850000D02*
X143900000Y-91400000D01*
X143750000Y-95750000D02*
X143750000Y-91300000D01*
X143600000Y-95700000D02*
X143600000Y-91150000D01*
X143450000Y-95600000D02*
X143450000Y-91050000D01*
X143300000Y-95550000D02*
X143300000Y-90950000D01*
X143275000Y-90875000D02*
X144550000Y-91900000D01*
X143275000Y-90875000D02*
X140725000Y-90875000D01*
X143150000Y-95550000D02*
X143150000Y-90900000D01*
X143000000Y-95550000D02*
X143000000Y-90900000D01*
X142850000Y-95500000D02*
X142850000Y-90950000D01*
X142700000Y-95525000D02*
X140725000Y-95525000D01*
X142700000Y-95500000D02*
X142700000Y-90900000D01*
X142550000Y-95500000D02*
X142550000Y-90900000D01*
X142400000Y-95500000D02*
X142400000Y-90900000D01*
X142250000Y-95500000D02*
X142250000Y-90900000D01*
X142100000Y-95500000D02*
X142100000Y-90900000D01*
X141950000Y-95500000D02*
X141950000Y-90900000D01*
X141800000Y-95500000D02*
X141800000Y-90900000D01*
X141650000Y-95500000D02*
X141650000Y-90900000D01*
X141500000Y-95500000D02*
X141500000Y-90900000D01*
X141350000Y-95500000D02*
X141350000Y-90900000D01*
X141200000Y-95500000D02*
X141200000Y-90900000D01*
X141050000Y-95500000D02*
X141050000Y-90900000D01*
X140900000Y-95500000D02*
X140900000Y-90900000D01*
X140750000Y-95500000D02*
X140750000Y-90900000D01*
X140600000Y-95350000D02*
X140600000Y-91000000D01*
X140450000Y-95250000D02*
X140450000Y-91150000D01*
X140300000Y-95100000D02*
X140300000Y-91300000D01*
X140150000Y-94950000D02*
X140150000Y-91450000D01*
X140000000Y-94750000D02*
X140000000Y-91600000D01*
X139850000Y-94650000D02*
X139850000Y-91750000D01*
X139700000Y-94500000D02*
X140725000Y-95525000D01*
X139700000Y-91900000D02*
X140725000Y-90875000D01*
X139700000Y-91900000D02*
X139700000Y-94500000D01*
X148300000Y-97725000D02*
G75*
G03*
X149300000Y-96725000I1J999999D01*
G01*
X149300000Y-94075000D02*
G75*
G03*
X148300000Y-93075000I-999999J1D01*
G01*
X144550000Y-91900000D02*
G75*
G03*
X145725000Y-93075000I1175000J0D01*
G01*
X144837798Y-97021905D02*
G75*
G03*
X145699005Y-97723790I900002J225005D01*
G01*
X144837801Y-97021904D02*
G75*
G03*
X142700000Y-95525000I-2137801J-778096D01*
G01*
X167300000Y-96575000D02*
X167300000Y-99225000D01*
X167150000Y-99650000D02*
X167150000Y-96100000D01*
X167050000Y-99800000D02*
X167050000Y-96050000D01*
X166950000Y-99900000D02*
X166950000Y-95950000D01*
X166850000Y-100000000D02*
X166850000Y-95800000D01*
X166700000Y-100100000D02*
X166700000Y-95700000D01*
X166550000Y-100150000D02*
X166550000Y-95650000D01*
X166400000Y-100200000D02*
X166400000Y-95650000D01*
X166300000Y-100225000D02*
X163700000Y-100225000D01*
X166300000Y-95575000D02*
X163725000Y-95575000D01*
X166250000Y-100200000D02*
X166250000Y-95600000D01*
X166100000Y-100200000D02*
X166100000Y-95600000D01*
X165950000Y-100200000D02*
X165950000Y-95600000D01*
X165800000Y-100200000D02*
X165800000Y-95600000D01*
X165650000Y-100200000D02*
X165650000Y-95600000D01*
X165500000Y-100200000D02*
X165500000Y-95600000D01*
X165350000Y-100200000D02*
X165350000Y-95600000D01*
X165200000Y-100200000D02*
X165200000Y-95600000D01*
X165050000Y-100200000D02*
X165050000Y-95600000D01*
X164900000Y-100200000D02*
X164900000Y-95600000D01*
X164750000Y-100200000D02*
X164750000Y-95600000D01*
X164600000Y-100200000D02*
X164600000Y-95600000D01*
X164450000Y-100200000D02*
X164450000Y-95600000D01*
X164300000Y-100200000D02*
X164300000Y-95600000D01*
X164150000Y-100200000D02*
X164150000Y-95600000D01*
X164000000Y-100200000D02*
X164000000Y-95600000D01*
X163850000Y-100200000D02*
X163850000Y-95650000D01*
X163700000Y-100200000D02*
X163700000Y-95600000D01*
X163550000Y-100200000D02*
X163550000Y-95600000D01*
X163400000Y-100150000D02*
X163400000Y-95600000D01*
X163250000Y-100050000D02*
X163250000Y-95500000D01*
X163100000Y-99950000D02*
X163100000Y-95450000D01*
X163000000Y-99800000D02*
X163000000Y-95400000D01*
X162900000Y-99550000D02*
X162900000Y-95350000D01*
X162800000Y-99400000D02*
X162800000Y-95250000D01*
X162700000Y-99200000D02*
X162700000Y-95050000D01*
X162600000Y-99050000D02*
X162600000Y-94900000D01*
X162500000Y-98850000D02*
X162500000Y-94400000D01*
X162350000Y-98700000D02*
X162350000Y-94250000D01*
X162200000Y-98550000D02*
X162200000Y-94150000D01*
X162050000Y-98450000D02*
X162050000Y-94050000D01*
X161900000Y-98350000D02*
X161900000Y-93900000D01*
X161750000Y-98250000D02*
X161750000Y-93800000D01*
X161600000Y-98200000D02*
X161600000Y-93650000D01*
X161450000Y-98100000D02*
X161450000Y-93550000D01*
X161300000Y-98050000D02*
X161300000Y-93450000D01*
X161275000Y-93375000D02*
X162550000Y-94400000D01*
X161275000Y-93375000D02*
X158725000Y-93375000D01*
X161150000Y-98050000D02*
X161150000Y-93400000D01*
X161000000Y-98050000D02*
X161000000Y-93400000D01*
X160850000Y-98000000D02*
X160850000Y-93450000D01*
X160700000Y-98025000D02*
X158725000Y-98025000D01*
X160700000Y-98000000D02*
X160700000Y-93400000D01*
X160550000Y-98000000D02*
X160550000Y-93400000D01*
X160400000Y-98000000D02*
X160400000Y-93400000D01*
X160250000Y-98000000D02*
X160250000Y-93400000D01*
X160100000Y-98000000D02*
X160100000Y-93400000D01*
X159950000Y-98000000D02*
X159950000Y-93400000D01*
X159800000Y-98000000D02*
X159800000Y-93400000D01*
X159650000Y-98000000D02*
X159650000Y-93400000D01*
X159500000Y-98000000D02*
X159500000Y-93400000D01*
X159350000Y-98000000D02*
X159350000Y-93400000D01*
X159200000Y-98000000D02*
X159200000Y-93400000D01*
X159050000Y-98000000D02*
X159050000Y-93400000D01*
X158900000Y-98000000D02*
X158900000Y-93400000D01*
X158750000Y-98000000D02*
X158750000Y-93400000D01*
X158600000Y-97850000D02*
X158600000Y-93500000D01*
X158450000Y-97750000D02*
X158450000Y-93650000D01*
X158300000Y-97600000D02*
X158300000Y-93800000D01*
X158150000Y-97450000D02*
X158150000Y-93950000D01*
X158000000Y-97250000D02*
X158000000Y-94100000D01*
X157850000Y-97150000D02*
X157850000Y-94250000D01*
X157700000Y-97000000D02*
X158725000Y-98025000D01*
X157700000Y-94400000D02*
X158725000Y-93375000D01*
X157700000Y-94400000D02*
X157700000Y-97000000D01*
X166300000Y-100225000D02*
G75*
G03*
X167300000Y-99225000I1J999999D01*
G01*
X167300000Y-96575000D02*
G75*
G03*
X166300000Y-95575000I-999999J1D01*
G01*
X162550000Y-94400000D02*
G75*
G03*
X163725000Y-95575000I1175000J0D01*
G01*
X162837798Y-99521905D02*
G75*
G03*
X163699005Y-100223790I900002J225005D01*
G01*
X162837801Y-99521904D02*
G75*
G03*
X160700000Y-98025000I-2137801J-778096D01*
G01*
X136550000Y-128575000D02*
X136550000Y-131225000D01*
X136400000Y-131650000D02*
X136400000Y-128100000D01*
X136300000Y-131800000D02*
X136300000Y-128050000D01*
X136200000Y-131900000D02*
X136200000Y-127950000D01*
X136100000Y-132000000D02*
X136100000Y-127800000D01*
X135950000Y-132100000D02*
X135950000Y-127700000D01*
X135800000Y-132150000D02*
X135800000Y-127650000D01*
X135650000Y-132200000D02*
X135650000Y-127650000D01*
X135550000Y-132225000D02*
X132950000Y-132225000D01*
X135550000Y-127575000D02*
X132975000Y-127575000D01*
X135500000Y-132200000D02*
X135500000Y-127600000D01*
X135350000Y-132200000D02*
X135350000Y-127600000D01*
X135200000Y-132200000D02*
X135200000Y-127600000D01*
X135050000Y-132200000D02*
X135050000Y-127600000D01*
X134900000Y-132200000D02*
X134900000Y-127600000D01*
X134750000Y-132200000D02*
X134750000Y-127600000D01*
X134600000Y-132200000D02*
X134600000Y-127600000D01*
X134450000Y-132200000D02*
X134450000Y-127600000D01*
X134300000Y-132200000D02*
X134300000Y-127600000D01*
X134150000Y-132200000D02*
X134150000Y-127600000D01*
X134000000Y-132200000D02*
X134000000Y-127600000D01*
X133850000Y-132200000D02*
X133850000Y-127600000D01*
X133700000Y-132200000D02*
X133700000Y-127600000D01*
X133550000Y-132200000D02*
X133550000Y-127600000D01*
X133400000Y-132200000D02*
X133400000Y-127600000D01*
X133250000Y-132200000D02*
X133250000Y-127600000D01*
X133100000Y-132200000D02*
X133100000Y-127650000D01*
X132950000Y-132200000D02*
X132950000Y-127600000D01*
X132800000Y-132200000D02*
X132800000Y-127600000D01*
X132650000Y-132150000D02*
X132650000Y-127600000D01*
X132500000Y-132050000D02*
X132500000Y-127500000D01*
X132350000Y-131950000D02*
X132350000Y-127450000D01*
X132250000Y-131800000D02*
X132250000Y-127400000D01*
X132150000Y-131550000D02*
X132150000Y-127350000D01*
X132050000Y-131400000D02*
X132050000Y-127250000D01*
X131950000Y-131200000D02*
X131950000Y-127050000D01*
X131850000Y-131050000D02*
X131850000Y-126900000D01*
X131750000Y-130850000D02*
X131750000Y-126400000D01*
X131600000Y-130700000D02*
X131600000Y-126250000D01*
X131450000Y-130550000D02*
X131450000Y-126150000D01*
X131300000Y-130450000D02*
X131300000Y-126050000D01*
X131150000Y-130350000D02*
X131150000Y-125900000D01*
X131000000Y-130250000D02*
X131000000Y-125800000D01*
X130850000Y-130200000D02*
X130850000Y-125650000D01*
X130700000Y-130100000D02*
X130700000Y-125550000D01*
X130550000Y-130050000D02*
X130550000Y-125450000D01*
X130525000Y-125375000D02*
X131800000Y-126400000D01*
X130525000Y-125375000D02*
X127975000Y-125375000D01*
X130400000Y-130050000D02*
X130400000Y-125400000D01*
X130250000Y-130050000D02*
X130250000Y-125400000D01*
X130100000Y-130000000D02*
X130100000Y-125450000D01*
X129950000Y-130025000D02*
X127975000Y-130025000D01*
X129950000Y-130000000D02*
X129950000Y-125400000D01*
X129800000Y-130000000D02*
X129800000Y-125400000D01*
X129650000Y-130000000D02*
X129650000Y-125400000D01*
X129500000Y-130000000D02*
X129500000Y-125400000D01*
X129350000Y-130000000D02*
X129350000Y-125400000D01*
X129200000Y-130000000D02*
X129200000Y-125400000D01*
X129050000Y-130000000D02*
X129050000Y-125400000D01*
X128900000Y-130000000D02*
X128900000Y-125400000D01*
X128750000Y-130000000D02*
X128750000Y-125400000D01*
X128600000Y-130000000D02*
X128600000Y-125400000D01*
X128450000Y-130000000D02*
X128450000Y-125400000D01*
X128300000Y-130000000D02*
X128300000Y-125400000D01*
X128150000Y-130000000D02*
X128150000Y-125400000D01*
X128000000Y-130000000D02*
X128000000Y-125400000D01*
X127850000Y-129850000D02*
X127850000Y-125500000D01*
X127700000Y-129750000D02*
X127700000Y-125650000D01*
X127550000Y-129600000D02*
X127550000Y-125800000D01*
X127400000Y-129450000D02*
X127400000Y-125950000D01*
X127250000Y-129250000D02*
X127250000Y-126100000D01*
X127100000Y-129150000D02*
X127100000Y-126250000D01*
X126950000Y-129000000D02*
X127975000Y-130025000D01*
X126950000Y-126400000D02*
X127975000Y-125375000D01*
X126950000Y-126400000D02*
X126950000Y-129000000D01*
X135550000Y-132225000D02*
G75*
G03*
X136550000Y-131225000I1J999999D01*
G01*
X136550000Y-128575000D02*
G75*
G03*
X135550000Y-127575000I-999999J1D01*
G01*
X131800000Y-126400000D02*
G75*
G03*
X132975000Y-127575000I1175000J0D01*
G01*
X132087798Y-131521905D02*
G75*
G03*
X132949005Y-132223790I900002J225005D01*
G01*
X132087801Y-131521904D02*
G75*
G03*
X129950000Y-130025000I-2137801J-778096D01*
G01*
X95300000Y-116075000D02*
X95300000Y-118725000D01*
X95150000Y-119150000D02*
X95150000Y-115600000D01*
X95050000Y-119300000D02*
X95050000Y-115550000D01*
X94950000Y-119400000D02*
X94950000Y-115450000D01*
X94850000Y-119500000D02*
X94850000Y-115300000D01*
X94700000Y-119600000D02*
X94700000Y-115200000D01*
X94550000Y-119650000D02*
X94550000Y-115150000D01*
X94400000Y-119700000D02*
X94400000Y-115150000D01*
X94300000Y-119725000D02*
X91700000Y-119725000D01*
X94300000Y-115075000D02*
X91725000Y-115075000D01*
X94250000Y-119700000D02*
X94250000Y-115100000D01*
X94100000Y-119700000D02*
X94100000Y-115100000D01*
X93950000Y-119700000D02*
X93950000Y-115100000D01*
X93800000Y-119700000D02*
X93800000Y-115100000D01*
X93650000Y-119700000D02*
X93650000Y-115100000D01*
X93500000Y-119700000D02*
X93500000Y-115100000D01*
X93350000Y-119700000D02*
X93350000Y-115100000D01*
X93200000Y-119700000D02*
X93200000Y-115100000D01*
X93050000Y-119700000D02*
X93050000Y-115100000D01*
X92900000Y-119700000D02*
X92900000Y-115100000D01*
X92750000Y-119700000D02*
X92750000Y-115100000D01*
X92600000Y-119700000D02*
X92600000Y-115100000D01*
X92450000Y-119700000D02*
X92450000Y-115100000D01*
X92300000Y-119700000D02*
X92300000Y-115100000D01*
X92150000Y-119700000D02*
X92150000Y-115100000D01*
X92000000Y-119700000D02*
X92000000Y-115100000D01*
X91850000Y-119700000D02*
X91850000Y-115150000D01*
X91700000Y-119700000D02*
X91700000Y-115100000D01*
X91550000Y-119700000D02*
X91550000Y-115100000D01*
X91400000Y-119650000D02*
X91400000Y-115100000D01*
X91250000Y-119550000D02*
X91250000Y-115000000D01*
X91100000Y-119450000D02*
X91100000Y-114950000D01*
X91000000Y-119300000D02*
X91000000Y-114900000D01*
X90900000Y-119050000D02*
X90900000Y-114850000D01*
X90800000Y-118900000D02*
X90800000Y-114750000D01*
X90700000Y-118700000D02*
X90700000Y-114550000D01*
X90600000Y-118550000D02*
X90600000Y-114400000D01*
X90500000Y-118350000D02*
X90500000Y-113900000D01*
X90350000Y-118200000D02*
X90350000Y-113750000D01*
X90200000Y-118050000D02*
X90200000Y-113650000D01*
X90050000Y-117950000D02*
X90050000Y-113550000D01*
X89900000Y-117850000D02*
X89900000Y-113400000D01*
X89750000Y-117750000D02*
X89750000Y-113300000D01*
X89600000Y-117700000D02*
X89600000Y-113150000D01*
X89450000Y-117600000D02*
X89450000Y-113050000D01*
X89300000Y-117550000D02*
X89300000Y-112950000D01*
X89275000Y-112875000D02*
X90550000Y-113900000D01*
X89275000Y-112875000D02*
X86725000Y-112875000D01*
X89150000Y-117550000D02*
X89150000Y-112900000D01*
X89000000Y-117550000D02*
X89000000Y-112900000D01*
X88850000Y-117500000D02*
X88850000Y-112950000D01*
X88700000Y-117525000D02*
X86725000Y-117525000D01*
X88700000Y-117500000D02*
X88700000Y-112900000D01*
X88550000Y-117500000D02*
X88550000Y-112900000D01*
X88400000Y-117500000D02*
X88400000Y-112900000D01*
X88250000Y-117500000D02*
X88250000Y-112900000D01*
X88100000Y-117500000D02*
X88100000Y-112900000D01*
X87950000Y-117500000D02*
X87950000Y-112900000D01*
X87800000Y-117500000D02*
X87800000Y-112900000D01*
X87650000Y-117500000D02*
X87650000Y-112900000D01*
X87500000Y-117500000D02*
X87500000Y-112900000D01*
X87350000Y-117500000D02*
X87350000Y-112900000D01*
X87200000Y-117500000D02*
X87200000Y-112900000D01*
X87050000Y-117500000D02*
X87050000Y-112900000D01*
X86900000Y-117500000D02*
X86900000Y-112900000D01*
X86750000Y-117500000D02*
X86750000Y-112900000D01*
X86600000Y-117350000D02*
X86600000Y-113000000D01*
X86450000Y-117250000D02*
X86450000Y-113150000D01*
X86300000Y-117100000D02*
X86300000Y-113300000D01*
X86150000Y-116950000D02*
X86150000Y-113450000D01*
X86000000Y-116750000D02*
X86000000Y-113600000D01*
X85850000Y-116650000D02*
X85850000Y-113750000D01*
X85700000Y-116500000D02*
X86725000Y-117525000D01*
X85700000Y-113900000D02*
X86725000Y-112875000D01*
X85700000Y-113900000D02*
X85700000Y-116500000D01*
X94300000Y-119725000D02*
G75*
G03*
X95300000Y-118725000I1J999999D01*
G01*
X95300000Y-116075000D02*
G75*
G03*
X94300000Y-115075000I-999999J1D01*
G01*
X90550000Y-113900000D02*
G75*
G03*
X91725000Y-115075000I1175000J0D01*
G01*
X90837798Y-119021905D02*
G75*
G03*
X91699005Y-119723790I900002J225005D01*
G01*
X90837801Y-119021904D02*
G75*
G03*
X88700000Y-117525000I-2137801J-778096D01*
G01*
X113300000Y-111075000D02*
X113300000Y-113725000D01*
X113150000Y-114150000D02*
X113150000Y-110600000D01*
X113050000Y-114300000D02*
X113050000Y-110550000D01*
X112950000Y-114400000D02*
X112950000Y-110450000D01*
X112850000Y-114500000D02*
X112850000Y-110300000D01*
X112700000Y-114600000D02*
X112700000Y-110200000D01*
X112550000Y-114650000D02*
X112550000Y-110150000D01*
X112400000Y-114700000D02*
X112400000Y-110150000D01*
X112300000Y-114725000D02*
X109700000Y-114725000D01*
X112300000Y-110075000D02*
X109725000Y-110075000D01*
X112250000Y-114700000D02*
X112250000Y-110100000D01*
X112100000Y-114700000D02*
X112100000Y-110100000D01*
X111950000Y-114700000D02*
X111950000Y-110100000D01*
X111800000Y-114700000D02*
X111800000Y-110100000D01*
X111650000Y-114700000D02*
X111650000Y-110100000D01*
X111500000Y-114700000D02*
X111500000Y-110100000D01*
X111350000Y-114700000D02*
X111350000Y-110100000D01*
X111200000Y-114700000D02*
X111200000Y-110100000D01*
X111050000Y-114700000D02*
X111050000Y-110100000D01*
X110900000Y-114700000D02*
X110900000Y-110100000D01*
X110750000Y-114700000D02*
X110750000Y-110100000D01*
X110600000Y-114700000D02*
X110600000Y-110100000D01*
X110450000Y-114700000D02*
X110450000Y-110100000D01*
X110300000Y-114700000D02*
X110300000Y-110100000D01*
X110150000Y-114700000D02*
X110150000Y-110100000D01*
X110000000Y-114700000D02*
X110000000Y-110100000D01*
X109850000Y-114700000D02*
X109850000Y-110150000D01*
X109700000Y-114700000D02*
X109700000Y-110100000D01*
X109550000Y-114700000D02*
X109550000Y-110100000D01*
X109400000Y-114650000D02*
X109400000Y-110100000D01*
X109250000Y-114550000D02*
X109250000Y-110000000D01*
X109100000Y-114450000D02*
X109100000Y-109950000D01*
X109000000Y-114300000D02*
X109000000Y-109900000D01*
X108900000Y-114050000D02*
X108900000Y-109850000D01*
X108800000Y-113900000D02*
X108800000Y-109750000D01*
X108700000Y-113700000D02*
X108700000Y-109550000D01*
X108600000Y-113550000D02*
X108600000Y-109400000D01*
X108500000Y-113350000D02*
X108500000Y-108900000D01*
X108350000Y-113200000D02*
X108350000Y-108750000D01*
X108200000Y-113050000D02*
X108200000Y-108650000D01*
X108050000Y-112950000D02*
X108050000Y-108550000D01*
X107900000Y-112850000D02*
X107900000Y-108400000D01*
X107750000Y-112750000D02*
X107750000Y-108300000D01*
X107600000Y-112700000D02*
X107600000Y-108150000D01*
X107450000Y-112600000D02*
X107450000Y-108050000D01*
X107300000Y-112550000D02*
X107300000Y-107950000D01*
X107275000Y-107875000D02*
X108550000Y-108900000D01*
X107275000Y-107875000D02*
X104725000Y-107875000D01*
X107150000Y-112550000D02*
X107150000Y-107900000D01*
X107000000Y-112550000D02*
X107000000Y-107900000D01*
X106850000Y-112500000D02*
X106850000Y-107950000D01*
X106700000Y-112525000D02*
X104725000Y-112525000D01*
X106700000Y-112500000D02*
X106700000Y-107900000D01*
X106550000Y-112500000D02*
X106550000Y-107900000D01*
X106400000Y-112500000D02*
X106400000Y-107900000D01*
X106250000Y-112500000D02*
X106250000Y-107900000D01*
X106100000Y-112500000D02*
X106100000Y-107900000D01*
X105950000Y-112500000D02*
X105950000Y-107900000D01*
X105800000Y-112500000D02*
X105800000Y-107900000D01*
X105650000Y-112500000D02*
X105650000Y-107900000D01*
X105500000Y-112500000D02*
X105500000Y-107900000D01*
X105350000Y-112500000D02*
X105350000Y-107900000D01*
X105200000Y-112500000D02*
X105200000Y-107900000D01*
X105050000Y-112500000D02*
X105050000Y-107900000D01*
X104900000Y-112500000D02*
X104900000Y-107900000D01*
X104750000Y-112500000D02*
X104750000Y-107900000D01*
X104600000Y-112350000D02*
X104600000Y-108000000D01*
X104450000Y-112250000D02*
X104450000Y-108150000D01*
X104300000Y-112100000D02*
X104300000Y-108300000D01*
X104150000Y-111950000D02*
X104150000Y-108450000D01*
X104000000Y-111750000D02*
X104000000Y-108600000D01*
X103850000Y-111650000D02*
X103850000Y-108750000D01*
X103700000Y-111500000D02*
X104725000Y-112525000D01*
X103700000Y-108900000D02*
X104725000Y-107875000D01*
X103700000Y-108900000D02*
X103700000Y-111500000D01*
X112300000Y-114725000D02*
G75*
G03*
X113300000Y-113725000I1J999999D01*
G01*
X113300000Y-111075000D02*
G75*
G03*
X112300000Y-110075000I-999999J1D01*
G01*
X108550000Y-108900000D02*
G75*
G03*
X109725000Y-110075000I1175000J0D01*
G01*
X108837798Y-114021905D02*
G75*
G03*
X109699005Y-114723790I900002J225005D01*
G01*
X108837801Y-114021904D02*
G75*
G03*
X106700000Y-112525000I-2137801J-778096D01*
G01*
X131300000Y-108575000D02*
X131300000Y-111225000D01*
X131150000Y-111650000D02*
X131150000Y-108100000D01*
X131050000Y-111800000D02*
X131050000Y-108050000D01*
X130950000Y-111900000D02*
X130950000Y-107950000D01*
X130850000Y-112000000D02*
X130850000Y-107800000D01*
X130700000Y-112100000D02*
X130700000Y-107700000D01*
X130550000Y-112150000D02*
X130550000Y-107650000D01*
X130400000Y-112200000D02*
X130400000Y-107650000D01*
X130300000Y-112225000D02*
X127700000Y-112225000D01*
X130300000Y-107575000D02*
X127725000Y-107575000D01*
X130250000Y-112200000D02*
X130250000Y-107600000D01*
X130100000Y-112200000D02*
X130100000Y-107600000D01*
X129950000Y-112200000D02*
X129950000Y-107600000D01*
X129800000Y-112200000D02*
X129800000Y-107600000D01*
X129650000Y-112200000D02*
X129650000Y-107600000D01*
X129500000Y-112200000D02*
X129500000Y-107600000D01*
X129350000Y-112200000D02*
X129350000Y-107600000D01*
X129200000Y-112200000D02*
X129200000Y-107600000D01*
X129050000Y-112200000D02*
X129050000Y-107600000D01*
X128900000Y-112200000D02*
X128900000Y-107600000D01*
X128750000Y-112200000D02*
X128750000Y-107600000D01*
X128600000Y-112200000D02*
X128600000Y-107600000D01*
X128450000Y-112200000D02*
X128450000Y-107600000D01*
X128300000Y-112200000D02*
X128300000Y-107600000D01*
X128150000Y-112200000D02*
X128150000Y-107600000D01*
X128000000Y-112200000D02*
X128000000Y-107600000D01*
X127850000Y-112200000D02*
X127850000Y-107650000D01*
X127700000Y-112200000D02*
X127700000Y-107600000D01*
X127550000Y-112200000D02*
X127550000Y-107600000D01*
X127400000Y-112150000D02*
X127400000Y-107600000D01*
X127250000Y-112050000D02*
X127250000Y-107500000D01*
X127100000Y-111950000D02*
X127100000Y-107450000D01*
X127000000Y-111800000D02*
X127000000Y-107400000D01*
X126900000Y-111550000D02*
X126900000Y-107350000D01*
X126800000Y-111400000D02*
X126800000Y-107250000D01*
X126700000Y-111200000D02*
X126700000Y-107050000D01*
X126600000Y-111050000D02*
X126600000Y-106900000D01*
X126500000Y-110850000D02*
X126500000Y-106400000D01*
X126350000Y-110700000D02*
X126350000Y-106250000D01*
X126200000Y-110550000D02*
X126200000Y-106150000D01*
X126050000Y-110450000D02*
X126050000Y-106050000D01*
X125900000Y-110350000D02*
X125900000Y-105900000D01*
X125750000Y-110250000D02*
X125750000Y-105800000D01*
X125600000Y-110200000D02*
X125600000Y-105650000D01*
X125450000Y-110100000D02*
X125450000Y-105550000D01*
X125300000Y-110050000D02*
X125300000Y-105450000D01*
X125275000Y-105375000D02*
X126550000Y-106400000D01*
X125275000Y-105375000D02*
X122725000Y-105375000D01*
X125150000Y-110050000D02*
X125150000Y-105400000D01*
X125000000Y-110050000D02*
X125000000Y-105400000D01*
X124850000Y-110000000D02*
X124850000Y-105450000D01*
X124700000Y-110025000D02*
X122725000Y-110025000D01*
X124700000Y-110000000D02*
X124700000Y-105400000D01*
X124550000Y-110000000D02*
X124550000Y-105400000D01*
X124400000Y-110000000D02*
X124400000Y-105400000D01*
X124250000Y-110000000D02*
X124250000Y-105400000D01*
X124100000Y-110000000D02*
X124100000Y-105400000D01*
X123950000Y-110000000D02*
X123950000Y-105400000D01*
X123800000Y-110000000D02*
X123800000Y-105400000D01*
X123650000Y-110000000D02*
X123650000Y-105400000D01*
X123500000Y-110000000D02*
X123500000Y-105400000D01*
X123350000Y-110000000D02*
X123350000Y-105400000D01*
X123200000Y-110000000D02*
X123200000Y-105400000D01*
X123050000Y-110000000D02*
X123050000Y-105400000D01*
X122900000Y-110000000D02*
X122900000Y-105400000D01*
X122750000Y-110000000D02*
X122750000Y-105400000D01*
X122600000Y-109850000D02*
X122600000Y-105500000D01*
X122450000Y-109750000D02*
X122450000Y-105650000D01*
X122300000Y-109600000D02*
X122300000Y-105800000D01*
X122150000Y-109450000D02*
X122150000Y-105950000D01*
X122000000Y-109250000D02*
X122000000Y-106100000D01*
X121850000Y-109150000D02*
X121850000Y-106250000D01*
X121700000Y-109000000D02*
X122725000Y-110025000D01*
X121700000Y-106400000D02*
X122725000Y-105375000D01*
X121700000Y-106400000D02*
X121700000Y-109000000D01*
X130300000Y-112225000D02*
G75*
G03*
X131300000Y-111225000I1J999999D01*
G01*
X131300000Y-108575000D02*
G75*
G03*
X130300000Y-107575000I-999999J1D01*
G01*
X126550000Y-106400000D02*
G75*
G03*
X127725000Y-107575000I1175000J0D01*
G01*
X126837798Y-111521905D02*
G75*
G03*
X127699005Y-112223790I900002J225005D01*
G01*
X126837801Y-111521904D02*
G75*
G03*
X124700000Y-110025000I-2137801J-778096D01*
G01*
X149300000Y-111075000D02*
X149300000Y-113725000D01*
X149150000Y-114150000D02*
X149150000Y-110600000D01*
X149050000Y-114300000D02*
X149050000Y-110550000D01*
X148950000Y-114400000D02*
X148950000Y-110450000D01*
X148850000Y-114500000D02*
X148850000Y-110300000D01*
X148700000Y-114600000D02*
X148700000Y-110200000D01*
X148550000Y-114650000D02*
X148550000Y-110150000D01*
X148400000Y-114700000D02*
X148400000Y-110150000D01*
X148300000Y-114725000D02*
X145700000Y-114725000D01*
X148300000Y-110075000D02*
X145725000Y-110075000D01*
X148250000Y-114700000D02*
X148250000Y-110100000D01*
X148100000Y-114700000D02*
X148100000Y-110100000D01*
X147950000Y-114700000D02*
X147950000Y-110100000D01*
X147800000Y-114700000D02*
X147800000Y-110100000D01*
X147650000Y-114700000D02*
X147650000Y-110100000D01*
X147500000Y-114700000D02*
X147500000Y-110100000D01*
X147350000Y-114700000D02*
X147350000Y-110100000D01*
X147200000Y-114700000D02*
X147200000Y-110100000D01*
X147050000Y-114700000D02*
X147050000Y-110100000D01*
X146900000Y-114700000D02*
X146900000Y-110100000D01*
X146750000Y-114700000D02*
X146750000Y-110100000D01*
X146600000Y-114700000D02*
X146600000Y-110100000D01*
X146450000Y-114700000D02*
X146450000Y-110100000D01*
X146300000Y-114700000D02*
X146300000Y-110100000D01*
X146150000Y-114700000D02*
X146150000Y-110100000D01*
X146000000Y-114700000D02*
X146000000Y-110100000D01*
X145850000Y-114700000D02*
X145850000Y-110150000D01*
X145700000Y-114700000D02*
X145700000Y-110100000D01*
X145550000Y-114700000D02*
X145550000Y-110100000D01*
X145400000Y-114650000D02*
X145400000Y-110100000D01*
X145250000Y-114550000D02*
X145250000Y-110000000D01*
X145100000Y-114450000D02*
X145100000Y-109950000D01*
X145000000Y-114300000D02*
X145000000Y-109900000D01*
X144900000Y-114050000D02*
X144900000Y-109850000D01*
X144800000Y-113900000D02*
X144800000Y-109750000D01*
X144700000Y-113700000D02*
X144700000Y-109550000D01*
X144600000Y-113550000D02*
X144600000Y-109400000D01*
X144500000Y-113350000D02*
X144500000Y-108900000D01*
X144350000Y-113200000D02*
X144350000Y-108750000D01*
X144200000Y-113050000D02*
X144200000Y-108650000D01*
X144050000Y-112950000D02*
X144050000Y-108550000D01*
X143900000Y-112850000D02*
X143900000Y-108400000D01*
X143750000Y-112750000D02*
X143750000Y-108300000D01*
X143600000Y-112700000D02*
X143600000Y-108150000D01*
X143450000Y-112600000D02*
X143450000Y-108050000D01*
X143300000Y-112550000D02*
X143300000Y-107950000D01*
X143275000Y-107875000D02*
X144550000Y-108900000D01*
X143275000Y-107875000D02*
X140725000Y-107875000D01*
X143150000Y-112550000D02*
X143150000Y-107900000D01*
X143000000Y-112550000D02*
X143000000Y-107900000D01*
X142850000Y-112500000D02*
X142850000Y-107950000D01*
X142700000Y-112525000D02*
X140725000Y-112525000D01*
X142700000Y-112500000D02*
X142700000Y-107900000D01*
X142550000Y-112500000D02*
X142550000Y-107900000D01*
X142400000Y-112500000D02*
X142400000Y-107900000D01*
X142250000Y-112500000D02*
X142250000Y-107900000D01*
X142100000Y-112500000D02*
X142100000Y-107900000D01*
X141950000Y-112500000D02*
X141950000Y-107900000D01*
X141800000Y-112500000D02*
X141800000Y-107900000D01*
X141650000Y-112500000D02*
X141650000Y-107900000D01*
X141500000Y-112500000D02*
X141500000Y-107900000D01*
X141350000Y-112500000D02*
X141350000Y-107900000D01*
X141200000Y-112500000D02*
X141200000Y-107900000D01*
X141050000Y-112500000D02*
X141050000Y-107900000D01*
X140900000Y-112500000D02*
X140900000Y-107900000D01*
X140750000Y-112500000D02*
X140750000Y-107900000D01*
X140600000Y-112350000D02*
X140600000Y-108000000D01*
X140450000Y-112250000D02*
X140450000Y-108150000D01*
X140300000Y-112100000D02*
X140300000Y-108300000D01*
X140150000Y-111950000D02*
X140150000Y-108450000D01*
X140000000Y-111750000D02*
X140000000Y-108600000D01*
X139850000Y-111650000D02*
X139850000Y-108750000D01*
X139700000Y-111500000D02*
X140725000Y-112525000D01*
X139700000Y-108900000D02*
X140725000Y-107875000D01*
X139700000Y-108900000D02*
X139700000Y-111500000D01*
X148300000Y-114725000D02*
G75*
G03*
X149300000Y-113725000I1J999999D01*
G01*
X149300000Y-111075000D02*
G75*
G03*
X148300000Y-110075000I-999999J1D01*
G01*
X144550000Y-108900000D02*
G75*
G03*
X145725000Y-110075000I1175000J0D01*
G01*
X144837798Y-114021905D02*
G75*
G03*
X145699005Y-114723790I900002J225005D01*
G01*
X144837801Y-114021904D02*
G75*
G03*
X142700000Y-112525000I-2137801J-778096D01*
G01*
X167300000Y-113575000D02*
X167300000Y-116225000D01*
X167150000Y-116650000D02*
X167150000Y-113100000D01*
X167050000Y-116800000D02*
X167050000Y-113050000D01*
X166950000Y-116900000D02*
X166950000Y-112950000D01*
X166850000Y-117000000D02*
X166850000Y-112800000D01*
X166700000Y-117100000D02*
X166700000Y-112700000D01*
X166550000Y-117150000D02*
X166550000Y-112650000D01*
X166400000Y-117200000D02*
X166400000Y-112650000D01*
X166300000Y-117225000D02*
X163700000Y-117225000D01*
X166300000Y-112575000D02*
X163725000Y-112575000D01*
X166250000Y-117200000D02*
X166250000Y-112600000D01*
X166100000Y-117200000D02*
X166100000Y-112600000D01*
X165950000Y-117200000D02*
X165950000Y-112600000D01*
X165800000Y-117200000D02*
X165800000Y-112600000D01*
X165650000Y-117200000D02*
X165650000Y-112600000D01*
X165500000Y-117200000D02*
X165500000Y-112600000D01*
X165350000Y-117200000D02*
X165350000Y-112600000D01*
X165200000Y-117200000D02*
X165200000Y-112600000D01*
X165050000Y-117200000D02*
X165050000Y-112600000D01*
X164900000Y-117200000D02*
X164900000Y-112600000D01*
X164750000Y-117200000D02*
X164750000Y-112600000D01*
X164600000Y-117200000D02*
X164600000Y-112600000D01*
X164450000Y-117200000D02*
X164450000Y-112600000D01*
X164300000Y-117200000D02*
X164300000Y-112600000D01*
X164150000Y-117200000D02*
X164150000Y-112600000D01*
X164000000Y-117200000D02*
X164000000Y-112600000D01*
X163850000Y-117200000D02*
X163850000Y-112650000D01*
X163700000Y-117200000D02*
X163700000Y-112600000D01*
X163550000Y-117200000D02*
X163550000Y-112600000D01*
X163400000Y-117150000D02*
X163400000Y-112600000D01*
X163250000Y-117050000D02*
X163250000Y-112500000D01*
X163100000Y-116950000D02*
X163100000Y-112450000D01*
X163000000Y-116800000D02*
X163000000Y-112400000D01*
X162900000Y-116550000D02*
X162900000Y-112350000D01*
X162800000Y-116400000D02*
X162800000Y-112250000D01*
X162700000Y-116200000D02*
X162700000Y-112050000D01*
X162600000Y-116050000D02*
X162600000Y-111900000D01*
X162500000Y-115850000D02*
X162500000Y-111400000D01*
X162350000Y-115700000D02*
X162350000Y-111250000D01*
X162200000Y-115550000D02*
X162200000Y-111150000D01*
X162050000Y-115450000D02*
X162050000Y-111050000D01*
X161900000Y-115350000D02*
X161900000Y-110900000D01*
X161750000Y-115250000D02*
X161750000Y-110800000D01*
X161600000Y-115200000D02*
X161600000Y-110650000D01*
X161450000Y-115100000D02*
X161450000Y-110550000D01*
X161300000Y-115050000D02*
X161300000Y-110450000D01*
X161275000Y-110375000D02*
X162550000Y-111400000D01*
X161275000Y-110375000D02*
X158725000Y-110375000D01*
X161150000Y-115050000D02*
X161150000Y-110400000D01*
X161000000Y-115050000D02*
X161000000Y-110400000D01*
X160850000Y-115000000D02*
X160850000Y-110450000D01*
X160700000Y-115025000D02*
X158725000Y-115025000D01*
X160700000Y-115000000D02*
X160700000Y-110400000D01*
X160550000Y-115000000D02*
X160550000Y-110400000D01*
X160400000Y-115000000D02*
X160400000Y-110400000D01*
X160250000Y-115000000D02*
X160250000Y-110400000D01*
X160100000Y-115000000D02*
X160100000Y-110400000D01*
X159950000Y-115000000D02*
X159950000Y-110400000D01*
X159800000Y-115000000D02*
X159800000Y-110400000D01*
X159650000Y-115000000D02*
X159650000Y-110400000D01*
X159500000Y-115000000D02*
X159500000Y-110400000D01*
X159350000Y-115000000D02*
X159350000Y-110400000D01*
X159200000Y-115000000D02*
X159200000Y-110400000D01*
X159050000Y-115000000D02*
X159050000Y-110400000D01*
X158900000Y-115000000D02*
X158900000Y-110400000D01*
X158750000Y-115000000D02*
X158750000Y-110400000D01*
X158600000Y-114850000D02*
X158600000Y-110500000D01*
X158450000Y-114750000D02*
X158450000Y-110650000D01*
X158300000Y-114600000D02*
X158300000Y-110800000D01*
X158150000Y-114450000D02*
X158150000Y-110950000D01*
X158000000Y-114250000D02*
X158000000Y-111100000D01*
X157850000Y-114150000D02*
X157850000Y-111250000D01*
X157700000Y-114000000D02*
X158725000Y-115025000D01*
X157700000Y-111400000D02*
X158725000Y-110375000D01*
X157700000Y-111400000D02*
X157700000Y-114000000D01*
X166300000Y-117225000D02*
G75*
G03*
X167300000Y-116225000I1J999999D01*
G01*
X167300000Y-113575000D02*
G75*
G03*
X166300000Y-112575000I-999999J1D01*
G01*
X162550000Y-111400000D02*
G75*
G03*
X163725000Y-112575000I1175000J0D01*
G01*
X162837798Y-116521905D02*
G75*
G03*
X163699005Y-117223790I900002J225005D01*
G01*
X162837801Y-116521904D02*
G75*
G03*
X160700000Y-115025000I-2137801J-778096D01*
G01*
X190955500Y-78812000D02*
X193495500Y-78812000D01*
X193495500Y-78812000D02*
X193495500Y-109292000D01*
X193495500Y-109292000D02*
X190955500Y-109292000D01*
X190955500Y-109292000D02*
X190955500Y-78812000D01*
X175715500Y-78812000D02*
X178255500Y-78812000D01*
X178255500Y-78812000D02*
X178255500Y-109292000D01*
X178255500Y-109292000D02*
X175715500Y-109292000D01*
X175715500Y-109292000D02*
X175715500Y-78812000D01*
X186098076Y-121049038D02*
X185973076Y-121265544D01*
X185973076Y-121265544D02*
X180776924Y-118265544D01*
X180776924Y-118265544D02*
X180901924Y-118049038D01*
X182401924Y-115450962D02*
X182526924Y-115234456D01*
X182526924Y-115234456D02*
X187723076Y-118234456D01*
X187723076Y-118234456D02*
X187598076Y-118450962D01*
X180166893Y-111148328D02*
X190326893Y-111148328D01*
X190326893Y-111148328D02*
X190326893Y-113688328D01*
X190326893Y-113688328D02*
X180166893Y-113688328D01*
X180166893Y-113688328D02*
X180166893Y-111148328D01*
X198362066Y-142795642D02*
X200657034Y-144120642D01*
X200950094Y-144463045D02*
X197875704Y-142688045D01*
X201029998Y-144624648D02*
X197782403Y-142749648D01*
X201066601Y-144761250D02*
X197645800Y-142786250D01*
X201103203Y-144897853D02*
X197465897Y-142797853D01*
X201114806Y-145077757D02*
X197304294Y-142877757D01*
X201083107Y-145232661D02*
X197185993Y-142982661D01*
X201051408Y-145387564D02*
X197110993Y-143112564D01*
X201023059Y-145486667D02*
X199723059Y-147738333D01*
X196996041Y-143161667D02*
X195708541Y-145391682D01*
X200976408Y-145517468D02*
X196992691Y-143217468D01*
X200901408Y-145647372D02*
X196917691Y-143347372D01*
X200826408Y-145777276D02*
X196842691Y-143477276D01*
X200751408Y-145907180D02*
X196767691Y-143607180D01*
X200676408Y-146037083D02*
X196692691Y-143737083D01*
X200601408Y-146166987D02*
X196617691Y-143866987D01*
X200526408Y-146296891D02*
X196542691Y-143996891D01*
X200451408Y-146426795D02*
X196467691Y-144126795D01*
X200376408Y-146556699D02*
X196392691Y-144256699D01*
X200301408Y-146686603D02*
X196317691Y-144386603D01*
X200226408Y-146816506D02*
X196242691Y-144516506D01*
X200151408Y-146946410D02*
X196167691Y-144646410D01*
X200076408Y-147076314D02*
X196092691Y-144776314D01*
X200001408Y-147206218D02*
X196017691Y-144906218D01*
X199926408Y-147336122D02*
X195942691Y-145036122D01*
X199851408Y-147466025D02*
X195867691Y-145166025D01*
X199776408Y-147595929D02*
X195835993Y-145320929D01*
X199701408Y-147725833D02*
X195717691Y-145425833D01*
X199626408Y-147855737D02*
X195642691Y-145555737D01*
X199508107Y-147960641D02*
X195567691Y-145685641D01*
X199346505Y-148040544D02*
X195406089Y-145765544D01*
X199184902Y-148120448D02*
X195287788Y-145870448D01*
X199004998Y-148132051D02*
X195194486Y-145932051D01*
X198738492Y-148093653D02*
X195101185Y-145993653D01*
X198558588Y-148105256D02*
X194964583Y-146030256D01*
X198335383Y-148091858D02*
X194741377Y-146016858D01*
X198155479Y-148103461D02*
X194561474Y-146028461D01*
X197932274Y-148090064D02*
X194078461Y-145865064D01*
X197727370Y-148144967D02*
X193873557Y-145919967D01*
X197522466Y-148199871D02*
X193711955Y-145999871D01*
X197360864Y-148279775D02*
X193550352Y-146079775D01*
X197199261Y-148359679D02*
X193345448Y-146134679D01*
X197037659Y-148439583D02*
X193183846Y-146214583D01*
X196919358Y-148544486D02*
X192978942Y-146269486D01*
X196757755Y-148624390D02*
X192817339Y-146349390D01*
X196639454Y-148729294D02*
X192655737Y-146429294D01*
X192578285Y-146413445D02*
X194103461Y-145821762D01*
X192578285Y-146413445D02*
X191303285Y-148621809D01*
X196564454Y-148859198D02*
X192537436Y-146534198D01*
X196489454Y-148989102D02*
X192462436Y-146664102D01*
X196371152Y-149094005D02*
X192430737Y-146819005D01*
X196317803Y-149236409D02*
X195330303Y-150946809D01*
X196296152Y-149223909D02*
X192312436Y-146923909D01*
X196221152Y-149353813D02*
X192237436Y-147053813D01*
X196146152Y-149483717D02*
X192162436Y-147183717D01*
X196071152Y-149613621D02*
X192087436Y-147313621D01*
X195996152Y-149743524D02*
X192012436Y-147443524D01*
X195921152Y-149873428D02*
X191937436Y-147573428D01*
X195846152Y-150003332D02*
X191862436Y-147703332D01*
X195771152Y-150133236D02*
X191787436Y-147833236D01*
X195696152Y-150263140D02*
X191712436Y-147963140D01*
X195621152Y-150393044D02*
X191637436Y-148093044D01*
X195546152Y-150522947D02*
X191562436Y-148222947D01*
X195471152Y-150652851D02*
X191487436Y-148352851D01*
X195396152Y-150782755D02*
X191412436Y-148482755D01*
X195321152Y-150912659D02*
X191337436Y-148612659D01*
X195116249Y-150967563D02*
X191349038Y-148792563D01*
X194954646Y-151047466D02*
X191403942Y-148997466D01*
X194749742Y-151102370D02*
X191458846Y-149202370D01*
X194544838Y-151157274D02*
X191513750Y-149407274D01*
X194296633Y-151187178D02*
X191568653Y-149612178D01*
X194135031Y-151267082D02*
X191623557Y-149817082D01*
X193930127Y-151321985D02*
X195330303Y-150946809D01*
X191678461Y-150021985D02*
X191303285Y-148621809D01*
X191678461Y-150021985D02*
X193930127Y-151321985D01*
X201023059Y-145486667D02*
G75*
G03*
X200657034Y-144120642I-866024J500000D01*
G01*
X198362066Y-142795642D02*
G75*
G03*
X196996041Y-143161667I-500000J-866024D01*
G01*
X194103461Y-145821762D02*
G75*
G03*
X195708541Y-145391682I587500J1017580D01*
G01*
X198683059Y-148133473D02*
G75*
G03*
X199721513Y-147738589I255142J891926D01*
G01*
X198683060Y-148133471D02*
G75*
G03*
X196317803Y-149236409I-395049J-2240438D01*
G01*
X188111500Y-107147000D02*
X188111500Y-109433000D01*
X188111500Y-109433000D02*
X189889500Y-109433000D01*
X189889500Y-109433000D02*
X189889500Y-107147000D01*
X189889500Y-107147000D02*
X188111500Y-107147000D01*
X185611500Y-107147000D02*
X185611500Y-109433000D01*
X185611500Y-109433000D02*
X187389500Y-109433000D01*
X187389500Y-109433000D02*
X187389500Y-107147000D01*
X187389500Y-107147000D02*
X185611500Y-107147000D01*
X183111500Y-107147000D02*
X183111500Y-109433000D01*
X183111500Y-109433000D02*
X184889500Y-109433000D01*
X184889500Y-109433000D02*
X184889500Y-107147000D01*
X184889500Y-107147000D02*
X183111500Y-107147000D01*
X180611500Y-107147000D02*
X180611500Y-109433000D01*
X180611500Y-109433000D02*
X182389500Y-109433000D01*
X182389500Y-109433000D02*
X182389500Y-107147000D01*
X182389500Y-107147000D02*
X180611500Y-107147000D01*
M02*
