%TF.GenerationSoftware,KiCad,Pcbnew,7.0.8*%
%TF.CreationDate,2024-02-29T00:10:51-05:00*%
%TF.ProjectId,heawood4,68656177-6f6f-4643-942e-6b696361645f,1.0*%
%TF.SameCoordinates,Original*%
%TF.FileFunction,Drillmap*%
%TF.FilePolarity,Positive*%
%FSLAX45Y45*%
G04 Gerber Fmt 4.5, Leading zero omitted, Abs format (unit mm)*
G04 Created by KiCad (PCBNEW 7.0.8) date 2024-02-29 00:10:51*
%MOMM*%
%LPD*%
G01*
G04 APERTURE LIST*
%ADD10C,0.150000*%
%ADD11C,0.200000*%
%ADD12C,0.090000*%
%ADD13C,0.180000*%
%ADD14C,0.300000*%
%ADD15C,0.340000*%
G04 APERTURE END LIST*
D10*
X19506783Y-7750000D02*
G75*
G03*
X19250000Y-7493217I-256783J0D01*
G01*
X19477276Y-12262270D02*
X19287311Y-12544966D01*
X19287311Y-12544966D02*
G75*
G03*
X19303682Y-12666315I97525J-48621D01*
G01*
X19303682Y-12666315D02*
X20480556Y-13809891D01*
X20506446Y-13951060D02*
G75*
G03*
X20480556Y-13809892I-81446J58021D01*
G01*
X17759941Y-15000000D02*
X19519208Y-15478675D01*
X19519208Y-15478675D02*
G75*
G03*
X19663409Y-15424799I34701J127039D01*
G01*
X8400000Y-11950000D02*
G75*
G03*
X8450000Y-12000000I50000J0D01*
G01*
X8400002Y-11199995D02*
X8400000Y-11950000D01*
X8400002Y-11199995D02*
G75*
G03*
X8350002Y-11149995I-50000J0D01*
G01*
X8350002Y-11149995D02*
X6648838Y-11150448D01*
X8350000Y-7750000D02*
X6649905Y-7750088D01*
X8350000Y-7750000D02*
G75*
G03*
X8400000Y-7700000I1J50000D01*
G01*
X8400000Y-6950000D02*
X8400000Y-7700000D01*
X8450000Y-6900000D02*
G75*
G03*
X8400000Y-6950000I0J-50000D01*
G01*
X11488056Y-12010312D02*
X8450000Y-12000000D01*
X19506783Y-7750000D02*
X19500000Y-12175000D01*
X15600000Y-6599466D02*
X15600000Y-6450000D01*
X6599905Y-7800088D02*
X6598838Y-11100448D01*
X19477275Y-12262269D02*
G75*
G03*
X19500000Y-12175000I-147495J85002D01*
G01*
X13800000Y-6350000D02*
X13800000Y-6200000D01*
X11951054Y-6399466D02*
X10250000Y-6400000D01*
X10250000Y-6400000D02*
G75*
G03*
X10200000Y-6450000I0J-50000D01*
G01*
X10150594Y-6900371D02*
X8450000Y-6900000D01*
X12452964Y-13276312D02*
G75*
G03*
X12488318Y-13290958I35356J35352D01*
G01*
X17350000Y-6650000D02*
X15650000Y-6649446D01*
X16150000Y-14075000D02*
X17693043Y-14975630D01*
X10150594Y-6900374D02*
G75*
G03*
X10200594Y-6850371I-4J50004D01*
G01*
X13750000Y-6150000D02*
X12049405Y-6150086D01*
X15550000Y-6400006D02*
X13850000Y-6400000D01*
X17693043Y-14975630D02*
G75*
G03*
X17759941Y-15000000I82468J122380D01*
G01*
X11525000Y-12025000D02*
X12452963Y-13276313D01*
X6649905Y-7750085D02*
G75*
G03*
X6599905Y-7800088I5J-50005D01*
G01*
X15600004Y-6599466D02*
G75*
G03*
X15650000Y-6649446I49976J-4D01*
G01*
X13800000Y-6200000D02*
G75*
G03*
X13750000Y-6150000I-50000J0D01*
G01*
X11999405Y-6200086D02*
X12001054Y-6349466D01*
X17400000Y-6700000D02*
G75*
G03*
X17350000Y-6650000I-50000J0D01*
G01*
X12488318Y-13290958D02*
X16081573Y-14061104D01*
X15600004Y-6450006D02*
G75*
G03*
X15550000Y-6400006I-50004J-4D01*
G01*
X10200000Y-6450000D02*
X10200594Y-6850371D01*
X19663409Y-15424799D02*
X20506446Y-13951060D01*
X11951054Y-6399474D02*
G75*
G03*
X12001054Y-6349466I-4J50004D01*
G01*
X6598838Y-11100448D02*
G75*
G03*
X6648838Y-11150448I50000J0D01*
G01*
X16150000Y-14075000D02*
G75*
G03*
X16081573Y-14061104I-101680J-325290D01*
G01*
X11525000Y-12025000D02*
G75*
G03*
X11488056Y-12010312I-35510J-35510D01*
G01*
X13800000Y-6350000D02*
G75*
G03*
X13850000Y-6400000I50000J0D01*
G01*
X17397139Y-7246689D02*
G75*
G03*
X17661141Y-7500516I259299J5487D01*
G01*
X17400000Y-6700000D02*
X17397139Y-7246689D01*
X12049405Y-6150085D02*
G75*
G03*
X11999405Y-6200086I5J-50005D01*
G01*
X19250000Y-7493217D02*
X17661141Y-7500516D01*
D11*
D12*
X19263000Y-11230000D02*
X19353000Y-11320000D01*
X19353000Y-11230000D02*
X19263000Y-11320000D01*
X19263000Y-11530000D02*
X19353000Y-11620000D01*
X19353000Y-11530000D02*
X19263000Y-11620000D01*
D13*
X7040000Y-8600000D02*
G75*
G03*
X7040000Y-8600000I-90000J0D01*
G01*
X7040000Y-10300000D02*
G75*
G03*
X7040000Y-10300000I-90000J0D01*
G01*
X8140000Y-8600000D02*
G75*
G03*
X8140000Y-8600000I-90000J0D01*
G01*
X8140000Y-10300000D02*
G75*
G03*
X8140000Y-10300000I-90000J0D01*
G01*
X8840000Y-7750000D02*
G75*
G03*
X8840000Y-7750000I-90000J0D01*
G01*
X8840000Y-9450000D02*
G75*
G03*
X8840000Y-9450000I-90000J0D01*
G01*
X8840000Y-11150000D02*
G75*
G03*
X8840000Y-11150000I-90000J0D01*
G01*
X9940000Y-7750000D02*
G75*
G03*
X9940000Y-7750000I-90000J0D01*
G01*
X9940000Y-9450000D02*
G75*
G03*
X9940000Y-9450000I-90000J0D01*
G01*
X9940000Y-11150000D02*
G75*
G03*
X9940000Y-11150000I-90000J0D01*
G01*
X10640000Y-7250000D02*
G75*
G03*
X10640000Y-7250000I-90000J0D01*
G01*
X10640000Y-8950000D02*
G75*
G03*
X10640000Y-8950000I-90000J0D01*
G01*
X10640000Y-10650000D02*
G75*
G03*
X10640000Y-10650000I-90000J0D01*
G01*
X11740000Y-7250000D02*
G75*
G03*
X11740000Y-7250000I-90000J0D01*
G01*
X11740000Y-8950000D02*
G75*
G03*
X11740000Y-8950000I-90000J0D01*
G01*
X11740000Y-10650000D02*
G75*
G03*
X11740000Y-10650000I-90000J0D01*
G01*
X12440000Y-7000000D02*
G75*
G03*
X12440000Y-7000000I-90000J0D01*
G01*
X12440000Y-8700000D02*
G75*
G03*
X12440000Y-8700000I-90000J0D01*
G01*
X12440000Y-10400000D02*
G75*
G03*
X12440000Y-10400000I-90000J0D01*
G01*
X12965000Y-12400000D02*
G75*
G03*
X12965000Y-12400000I-90000J0D01*
G01*
X13540000Y-7000000D02*
G75*
G03*
X13540000Y-7000000I-90000J0D01*
G01*
X13540000Y-8700000D02*
G75*
G03*
X13540000Y-8700000I-90000J0D01*
G01*
X13540000Y-10400000D02*
G75*
G03*
X13540000Y-10400000I-90000J0D01*
G01*
X14065000Y-12400000D02*
G75*
G03*
X14065000Y-12400000I-90000J0D01*
G01*
X14240000Y-7250000D02*
G75*
G03*
X14240000Y-7250000I-90000J0D01*
G01*
X14240000Y-8950000D02*
G75*
G03*
X14240000Y-8950000I-90000J0D01*
G01*
X14240000Y-10650000D02*
G75*
G03*
X14240000Y-10650000I-90000J0D01*
G01*
X15033741Y-12557649D02*
G75*
G03*
X15033741Y-12557649I-90000J0D01*
G01*
X15340000Y-7250000D02*
G75*
G03*
X15340000Y-7250000I-90000J0D01*
G01*
X15340000Y-8950000D02*
G75*
G03*
X15340000Y-8950000I-90000J0D01*
G01*
X15340000Y-10650000D02*
G75*
G03*
X15340000Y-10650000I-90000J0D01*
G01*
X16040000Y-7500000D02*
G75*
G03*
X16040000Y-7500000I-90000J0D01*
G01*
X16040000Y-9200000D02*
G75*
G03*
X16040000Y-9200000I-90000J0D01*
G01*
X16040000Y-10900000D02*
G75*
G03*
X16040000Y-10900000I-90000J0D01*
G01*
X16096259Y-12842350D02*
G75*
G03*
X16096259Y-12842350I-90000J0D01*
G01*
X17140000Y-7500000D02*
G75*
G03*
X17140000Y-7500000I-90000J0D01*
G01*
X17140000Y-9200000D02*
G75*
G03*
X17140000Y-9200000I-90000J0D01*
G01*
X17140000Y-10900000D02*
G75*
G03*
X17140000Y-10900000I-90000J0D01*
G01*
X17515000Y-13801314D02*
G75*
G03*
X17515000Y-13801314I-90000J0D01*
G01*
X18065000Y-12848686D02*
G75*
G03*
X18065000Y-12848686I-90000J0D01*
G01*
X19140000Y-14726314D02*
G75*
G03*
X19140000Y-14726314I-90000J0D01*
G01*
X19690000Y-13773686D02*
G75*
G03*
X19690000Y-13773686I-90000J0D01*
G01*
D14*
X7000000Y-8820000D02*
X7000000Y-9120000D01*
X6850000Y-8970000D02*
X7150000Y-8970000D01*
X7000000Y-10520000D02*
X7000000Y-10820000D01*
X6850000Y-10670000D02*
X7150000Y-10670000D01*
X7500000Y-9040000D02*
X7500000Y-9340000D01*
X7350000Y-9190000D02*
X7650000Y-9190000D01*
X7500000Y-10740000D02*
X7500000Y-11040000D01*
X7350000Y-10890000D02*
X7650000Y-10890000D01*
X8000000Y-8820000D02*
X8000000Y-9120000D01*
X7850000Y-8970000D02*
X8150000Y-8970000D01*
X8000000Y-10520000D02*
X8000000Y-10820000D01*
X7850000Y-10670000D02*
X8150000Y-10670000D01*
X8800000Y-7970000D02*
X8800000Y-8270000D01*
X8650000Y-8120000D02*
X8950000Y-8120000D01*
X8800000Y-9670000D02*
X8800000Y-9970000D01*
X8650000Y-9820000D02*
X8950000Y-9820000D01*
X8800000Y-11370000D02*
X8800000Y-11670000D01*
X8650000Y-11520000D02*
X8950000Y-11520000D01*
X9300000Y-8190000D02*
X9300000Y-8490000D01*
X9150000Y-8340000D02*
X9450000Y-8340000D01*
X9300000Y-9890000D02*
X9300000Y-10190000D01*
X9150000Y-10040000D02*
X9450000Y-10040000D01*
X9300000Y-11590000D02*
X9300000Y-11890000D01*
X9150000Y-11740000D02*
X9450000Y-11740000D01*
X9800000Y-7970000D02*
X9800000Y-8270000D01*
X9650000Y-8120000D02*
X9950000Y-8120000D01*
X9800000Y-9670000D02*
X9800000Y-9970000D01*
X9650000Y-9820000D02*
X9950000Y-9820000D01*
X9800000Y-11370000D02*
X9800000Y-11670000D01*
X9650000Y-11520000D02*
X9950000Y-11520000D01*
X10600000Y-7470000D02*
X10600000Y-7770000D01*
X10450000Y-7620000D02*
X10750000Y-7620000D01*
X10600000Y-9170000D02*
X10600000Y-9470000D01*
X10450000Y-9320000D02*
X10750000Y-9320000D01*
X10600000Y-10870000D02*
X10600000Y-11170000D01*
X10450000Y-11020000D02*
X10750000Y-11020000D01*
X11100000Y-7690000D02*
X11100000Y-7990000D01*
X10950000Y-7840000D02*
X11250000Y-7840000D01*
X11100000Y-9390000D02*
X11100000Y-9690000D01*
X10950000Y-9540000D02*
X11250000Y-9540000D01*
X11100000Y-11090000D02*
X11100000Y-11390000D01*
X10950000Y-11240000D02*
X11250000Y-11240000D01*
X11600000Y-7470000D02*
X11600000Y-7770000D01*
X11450000Y-7620000D02*
X11750000Y-7620000D01*
X11600000Y-9170000D02*
X11600000Y-9470000D01*
X11450000Y-9320000D02*
X11750000Y-9320000D01*
X11600000Y-10870000D02*
X11600000Y-11170000D01*
X11450000Y-11020000D02*
X11750000Y-11020000D01*
X12400000Y-7220000D02*
X12400000Y-7520000D01*
X12250000Y-7370000D02*
X12550000Y-7370000D01*
X12400000Y-8920000D02*
X12400000Y-9220000D01*
X12250000Y-9070000D02*
X12550000Y-9070000D01*
X12400000Y-10620000D02*
X12400000Y-10920000D01*
X12250000Y-10770000D02*
X12550000Y-10770000D01*
X12900000Y-7440000D02*
X12900000Y-7740000D01*
X12750000Y-7590000D02*
X13050000Y-7590000D01*
X12900000Y-9140000D02*
X12900000Y-9440000D01*
X12750000Y-9290000D02*
X13050000Y-9290000D01*
X12900000Y-10840000D02*
X12900000Y-11140000D01*
X12750000Y-10990000D02*
X13050000Y-10990000D01*
X12925000Y-12620000D02*
X12925000Y-12920000D01*
X12775000Y-12770000D02*
X13075000Y-12770000D01*
X13400000Y-7220000D02*
X13400000Y-7520000D01*
X13250000Y-7370000D02*
X13550000Y-7370000D01*
X13400000Y-8920000D02*
X13400000Y-9220000D01*
X13250000Y-9070000D02*
X13550000Y-9070000D01*
X13400000Y-10620000D02*
X13400000Y-10920000D01*
X13250000Y-10770000D02*
X13550000Y-10770000D01*
X13425000Y-12840000D02*
X13425000Y-13140000D01*
X13275000Y-12990000D02*
X13575000Y-12990000D01*
X13925000Y-12620000D02*
X13925000Y-12920000D01*
X13775000Y-12770000D02*
X14075000Y-12770000D01*
X14200000Y-7470000D02*
X14200000Y-7770000D01*
X14050000Y-7620000D02*
X14350000Y-7620000D01*
X14200000Y-9170000D02*
X14200000Y-9470000D01*
X14050000Y-9320000D02*
X14350000Y-9320000D01*
X14200000Y-10870000D02*
X14200000Y-11170000D01*
X14050000Y-11020000D02*
X14350000Y-11020000D01*
X14700000Y-7690000D02*
X14700000Y-7990000D01*
X14550000Y-7840000D02*
X14850000Y-7840000D01*
X14700000Y-9390000D02*
X14700000Y-9690000D01*
X14550000Y-9540000D02*
X14850000Y-9540000D01*
X14700000Y-11090000D02*
X14700000Y-11390000D01*
X14550000Y-11240000D02*
X14850000Y-11240000D01*
X14896274Y-12777983D02*
X14896274Y-13077983D01*
X14746274Y-12927983D02*
X15046274Y-12927983D01*
X15200000Y-7470000D02*
X15200000Y-7770000D01*
X15050000Y-7620000D02*
X15350000Y-7620000D01*
X15200000Y-9170000D02*
X15200000Y-9470000D01*
X15050000Y-9320000D02*
X15350000Y-9320000D01*
X15200000Y-10870000D02*
X15200000Y-11170000D01*
X15050000Y-11020000D02*
X15350000Y-11020000D01*
X15322297Y-13119896D02*
X15322297Y-13419896D01*
X15172297Y-13269896D02*
X15472297Y-13269896D01*
X15862200Y-13036802D02*
X15862200Y-13336802D01*
X15712200Y-13186802D02*
X16012200Y-13186802D01*
X16000000Y-7720000D02*
X16000000Y-8020000D01*
X15850000Y-7870000D02*
X16150000Y-7870000D01*
X16000000Y-9420000D02*
X16000000Y-9720000D01*
X15850000Y-9570000D02*
X16150000Y-9570000D01*
X16000000Y-11120000D02*
X16000000Y-11420000D01*
X15850000Y-11270000D02*
X16150000Y-11270000D01*
X16500000Y-7940000D02*
X16500000Y-8240000D01*
X16350000Y-8090000D02*
X16650000Y-8090000D01*
X16500000Y-9640000D02*
X16500000Y-9940000D01*
X16350000Y-9790000D02*
X16650000Y-9790000D01*
X16500000Y-11340000D02*
X16500000Y-11640000D01*
X16350000Y-11490000D02*
X16650000Y-11490000D01*
X17000000Y-7720000D02*
X17000000Y-8020000D01*
X16850000Y-7870000D02*
X17150000Y-7870000D01*
X17000000Y-9420000D02*
X17000000Y-9720000D01*
X16850000Y-9570000D02*
X17150000Y-9570000D01*
X17000000Y-11120000D02*
X17000000Y-11420000D01*
X16850000Y-11270000D02*
X17150000Y-11270000D01*
X17770429Y-13793013D02*
X17770429Y-14093013D01*
X17620429Y-13943013D02*
X17920429Y-13943013D01*
X18210955Y-13470000D02*
X18210955Y-13770000D01*
X18060955Y-13620000D02*
X18360955Y-13620000D01*
X18270429Y-12926987D02*
X18270429Y-13226987D01*
X18120429Y-13076987D02*
X18420429Y-13076987D01*
X19395429Y-14718013D02*
X19395429Y-15018013D01*
X19245429Y-14868013D02*
X19545429Y-14868013D01*
X19835955Y-14395000D02*
X19835955Y-14695000D01*
X19685955Y-14545000D02*
X19985955Y-14545000D01*
X19895429Y-13851987D02*
X19895429Y-14151987D01*
X19745429Y-14001987D02*
X20045429Y-14001987D01*
D15*
X7620209Y-8720209D02*
X7620209Y-8479791D01*
X7379791Y-8479791D01*
X7379791Y-8720209D01*
X7620209Y-8720209D01*
X7620209Y-10420209D02*
X7620209Y-10179791D01*
X7379791Y-10179791D01*
X7379791Y-10420209D01*
X7620209Y-10420209D01*
X9420209Y-7870209D02*
X9420209Y-7629791D01*
X9179791Y-7629791D01*
X9179791Y-7870209D01*
X9420209Y-7870209D01*
X9420209Y-9570209D02*
X9420209Y-9329791D01*
X9179791Y-9329791D01*
X9179791Y-9570209D01*
X9420209Y-9570209D01*
X9420209Y-11270209D02*
X9420209Y-11029791D01*
X9179791Y-11029791D01*
X9179791Y-11270209D01*
X9420209Y-11270209D01*
X11220209Y-7370209D02*
X11220209Y-7129791D01*
X10979791Y-7129791D01*
X10979791Y-7370209D01*
X11220209Y-7370209D01*
X11220209Y-9070209D02*
X11220209Y-8829791D01*
X10979791Y-8829791D01*
X10979791Y-9070209D01*
X11220209Y-9070209D01*
X11220209Y-10770209D02*
X11220209Y-10529791D01*
X10979791Y-10529791D01*
X10979791Y-10770209D01*
X11220209Y-10770209D01*
X13020209Y-7120209D02*
X13020209Y-6879791D01*
X12779791Y-6879791D01*
X12779791Y-7120209D01*
X13020209Y-7120209D01*
X13020209Y-8820209D02*
X13020209Y-8579791D01*
X12779791Y-8579791D01*
X12779791Y-8820209D01*
X13020209Y-8820209D01*
X13020209Y-10520209D02*
X13020209Y-10279791D01*
X12779791Y-10279791D01*
X12779791Y-10520209D01*
X13020209Y-10520209D01*
X13545209Y-12520209D02*
X13545209Y-12279791D01*
X13304791Y-12279791D01*
X13304791Y-12520209D01*
X13545209Y-12520209D01*
X14820209Y-7370209D02*
X14820209Y-7129791D01*
X14579791Y-7129791D01*
X14579791Y-7370209D01*
X14820209Y-7370209D01*
X14820209Y-9070209D02*
X14820209Y-8829791D01*
X14579791Y-8829791D01*
X14579791Y-9070209D01*
X14820209Y-9070209D01*
X14820209Y-10770209D02*
X14820209Y-10529791D01*
X14579791Y-10529791D01*
X14579791Y-10770209D01*
X14820209Y-10770209D01*
X15595209Y-12820209D02*
X15595209Y-12579791D01*
X15354791Y-12579791D01*
X15354791Y-12820209D01*
X15595209Y-12820209D01*
X16620209Y-7620209D02*
X16620209Y-7379791D01*
X16379791Y-7379791D01*
X16379791Y-7620209D01*
X16620209Y-7620209D01*
X16620209Y-9320209D02*
X16620209Y-9079791D01*
X16379791Y-9079791D01*
X16379791Y-9320209D01*
X16620209Y-9320209D01*
X16620209Y-11020209D02*
X16620209Y-10779791D01*
X16379791Y-10779791D01*
X16379791Y-11020209D01*
X16620209Y-11020209D01*
X17820209Y-13445209D02*
X17820209Y-13204791D01*
X17579791Y-13204791D01*
X17579791Y-13445209D01*
X17820209Y-13445209D01*
X19445209Y-14370209D02*
X19445209Y-14129791D01*
X19204791Y-14129791D01*
X19204791Y-14370209D01*
X19445209Y-14370209D01*
D11*
X6852115Y-15802313D02*
X6852115Y-15602313D01*
X6852115Y-15602313D02*
X6899734Y-15602313D01*
X6899734Y-15602313D02*
X6928305Y-15611836D01*
X6928305Y-15611836D02*
X6947353Y-15630884D01*
X6947353Y-15630884D02*
X6956876Y-15649932D01*
X6956876Y-15649932D02*
X6966400Y-15688027D01*
X6966400Y-15688027D02*
X6966400Y-15716598D01*
X6966400Y-15716598D02*
X6956876Y-15754693D01*
X6956876Y-15754693D02*
X6947353Y-15773741D01*
X6947353Y-15773741D02*
X6928305Y-15792789D01*
X6928305Y-15792789D02*
X6899734Y-15802313D01*
X6899734Y-15802313D02*
X6852115Y-15802313D01*
X7052115Y-15802313D02*
X7052115Y-15668979D01*
X7052115Y-15707074D02*
X7061638Y-15688027D01*
X7061638Y-15688027D02*
X7071162Y-15678503D01*
X7071162Y-15678503D02*
X7090210Y-15668979D01*
X7090210Y-15668979D02*
X7109257Y-15668979D01*
X7175924Y-15802313D02*
X7175924Y-15668979D01*
X7175924Y-15602313D02*
X7166400Y-15611836D01*
X7166400Y-15611836D02*
X7175924Y-15621360D01*
X7175924Y-15621360D02*
X7185448Y-15611836D01*
X7185448Y-15611836D02*
X7175924Y-15602313D01*
X7175924Y-15602313D02*
X7175924Y-15621360D01*
X7299734Y-15802313D02*
X7280686Y-15792789D01*
X7280686Y-15792789D02*
X7271162Y-15773741D01*
X7271162Y-15773741D02*
X7271162Y-15602313D01*
X7404495Y-15802313D02*
X7385448Y-15792789D01*
X7385448Y-15792789D02*
X7375924Y-15773741D01*
X7375924Y-15773741D02*
X7375924Y-15602313D01*
X7633067Y-15802313D02*
X7633067Y-15602313D01*
X7633067Y-15602313D02*
X7699734Y-15745170D01*
X7699734Y-15745170D02*
X7766400Y-15602313D01*
X7766400Y-15602313D02*
X7766400Y-15802313D01*
X7947353Y-15802313D02*
X7947353Y-15697551D01*
X7947353Y-15697551D02*
X7937829Y-15678503D01*
X7937829Y-15678503D02*
X7918781Y-15668979D01*
X7918781Y-15668979D02*
X7880686Y-15668979D01*
X7880686Y-15668979D02*
X7861638Y-15678503D01*
X7947353Y-15792789D02*
X7928305Y-15802313D01*
X7928305Y-15802313D02*
X7880686Y-15802313D01*
X7880686Y-15802313D02*
X7861638Y-15792789D01*
X7861638Y-15792789D02*
X7852115Y-15773741D01*
X7852115Y-15773741D02*
X7852115Y-15754693D01*
X7852115Y-15754693D02*
X7861638Y-15735646D01*
X7861638Y-15735646D02*
X7880686Y-15726122D01*
X7880686Y-15726122D02*
X7928305Y-15726122D01*
X7928305Y-15726122D02*
X7947353Y-15716598D01*
X8042591Y-15668979D02*
X8042591Y-15868979D01*
X8042591Y-15678503D02*
X8061638Y-15668979D01*
X8061638Y-15668979D02*
X8099734Y-15668979D01*
X8099734Y-15668979D02*
X8118781Y-15678503D01*
X8118781Y-15678503D02*
X8128305Y-15688027D01*
X8128305Y-15688027D02*
X8137829Y-15707074D01*
X8137829Y-15707074D02*
X8137829Y-15764217D01*
X8137829Y-15764217D02*
X8128305Y-15783265D01*
X8128305Y-15783265D02*
X8118781Y-15792789D01*
X8118781Y-15792789D02*
X8099734Y-15802313D01*
X8099734Y-15802313D02*
X8061638Y-15802313D01*
X8061638Y-15802313D02*
X8042591Y-15792789D01*
X8223543Y-15783265D02*
X8233067Y-15792789D01*
X8233067Y-15792789D02*
X8223543Y-15802313D01*
X8223543Y-15802313D02*
X8214019Y-15792789D01*
X8214019Y-15792789D02*
X8223543Y-15783265D01*
X8223543Y-15783265D02*
X8223543Y-15802313D01*
X8223543Y-15678503D02*
X8233067Y-15688027D01*
X8233067Y-15688027D02*
X8223543Y-15697551D01*
X8223543Y-15697551D02*
X8214019Y-15688027D01*
X8214019Y-15688027D02*
X8223543Y-15678503D01*
X8223543Y-15678503D02*
X8223543Y-15697551D01*
D12*
X6501338Y-16085829D02*
X6591338Y-16175829D01*
X6591338Y-16085829D02*
X6501338Y-16175829D01*
D11*
X6890210Y-16022313D02*
X6909257Y-16022313D01*
X6909257Y-16022313D02*
X6928305Y-16031836D01*
X6928305Y-16031836D02*
X6937829Y-16041360D01*
X6937829Y-16041360D02*
X6947353Y-16060408D01*
X6947353Y-16060408D02*
X6956876Y-16098503D01*
X6956876Y-16098503D02*
X6956876Y-16146122D01*
X6956876Y-16146122D02*
X6947353Y-16184217D01*
X6947353Y-16184217D02*
X6937829Y-16203265D01*
X6937829Y-16203265D02*
X6928305Y-16212789D01*
X6928305Y-16212789D02*
X6909257Y-16222313D01*
X6909257Y-16222313D02*
X6890210Y-16222313D01*
X6890210Y-16222313D02*
X6871162Y-16212789D01*
X6871162Y-16212789D02*
X6861638Y-16203265D01*
X6861638Y-16203265D02*
X6852115Y-16184217D01*
X6852115Y-16184217D02*
X6842591Y-16146122D01*
X6842591Y-16146122D02*
X6842591Y-16098503D01*
X6842591Y-16098503D02*
X6852115Y-16060408D01*
X6852115Y-16060408D02*
X6861638Y-16041360D01*
X6861638Y-16041360D02*
X6871162Y-16031836D01*
X6871162Y-16031836D02*
X6890210Y-16022313D01*
X7042591Y-16203265D02*
X7052115Y-16212789D01*
X7052115Y-16212789D02*
X7042591Y-16222313D01*
X7042591Y-16222313D02*
X7033067Y-16212789D01*
X7033067Y-16212789D02*
X7042591Y-16203265D01*
X7042591Y-16203265D02*
X7042591Y-16222313D01*
X7147353Y-16222313D02*
X7185448Y-16222313D01*
X7185448Y-16222313D02*
X7204496Y-16212789D01*
X7204496Y-16212789D02*
X7214019Y-16203265D01*
X7214019Y-16203265D02*
X7233067Y-16174693D01*
X7233067Y-16174693D02*
X7242591Y-16136598D01*
X7242591Y-16136598D02*
X7242591Y-16060408D01*
X7242591Y-16060408D02*
X7233067Y-16041360D01*
X7233067Y-16041360D02*
X7223543Y-16031836D01*
X7223543Y-16031836D02*
X7204496Y-16022313D01*
X7204496Y-16022313D02*
X7166400Y-16022313D01*
X7166400Y-16022313D02*
X7147353Y-16031836D01*
X7147353Y-16031836D02*
X7137829Y-16041360D01*
X7137829Y-16041360D02*
X7128305Y-16060408D01*
X7128305Y-16060408D02*
X7128305Y-16108027D01*
X7128305Y-16108027D02*
X7137829Y-16127074D01*
X7137829Y-16127074D02*
X7147353Y-16136598D01*
X7147353Y-16136598D02*
X7166400Y-16146122D01*
X7166400Y-16146122D02*
X7204496Y-16146122D01*
X7204496Y-16146122D02*
X7223543Y-16136598D01*
X7223543Y-16136598D02*
X7233067Y-16127074D01*
X7233067Y-16127074D02*
X7242591Y-16108027D01*
X7366400Y-16022313D02*
X7385448Y-16022313D01*
X7385448Y-16022313D02*
X7404496Y-16031836D01*
X7404496Y-16031836D02*
X7414019Y-16041360D01*
X7414019Y-16041360D02*
X7423543Y-16060408D01*
X7423543Y-16060408D02*
X7433067Y-16098503D01*
X7433067Y-16098503D02*
X7433067Y-16146122D01*
X7433067Y-16146122D02*
X7423543Y-16184217D01*
X7423543Y-16184217D02*
X7414019Y-16203265D01*
X7414019Y-16203265D02*
X7404496Y-16212789D01*
X7404496Y-16212789D02*
X7385448Y-16222313D01*
X7385448Y-16222313D02*
X7366400Y-16222313D01*
X7366400Y-16222313D02*
X7347353Y-16212789D01*
X7347353Y-16212789D02*
X7337829Y-16203265D01*
X7337829Y-16203265D02*
X7328305Y-16184217D01*
X7328305Y-16184217D02*
X7318781Y-16146122D01*
X7318781Y-16146122D02*
X7318781Y-16098503D01*
X7318781Y-16098503D02*
X7328305Y-16060408D01*
X7328305Y-16060408D02*
X7337829Y-16041360D01*
X7337829Y-16041360D02*
X7347353Y-16031836D01*
X7347353Y-16031836D02*
X7366400Y-16022313D01*
X7556876Y-16022313D02*
X7575924Y-16022313D01*
X7575924Y-16022313D02*
X7594972Y-16031836D01*
X7594972Y-16031836D02*
X7604496Y-16041360D01*
X7604496Y-16041360D02*
X7614019Y-16060408D01*
X7614019Y-16060408D02*
X7623543Y-16098503D01*
X7623543Y-16098503D02*
X7623543Y-16146122D01*
X7623543Y-16146122D02*
X7614019Y-16184217D01*
X7614019Y-16184217D02*
X7604496Y-16203265D01*
X7604496Y-16203265D02*
X7594972Y-16212789D01*
X7594972Y-16212789D02*
X7575924Y-16222313D01*
X7575924Y-16222313D02*
X7556876Y-16222313D01*
X7556876Y-16222313D02*
X7537829Y-16212789D01*
X7537829Y-16212789D02*
X7528305Y-16203265D01*
X7528305Y-16203265D02*
X7518781Y-16184217D01*
X7518781Y-16184217D02*
X7509257Y-16146122D01*
X7509257Y-16146122D02*
X7509257Y-16098503D01*
X7509257Y-16098503D02*
X7518781Y-16060408D01*
X7518781Y-16060408D02*
X7528305Y-16041360D01*
X7528305Y-16041360D02*
X7537829Y-16031836D01*
X7537829Y-16031836D02*
X7556876Y-16022313D01*
X7709257Y-16222313D02*
X7709257Y-16088979D01*
X7709257Y-16108027D02*
X7718781Y-16098503D01*
X7718781Y-16098503D02*
X7737829Y-16088979D01*
X7737829Y-16088979D02*
X7766400Y-16088979D01*
X7766400Y-16088979D02*
X7785448Y-16098503D01*
X7785448Y-16098503D02*
X7794972Y-16117551D01*
X7794972Y-16117551D02*
X7794972Y-16222313D01*
X7794972Y-16117551D02*
X7804496Y-16098503D01*
X7804496Y-16098503D02*
X7823543Y-16088979D01*
X7823543Y-16088979D02*
X7852115Y-16088979D01*
X7852115Y-16088979D02*
X7871162Y-16098503D01*
X7871162Y-16098503D02*
X7880686Y-16117551D01*
X7880686Y-16117551D02*
X7880686Y-16222313D01*
X7975924Y-16222313D02*
X7975924Y-16088979D01*
X7975924Y-16108027D02*
X7985448Y-16098503D01*
X7985448Y-16098503D02*
X8004496Y-16088979D01*
X8004496Y-16088979D02*
X8033067Y-16088979D01*
X8033067Y-16088979D02*
X8052115Y-16098503D01*
X8052115Y-16098503D02*
X8061638Y-16117551D01*
X8061638Y-16117551D02*
X8061638Y-16222313D01*
X8061638Y-16117551D02*
X8071162Y-16098503D01*
X8071162Y-16098503D02*
X8090210Y-16088979D01*
X8090210Y-16088979D02*
X8118781Y-16088979D01*
X8118781Y-16088979D02*
X8137829Y-16098503D01*
X8137829Y-16098503D02*
X8147353Y-16117551D01*
X8147353Y-16117551D02*
X8147353Y-16222313D01*
X8537829Y-16012789D02*
X8366400Y-16269932D01*
X8794972Y-16022313D02*
X8814020Y-16022313D01*
X8814020Y-16022313D02*
X8833067Y-16031836D01*
X8833067Y-16031836D02*
X8842591Y-16041360D01*
X8842591Y-16041360D02*
X8852115Y-16060408D01*
X8852115Y-16060408D02*
X8861639Y-16098503D01*
X8861639Y-16098503D02*
X8861639Y-16146122D01*
X8861639Y-16146122D02*
X8852115Y-16184217D01*
X8852115Y-16184217D02*
X8842591Y-16203265D01*
X8842591Y-16203265D02*
X8833067Y-16212789D01*
X8833067Y-16212789D02*
X8814020Y-16222313D01*
X8814020Y-16222313D02*
X8794972Y-16222313D01*
X8794972Y-16222313D02*
X8775924Y-16212789D01*
X8775924Y-16212789D02*
X8766401Y-16203265D01*
X8766401Y-16203265D02*
X8756877Y-16184217D01*
X8756877Y-16184217D02*
X8747353Y-16146122D01*
X8747353Y-16146122D02*
X8747353Y-16098503D01*
X8747353Y-16098503D02*
X8756877Y-16060408D01*
X8756877Y-16060408D02*
X8766401Y-16041360D01*
X8766401Y-16041360D02*
X8775924Y-16031836D01*
X8775924Y-16031836D02*
X8794972Y-16022313D01*
X8947353Y-16203265D02*
X8956877Y-16212789D01*
X8956877Y-16212789D02*
X8947353Y-16222313D01*
X8947353Y-16222313D02*
X8937829Y-16212789D01*
X8937829Y-16212789D02*
X8947353Y-16203265D01*
X8947353Y-16203265D02*
X8947353Y-16222313D01*
X9080686Y-16022313D02*
X9099734Y-16022313D01*
X9099734Y-16022313D02*
X9118782Y-16031836D01*
X9118782Y-16031836D02*
X9128305Y-16041360D01*
X9128305Y-16041360D02*
X9137829Y-16060408D01*
X9137829Y-16060408D02*
X9147353Y-16098503D01*
X9147353Y-16098503D02*
X9147353Y-16146122D01*
X9147353Y-16146122D02*
X9137829Y-16184217D01*
X9137829Y-16184217D02*
X9128305Y-16203265D01*
X9128305Y-16203265D02*
X9118782Y-16212789D01*
X9118782Y-16212789D02*
X9099734Y-16222313D01*
X9099734Y-16222313D02*
X9080686Y-16222313D01*
X9080686Y-16222313D02*
X9061639Y-16212789D01*
X9061639Y-16212789D02*
X9052115Y-16203265D01*
X9052115Y-16203265D02*
X9042591Y-16184217D01*
X9042591Y-16184217D02*
X9033067Y-16146122D01*
X9033067Y-16146122D02*
X9033067Y-16098503D01*
X9033067Y-16098503D02*
X9042591Y-16060408D01*
X9042591Y-16060408D02*
X9052115Y-16041360D01*
X9052115Y-16041360D02*
X9061639Y-16031836D01*
X9061639Y-16031836D02*
X9080686Y-16022313D01*
X9214020Y-16022313D02*
X9337829Y-16022313D01*
X9337829Y-16022313D02*
X9271162Y-16098503D01*
X9271162Y-16098503D02*
X9299734Y-16098503D01*
X9299734Y-16098503D02*
X9318782Y-16108027D01*
X9318782Y-16108027D02*
X9328305Y-16117551D01*
X9328305Y-16117551D02*
X9337829Y-16136598D01*
X9337829Y-16136598D02*
X9337829Y-16184217D01*
X9337829Y-16184217D02*
X9328305Y-16203265D01*
X9328305Y-16203265D02*
X9318782Y-16212789D01*
X9318782Y-16212789D02*
X9299734Y-16222313D01*
X9299734Y-16222313D02*
X9242591Y-16222313D01*
X9242591Y-16222313D02*
X9223543Y-16212789D01*
X9223543Y-16212789D02*
X9214020Y-16203265D01*
X9518782Y-16022313D02*
X9423543Y-16022313D01*
X9423543Y-16022313D02*
X9414020Y-16117551D01*
X9414020Y-16117551D02*
X9423543Y-16108027D01*
X9423543Y-16108027D02*
X9442591Y-16098503D01*
X9442591Y-16098503D02*
X9490210Y-16098503D01*
X9490210Y-16098503D02*
X9509258Y-16108027D01*
X9509258Y-16108027D02*
X9518782Y-16117551D01*
X9518782Y-16117551D02*
X9528305Y-16136598D01*
X9528305Y-16136598D02*
X9528305Y-16184217D01*
X9528305Y-16184217D02*
X9518782Y-16203265D01*
X9518782Y-16203265D02*
X9509258Y-16212789D01*
X9509258Y-16212789D02*
X9490210Y-16222313D01*
X9490210Y-16222313D02*
X9442591Y-16222313D01*
X9442591Y-16222313D02*
X9423543Y-16212789D01*
X9423543Y-16212789D02*
X9414020Y-16203265D01*
X9699734Y-16088979D02*
X9699734Y-16222313D01*
X9652115Y-16012789D02*
X9604496Y-16155646D01*
X9604496Y-16155646D02*
X9728305Y-16155646D01*
X9794972Y-16022313D02*
X9794972Y-16060408D01*
X9871163Y-16022313D02*
X9871163Y-16060408D01*
X10166401Y-16298503D02*
X10156877Y-16288979D01*
X10156877Y-16288979D02*
X10137829Y-16260408D01*
X10137829Y-16260408D02*
X10128305Y-16241360D01*
X10128305Y-16241360D02*
X10118782Y-16212789D01*
X10118782Y-16212789D02*
X10109258Y-16165170D01*
X10109258Y-16165170D02*
X10109258Y-16127074D01*
X10109258Y-16127074D02*
X10118782Y-16079455D01*
X10118782Y-16079455D02*
X10128305Y-16050884D01*
X10128305Y-16050884D02*
X10137829Y-16031836D01*
X10137829Y-16031836D02*
X10156877Y-16003265D01*
X10156877Y-16003265D02*
X10166401Y-15993741D01*
X10233067Y-16041360D02*
X10242591Y-16031836D01*
X10242591Y-16031836D02*
X10261639Y-16022313D01*
X10261639Y-16022313D02*
X10309258Y-16022313D01*
X10309258Y-16022313D02*
X10328305Y-16031836D01*
X10328305Y-16031836D02*
X10337829Y-16041360D01*
X10337829Y-16041360D02*
X10347353Y-16060408D01*
X10347353Y-16060408D02*
X10347353Y-16079455D01*
X10347353Y-16079455D02*
X10337829Y-16108027D01*
X10337829Y-16108027D02*
X10223544Y-16222313D01*
X10223544Y-16222313D02*
X10347353Y-16222313D01*
X10585448Y-16222313D02*
X10585448Y-16022313D01*
X10671163Y-16222313D02*
X10671163Y-16117551D01*
X10671163Y-16117551D02*
X10661639Y-16098503D01*
X10661639Y-16098503D02*
X10642591Y-16088979D01*
X10642591Y-16088979D02*
X10614020Y-16088979D01*
X10614020Y-16088979D02*
X10594972Y-16098503D01*
X10594972Y-16098503D02*
X10585448Y-16108027D01*
X10794972Y-16222313D02*
X10775925Y-16212789D01*
X10775925Y-16212789D02*
X10766401Y-16203265D01*
X10766401Y-16203265D02*
X10756877Y-16184217D01*
X10756877Y-16184217D02*
X10756877Y-16127074D01*
X10756877Y-16127074D02*
X10766401Y-16108027D01*
X10766401Y-16108027D02*
X10775925Y-16098503D01*
X10775925Y-16098503D02*
X10794972Y-16088979D01*
X10794972Y-16088979D02*
X10823544Y-16088979D01*
X10823544Y-16088979D02*
X10842591Y-16098503D01*
X10842591Y-16098503D02*
X10852115Y-16108027D01*
X10852115Y-16108027D02*
X10861639Y-16127074D01*
X10861639Y-16127074D02*
X10861639Y-16184217D01*
X10861639Y-16184217D02*
X10852115Y-16203265D01*
X10852115Y-16203265D02*
X10842591Y-16212789D01*
X10842591Y-16212789D02*
X10823544Y-16222313D01*
X10823544Y-16222313D02*
X10794972Y-16222313D01*
X10975925Y-16222313D02*
X10956877Y-16212789D01*
X10956877Y-16212789D02*
X10947353Y-16193741D01*
X10947353Y-16193741D02*
X10947353Y-16022313D01*
X11128306Y-16212789D02*
X11109258Y-16222313D01*
X11109258Y-16222313D02*
X11071163Y-16222313D01*
X11071163Y-16222313D02*
X11052115Y-16212789D01*
X11052115Y-16212789D02*
X11042591Y-16193741D01*
X11042591Y-16193741D02*
X11042591Y-16117551D01*
X11042591Y-16117551D02*
X11052115Y-16098503D01*
X11052115Y-16098503D02*
X11071163Y-16088979D01*
X11071163Y-16088979D02*
X11109258Y-16088979D01*
X11109258Y-16088979D02*
X11128306Y-16098503D01*
X11128306Y-16098503D02*
X11137829Y-16117551D01*
X11137829Y-16117551D02*
X11137829Y-16136598D01*
X11137829Y-16136598D02*
X11042591Y-16155646D01*
X11214020Y-16212789D02*
X11233067Y-16222313D01*
X11233067Y-16222313D02*
X11271163Y-16222313D01*
X11271163Y-16222313D02*
X11290210Y-16212789D01*
X11290210Y-16212789D02*
X11299734Y-16193741D01*
X11299734Y-16193741D02*
X11299734Y-16184217D01*
X11299734Y-16184217D02*
X11290210Y-16165170D01*
X11290210Y-16165170D02*
X11271163Y-16155646D01*
X11271163Y-16155646D02*
X11242591Y-16155646D01*
X11242591Y-16155646D02*
X11223544Y-16146122D01*
X11223544Y-16146122D02*
X11214020Y-16127074D01*
X11214020Y-16127074D02*
X11214020Y-16117551D01*
X11214020Y-16117551D02*
X11223544Y-16098503D01*
X11223544Y-16098503D02*
X11242591Y-16088979D01*
X11242591Y-16088979D02*
X11271163Y-16088979D01*
X11271163Y-16088979D02*
X11290210Y-16098503D01*
X11366401Y-16298503D02*
X11375925Y-16288979D01*
X11375925Y-16288979D02*
X11394972Y-16260408D01*
X11394972Y-16260408D02*
X11404496Y-16241360D01*
X11404496Y-16241360D02*
X11414020Y-16212789D01*
X11414020Y-16212789D02*
X11423544Y-16165170D01*
X11423544Y-16165170D02*
X11423544Y-16127074D01*
X11423544Y-16127074D02*
X11414020Y-16079455D01*
X11414020Y-16079455D02*
X11404496Y-16050884D01*
X11404496Y-16050884D02*
X11394972Y-16031836D01*
X11394972Y-16031836D02*
X11375925Y-16003265D01*
X11375925Y-16003265D02*
X11366401Y-15993741D01*
X11728306Y-16298503D02*
X11718782Y-16288979D01*
X11718782Y-16288979D02*
X11699734Y-16260408D01*
X11699734Y-16260408D02*
X11690210Y-16241360D01*
X11690210Y-16241360D02*
X11680686Y-16212789D01*
X11680686Y-16212789D02*
X11671163Y-16165170D01*
X11671163Y-16165170D02*
X11671163Y-16127074D01*
X11671163Y-16127074D02*
X11680686Y-16079455D01*
X11680686Y-16079455D02*
X11690210Y-16050884D01*
X11690210Y-16050884D02*
X11699734Y-16031836D01*
X11699734Y-16031836D02*
X11718782Y-16003265D01*
X11718782Y-16003265D02*
X11728306Y-15993741D01*
X11804496Y-16088979D02*
X11804496Y-16222313D01*
X11804496Y-16108027D02*
X11814020Y-16098503D01*
X11814020Y-16098503D02*
X11833067Y-16088979D01*
X11833067Y-16088979D02*
X11861639Y-16088979D01*
X11861639Y-16088979D02*
X11880686Y-16098503D01*
X11880686Y-16098503D02*
X11890210Y-16117551D01*
X11890210Y-16117551D02*
X11890210Y-16222313D01*
X12014020Y-16222313D02*
X11994972Y-16212789D01*
X11994972Y-16212789D02*
X11985448Y-16203265D01*
X11985448Y-16203265D02*
X11975925Y-16184217D01*
X11975925Y-16184217D02*
X11975925Y-16127074D01*
X11975925Y-16127074D02*
X11985448Y-16108027D01*
X11985448Y-16108027D02*
X11994972Y-16098503D01*
X11994972Y-16098503D02*
X12014020Y-16088979D01*
X12014020Y-16088979D02*
X12042591Y-16088979D01*
X12042591Y-16088979D02*
X12061639Y-16098503D01*
X12061639Y-16098503D02*
X12071163Y-16108027D01*
X12071163Y-16108027D02*
X12080686Y-16127074D01*
X12080686Y-16127074D02*
X12080686Y-16184217D01*
X12080686Y-16184217D02*
X12071163Y-16203265D01*
X12071163Y-16203265D02*
X12061639Y-16212789D01*
X12061639Y-16212789D02*
X12042591Y-16222313D01*
X12042591Y-16222313D02*
X12014020Y-16222313D01*
X12137829Y-16088979D02*
X12214020Y-16088979D01*
X12166401Y-16022313D02*
X12166401Y-16193741D01*
X12166401Y-16193741D02*
X12175925Y-16212789D01*
X12175925Y-16212789D02*
X12194972Y-16222313D01*
X12194972Y-16222313D02*
X12214020Y-16222313D01*
X12433067Y-16088979D02*
X12433067Y-16288979D01*
X12433067Y-16098503D02*
X12452115Y-16088979D01*
X12452115Y-16088979D02*
X12490210Y-16088979D01*
X12490210Y-16088979D02*
X12509258Y-16098503D01*
X12509258Y-16098503D02*
X12518782Y-16108027D01*
X12518782Y-16108027D02*
X12528306Y-16127074D01*
X12528306Y-16127074D02*
X12528306Y-16184217D01*
X12528306Y-16184217D02*
X12518782Y-16203265D01*
X12518782Y-16203265D02*
X12509258Y-16212789D01*
X12509258Y-16212789D02*
X12490210Y-16222313D01*
X12490210Y-16222313D02*
X12452115Y-16222313D01*
X12452115Y-16222313D02*
X12433067Y-16212789D01*
X12642591Y-16222313D02*
X12623544Y-16212789D01*
X12623544Y-16212789D02*
X12614020Y-16193741D01*
X12614020Y-16193741D02*
X12614020Y-16022313D01*
X12804496Y-16222313D02*
X12804496Y-16117551D01*
X12804496Y-16117551D02*
X12794972Y-16098503D01*
X12794972Y-16098503D02*
X12775925Y-16088979D01*
X12775925Y-16088979D02*
X12737829Y-16088979D01*
X12737829Y-16088979D02*
X12718782Y-16098503D01*
X12804496Y-16212789D02*
X12785448Y-16222313D01*
X12785448Y-16222313D02*
X12737829Y-16222313D01*
X12737829Y-16222313D02*
X12718782Y-16212789D01*
X12718782Y-16212789D02*
X12709258Y-16193741D01*
X12709258Y-16193741D02*
X12709258Y-16174693D01*
X12709258Y-16174693D02*
X12718782Y-16155646D01*
X12718782Y-16155646D02*
X12737829Y-16146122D01*
X12737829Y-16146122D02*
X12785448Y-16146122D01*
X12785448Y-16146122D02*
X12804496Y-16136598D01*
X12871163Y-16088979D02*
X12947353Y-16088979D01*
X12899734Y-16022313D02*
X12899734Y-16193741D01*
X12899734Y-16193741D02*
X12909258Y-16212789D01*
X12909258Y-16212789D02*
X12928306Y-16222313D01*
X12928306Y-16222313D02*
X12947353Y-16222313D01*
X13090210Y-16212789D02*
X13071163Y-16222313D01*
X13071163Y-16222313D02*
X13033067Y-16222313D01*
X13033067Y-16222313D02*
X13014020Y-16212789D01*
X13014020Y-16212789D02*
X13004496Y-16193741D01*
X13004496Y-16193741D02*
X13004496Y-16117551D01*
X13004496Y-16117551D02*
X13014020Y-16098503D01*
X13014020Y-16098503D02*
X13033067Y-16088979D01*
X13033067Y-16088979D02*
X13071163Y-16088979D01*
X13071163Y-16088979D02*
X13090210Y-16098503D01*
X13090210Y-16098503D02*
X13099734Y-16117551D01*
X13099734Y-16117551D02*
X13099734Y-16136598D01*
X13099734Y-16136598D02*
X13004496Y-16155646D01*
X13271163Y-16222313D02*
X13271163Y-16022313D01*
X13271163Y-16212789D02*
X13252115Y-16222313D01*
X13252115Y-16222313D02*
X13214020Y-16222313D01*
X13214020Y-16222313D02*
X13194972Y-16212789D01*
X13194972Y-16212789D02*
X13185448Y-16203265D01*
X13185448Y-16203265D02*
X13175925Y-16184217D01*
X13175925Y-16184217D02*
X13175925Y-16127074D01*
X13175925Y-16127074D02*
X13185448Y-16108027D01*
X13185448Y-16108027D02*
X13194972Y-16098503D01*
X13194972Y-16098503D02*
X13214020Y-16088979D01*
X13214020Y-16088979D02*
X13252115Y-16088979D01*
X13252115Y-16088979D02*
X13271163Y-16098503D01*
X13347353Y-16298503D02*
X13356877Y-16288979D01*
X13356877Y-16288979D02*
X13375925Y-16260408D01*
X13375925Y-16260408D02*
X13385448Y-16241360D01*
X13385448Y-16241360D02*
X13394972Y-16212789D01*
X13394972Y-16212789D02*
X13404496Y-16165170D01*
X13404496Y-16165170D02*
X13404496Y-16127074D01*
X13404496Y-16127074D02*
X13394972Y-16079455D01*
X13394972Y-16079455D02*
X13385448Y-16050884D01*
X13385448Y-16050884D02*
X13375925Y-16031836D01*
X13375925Y-16031836D02*
X13356877Y-16003265D01*
X13356877Y-16003265D02*
X13347353Y-15993741D01*
D13*
X6591338Y-16394829D02*
G75*
G03*
X6591338Y-16394829I-90000J0D01*
G01*
D11*
X6956876Y-16486313D02*
X6842591Y-16486313D01*
X6899734Y-16486313D02*
X6899734Y-16286313D01*
X6899734Y-16286313D02*
X6880686Y-16314884D01*
X6880686Y-16314884D02*
X6861638Y-16333932D01*
X6861638Y-16333932D02*
X6842591Y-16343455D01*
X7042591Y-16467265D02*
X7052115Y-16476789D01*
X7052115Y-16476789D02*
X7042591Y-16486313D01*
X7042591Y-16486313D02*
X7033067Y-16476789D01*
X7033067Y-16476789D02*
X7042591Y-16467265D01*
X7042591Y-16467265D02*
X7042591Y-16486313D01*
X7166400Y-16372027D02*
X7147353Y-16362503D01*
X7147353Y-16362503D02*
X7137829Y-16352979D01*
X7137829Y-16352979D02*
X7128305Y-16333932D01*
X7128305Y-16333932D02*
X7128305Y-16324408D01*
X7128305Y-16324408D02*
X7137829Y-16305360D01*
X7137829Y-16305360D02*
X7147353Y-16295836D01*
X7147353Y-16295836D02*
X7166400Y-16286313D01*
X7166400Y-16286313D02*
X7204496Y-16286313D01*
X7204496Y-16286313D02*
X7223543Y-16295836D01*
X7223543Y-16295836D02*
X7233067Y-16305360D01*
X7233067Y-16305360D02*
X7242591Y-16324408D01*
X7242591Y-16324408D02*
X7242591Y-16333932D01*
X7242591Y-16333932D02*
X7233067Y-16352979D01*
X7233067Y-16352979D02*
X7223543Y-16362503D01*
X7223543Y-16362503D02*
X7204496Y-16372027D01*
X7204496Y-16372027D02*
X7166400Y-16372027D01*
X7166400Y-16372027D02*
X7147353Y-16381551D01*
X7147353Y-16381551D02*
X7137829Y-16391074D01*
X7137829Y-16391074D02*
X7128305Y-16410122D01*
X7128305Y-16410122D02*
X7128305Y-16448217D01*
X7128305Y-16448217D02*
X7137829Y-16467265D01*
X7137829Y-16467265D02*
X7147353Y-16476789D01*
X7147353Y-16476789D02*
X7166400Y-16486313D01*
X7166400Y-16486313D02*
X7204496Y-16486313D01*
X7204496Y-16486313D02*
X7223543Y-16476789D01*
X7223543Y-16476789D02*
X7233067Y-16467265D01*
X7233067Y-16467265D02*
X7242591Y-16448217D01*
X7242591Y-16448217D02*
X7242591Y-16410122D01*
X7242591Y-16410122D02*
X7233067Y-16391074D01*
X7233067Y-16391074D02*
X7223543Y-16381551D01*
X7223543Y-16381551D02*
X7204496Y-16372027D01*
X7366400Y-16286313D02*
X7385448Y-16286313D01*
X7385448Y-16286313D02*
X7404496Y-16295836D01*
X7404496Y-16295836D02*
X7414019Y-16305360D01*
X7414019Y-16305360D02*
X7423543Y-16324408D01*
X7423543Y-16324408D02*
X7433067Y-16362503D01*
X7433067Y-16362503D02*
X7433067Y-16410122D01*
X7433067Y-16410122D02*
X7423543Y-16448217D01*
X7423543Y-16448217D02*
X7414019Y-16467265D01*
X7414019Y-16467265D02*
X7404496Y-16476789D01*
X7404496Y-16476789D02*
X7385448Y-16486313D01*
X7385448Y-16486313D02*
X7366400Y-16486313D01*
X7366400Y-16486313D02*
X7347353Y-16476789D01*
X7347353Y-16476789D02*
X7337829Y-16467265D01*
X7337829Y-16467265D02*
X7328305Y-16448217D01*
X7328305Y-16448217D02*
X7318781Y-16410122D01*
X7318781Y-16410122D02*
X7318781Y-16362503D01*
X7318781Y-16362503D02*
X7328305Y-16324408D01*
X7328305Y-16324408D02*
X7337829Y-16305360D01*
X7337829Y-16305360D02*
X7347353Y-16295836D01*
X7347353Y-16295836D02*
X7366400Y-16286313D01*
X7556876Y-16286313D02*
X7575924Y-16286313D01*
X7575924Y-16286313D02*
X7594972Y-16295836D01*
X7594972Y-16295836D02*
X7604496Y-16305360D01*
X7604496Y-16305360D02*
X7614019Y-16324408D01*
X7614019Y-16324408D02*
X7623543Y-16362503D01*
X7623543Y-16362503D02*
X7623543Y-16410122D01*
X7623543Y-16410122D02*
X7614019Y-16448217D01*
X7614019Y-16448217D02*
X7604496Y-16467265D01*
X7604496Y-16467265D02*
X7594972Y-16476789D01*
X7594972Y-16476789D02*
X7575924Y-16486313D01*
X7575924Y-16486313D02*
X7556876Y-16486313D01*
X7556876Y-16486313D02*
X7537829Y-16476789D01*
X7537829Y-16476789D02*
X7528305Y-16467265D01*
X7528305Y-16467265D02*
X7518781Y-16448217D01*
X7518781Y-16448217D02*
X7509257Y-16410122D01*
X7509257Y-16410122D02*
X7509257Y-16362503D01*
X7509257Y-16362503D02*
X7518781Y-16324408D01*
X7518781Y-16324408D02*
X7528305Y-16305360D01*
X7528305Y-16305360D02*
X7537829Y-16295836D01*
X7537829Y-16295836D02*
X7556876Y-16286313D01*
X7709257Y-16486313D02*
X7709257Y-16352979D01*
X7709257Y-16372027D02*
X7718781Y-16362503D01*
X7718781Y-16362503D02*
X7737829Y-16352979D01*
X7737829Y-16352979D02*
X7766400Y-16352979D01*
X7766400Y-16352979D02*
X7785448Y-16362503D01*
X7785448Y-16362503D02*
X7794972Y-16381551D01*
X7794972Y-16381551D02*
X7794972Y-16486313D01*
X7794972Y-16381551D02*
X7804496Y-16362503D01*
X7804496Y-16362503D02*
X7823543Y-16352979D01*
X7823543Y-16352979D02*
X7852115Y-16352979D01*
X7852115Y-16352979D02*
X7871162Y-16362503D01*
X7871162Y-16362503D02*
X7880686Y-16381551D01*
X7880686Y-16381551D02*
X7880686Y-16486313D01*
X7975924Y-16486313D02*
X7975924Y-16352979D01*
X7975924Y-16372027D02*
X7985448Y-16362503D01*
X7985448Y-16362503D02*
X8004496Y-16352979D01*
X8004496Y-16352979D02*
X8033067Y-16352979D01*
X8033067Y-16352979D02*
X8052115Y-16362503D01*
X8052115Y-16362503D02*
X8061638Y-16381551D01*
X8061638Y-16381551D02*
X8061638Y-16486313D01*
X8061638Y-16381551D02*
X8071162Y-16362503D01*
X8071162Y-16362503D02*
X8090210Y-16352979D01*
X8090210Y-16352979D02*
X8118781Y-16352979D01*
X8118781Y-16352979D02*
X8137829Y-16362503D01*
X8137829Y-16362503D02*
X8147353Y-16381551D01*
X8147353Y-16381551D02*
X8147353Y-16486313D01*
X8537829Y-16276789D02*
X8366400Y-16533932D01*
X8794972Y-16286313D02*
X8814020Y-16286313D01*
X8814020Y-16286313D02*
X8833067Y-16295836D01*
X8833067Y-16295836D02*
X8842591Y-16305360D01*
X8842591Y-16305360D02*
X8852115Y-16324408D01*
X8852115Y-16324408D02*
X8861639Y-16362503D01*
X8861639Y-16362503D02*
X8861639Y-16410122D01*
X8861639Y-16410122D02*
X8852115Y-16448217D01*
X8852115Y-16448217D02*
X8842591Y-16467265D01*
X8842591Y-16467265D02*
X8833067Y-16476789D01*
X8833067Y-16476789D02*
X8814020Y-16486313D01*
X8814020Y-16486313D02*
X8794972Y-16486313D01*
X8794972Y-16486313D02*
X8775924Y-16476789D01*
X8775924Y-16476789D02*
X8766401Y-16467265D01*
X8766401Y-16467265D02*
X8756877Y-16448217D01*
X8756877Y-16448217D02*
X8747353Y-16410122D01*
X8747353Y-16410122D02*
X8747353Y-16362503D01*
X8747353Y-16362503D02*
X8756877Y-16324408D01*
X8756877Y-16324408D02*
X8766401Y-16305360D01*
X8766401Y-16305360D02*
X8775924Y-16295836D01*
X8775924Y-16295836D02*
X8794972Y-16286313D01*
X8947353Y-16467265D02*
X8956877Y-16476789D01*
X8956877Y-16476789D02*
X8947353Y-16486313D01*
X8947353Y-16486313D02*
X8937829Y-16476789D01*
X8937829Y-16476789D02*
X8947353Y-16467265D01*
X8947353Y-16467265D02*
X8947353Y-16486313D01*
X9080686Y-16286313D02*
X9099734Y-16286313D01*
X9099734Y-16286313D02*
X9118782Y-16295836D01*
X9118782Y-16295836D02*
X9128305Y-16305360D01*
X9128305Y-16305360D02*
X9137829Y-16324408D01*
X9137829Y-16324408D02*
X9147353Y-16362503D01*
X9147353Y-16362503D02*
X9147353Y-16410122D01*
X9147353Y-16410122D02*
X9137829Y-16448217D01*
X9137829Y-16448217D02*
X9128305Y-16467265D01*
X9128305Y-16467265D02*
X9118782Y-16476789D01*
X9118782Y-16476789D02*
X9099734Y-16486313D01*
X9099734Y-16486313D02*
X9080686Y-16486313D01*
X9080686Y-16486313D02*
X9061639Y-16476789D01*
X9061639Y-16476789D02*
X9052115Y-16467265D01*
X9052115Y-16467265D02*
X9042591Y-16448217D01*
X9042591Y-16448217D02*
X9033067Y-16410122D01*
X9033067Y-16410122D02*
X9033067Y-16362503D01*
X9033067Y-16362503D02*
X9042591Y-16324408D01*
X9042591Y-16324408D02*
X9052115Y-16305360D01*
X9052115Y-16305360D02*
X9061639Y-16295836D01*
X9061639Y-16295836D02*
X9080686Y-16286313D01*
X9214020Y-16286313D02*
X9347353Y-16286313D01*
X9347353Y-16286313D02*
X9261639Y-16486313D01*
X9461639Y-16286313D02*
X9480686Y-16286313D01*
X9480686Y-16286313D02*
X9499734Y-16295836D01*
X9499734Y-16295836D02*
X9509258Y-16305360D01*
X9509258Y-16305360D02*
X9518782Y-16324408D01*
X9518782Y-16324408D02*
X9528305Y-16362503D01*
X9528305Y-16362503D02*
X9528305Y-16410122D01*
X9528305Y-16410122D02*
X9518782Y-16448217D01*
X9518782Y-16448217D02*
X9509258Y-16467265D01*
X9509258Y-16467265D02*
X9499734Y-16476789D01*
X9499734Y-16476789D02*
X9480686Y-16486313D01*
X9480686Y-16486313D02*
X9461639Y-16486313D01*
X9461639Y-16486313D02*
X9442591Y-16476789D01*
X9442591Y-16476789D02*
X9433067Y-16467265D01*
X9433067Y-16467265D02*
X9423543Y-16448217D01*
X9423543Y-16448217D02*
X9414020Y-16410122D01*
X9414020Y-16410122D02*
X9414020Y-16362503D01*
X9414020Y-16362503D02*
X9423543Y-16324408D01*
X9423543Y-16324408D02*
X9433067Y-16305360D01*
X9433067Y-16305360D02*
X9442591Y-16295836D01*
X9442591Y-16295836D02*
X9461639Y-16286313D01*
X9623543Y-16486313D02*
X9661639Y-16486313D01*
X9661639Y-16486313D02*
X9680686Y-16476789D01*
X9680686Y-16476789D02*
X9690210Y-16467265D01*
X9690210Y-16467265D02*
X9709258Y-16438693D01*
X9709258Y-16438693D02*
X9718782Y-16400598D01*
X9718782Y-16400598D02*
X9718782Y-16324408D01*
X9718782Y-16324408D02*
X9709258Y-16305360D01*
X9709258Y-16305360D02*
X9699734Y-16295836D01*
X9699734Y-16295836D02*
X9680686Y-16286313D01*
X9680686Y-16286313D02*
X9642591Y-16286313D01*
X9642591Y-16286313D02*
X9623543Y-16295836D01*
X9623543Y-16295836D02*
X9614020Y-16305360D01*
X9614020Y-16305360D02*
X9604496Y-16324408D01*
X9604496Y-16324408D02*
X9604496Y-16372027D01*
X9604496Y-16372027D02*
X9614020Y-16391074D01*
X9614020Y-16391074D02*
X9623543Y-16400598D01*
X9623543Y-16400598D02*
X9642591Y-16410122D01*
X9642591Y-16410122D02*
X9680686Y-16410122D01*
X9680686Y-16410122D02*
X9699734Y-16400598D01*
X9699734Y-16400598D02*
X9709258Y-16391074D01*
X9709258Y-16391074D02*
X9718782Y-16372027D01*
X9794972Y-16286313D02*
X9794972Y-16324408D01*
X9871163Y-16286313D02*
X9871163Y-16324408D01*
X10166401Y-16562503D02*
X10156877Y-16552979D01*
X10156877Y-16552979D02*
X10137829Y-16524408D01*
X10137829Y-16524408D02*
X10128305Y-16505360D01*
X10128305Y-16505360D02*
X10118782Y-16476789D01*
X10118782Y-16476789D02*
X10109258Y-16429170D01*
X10109258Y-16429170D02*
X10109258Y-16391074D01*
X10109258Y-16391074D02*
X10118782Y-16343455D01*
X10118782Y-16343455D02*
X10128305Y-16314884D01*
X10128305Y-16314884D02*
X10137829Y-16295836D01*
X10137829Y-16295836D02*
X10156877Y-16267265D01*
X10156877Y-16267265D02*
X10166401Y-16257741D01*
X10328305Y-16352979D02*
X10328305Y-16486313D01*
X10280686Y-16276789D02*
X10233067Y-16419646D01*
X10233067Y-16419646D02*
X10356877Y-16419646D01*
X10423544Y-16305360D02*
X10433067Y-16295836D01*
X10433067Y-16295836D02*
X10452115Y-16286313D01*
X10452115Y-16286313D02*
X10499734Y-16286313D01*
X10499734Y-16286313D02*
X10518782Y-16295836D01*
X10518782Y-16295836D02*
X10528305Y-16305360D01*
X10528305Y-16305360D02*
X10537829Y-16324408D01*
X10537829Y-16324408D02*
X10537829Y-16343455D01*
X10537829Y-16343455D02*
X10528305Y-16372027D01*
X10528305Y-16372027D02*
X10414020Y-16486313D01*
X10414020Y-16486313D02*
X10537829Y-16486313D01*
X10775925Y-16486313D02*
X10775925Y-16286313D01*
X10861639Y-16486313D02*
X10861639Y-16381551D01*
X10861639Y-16381551D02*
X10852115Y-16362503D01*
X10852115Y-16362503D02*
X10833067Y-16352979D01*
X10833067Y-16352979D02*
X10804496Y-16352979D01*
X10804496Y-16352979D02*
X10785448Y-16362503D01*
X10785448Y-16362503D02*
X10775925Y-16372027D01*
X10985448Y-16486313D02*
X10966401Y-16476789D01*
X10966401Y-16476789D02*
X10956877Y-16467265D01*
X10956877Y-16467265D02*
X10947353Y-16448217D01*
X10947353Y-16448217D02*
X10947353Y-16391074D01*
X10947353Y-16391074D02*
X10956877Y-16372027D01*
X10956877Y-16372027D02*
X10966401Y-16362503D01*
X10966401Y-16362503D02*
X10985448Y-16352979D01*
X10985448Y-16352979D02*
X11014020Y-16352979D01*
X11014020Y-16352979D02*
X11033067Y-16362503D01*
X11033067Y-16362503D02*
X11042591Y-16372027D01*
X11042591Y-16372027D02*
X11052115Y-16391074D01*
X11052115Y-16391074D02*
X11052115Y-16448217D01*
X11052115Y-16448217D02*
X11042591Y-16467265D01*
X11042591Y-16467265D02*
X11033067Y-16476789D01*
X11033067Y-16476789D02*
X11014020Y-16486313D01*
X11014020Y-16486313D02*
X10985448Y-16486313D01*
X11166401Y-16486313D02*
X11147353Y-16476789D01*
X11147353Y-16476789D02*
X11137829Y-16457741D01*
X11137829Y-16457741D02*
X11137829Y-16286313D01*
X11318782Y-16476789D02*
X11299734Y-16486313D01*
X11299734Y-16486313D02*
X11261639Y-16486313D01*
X11261639Y-16486313D02*
X11242591Y-16476789D01*
X11242591Y-16476789D02*
X11233067Y-16457741D01*
X11233067Y-16457741D02*
X11233067Y-16381551D01*
X11233067Y-16381551D02*
X11242591Y-16362503D01*
X11242591Y-16362503D02*
X11261639Y-16352979D01*
X11261639Y-16352979D02*
X11299734Y-16352979D01*
X11299734Y-16352979D02*
X11318782Y-16362503D01*
X11318782Y-16362503D02*
X11328305Y-16381551D01*
X11328305Y-16381551D02*
X11328305Y-16400598D01*
X11328305Y-16400598D02*
X11233067Y-16419646D01*
X11404496Y-16476789D02*
X11423544Y-16486313D01*
X11423544Y-16486313D02*
X11461639Y-16486313D01*
X11461639Y-16486313D02*
X11480686Y-16476789D01*
X11480686Y-16476789D02*
X11490210Y-16457741D01*
X11490210Y-16457741D02*
X11490210Y-16448217D01*
X11490210Y-16448217D02*
X11480686Y-16429170D01*
X11480686Y-16429170D02*
X11461639Y-16419646D01*
X11461639Y-16419646D02*
X11433067Y-16419646D01*
X11433067Y-16419646D02*
X11414020Y-16410122D01*
X11414020Y-16410122D02*
X11404496Y-16391074D01*
X11404496Y-16391074D02*
X11404496Y-16381551D01*
X11404496Y-16381551D02*
X11414020Y-16362503D01*
X11414020Y-16362503D02*
X11433067Y-16352979D01*
X11433067Y-16352979D02*
X11461639Y-16352979D01*
X11461639Y-16352979D02*
X11480686Y-16362503D01*
X11556877Y-16562503D02*
X11566401Y-16552979D01*
X11566401Y-16552979D02*
X11585448Y-16524408D01*
X11585448Y-16524408D02*
X11594972Y-16505360D01*
X11594972Y-16505360D02*
X11604496Y-16476789D01*
X11604496Y-16476789D02*
X11614020Y-16429170D01*
X11614020Y-16429170D02*
X11614020Y-16391074D01*
X11614020Y-16391074D02*
X11604496Y-16343455D01*
X11604496Y-16343455D02*
X11594972Y-16314884D01*
X11594972Y-16314884D02*
X11585448Y-16295836D01*
X11585448Y-16295836D02*
X11566401Y-16267265D01*
X11566401Y-16267265D02*
X11556877Y-16257741D01*
X11918782Y-16562503D02*
X11909258Y-16552979D01*
X11909258Y-16552979D02*
X11890210Y-16524408D01*
X11890210Y-16524408D02*
X11880686Y-16505360D01*
X11880686Y-16505360D02*
X11871163Y-16476789D01*
X11871163Y-16476789D02*
X11861639Y-16429170D01*
X11861639Y-16429170D02*
X11861639Y-16391074D01*
X11861639Y-16391074D02*
X11871163Y-16343455D01*
X11871163Y-16343455D02*
X11880686Y-16314884D01*
X11880686Y-16314884D02*
X11890210Y-16295836D01*
X11890210Y-16295836D02*
X11909258Y-16267265D01*
X11909258Y-16267265D02*
X11918782Y-16257741D01*
X11994972Y-16352979D02*
X11994972Y-16486313D01*
X11994972Y-16372027D02*
X12004496Y-16362503D01*
X12004496Y-16362503D02*
X12023544Y-16352979D01*
X12023544Y-16352979D02*
X12052115Y-16352979D01*
X12052115Y-16352979D02*
X12071163Y-16362503D01*
X12071163Y-16362503D02*
X12080686Y-16381551D01*
X12080686Y-16381551D02*
X12080686Y-16486313D01*
X12204496Y-16486313D02*
X12185448Y-16476789D01*
X12185448Y-16476789D02*
X12175925Y-16467265D01*
X12175925Y-16467265D02*
X12166401Y-16448217D01*
X12166401Y-16448217D02*
X12166401Y-16391074D01*
X12166401Y-16391074D02*
X12175925Y-16372027D01*
X12175925Y-16372027D02*
X12185448Y-16362503D01*
X12185448Y-16362503D02*
X12204496Y-16352979D01*
X12204496Y-16352979D02*
X12233067Y-16352979D01*
X12233067Y-16352979D02*
X12252115Y-16362503D01*
X12252115Y-16362503D02*
X12261639Y-16372027D01*
X12261639Y-16372027D02*
X12271163Y-16391074D01*
X12271163Y-16391074D02*
X12271163Y-16448217D01*
X12271163Y-16448217D02*
X12261639Y-16467265D01*
X12261639Y-16467265D02*
X12252115Y-16476789D01*
X12252115Y-16476789D02*
X12233067Y-16486313D01*
X12233067Y-16486313D02*
X12204496Y-16486313D01*
X12328306Y-16352979D02*
X12404496Y-16352979D01*
X12356877Y-16286313D02*
X12356877Y-16457741D01*
X12356877Y-16457741D02*
X12366401Y-16476789D01*
X12366401Y-16476789D02*
X12385448Y-16486313D01*
X12385448Y-16486313D02*
X12404496Y-16486313D01*
X12623544Y-16352979D02*
X12623544Y-16552979D01*
X12623544Y-16362503D02*
X12642591Y-16352979D01*
X12642591Y-16352979D02*
X12680687Y-16352979D01*
X12680687Y-16352979D02*
X12699734Y-16362503D01*
X12699734Y-16362503D02*
X12709258Y-16372027D01*
X12709258Y-16372027D02*
X12718782Y-16391074D01*
X12718782Y-16391074D02*
X12718782Y-16448217D01*
X12718782Y-16448217D02*
X12709258Y-16467265D01*
X12709258Y-16467265D02*
X12699734Y-16476789D01*
X12699734Y-16476789D02*
X12680687Y-16486313D01*
X12680687Y-16486313D02*
X12642591Y-16486313D01*
X12642591Y-16486313D02*
X12623544Y-16476789D01*
X12833067Y-16486313D02*
X12814020Y-16476789D01*
X12814020Y-16476789D02*
X12804496Y-16457741D01*
X12804496Y-16457741D02*
X12804496Y-16286313D01*
X12994972Y-16486313D02*
X12994972Y-16381551D01*
X12994972Y-16381551D02*
X12985448Y-16362503D01*
X12985448Y-16362503D02*
X12966401Y-16352979D01*
X12966401Y-16352979D02*
X12928306Y-16352979D01*
X12928306Y-16352979D02*
X12909258Y-16362503D01*
X12994972Y-16476789D02*
X12975925Y-16486313D01*
X12975925Y-16486313D02*
X12928306Y-16486313D01*
X12928306Y-16486313D02*
X12909258Y-16476789D01*
X12909258Y-16476789D02*
X12899734Y-16457741D01*
X12899734Y-16457741D02*
X12899734Y-16438693D01*
X12899734Y-16438693D02*
X12909258Y-16419646D01*
X12909258Y-16419646D02*
X12928306Y-16410122D01*
X12928306Y-16410122D02*
X12975925Y-16410122D01*
X12975925Y-16410122D02*
X12994972Y-16400598D01*
X13061639Y-16352979D02*
X13137829Y-16352979D01*
X13090210Y-16286313D02*
X13090210Y-16457741D01*
X13090210Y-16457741D02*
X13099734Y-16476789D01*
X13099734Y-16476789D02*
X13118782Y-16486313D01*
X13118782Y-16486313D02*
X13137829Y-16486313D01*
X13280687Y-16476789D02*
X13261639Y-16486313D01*
X13261639Y-16486313D02*
X13223544Y-16486313D01*
X13223544Y-16486313D02*
X13204496Y-16476789D01*
X13204496Y-16476789D02*
X13194972Y-16457741D01*
X13194972Y-16457741D02*
X13194972Y-16381551D01*
X13194972Y-16381551D02*
X13204496Y-16362503D01*
X13204496Y-16362503D02*
X13223544Y-16352979D01*
X13223544Y-16352979D02*
X13261639Y-16352979D01*
X13261639Y-16352979D02*
X13280687Y-16362503D01*
X13280687Y-16362503D02*
X13290210Y-16381551D01*
X13290210Y-16381551D02*
X13290210Y-16400598D01*
X13290210Y-16400598D02*
X13194972Y-16419646D01*
X13461639Y-16486313D02*
X13461639Y-16286313D01*
X13461639Y-16476789D02*
X13442591Y-16486313D01*
X13442591Y-16486313D02*
X13404496Y-16486313D01*
X13404496Y-16486313D02*
X13385448Y-16476789D01*
X13385448Y-16476789D02*
X13375925Y-16467265D01*
X13375925Y-16467265D02*
X13366401Y-16448217D01*
X13366401Y-16448217D02*
X13366401Y-16391074D01*
X13366401Y-16391074D02*
X13375925Y-16372027D01*
X13375925Y-16372027D02*
X13385448Y-16362503D01*
X13385448Y-16362503D02*
X13404496Y-16352979D01*
X13404496Y-16352979D02*
X13442591Y-16352979D01*
X13442591Y-16352979D02*
X13461639Y-16362503D01*
X13537829Y-16562503D02*
X13547353Y-16552979D01*
X13547353Y-16552979D02*
X13566401Y-16524408D01*
X13566401Y-16524408D02*
X13575925Y-16505360D01*
X13575925Y-16505360D02*
X13585448Y-16476789D01*
X13585448Y-16476789D02*
X13594972Y-16429170D01*
X13594972Y-16429170D02*
X13594972Y-16391074D01*
X13594972Y-16391074D02*
X13585448Y-16343455D01*
X13585448Y-16343455D02*
X13575925Y-16314884D01*
X13575925Y-16314884D02*
X13566401Y-16295836D01*
X13566401Y-16295836D02*
X13547353Y-16267265D01*
X13547353Y-16267265D02*
X13537829Y-16257741D01*
X6491338Y-16594829D02*
X6491338Y-16794829D01*
X6391338Y-16694829D02*
X6591338Y-16694829D01*
X6833067Y-16586313D02*
X6956876Y-16586313D01*
X6956876Y-16586313D02*
X6890210Y-16662503D01*
X6890210Y-16662503D02*
X6918781Y-16662503D01*
X6918781Y-16662503D02*
X6937829Y-16672027D01*
X6937829Y-16672027D02*
X6947353Y-16681551D01*
X6947353Y-16681551D02*
X6956876Y-16700598D01*
X6956876Y-16700598D02*
X6956876Y-16748217D01*
X6956876Y-16748217D02*
X6947353Y-16767265D01*
X6947353Y-16767265D02*
X6937829Y-16776789D01*
X6937829Y-16776789D02*
X6918781Y-16786313D01*
X6918781Y-16786313D02*
X6861638Y-16786313D01*
X6861638Y-16786313D02*
X6842591Y-16776789D01*
X6842591Y-16776789D02*
X6833067Y-16767265D01*
X7042591Y-16767265D02*
X7052115Y-16776789D01*
X7052115Y-16776789D02*
X7042591Y-16786313D01*
X7042591Y-16786313D02*
X7033067Y-16776789D01*
X7033067Y-16776789D02*
X7042591Y-16767265D01*
X7042591Y-16767265D02*
X7042591Y-16786313D01*
X7175924Y-16586313D02*
X7194972Y-16586313D01*
X7194972Y-16586313D02*
X7214019Y-16595836D01*
X7214019Y-16595836D02*
X7223543Y-16605360D01*
X7223543Y-16605360D02*
X7233067Y-16624408D01*
X7233067Y-16624408D02*
X7242591Y-16662503D01*
X7242591Y-16662503D02*
X7242591Y-16710122D01*
X7242591Y-16710122D02*
X7233067Y-16748217D01*
X7233067Y-16748217D02*
X7223543Y-16767265D01*
X7223543Y-16767265D02*
X7214019Y-16776789D01*
X7214019Y-16776789D02*
X7194972Y-16786313D01*
X7194972Y-16786313D02*
X7175924Y-16786313D01*
X7175924Y-16786313D02*
X7156876Y-16776789D01*
X7156876Y-16776789D02*
X7147353Y-16767265D01*
X7147353Y-16767265D02*
X7137829Y-16748217D01*
X7137829Y-16748217D02*
X7128305Y-16710122D01*
X7128305Y-16710122D02*
X7128305Y-16662503D01*
X7128305Y-16662503D02*
X7137829Y-16624408D01*
X7137829Y-16624408D02*
X7147353Y-16605360D01*
X7147353Y-16605360D02*
X7156876Y-16595836D01*
X7156876Y-16595836D02*
X7175924Y-16586313D01*
X7366400Y-16586313D02*
X7385448Y-16586313D01*
X7385448Y-16586313D02*
X7404496Y-16595836D01*
X7404496Y-16595836D02*
X7414019Y-16605360D01*
X7414019Y-16605360D02*
X7423543Y-16624408D01*
X7423543Y-16624408D02*
X7433067Y-16662503D01*
X7433067Y-16662503D02*
X7433067Y-16710122D01*
X7433067Y-16710122D02*
X7423543Y-16748217D01*
X7423543Y-16748217D02*
X7414019Y-16767265D01*
X7414019Y-16767265D02*
X7404496Y-16776789D01*
X7404496Y-16776789D02*
X7385448Y-16786313D01*
X7385448Y-16786313D02*
X7366400Y-16786313D01*
X7366400Y-16786313D02*
X7347353Y-16776789D01*
X7347353Y-16776789D02*
X7337829Y-16767265D01*
X7337829Y-16767265D02*
X7328305Y-16748217D01*
X7328305Y-16748217D02*
X7318781Y-16710122D01*
X7318781Y-16710122D02*
X7318781Y-16662503D01*
X7318781Y-16662503D02*
X7328305Y-16624408D01*
X7328305Y-16624408D02*
X7337829Y-16605360D01*
X7337829Y-16605360D02*
X7347353Y-16595836D01*
X7347353Y-16595836D02*
X7366400Y-16586313D01*
X7556876Y-16586313D02*
X7575924Y-16586313D01*
X7575924Y-16586313D02*
X7594972Y-16595836D01*
X7594972Y-16595836D02*
X7604496Y-16605360D01*
X7604496Y-16605360D02*
X7614019Y-16624408D01*
X7614019Y-16624408D02*
X7623543Y-16662503D01*
X7623543Y-16662503D02*
X7623543Y-16710122D01*
X7623543Y-16710122D02*
X7614019Y-16748217D01*
X7614019Y-16748217D02*
X7604496Y-16767265D01*
X7604496Y-16767265D02*
X7594972Y-16776789D01*
X7594972Y-16776789D02*
X7575924Y-16786313D01*
X7575924Y-16786313D02*
X7556876Y-16786313D01*
X7556876Y-16786313D02*
X7537829Y-16776789D01*
X7537829Y-16776789D02*
X7528305Y-16767265D01*
X7528305Y-16767265D02*
X7518781Y-16748217D01*
X7518781Y-16748217D02*
X7509257Y-16710122D01*
X7509257Y-16710122D02*
X7509257Y-16662503D01*
X7509257Y-16662503D02*
X7518781Y-16624408D01*
X7518781Y-16624408D02*
X7528305Y-16605360D01*
X7528305Y-16605360D02*
X7537829Y-16595836D01*
X7537829Y-16595836D02*
X7556876Y-16586313D01*
X7709257Y-16786313D02*
X7709257Y-16652979D01*
X7709257Y-16672027D02*
X7718781Y-16662503D01*
X7718781Y-16662503D02*
X7737829Y-16652979D01*
X7737829Y-16652979D02*
X7766400Y-16652979D01*
X7766400Y-16652979D02*
X7785448Y-16662503D01*
X7785448Y-16662503D02*
X7794972Y-16681551D01*
X7794972Y-16681551D02*
X7794972Y-16786313D01*
X7794972Y-16681551D02*
X7804496Y-16662503D01*
X7804496Y-16662503D02*
X7823543Y-16652979D01*
X7823543Y-16652979D02*
X7852115Y-16652979D01*
X7852115Y-16652979D02*
X7871162Y-16662503D01*
X7871162Y-16662503D02*
X7880686Y-16681551D01*
X7880686Y-16681551D02*
X7880686Y-16786313D01*
X7975924Y-16786313D02*
X7975924Y-16652979D01*
X7975924Y-16672027D02*
X7985448Y-16662503D01*
X7985448Y-16662503D02*
X8004496Y-16652979D01*
X8004496Y-16652979D02*
X8033067Y-16652979D01*
X8033067Y-16652979D02*
X8052115Y-16662503D01*
X8052115Y-16662503D02*
X8061638Y-16681551D01*
X8061638Y-16681551D02*
X8061638Y-16786313D01*
X8061638Y-16681551D02*
X8071162Y-16662503D01*
X8071162Y-16662503D02*
X8090210Y-16652979D01*
X8090210Y-16652979D02*
X8118781Y-16652979D01*
X8118781Y-16652979D02*
X8137829Y-16662503D01*
X8137829Y-16662503D02*
X8147353Y-16681551D01*
X8147353Y-16681551D02*
X8147353Y-16786313D01*
X8537829Y-16576789D02*
X8366400Y-16833932D01*
X8794972Y-16586313D02*
X8814020Y-16586313D01*
X8814020Y-16586313D02*
X8833067Y-16595836D01*
X8833067Y-16595836D02*
X8842591Y-16605360D01*
X8842591Y-16605360D02*
X8852115Y-16624408D01*
X8852115Y-16624408D02*
X8861639Y-16662503D01*
X8861639Y-16662503D02*
X8861639Y-16710122D01*
X8861639Y-16710122D02*
X8852115Y-16748217D01*
X8852115Y-16748217D02*
X8842591Y-16767265D01*
X8842591Y-16767265D02*
X8833067Y-16776789D01*
X8833067Y-16776789D02*
X8814020Y-16786313D01*
X8814020Y-16786313D02*
X8794972Y-16786313D01*
X8794972Y-16786313D02*
X8775924Y-16776789D01*
X8775924Y-16776789D02*
X8766401Y-16767265D01*
X8766401Y-16767265D02*
X8756877Y-16748217D01*
X8756877Y-16748217D02*
X8747353Y-16710122D01*
X8747353Y-16710122D02*
X8747353Y-16662503D01*
X8747353Y-16662503D02*
X8756877Y-16624408D01*
X8756877Y-16624408D02*
X8766401Y-16605360D01*
X8766401Y-16605360D02*
X8775924Y-16595836D01*
X8775924Y-16595836D02*
X8794972Y-16586313D01*
X8947353Y-16767265D02*
X8956877Y-16776789D01*
X8956877Y-16776789D02*
X8947353Y-16786313D01*
X8947353Y-16786313D02*
X8937829Y-16776789D01*
X8937829Y-16776789D02*
X8947353Y-16767265D01*
X8947353Y-16767265D02*
X8947353Y-16786313D01*
X9147353Y-16786313D02*
X9033067Y-16786313D01*
X9090210Y-16786313D02*
X9090210Y-16586313D01*
X9090210Y-16586313D02*
X9071162Y-16614884D01*
X9071162Y-16614884D02*
X9052115Y-16633932D01*
X9052115Y-16633932D02*
X9033067Y-16643455D01*
X9337829Y-16786313D02*
X9223543Y-16786313D01*
X9280686Y-16786313D02*
X9280686Y-16586313D01*
X9280686Y-16586313D02*
X9261639Y-16614884D01*
X9261639Y-16614884D02*
X9242591Y-16633932D01*
X9242591Y-16633932D02*
X9223543Y-16643455D01*
X9452115Y-16672027D02*
X9433067Y-16662503D01*
X9433067Y-16662503D02*
X9423543Y-16652979D01*
X9423543Y-16652979D02*
X9414020Y-16633932D01*
X9414020Y-16633932D02*
X9414020Y-16624408D01*
X9414020Y-16624408D02*
X9423543Y-16605360D01*
X9423543Y-16605360D02*
X9433067Y-16595836D01*
X9433067Y-16595836D02*
X9452115Y-16586313D01*
X9452115Y-16586313D02*
X9490210Y-16586313D01*
X9490210Y-16586313D02*
X9509258Y-16595836D01*
X9509258Y-16595836D02*
X9518782Y-16605360D01*
X9518782Y-16605360D02*
X9528305Y-16624408D01*
X9528305Y-16624408D02*
X9528305Y-16633932D01*
X9528305Y-16633932D02*
X9518782Y-16652979D01*
X9518782Y-16652979D02*
X9509258Y-16662503D01*
X9509258Y-16662503D02*
X9490210Y-16672027D01*
X9490210Y-16672027D02*
X9452115Y-16672027D01*
X9452115Y-16672027D02*
X9433067Y-16681551D01*
X9433067Y-16681551D02*
X9423543Y-16691074D01*
X9423543Y-16691074D02*
X9414020Y-16710122D01*
X9414020Y-16710122D02*
X9414020Y-16748217D01*
X9414020Y-16748217D02*
X9423543Y-16767265D01*
X9423543Y-16767265D02*
X9433067Y-16776789D01*
X9433067Y-16776789D02*
X9452115Y-16786313D01*
X9452115Y-16786313D02*
X9490210Y-16786313D01*
X9490210Y-16786313D02*
X9509258Y-16776789D01*
X9509258Y-16776789D02*
X9518782Y-16767265D01*
X9518782Y-16767265D02*
X9528305Y-16748217D01*
X9528305Y-16748217D02*
X9528305Y-16710122D01*
X9528305Y-16710122D02*
X9518782Y-16691074D01*
X9518782Y-16691074D02*
X9509258Y-16681551D01*
X9509258Y-16681551D02*
X9490210Y-16672027D01*
X9718782Y-16786313D02*
X9604496Y-16786313D01*
X9661639Y-16786313D02*
X9661639Y-16586313D01*
X9661639Y-16586313D02*
X9642591Y-16614884D01*
X9642591Y-16614884D02*
X9623543Y-16633932D01*
X9623543Y-16633932D02*
X9604496Y-16643455D01*
X9794972Y-16586313D02*
X9794972Y-16624408D01*
X9871163Y-16586313D02*
X9871163Y-16624408D01*
X10166401Y-16862503D02*
X10156877Y-16852979D01*
X10156877Y-16852979D02*
X10137829Y-16824408D01*
X10137829Y-16824408D02*
X10128305Y-16805360D01*
X10128305Y-16805360D02*
X10118782Y-16776789D01*
X10118782Y-16776789D02*
X10109258Y-16729170D01*
X10109258Y-16729170D02*
X10109258Y-16691074D01*
X10109258Y-16691074D02*
X10118782Y-16643455D01*
X10118782Y-16643455D02*
X10128305Y-16614884D01*
X10128305Y-16614884D02*
X10137829Y-16595836D01*
X10137829Y-16595836D02*
X10156877Y-16567265D01*
X10156877Y-16567265D02*
X10166401Y-16557741D01*
X10328305Y-16586313D02*
X10290210Y-16586313D01*
X10290210Y-16586313D02*
X10271163Y-16595836D01*
X10271163Y-16595836D02*
X10261639Y-16605360D01*
X10261639Y-16605360D02*
X10242591Y-16633932D01*
X10242591Y-16633932D02*
X10233067Y-16672027D01*
X10233067Y-16672027D02*
X10233067Y-16748217D01*
X10233067Y-16748217D02*
X10242591Y-16767265D01*
X10242591Y-16767265D02*
X10252115Y-16776789D01*
X10252115Y-16776789D02*
X10271163Y-16786313D01*
X10271163Y-16786313D02*
X10309258Y-16786313D01*
X10309258Y-16786313D02*
X10328305Y-16776789D01*
X10328305Y-16776789D02*
X10337829Y-16767265D01*
X10337829Y-16767265D02*
X10347353Y-16748217D01*
X10347353Y-16748217D02*
X10347353Y-16700598D01*
X10347353Y-16700598D02*
X10337829Y-16681551D01*
X10337829Y-16681551D02*
X10328305Y-16672027D01*
X10328305Y-16672027D02*
X10309258Y-16662503D01*
X10309258Y-16662503D02*
X10271163Y-16662503D01*
X10271163Y-16662503D02*
X10252115Y-16672027D01*
X10252115Y-16672027D02*
X10242591Y-16681551D01*
X10242591Y-16681551D02*
X10233067Y-16700598D01*
X10414020Y-16586313D02*
X10537829Y-16586313D01*
X10537829Y-16586313D02*
X10471163Y-16662503D01*
X10471163Y-16662503D02*
X10499734Y-16662503D01*
X10499734Y-16662503D02*
X10518782Y-16672027D01*
X10518782Y-16672027D02*
X10528305Y-16681551D01*
X10528305Y-16681551D02*
X10537829Y-16700598D01*
X10537829Y-16700598D02*
X10537829Y-16748217D01*
X10537829Y-16748217D02*
X10528305Y-16767265D01*
X10528305Y-16767265D02*
X10518782Y-16776789D01*
X10518782Y-16776789D02*
X10499734Y-16786313D01*
X10499734Y-16786313D02*
X10442591Y-16786313D01*
X10442591Y-16786313D02*
X10423544Y-16776789D01*
X10423544Y-16776789D02*
X10414020Y-16767265D01*
X10775925Y-16786313D02*
X10775925Y-16586313D01*
X10861639Y-16786313D02*
X10861639Y-16681551D01*
X10861639Y-16681551D02*
X10852115Y-16662503D01*
X10852115Y-16662503D02*
X10833067Y-16652979D01*
X10833067Y-16652979D02*
X10804496Y-16652979D01*
X10804496Y-16652979D02*
X10785448Y-16662503D01*
X10785448Y-16662503D02*
X10775925Y-16672027D01*
X10985448Y-16786313D02*
X10966401Y-16776789D01*
X10966401Y-16776789D02*
X10956877Y-16767265D01*
X10956877Y-16767265D02*
X10947353Y-16748217D01*
X10947353Y-16748217D02*
X10947353Y-16691074D01*
X10947353Y-16691074D02*
X10956877Y-16672027D01*
X10956877Y-16672027D02*
X10966401Y-16662503D01*
X10966401Y-16662503D02*
X10985448Y-16652979D01*
X10985448Y-16652979D02*
X11014020Y-16652979D01*
X11014020Y-16652979D02*
X11033067Y-16662503D01*
X11033067Y-16662503D02*
X11042591Y-16672027D01*
X11042591Y-16672027D02*
X11052115Y-16691074D01*
X11052115Y-16691074D02*
X11052115Y-16748217D01*
X11052115Y-16748217D02*
X11042591Y-16767265D01*
X11042591Y-16767265D02*
X11033067Y-16776789D01*
X11033067Y-16776789D02*
X11014020Y-16786313D01*
X11014020Y-16786313D02*
X10985448Y-16786313D01*
X11166401Y-16786313D02*
X11147353Y-16776789D01*
X11147353Y-16776789D02*
X11137829Y-16757741D01*
X11137829Y-16757741D02*
X11137829Y-16586313D01*
X11318782Y-16776789D02*
X11299734Y-16786313D01*
X11299734Y-16786313D02*
X11261639Y-16786313D01*
X11261639Y-16786313D02*
X11242591Y-16776789D01*
X11242591Y-16776789D02*
X11233067Y-16757741D01*
X11233067Y-16757741D02*
X11233067Y-16681551D01*
X11233067Y-16681551D02*
X11242591Y-16662503D01*
X11242591Y-16662503D02*
X11261639Y-16652979D01*
X11261639Y-16652979D02*
X11299734Y-16652979D01*
X11299734Y-16652979D02*
X11318782Y-16662503D01*
X11318782Y-16662503D02*
X11328305Y-16681551D01*
X11328305Y-16681551D02*
X11328305Y-16700598D01*
X11328305Y-16700598D02*
X11233067Y-16719646D01*
X11404496Y-16776789D02*
X11423544Y-16786313D01*
X11423544Y-16786313D02*
X11461639Y-16786313D01*
X11461639Y-16786313D02*
X11480686Y-16776789D01*
X11480686Y-16776789D02*
X11490210Y-16757741D01*
X11490210Y-16757741D02*
X11490210Y-16748217D01*
X11490210Y-16748217D02*
X11480686Y-16729170D01*
X11480686Y-16729170D02*
X11461639Y-16719646D01*
X11461639Y-16719646D02*
X11433067Y-16719646D01*
X11433067Y-16719646D02*
X11414020Y-16710122D01*
X11414020Y-16710122D02*
X11404496Y-16691074D01*
X11404496Y-16691074D02*
X11404496Y-16681551D01*
X11404496Y-16681551D02*
X11414020Y-16662503D01*
X11414020Y-16662503D02*
X11433067Y-16652979D01*
X11433067Y-16652979D02*
X11461639Y-16652979D01*
X11461639Y-16652979D02*
X11480686Y-16662503D01*
X11556877Y-16862503D02*
X11566401Y-16852979D01*
X11566401Y-16852979D02*
X11585448Y-16824408D01*
X11585448Y-16824408D02*
X11594972Y-16805360D01*
X11594972Y-16805360D02*
X11604496Y-16776789D01*
X11604496Y-16776789D02*
X11614020Y-16729170D01*
X11614020Y-16729170D02*
X11614020Y-16691074D01*
X11614020Y-16691074D02*
X11604496Y-16643455D01*
X11604496Y-16643455D02*
X11594972Y-16614884D01*
X11594972Y-16614884D02*
X11585448Y-16595836D01*
X11585448Y-16595836D02*
X11566401Y-16567265D01*
X11566401Y-16567265D02*
X11556877Y-16557741D01*
X11918782Y-16862503D02*
X11909258Y-16852979D01*
X11909258Y-16852979D02*
X11890210Y-16824408D01*
X11890210Y-16824408D02*
X11880686Y-16805360D01*
X11880686Y-16805360D02*
X11871163Y-16776789D01*
X11871163Y-16776789D02*
X11861639Y-16729170D01*
X11861639Y-16729170D02*
X11861639Y-16691074D01*
X11861639Y-16691074D02*
X11871163Y-16643455D01*
X11871163Y-16643455D02*
X11880686Y-16614884D01*
X11880686Y-16614884D02*
X11890210Y-16595836D01*
X11890210Y-16595836D02*
X11909258Y-16567265D01*
X11909258Y-16567265D02*
X11918782Y-16557741D01*
X11994972Y-16652979D02*
X11994972Y-16786313D01*
X11994972Y-16672027D02*
X12004496Y-16662503D01*
X12004496Y-16662503D02*
X12023544Y-16652979D01*
X12023544Y-16652979D02*
X12052115Y-16652979D01*
X12052115Y-16652979D02*
X12071163Y-16662503D01*
X12071163Y-16662503D02*
X12080686Y-16681551D01*
X12080686Y-16681551D02*
X12080686Y-16786313D01*
X12204496Y-16786313D02*
X12185448Y-16776789D01*
X12185448Y-16776789D02*
X12175925Y-16767265D01*
X12175925Y-16767265D02*
X12166401Y-16748217D01*
X12166401Y-16748217D02*
X12166401Y-16691074D01*
X12166401Y-16691074D02*
X12175925Y-16672027D01*
X12175925Y-16672027D02*
X12185448Y-16662503D01*
X12185448Y-16662503D02*
X12204496Y-16652979D01*
X12204496Y-16652979D02*
X12233067Y-16652979D01*
X12233067Y-16652979D02*
X12252115Y-16662503D01*
X12252115Y-16662503D02*
X12261639Y-16672027D01*
X12261639Y-16672027D02*
X12271163Y-16691074D01*
X12271163Y-16691074D02*
X12271163Y-16748217D01*
X12271163Y-16748217D02*
X12261639Y-16767265D01*
X12261639Y-16767265D02*
X12252115Y-16776789D01*
X12252115Y-16776789D02*
X12233067Y-16786313D01*
X12233067Y-16786313D02*
X12204496Y-16786313D01*
X12328306Y-16652979D02*
X12404496Y-16652979D01*
X12356877Y-16586313D02*
X12356877Y-16757741D01*
X12356877Y-16757741D02*
X12366401Y-16776789D01*
X12366401Y-16776789D02*
X12385448Y-16786313D01*
X12385448Y-16786313D02*
X12404496Y-16786313D01*
X12623544Y-16652979D02*
X12623544Y-16852979D01*
X12623544Y-16662503D02*
X12642591Y-16652979D01*
X12642591Y-16652979D02*
X12680687Y-16652979D01*
X12680687Y-16652979D02*
X12699734Y-16662503D01*
X12699734Y-16662503D02*
X12709258Y-16672027D01*
X12709258Y-16672027D02*
X12718782Y-16691074D01*
X12718782Y-16691074D02*
X12718782Y-16748217D01*
X12718782Y-16748217D02*
X12709258Y-16767265D01*
X12709258Y-16767265D02*
X12699734Y-16776789D01*
X12699734Y-16776789D02*
X12680687Y-16786313D01*
X12680687Y-16786313D02*
X12642591Y-16786313D01*
X12642591Y-16786313D02*
X12623544Y-16776789D01*
X12833067Y-16786313D02*
X12814020Y-16776789D01*
X12814020Y-16776789D02*
X12804496Y-16757741D01*
X12804496Y-16757741D02*
X12804496Y-16586313D01*
X12994972Y-16786313D02*
X12994972Y-16681551D01*
X12994972Y-16681551D02*
X12985448Y-16662503D01*
X12985448Y-16662503D02*
X12966401Y-16652979D01*
X12966401Y-16652979D02*
X12928306Y-16652979D01*
X12928306Y-16652979D02*
X12909258Y-16662503D01*
X12994972Y-16776789D02*
X12975925Y-16786313D01*
X12975925Y-16786313D02*
X12928306Y-16786313D01*
X12928306Y-16786313D02*
X12909258Y-16776789D01*
X12909258Y-16776789D02*
X12899734Y-16757741D01*
X12899734Y-16757741D02*
X12899734Y-16738693D01*
X12899734Y-16738693D02*
X12909258Y-16719646D01*
X12909258Y-16719646D02*
X12928306Y-16710122D01*
X12928306Y-16710122D02*
X12975925Y-16710122D01*
X12975925Y-16710122D02*
X12994972Y-16700598D01*
X13061639Y-16652979D02*
X13137829Y-16652979D01*
X13090210Y-16586313D02*
X13090210Y-16757741D01*
X13090210Y-16757741D02*
X13099734Y-16776789D01*
X13099734Y-16776789D02*
X13118782Y-16786313D01*
X13118782Y-16786313D02*
X13137829Y-16786313D01*
X13280687Y-16776789D02*
X13261639Y-16786313D01*
X13261639Y-16786313D02*
X13223544Y-16786313D01*
X13223544Y-16786313D02*
X13204496Y-16776789D01*
X13204496Y-16776789D02*
X13194972Y-16757741D01*
X13194972Y-16757741D02*
X13194972Y-16681551D01*
X13194972Y-16681551D02*
X13204496Y-16662503D01*
X13204496Y-16662503D02*
X13223544Y-16652979D01*
X13223544Y-16652979D02*
X13261639Y-16652979D01*
X13261639Y-16652979D02*
X13280687Y-16662503D01*
X13280687Y-16662503D02*
X13290210Y-16681551D01*
X13290210Y-16681551D02*
X13290210Y-16700598D01*
X13290210Y-16700598D02*
X13194972Y-16719646D01*
X13461639Y-16786313D02*
X13461639Y-16586313D01*
X13461639Y-16776789D02*
X13442591Y-16786313D01*
X13442591Y-16786313D02*
X13404496Y-16786313D01*
X13404496Y-16786313D02*
X13385448Y-16776789D01*
X13385448Y-16776789D02*
X13375925Y-16767265D01*
X13375925Y-16767265D02*
X13366401Y-16748217D01*
X13366401Y-16748217D02*
X13366401Y-16691074D01*
X13366401Y-16691074D02*
X13375925Y-16672027D01*
X13375925Y-16672027D02*
X13385448Y-16662503D01*
X13385448Y-16662503D02*
X13404496Y-16652979D01*
X13404496Y-16652979D02*
X13442591Y-16652979D01*
X13442591Y-16652979D02*
X13461639Y-16662503D01*
X13537829Y-16862503D02*
X13547353Y-16852979D01*
X13547353Y-16852979D02*
X13566401Y-16824408D01*
X13566401Y-16824408D02*
X13575925Y-16805360D01*
X13575925Y-16805360D02*
X13585448Y-16776789D01*
X13585448Y-16776789D02*
X13594972Y-16729170D01*
X13594972Y-16729170D02*
X13594972Y-16691074D01*
X13594972Y-16691074D02*
X13585448Y-16643455D01*
X13585448Y-16643455D02*
X13575925Y-16614884D01*
X13575925Y-16614884D02*
X13566401Y-16595836D01*
X13566401Y-16595836D02*
X13547353Y-16567265D01*
X13547353Y-16567265D02*
X13537829Y-16557741D01*
X6562049Y-17085540D02*
X6562049Y-16944117D01*
X6420626Y-16944117D01*
X6420626Y-17085540D01*
X6562049Y-17085540D01*
X6833067Y-16906313D02*
X6956876Y-16906313D01*
X6956876Y-16906313D02*
X6890210Y-16982503D01*
X6890210Y-16982503D02*
X6918781Y-16982503D01*
X6918781Y-16982503D02*
X6937829Y-16992027D01*
X6937829Y-16992027D02*
X6947353Y-17001551D01*
X6947353Y-17001551D02*
X6956876Y-17020598D01*
X6956876Y-17020598D02*
X6956876Y-17068217D01*
X6956876Y-17068217D02*
X6947353Y-17087265D01*
X6947353Y-17087265D02*
X6937829Y-17096789D01*
X6937829Y-17096789D02*
X6918781Y-17106313D01*
X6918781Y-17106313D02*
X6861638Y-17106313D01*
X6861638Y-17106313D02*
X6842591Y-17096789D01*
X6842591Y-17096789D02*
X6833067Y-17087265D01*
X7042591Y-17087265D02*
X7052115Y-17096789D01*
X7052115Y-17096789D02*
X7042591Y-17106313D01*
X7042591Y-17106313D02*
X7033067Y-17096789D01*
X7033067Y-17096789D02*
X7042591Y-17087265D01*
X7042591Y-17087265D02*
X7042591Y-17106313D01*
X7223543Y-16972979D02*
X7223543Y-17106313D01*
X7175924Y-16896789D02*
X7128305Y-17039646D01*
X7128305Y-17039646D02*
X7252115Y-17039646D01*
X7366400Y-16906313D02*
X7385448Y-16906313D01*
X7385448Y-16906313D02*
X7404496Y-16915836D01*
X7404496Y-16915836D02*
X7414019Y-16925360D01*
X7414019Y-16925360D02*
X7423543Y-16944408D01*
X7423543Y-16944408D02*
X7433067Y-16982503D01*
X7433067Y-16982503D02*
X7433067Y-17030122D01*
X7433067Y-17030122D02*
X7423543Y-17068217D01*
X7423543Y-17068217D02*
X7414019Y-17087265D01*
X7414019Y-17087265D02*
X7404496Y-17096789D01*
X7404496Y-17096789D02*
X7385448Y-17106313D01*
X7385448Y-17106313D02*
X7366400Y-17106313D01*
X7366400Y-17106313D02*
X7347353Y-17096789D01*
X7347353Y-17096789D02*
X7337829Y-17087265D01*
X7337829Y-17087265D02*
X7328305Y-17068217D01*
X7328305Y-17068217D02*
X7318781Y-17030122D01*
X7318781Y-17030122D02*
X7318781Y-16982503D01*
X7318781Y-16982503D02*
X7328305Y-16944408D01*
X7328305Y-16944408D02*
X7337829Y-16925360D01*
X7337829Y-16925360D02*
X7347353Y-16915836D01*
X7347353Y-16915836D02*
X7366400Y-16906313D01*
X7556876Y-16906313D02*
X7575924Y-16906313D01*
X7575924Y-16906313D02*
X7594972Y-16915836D01*
X7594972Y-16915836D02*
X7604496Y-16925360D01*
X7604496Y-16925360D02*
X7614019Y-16944408D01*
X7614019Y-16944408D02*
X7623543Y-16982503D01*
X7623543Y-16982503D02*
X7623543Y-17030122D01*
X7623543Y-17030122D02*
X7614019Y-17068217D01*
X7614019Y-17068217D02*
X7604496Y-17087265D01*
X7604496Y-17087265D02*
X7594972Y-17096789D01*
X7594972Y-17096789D02*
X7575924Y-17106313D01*
X7575924Y-17106313D02*
X7556876Y-17106313D01*
X7556876Y-17106313D02*
X7537829Y-17096789D01*
X7537829Y-17096789D02*
X7528305Y-17087265D01*
X7528305Y-17087265D02*
X7518781Y-17068217D01*
X7518781Y-17068217D02*
X7509257Y-17030122D01*
X7509257Y-17030122D02*
X7509257Y-16982503D01*
X7509257Y-16982503D02*
X7518781Y-16944408D01*
X7518781Y-16944408D02*
X7528305Y-16925360D01*
X7528305Y-16925360D02*
X7537829Y-16915836D01*
X7537829Y-16915836D02*
X7556876Y-16906313D01*
X7709257Y-17106313D02*
X7709257Y-16972979D01*
X7709257Y-16992027D02*
X7718781Y-16982503D01*
X7718781Y-16982503D02*
X7737829Y-16972979D01*
X7737829Y-16972979D02*
X7766400Y-16972979D01*
X7766400Y-16972979D02*
X7785448Y-16982503D01*
X7785448Y-16982503D02*
X7794972Y-17001551D01*
X7794972Y-17001551D02*
X7794972Y-17106313D01*
X7794972Y-17001551D02*
X7804496Y-16982503D01*
X7804496Y-16982503D02*
X7823543Y-16972979D01*
X7823543Y-16972979D02*
X7852115Y-16972979D01*
X7852115Y-16972979D02*
X7871162Y-16982503D01*
X7871162Y-16982503D02*
X7880686Y-17001551D01*
X7880686Y-17001551D02*
X7880686Y-17106313D01*
X7975924Y-17106313D02*
X7975924Y-16972979D01*
X7975924Y-16992027D02*
X7985448Y-16982503D01*
X7985448Y-16982503D02*
X8004496Y-16972979D01*
X8004496Y-16972979D02*
X8033067Y-16972979D01*
X8033067Y-16972979D02*
X8052115Y-16982503D01*
X8052115Y-16982503D02*
X8061638Y-17001551D01*
X8061638Y-17001551D02*
X8061638Y-17106313D01*
X8061638Y-17001551D02*
X8071162Y-16982503D01*
X8071162Y-16982503D02*
X8090210Y-16972979D01*
X8090210Y-16972979D02*
X8118781Y-16972979D01*
X8118781Y-16972979D02*
X8137829Y-16982503D01*
X8137829Y-16982503D02*
X8147353Y-17001551D01*
X8147353Y-17001551D02*
X8147353Y-17106313D01*
X8537829Y-16896789D02*
X8366400Y-17153932D01*
X8794972Y-16906313D02*
X8814020Y-16906313D01*
X8814020Y-16906313D02*
X8833067Y-16915836D01*
X8833067Y-16915836D02*
X8842591Y-16925360D01*
X8842591Y-16925360D02*
X8852115Y-16944408D01*
X8852115Y-16944408D02*
X8861639Y-16982503D01*
X8861639Y-16982503D02*
X8861639Y-17030122D01*
X8861639Y-17030122D02*
X8852115Y-17068217D01*
X8852115Y-17068217D02*
X8842591Y-17087265D01*
X8842591Y-17087265D02*
X8833067Y-17096789D01*
X8833067Y-17096789D02*
X8814020Y-17106313D01*
X8814020Y-17106313D02*
X8794972Y-17106313D01*
X8794972Y-17106313D02*
X8775924Y-17096789D01*
X8775924Y-17096789D02*
X8766401Y-17087265D01*
X8766401Y-17087265D02*
X8756877Y-17068217D01*
X8756877Y-17068217D02*
X8747353Y-17030122D01*
X8747353Y-17030122D02*
X8747353Y-16982503D01*
X8747353Y-16982503D02*
X8756877Y-16944408D01*
X8756877Y-16944408D02*
X8766401Y-16925360D01*
X8766401Y-16925360D02*
X8775924Y-16915836D01*
X8775924Y-16915836D02*
X8794972Y-16906313D01*
X8947353Y-17087265D02*
X8956877Y-17096789D01*
X8956877Y-17096789D02*
X8947353Y-17106313D01*
X8947353Y-17106313D02*
X8937829Y-17096789D01*
X8937829Y-17096789D02*
X8947353Y-17087265D01*
X8947353Y-17087265D02*
X8947353Y-17106313D01*
X9147353Y-17106313D02*
X9033067Y-17106313D01*
X9090210Y-17106313D02*
X9090210Y-16906313D01*
X9090210Y-16906313D02*
X9071162Y-16934884D01*
X9071162Y-16934884D02*
X9052115Y-16953932D01*
X9052115Y-16953932D02*
X9033067Y-16963455D01*
X9214020Y-16906313D02*
X9337829Y-16906313D01*
X9337829Y-16906313D02*
X9271162Y-16982503D01*
X9271162Y-16982503D02*
X9299734Y-16982503D01*
X9299734Y-16982503D02*
X9318782Y-16992027D01*
X9318782Y-16992027D02*
X9328305Y-17001551D01*
X9328305Y-17001551D02*
X9337829Y-17020598D01*
X9337829Y-17020598D02*
X9337829Y-17068217D01*
X9337829Y-17068217D02*
X9328305Y-17087265D01*
X9328305Y-17087265D02*
X9318782Y-17096789D01*
X9318782Y-17096789D02*
X9299734Y-17106313D01*
X9299734Y-17106313D02*
X9242591Y-17106313D01*
X9242591Y-17106313D02*
X9223543Y-17096789D01*
X9223543Y-17096789D02*
X9214020Y-17087265D01*
X9404496Y-16906313D02*
X9528305Y-16906313D01*
X9528305Y-16906313D02*
X9461639Y-16982503D01*
X9461639Y-16982503D02*
X9490210Y-16982503D01*
X9490210Y-16982503D02*
X9509258Y-16992027D01*
X9509258Y-16992027D02*
X9518782Y-17001551D01*
X9518782Y-17001551D02*
X9528305Y-17020598D01*
X9528305Y-17020598D02*
X9528305Y-17068217D01*
X9528305Y-17068217D02*
X9518782Y-17087265D01*
X9518782Y-17087265D02*
X9509258Y-17096789D01*
X9509258Y-17096789D02*
X9490210Y-17106313D01*
X9490210Y-17106313D02*
X9433067Y-17106313D01*
X9433067Y-17106313D02*
X9414020Y-17096789D01*
X9414020Y-17096789D02*
X9404496Y-17087265D01*
X9623543Y-17106313D02*
X9661639Y-17106313D01*
X9661639Y-17106313D02*
X9680686Y-17096789D01*
X9680686Y-17096789D02*
X9690210Y-17087265D01*
X9690210Y-17087265D02*
X9709258Y-17058694D01*
X9709258Y-17058694D02*
X9718782Y-17020598D01*
X9718782Y-17020598D02*
X9718782Y-16944408D01*
X9718782Y-16944408D02*
X9709258Y-16925360D01*
X9709258Y-16925360D02*
X9699734Y-16915836D01*
X9699734Y-16915836D02*
X9680686Y-16906313D01*
X9680686Y-16906313D02*
X9642591Y-16906313D01*
X9642591Y-16906313D02*
X9623543Y-16915836D01*
X9623543Y-16915836D02*
X9614020Y-16925360D01*
X9614020Y-16925360D02*
X9604496Y-16944408D01*
X9604496Y-16944408D02*
X9604496Y-16992027D01*
X9604496Y-16992027D02*
X9614020Y-17011075D01*
X9614020Y-17011075D02*
X9623543Y-17020598D01*
X9623543Y-17020598D02*
X9642591Y-17030122D01*
X9642591Y-17030122D02*
X9680686Y-17030122D01*
X9680686Y-17030122D02*
X9699734Y-17020598D01*
X9699734Y-17020598D02*
X9709258Y-17011075D01*
X9709258Y-17011075D02*
X9718782Y-16992027D01*
X9794972Y-16906313D02*
X9794972Y-16944408D01*
X9871163Y-16906313D02*
X9871163Y-16944408D01*
X10166401Y-17182503D02*
X10156877Y-17172979D01*
X10156877Y-17172979D02*
X10137829Y-17144408D01*
X10137829Y-17144408D02*
X10128305Y-17125360D01*
X10128305Y-17125360D02*
X10118782Y-17096789D01*
X10118782Y-17096789D02*
X10109258Y-17049170D01*
X10109258Y-17049170D02*
X10109258Y-17011075D01*
X10109258Y-17011075D02*
X10118782Y-16963455D01*
X10118782Y-16963455D02*
X10128305Y-16934884D01*
X10128305Y-16934884D02*
X10137829Y-16915836D01*
X10137829Y-16915836D02*
X10156877Y-16887265D01*
X10156877Y-16887265D02*
X10166401Y-16877741D01*
X10233067Y-16925360D02*
X10242591Y-16915836D01*
X10242591Y-16915836D02*
X10261639Y-16906313D01*
X10261639Y-16906313D02*
X10309258Y-16906313D01*
X10309258Y-16906313D02*
X10328305Y-16915836D01*
X10328305Y-16915836D02*
X10337829Y-16925360D01*
X10337829Y-16925360D02*
X10347353Y-16944408D01*
X10347353Y-16944408D02*
X10347353Y-16963455D01*
X10347353Y-16963455D02*
X10337829Y-16992027D01*
X10337829Y-16992027D02*
X10223544Y-17106313D01*
X10223544Y-17106313D02*
X10347353Y-17106313D01*
X10537829Y-17106313D02*
X10423544Y-17106313D01*
X10480686Y-17106313D02*
X10480686Y-16906313D01*
X10480686Y-16906313D02*
X10461639Y-16934884D01*
X10461639Y-16934884D02*
X10442591Y-16953932D01*
X10442591Y-16953932D02*
X10423544Y-16963455D01*
X10775925Y-17106313D02*
X10775925Y-16906313D01*
X10861639Y-17106313D02*
X10861639Y-17001551D01*
X10861639Y-17001551D02*
X10852115Y-16982503D01*
X10852115Y-16982503D02*
X10833067Y-16972979D01*
X10833067Y-16972979D02*
X10804496Y-16972979D01*
X10804496Y-16972979D02*
X10785448Y-16982503D01*
X10785448Y-16982503D02*
X10775925Y-16992027D01*
X10985448Y-17106313D02*
X10966401Y-17096789D01*
X10966401Y-17096789D02*
X10956877Y-17087265D01*
X10956877Y-17087265D02*
X10947353Y-17068217D01*
X10947353Y-17068217D02*
X10947353Y-17011075D01*
X10947353Y-17011075D02*
X10956877Y-16992027D01*
X10956877Y-16992027D02*
X10966401Y-16982503D01*
X10966401Y-16982503D02*
X10985448Y-16972979D01*
X10985448Y-16972979D02*
X11014020Y-16972979D01*
X11014020Y-16972979D02*
X11033067Y-16982503D01*
X11033067Y-16982503D02*
X11042591Y-16992027D01*
X11042591Y-16992027D02*
X11052115Y-17011075D01*
X11052115Y-17011075D02*
X11052115Y-17068217D01*
X11052115Y-17068217D02*
X11042591Y-17087265D01*
X11042591Y-17087265D02*
X11033067Y-17096789D01*
X11033067Y-17096789D02*
X11014020Y-17106313D01*
X11014020Y-17106313D02*
X10985448Y-17106313D01*
X11166401Y-17106313D02*
X11147353Y-17096789D01*
X11147353Y-17096789D02*
X11137829Y-17077741D01*
X11137829Y-17077741D02*
X11137829Y-16906313D01*
X11318782Y-17096789D02*
X11299734Y-17106313D01*
X11299734Y-17106313D02*
X11261639Y-17106313D01*
X11261639Y-17106313D02*
X11242591Y-17096789D01*
X11242591Y-17096789D02*
X11233067Y-17077741D01*
X11233067Y-17077741D02*
X11233067Y-17001551D01*
X11233067Y-17001551D02*
X11242591Y-16982503D01*
X11242591Y-16982503D02*
X11261639Y-16972979D01*
X11261639Y-16972979D02*
X11299734Y-16972979D01*
X11299734Y-16972979D02*
X11318782Y-16982503D01*
X11318782Y-16982503D02*
X11328305Y-17001551D01*
X11328305Y-17001551D02*
X11328305Y-17020598D01*
X11328305Y-17020598D02*
X11233067Y-17039646D01*
X11404496Y-17096789D02*
X11423544Y-17106313D01*
X11423544Y-17106313D02*
X11461639Y-17106313D01*
X11461639Y-17106313D02*
X11480686Y-17096789D01*
X11480686Y-17096789D02*
X11490210Y-17077741D01*
X11490210Y-17077741D02*
X11490210Y-17068217D01*
X11490210Y-17068217D02*
X11480686Y-17049170D01*
X11480686Y-17049170D02*
X11461639Y-17039646D01*
X11461639Y-17039646D02*
X11433067Y-17039646D01*
X11433067Y-17039646D02*
X11414020Y-17030122D01*
X11414020Y-17030122D02*
X11404496Y-17011075D01*
X11404496Y-17011075D02*
X11404496Y-17001551D01*
X11404496Y-17001551D02*
X11414020Y-16982503D01*
X11414020Y-16982503D02*
X11433067Y-16972979D01*
X11433067Y-16972979D02*
X11461639Y-16972979D01*
X11461639Y-16972979D02*
X11480686Y-16982503D01*
X11556877Y-17182503D02*
X11566401Y-17172979D01*
X11566401Y-17172979D02*
X11585448Y-17144408D01*
X11585448Y-17144408D02*
X11594972Y-17125360D01*
X11594972Y-17125360D02*
X11604496Y-17096789D01*
X11604496Y-17096789D02*
X11614020Y-17049170D01*
X11614020Y-17049170D02*
X11614020Y-17011075D01*
X11614020Y-17011075D02*
X11604496Y-16963455D01*
X11604496Y-16963455D02*
X11594972Y-16934884D01*
X11594972Y-16934884D02*
X11585448Y-16915836D01*
X11585448Y-16915836D02*
X11566401Y-16887265D01*
X11566401Y-16887265D02*
X11556877Y-16877741D01*
X11918782Y-17182503D02*
X11909258Y-17172979D01*
X11909258Y-17172979D02*
X11890210Y-17144408D01*
X11890210Y-17144408D02*
X11880686Y-17125360D01*
X11880686Y-17125360D02*
X11871163Y-17096789D01*
X11871163Y-17096789D02*
X11861639Y-17049170D01*
X11861639Y-17049170D02*
X11861639Y-17011075D01*
X11861639Y-17011075D02*
X11871163Y-16963455D01*
X11871163Y-16963455D02*
X11880686Y-16934884D01*
X11880686Y-16934884D02*
X11890210Y-16915836D01*
X11890210Y-16915836D02*
X11909258Y-16887265D01*
X11909258Y-16887265D02*
X11918782Y-16877741D01*
X11994972Y-16972979D02*
X11994972Y-17106313D01*
X11994972Y-16992027D02*
X12004496Y-16982503D01*
X12004496Y-16982503D02*
X12023544Y-16972979D01*
X12023544Y-16972979D02*
X12052115Y-16972979D01*
X12052115Y-16972979D02*
X12071163Y-16982503D01*
X12071163Y-16982503D02*
X12080686Y-17001551D01*
X12080686Y-17001551D02*
X12080686Y-17106313D01*
X12204496Y-17106313D02*
X12185448Y-17096789D01*
X12185448Y-17096789D02*
X12175925Y-17087265D01*
X12175925Y-17087265D02*
X12166401Y-17068217D01*
X12166401Y-17068217D02*
X12166401Y-17011075D01*
X12166401Y-17011075D02*
X12175925Y-16992027D01*
X12175925Y-16992027D02*
X12185448Y-16982503D01*
X12185448Y-16982503D02*
X12204496Y-16972979D01*
X12204496Y-16972979D02*
X12233067Y-16972979D01*
X12233067Y-16972979D02*
X12252115Y-16982503D01*
X12252115Y-16982503D02*
X12261639Y-16992027D01*
X12261639Y-16992027D02*
X12271163Y-17011075D01*
X12271163Y-17011075D02*
X12271163Y-17068217D01*
X12271163Y-17068217D02*
X12261639Y-17087265D01*
X12261639Y-17087265D02*
X12252115Y-17096789D01*
X12252115Y-17096789D02*
X12233067Y-17106313D01*
X12233067Y-17106313D02*
X12204496Y-17106313D01*
X12328306Y-16972979D02*
X12404496Y-16972979D01*
X12356877Y-16906313D02*
X12356877Y-17077741D01*
X12356877Y-17077741D02*
X12366401Y-17096789D01*
X12366401Y-17096789D02*
X12385448Y-17106313D01*
X12385448Y-17106313D02*
X12404496Y-17106313D01*
X12623544Y-16972979D02*
X12623544Y-17172979D01*
X12623544Y-16982503D02*
X12642591Y-16972979D01*
X12642591Y-16972979D02*
X12680687Y-16972979D01*
X12680687Y-16972979D02*
X12699734Y-16982503D01*
X12699734Y-16982503D02*
X12709258Y-16992027D01*
X12709258Y-16992027D02*
X12718782Y-17011075D01*
X12718782Y-17011075D02*
X12718782Y-17068217D01*
X12718782Y-17068217D02*
X12709258Y-17087265D01*
X12709258Y-17087265D02*
X12699734Y-17096789D01*
X12699734Y-17096789D02*
X12680687Y-17106313D01*
X12680687Y-17106313D02*
X12642591Y-17106313D01*
X12642591Y-17106313D02*
X12623544Y-17096789D01*
X12833067Y-17106313D02*
X12814020Y-17096789D01*
X12814020Y-17096789D02*
X12804496Y-17077741D01*
X12804496Y-17077741D02*
X12804496Y-16906313D01*
X12994972Y-17106313D02*
X12994972Y-17001551D01*
X12994972Y-17001551D02*
X12985448Y-16982503D01*
X12985448Y-16982503D02*
X12966401Y-16972979D01*
X12966401Y-16972979D02*
X12928306Y-16972979D01*
X12928306Y-16972979D02*
X12909258Y-16982503D01*
X12994972Y-17096789D02*
X12975925Y-17106313D01*
X12975925Y-17106313D02*
X12928306Y-17106313D01*
X12928306Y-17106313D02*
X12909258Y-17096789D01*
X12909258Y-17096789D02*
X12899734Y-17077741D01*
X12899734Y-17077741D02*
X12899734Y-17058694D01*
X12899734Y-17058694D02*
X12909258Y-17039646D01*
X12909258Y-17039646D02*
X12928306Y-17030122D01*
X12928306Y-17030122D02*
X12975925Y-17030122D01*
X12975925Y-17030122D02*
X12994972Y-17020598D01*
X13061639Y-16972979D02*
X13137829Y-16972979D01*
X13090210Y-16906313D02*
X13090210Y-17077741D01*
X13090210Y-17077741D02*
X13099734Y-17096789D01*
X13099734Y-17096789D02*
X13118782Y-17106313D01*
X13118782Y-17106313D02*
X13137829Y-17106313D01*
X13280687Y-17096789D02*
X13261639Y-17106313D01*
X13261639Y-17106313D02*
X13223544Y-17106313D01*
X13223544Y-17106313D02*
X13204496Y-17096789D01*
X13204496Y-17096789D02*
X13194972Y-17077741D01*
X13194972Y-17077741D02*
X13194972Y-17001551D01*
X13194972Y-17001551D02*
X13204496Y-16982503D01*
X13204496Y-16982503D02*
X13223544Y-16972979D01*
X13223544Y-16972979D02*
X13261639Y-16972979D01*
X13261639Y-16972979D02*
X13280687Y-16982503D01*
X13280687Y-16982503D02*
X13290210Y-17001551D01*
X13290210Y-17001551D02*
X13290210Y-17020598D01*
X13290210Y-17020598D02*
X13194972Y-17039646D01*
X13461639Y-17106313D02*
X13461639Y-16906313D01*
X13461639Y-17096789D02*
X13442591Y-17106313D01*
X13442591Y-17106313D02*
X13404496Y-17106313D01*
X13404496Y-17106313D02*
X13385448Y-17096789D01*
X13385448Y-17096789D02*
X13375925Y-17087265D01*
X13375925Y-17087265D02*
X13366401Y-17068217D01*
X13366401Y-17068217D02*
X13366401Y-17011075D01*
X13366401Y-17011075D02*
X13375925Y-16992027D01*
X13375925Y-16992027D02*
X13385448Y-16982503D01*
X13385448Y-16982503D02*
X13404496Y-16972979D01*
X13404496Y-16972979D02*
X13442591Y-16972979D01*
X13442591Y-16972979D02*
X13461639Y-16982503D01*
X13537829Y-17182503D02*
X13547353Y-17172979D01*
X13547353Y-17172979D02*
X13566401Y-17144408D01*
X13566401Y-17144408D02*
X13575925Y-17125360D01*
X13575925Y-17125360D02*
X13585448Y-17096789D01*
X13585448Y-17096789D02*
X13594972Y-17049170D01*
X13594972Y-17049170D02*
X13594972Y-17011075D01*
X13594972Y-17011075D02*
X13585448Y-16963455D01*
X13585448Y-16963455D02*
X13575925Y-16934884D01*
X13575925Y-16934884D02*
X13566401Y-16915836D01*
X13566401Y-16915836D02*
X13547353Y-16887265D01*
X13547353Y-16887265D02*
X13537829Y-16877741D01*
M02*
