G04 #@! TF.GenerationSoftware,KiCad,Pcbnew,7.0.8*
G04 #@! TF.CreationDate,2024-02-29T00:10:42-05:00*
G04 #@! TF.ProjectId,heawood4,68656177-6f6f-4643-942e-6b696361645f,1.0*
G04 #@! TF.SameCoordinates,Original*
G04 #@! TF.FileFunction,Legend,Top*
G04 #@! TF.FilePolarity,Positive*
%FSLAX46Y46*%
G04 Gerber Fmt 4.6, Leading zero omitted, Abs format (unit mm)*
G04 Created by KiCad (PCBNEW 7.0.8) date 2024-02-29 00:10:42*
%MOMM*%
%LPD*%
G01*
G04 APERTURE LIST*
%ADD10C,0.150000*%
%ADD11C,0.125000*%
%ADD12C,0.120000*%
%ADD13C,1.524000*%
%ADD14C,2.000000*%
%ADD15C,1.397000*%
G04 APERTURE END LIST*
D10*
X115657142Y-82554819D02*
X115180952Y-82554819D01*
X115180952Y-82554819D02*
X115180952Y-81554819D01*
X116514285Y-82554819D02*
X115942857Y-82554819D01*
X116228571Y-82554819D02*
X116228571Y-81554819D01*
X116228571Y-81554819D02*
X116133333Y-81697676D01*
X116133333Y-81697676D02*
X116038095Y-81792914D01*
X116038095Y-81792914D02*
X115942857Y-81840533D01*
X117466666Y-82554819D02*
X116895238Y-82554819D01*
X117180952Y-82554819D02*
X117180952Y-81554819D01*
X117180952Y-81554819D02*
X117085714Y-81697676D01*
X117085714Y-81697676D02*
X116990476Y-81792914D01*
X116990476Y-81792914D02*
X116895238Y-81840533D01*
X170133333Y-85054819D02*
X169657143Y-85054819D01*
X169657143Y-85054819D02*
X169657143Y-84054819D01*
X170609524Y-84483390D02*
X170514286Y-84435771D01*
X170514286Y-84435771D02*
X170466667Y-84388152D01*
X170466667Y-84388152D02*
X170419048Y-84292914D01*
X170419048Y-84292914D02*
X170419048Y-84245295D01*
X170419048Y-84245295D02*
X170466667Y-84150057D01*
X170466667Y-84150057D02*
X170514286Y-84102438D01*
X170514286Y-84102438D02*
X170609524Y-84054819D01*
X170609524Y-84054819D02*
X170800000Y-84054819D01*
X170800000Y-84054819D02*
X170895238Y-84102438D01*
X170895238Y-84102438D02*
X170942857Y-84150057D01*
X170942857Y-84150057D02*
X170990476Y-84245295D01*
X170990476Y-84245295D02*
X170990476Y-84292914D01*
X170990476Y-84292914D02*
X170942857Y-84388152D01*
X170942857Y-84388152D02*
X170895238Y-84435771D01*
X170895238Y-84435771D02*
X170800000Y-84483390D01*
X170800000Y-84483390D02*
X170609524Y-84483390D01*
X170609524Y-84483390D02*
X170514286Y-84531009D01*
X170514286Y-84531009D02*
X170466667Y-84578628D01*
X170466667Y-84578628D02*
X170419048Y-84673866D01*
X170419048Y-84673866D02*
X170419048Y-84864342D01*
X170419048Y-84864342D02*
X170466667Y-84959580D01*
X170466667Y-84959580D02*
X170514286Y-85007200D01*
X170514286Y-85007200D02*
X170609524Y-85054819D01*
X170609524Y-85054819D02*
X170800000Y-85054819D01*
X170800000Y-85054819D02*
X170895238Y-85007200D01*
X170895238Y-85007200D02*
X170942857Y-84959580D01*
X170942857Y-84959580D02*
X170990476Y-84864342D01*
X170990476Y-84864342D02*
X170990476Y-84673866D01*
X170990476Y-84673866D02*
X170942857Y-84578628D01*
X170942857Y-84578628D02*
X170895238Y-84531009D01*
X170895238Y-84531009D02*
X170800000Y-84483390D01*
X97657142Y-104554819D02*
X97180952Y-104554819D01*
X97180952Y-104554819D02*
X97180952Y-103554819D01*
X98514285Y-104554819D02*
X97942857Y-104554819D01*
X98228571Y-104554819D02*
X98228571Y-103554819D01*
X98228571Y-103554819D02*
X98133333Y-103697676D01*
X98133333Y-103697676D02*
X98038095Y-103792914D01*
X98038095Y-103792914D02*
X97942857Y-103840533D01*
X98990476Y-104554819D02*
X99180952Y-104554819D01*
X99180952Y-104554819D02*
X99276190Y-104507200D01*
X99276190Y-104507200D02*
X99323809Y-104459580D01*
X99323809Y-104459580D02*
X99419047Y-104316723D01*
X99419047Y-104316723D02*
X99466666Y-104126247D01*
X99466666Y-104126247D02*
X99466666Y-103745295D01*
X99466666Y-103745295D02*
X99419047Y-103650057D01*
X99419047Y-103650057D02*
X99371428Y-103602438D01*
X99371428Y-103602438D02*
X99276190Y-103554819D01*
X99276190Y-103554819D02*
X99085714Y-103554819D01*
X99085714Y-103554819D02*
X98990476Y-103602438D01*
X98990476Y-103602438D02*
X98942857Y-103650057D01*
X98942857Y-103650057D02*
X98895238Y-103745295D01*
X98895238Y-103745295D02*
X98895238Y-103983390D01*
X98895238Y-103983390D02*
X98942857Y-104078628D01*
X98942857Y-104078628D02*
X98990476Y-104126247D01*
X98990476Y-104126247D02*
X99085714Y-104173866D01*
X99085714Y-104173866D02*
X99276190Y-104173866D01*
X99276190Y-104173866D02*
X99371428Y-104126247D01*
X99371428Y-104126247D02*
X99419047Y-104078628D01*
X99419047Y-104078628D02*
X99466666Y-103983390D01*
X116133333Y-65554819D02*
X115657143Y-65554819D01*
X115657143Y-65554819D02*
X115657143Y-64554819D01*
X116895238Y-64888152D02*
X116895238Y-65554819D01*
X116657143Y-64507200D02*
X116419048Y-65221485D01*
X116419048Y-65221485D02*
X117038095Y-65221485D01*
X161505964Y-121620075D02*
X161046000Y-121496827D01*
X161046000Y-121496827D02*
X161304819Y-120530902D01*
X161994766Y-120715772D02*
X162638717Y-120888318D01*
X162638717Y-120888318D02*
X161965929Y-121743322D01*
X173313868Y-125744205D02*
X173075772Y-126156598D01*
X173075772Y-126156598D02*
X172209747Y-125656598D01*
X173742439Y-125001897D02*
X173456725Y-125496769D01*
X173599582Y-125249333D02*
X172733557Y-124749333D01*
X172733557Y-124749333D02*
X172809656Y-124903240D01*
X172809656Y-124903240D02*
X172844515Y-125033338D01*
X172844515Y-125033338D02*
X172838135Y-125139626D01*
X173593660Y-123926256D02*
X174171011Y-124259590D01*
X173144698Y-123941977D02*
X173644240Y-124505316D01*
X173644240Y-124505316D02*
X173953764Y-123969205D01*
X189563868Y-134994205D02*
X189325772Y-135406598D01*
X189325772Y-135406598D02*
X188459747Y-134906598D01*
X188923178Y-134294388D02*
X188905748Y-134229339D01*
X188905748Y-134229339D02*
X188912128Y-134123051D01*
X188912128Y-134123051D02*
X189031176Y-133916854D01*
X189031176Y-133916854D02*
X189120034Y-133858185D01*
X189120034Y-133858185D02*
X189185083Y-133840755D01*
X189185083Y-133840755D02*
X189291371Y-133847135D01*
X189291371Y-133847135D02*
X189373850Y-133894754D01*
X189373850Y-133894754D02*
X189473758Y-134007422D01*
X189473758Y-134007422D02*
X189682915Y-134788008D01*
X189682915Y-134788008D02*
X189992439Y-134251897D01*
X190468630Y-133427111D02*
X190182915Y-133921983D01*
X190325773Y-133674547D02*
X189459747Y-133174547D01*
X189459747Y-133174547D02*
X189535846Y-133328454D01*
X189535846Y-133328454D02*
X189570706Y-133458552D01*
X189570706Y-133458552D02*
X189564326Y-133564840D01*
X98133333Y-70554819D02*
X97657143Y-70554819D01*
X97657143Y-70554819D02*
X97657143Y-69554819D01*
X98942857Y-69554819D02*
X98466667Y-69554819D01*
X98466667Y-69554819D02*
X98419048Y-70031009D01*
X98419048Y-70031009D02*
X98466667Y-69983390D01*
X98466667Y-69983390D02*
X98561905Y-69935771D01*
X98561905Y-69935771D02*
X98800000Y-69935771D01*
X98800000Y-69935771D02*
X98895238Y-69983390D01*
X98895238Y-69983390D02*
X98942857Y-70031009D01*
X98942857Y-70031009D02*
X98990476Y-70126247D01*
X98990476Y-70126247D02*
X98990476Y-70364342D01*
X98990476Y-70364342D02*
X98942857Y-70459580D01*
X98942857Y-70459580D02*
X98895238Y-70507200D01*
X98895238Y-70507200D02*
X98800000Y-70554819D01*
X98800000Y-70554819D02*
X98561905Y-70554819D01*
X98561905Y-70554819D02*
X98466667Y-70507200D01*
X98466667Y-70507200D02*
X98419048Y-70459580D01*
X134133333Y-63054819D02*
X133657143Y-63054819D01*
X133657143Y-63054819D02*
X133657143Y-62054819D01*
X134371429Y-62054819D02*
X134990476Y-62054819D01*
X134990476Y-62054819D02*
X134657143Y-62435771D01*
X134657143Y-62435771D02*
X134800000Y-62435771D01*
X134800000Y-62435771D02*
X134895238Y-62483390D01*
X134895238Y-62483390D02*
X134942857Y-62531009D01*
X134942857Y-62531009D02*
X134990476Y-62626247D01*
X134990476Y-62626247D02*
X134990476Y-62864342D01*
X134990476Y-62864342D02*
X134942857Y-62959580D01*
X134942857Y-62959580D02*
X134895238Y-63007200D01*
X134895238Y-63007200D02*
X134800000Y-63054819D01*
X134800000Y-63054819D02*
X134514286Y-63054819D01*
X134514286Y-63054819D02*
X134419048Y-63007200D01*
X134419048Y-63007200D02*
X134371429Y-62959580D01*
X152133333Y-65554819D02*
X151657143Y-65554819D01*
X151657143Y-65554819D02*
X151657143Y-64554819D01*
X152419048Y-64650057D02*
X152466667Y-64602438D01*
X152466667Y-64602438D02*
X152561905Y-64554819D01*
X152561905Y-64554819D02*
X152800000Y-64554819D01*
X152800000Y-64554819D02*
X152895238Y-64602438D01*
X152895238Y-64602438D02*
X152942857Y-64650057D01*
X152942857Y-64650057D02*
X152990476Y-64745295D01*
X152990476Y-64745295D02*
X152990476Y-64840533D01*
X152990476Y-64840533D02*
X152942857Y-64983390D01*
X152942857Y-64983390D02*
X152371429Y-65554819D01*
X152371429Y-65554819D02*
X152990476Y-65554819D01*
X170133333Y-68054819D02*
X169657143Y-68054819D01*
X169657143Y-68054819D02*
X169657143Y-67054819D01*
X170990476Y-68054819D02*
X170419048Y-68054819D01*
X170704762Y-68054819D02*
X170704762Y-67054819D01*
X170704762Y-67054819D02*
X170609524Y-67197676D01*
X170609524Y-67197676D02*
X170514286Y-67292914D01*
X170514286Y-67292914D02*
X170419048Y-67340533D01*
X79657142Y-96054819D02*
X79180952Y-96054819D01*
X79180952Y-96054819D02*
X79180952Y-95054819D01*
X80514285Y-96054819D02*
X79942857Y-96054819D01*
X80228571Y-96054819D02*
X80228571Y-95054819D01*
X80228571Y-95054819D02*
X80133333Y-95197676D01*
X80133333Y-95197676D02*
X80038095Y-95292914D01*
X80038095Y-95292914D02*
X79942857Y-95340533D01*
X80847619Y-95054819D02*
X81466666Y-95054819D01*
X81466666Y-95054819D02*
X81133333Y-95435771D01*
X81133333Y-95435771D02*
X81276190Y-95435771D01*
X81276190Y-95435771D02*
X81371428Y-95483390D01*
X81371428Y-95483390D02*
X81419047Y-95531009D01*
X81419047Y-95531009D02*
X81466666Y-95626247D01*
X81466666Y-95626247D02*
X81466666Y-95864342D01*
X81466666Y-95864342D02*
X81419047Y-95959580D01*
X81419047Y-95959580D02*
X81371428Y-96007200D01*
X81371428Y-96007200D02*
X81276190Y-96054819D01*
X81276190Y-96054819D02*
X80990476Y-96054819D01*
X80990476Y-96054819D02*
X80895238Y-96007200D01*
X80895238Y-96007200D02*
X80847619Y-95959580D01*
X97657142Y-87554819D02*
X97180952Y-87554819D01*
X97180952Y-87554819D02*
X97180952Y-86554819D01*
X98514285Y-87554819D02*
X97942857Y-87554819D01*
X98228571Y-87554819D02*
X98228571Y-86554819D01*
X98228571Y-86554819D02*
X98133333Y-86697676D01*
X98133333Y-86697676D02*
X98038095Y-86792914D01*
X98038095Y-86792914D02*
X97942857Y-86840533D01*
X98895238Y-86650057D02*
X98942857Y-86602438D01*
X98942857Y-86602438D02*
X99038095Y-86554819D01*
X99038095Y-86554819D02*
X99276190Y-86554819D01*
X99276190Y-86554819D02*
X99371428Y-86602438D01*
X99371428Y-86602438D02*
X99419047Y-86650057D01*
X99419047Y-86650057D02*
X99466666Y-86745295D01*
X99466666Y-86745295D02*
X99466666Y-86840533D01*
X99466666Y-86840533D02*
X99419047Y-86983390D01*
X99419047Y-86983390D02*
X98847619Y-87554819D01*
X98847619Y-87554819D02*
X99466666Y-87554819D01*
X133657142Y-80054819D02*
X133180952Y-80054819D01*
X133180952Y-80054819D02*
X133180952Y-79054819D01*
X134514285Y-80054819D02*
X133942857Y-80054819D01*
X134228571Y-80054819D02*
X134228571Y-79054819D01*
X134228571Y-79054819D02*
X134133333Y-79197676D01*
X134133333Y-79197676D02*
X134038095Y-79292914D01*
X134038095Y-79292914D02*
X133942857Y-79340533D01*
X135133333Y-79054819D02*
X135228571Y-79054819D01*
X135228571Y-79054819D02*
X135323809Y-79102438D01*
X135323809Y-79102438D02*
X135371428Y-79150057D01*
X135371428Y-79150057D02*
X135419047Y-79245295D01*
X135419047Y-79245295D02*
X135466666Y-79435771D01*
X135466666Y-79435771D02*
X135466666Y-79673866D01*
X135466666Y-79673866D02*
X135419047Y-79864342D01*
X135419047Y-79864342D02*
X135371428Y-79959580D01*
X135371428Y-79959580D02*
X135323809Y-80007200D01*
X135323809Y-80007200D02*
X135228571Y-80054819D01*
X135228571Y-80054819D02*
X135133333Y-80054819D01*
X135133333Y-80054819D02*
X135038095Y-80007200D01*
X135038095Y-80007200D02*
X134990476Y-79959580D01*
X134990476Y-79959580D02*
X134942857Y-79864342D01*
X134942857Y-79864342D02*
X134895238Y-79673866D01*
X134895238Y-79673866D02*
X134895238Y-79435771D01*
X134895238Y-79435771D02*
X134942857Y-79245295D01*
X134942857Y-79245295D02*
X134990476Y-79150057D01*
X134990476Y-79150057D02*
X135038095Y-79102438D01*
X135038095Y-79102438D02*
X135133333Y-79054819D01*
X152133333Y-82554819D02*
X151657143Y-82554819D01*
X151657143Y-82554819D02*
X151657143Y-81554819D01*
X152514286Y-82554819D02*
X152704762Y-82554819D01*
X152704762Y-82554819D02*
X152800000Y-82507200D01*
X152800000Y-82507200D02*
X152847619Y-82459580D01*
X152847619Y-82459580D02*
X152942857Y-82316723D01*
X152942857Y-82316723D02*
X152990476Y-82126247D01*
X152990476Y-82126247D02*
X152990476Y-81745295D01*
X152990476Y-81745295D02*
X152942857Y-81650057D01*
X152942857Y-81650057D02*
X152895238Y-81602438D01*
X152895238Y-81602438D02*
X152800000Y-81554819D01*
X152800000Y-81554819D02*
X152609524Y-81554819D01*
X152609524Y-81554819D02*
X152514286Y-81602438D01*
X152514286Y-81602438D02*
X152466667Y-81650057D01*
X152466667Y-81650057D02*
X152419048Y-81745295D01*
X152419048Y-81745295D02*
X152419048Y-81983390D01*
X152419048Y-81983390D02*
X152466667Y-82078628D01*
X152466667Y-82078628D02*
X152514286Y-82126247D01*
X152514286Y-82126247D02*
X152609524Y-82173866D01*
X152609524Y-82173866D02*
X152800000Y-82173866D01*
X152800000Y-82173866D02*
X152895238Y-82126247D01*
X152895238Y-82126247D02*
X152942857Y-82078628D01*
X152942857Y-82078628D02*
X152990476Y-81983390D01*
X138907142Y-117054819D02*
X138430952Y-117054819D01*
X138430952Y-117054819D02*
X138430952Y-116054819D01*
X139192857Y-116150057D02*
X139240476Y-116102438D01*
X139240476Y-116102438D02*
X139335714Y-116054819D01*
X139335714Y-116054819D02*
X139573809Y-116054819D01*
X139573809Y-116054819D02*
X139669047Y-116102438D01*
X139669047Y-116102438D02*
X139716666Y-116150057D01*
X139716666Y-116150057D02*
X139764285Y-116245295D01*
X139764285Y-116245295D02*
X139764285Y-116340533D01*
X139764285Y-116340533D02*
X139716666Y-116483390D01*
X139716666Y-116483390D02*
X139145238Y-117054819D01*
X139145238Y-117054819D02*
X139764285Y-117054819D01*
X140383333Y-116054819D02*
X140478571Y-116054819D01*
X140478571Y-116054819D02*
X140573809Y-116102438D01*
X140573809Y-116102438D02*
X140621428Y-116150057D01*
X140621428Y-116150057D02*
X140669047Y-116245295D01*
X140669047Y-116245295D02*
X140716666Y-116435771D01*
X140716666Y-116435771D02*
X140716666Y-116673866D01*
X140716666Y-116673866D02*
X140669047Y-116864342D01*
X140669047Y-116864342D02*
X140621428Y-116959580D01*
X140621428Y-116959580D02*
X140573809Y-117007200D01*
X140573809Y-117007200D02*
X140478571Y-117054819D01*
X140478571Y-117054819D02*
X140383333Y-117054819D01*
X140383333Y-117054819D02*
X140288095Y-117007200D01*
X140288095Y-117007200D02*
X140240476Y-116959580D01*
X140240476Y-116959580D02*
X140192857Y-116864342D01*
X140192857Y-116864342D02*
X140145238Y-116673866D01*
X140145238Y-116673866D02*
X140145238Y-116435771D01*
X140145238Y-116435771D02*
X140192857Y-116245295D01*
X140192857Y-116245295D02*
X140240476Y-116150057D01*
X140240476Y-116150057D02*
X140288095Y-116102438D01*
X140288095Y-116102438D02*
X140383333Y-116054819D01*
X115657142Y-99554819D02*
X115180952Y-99554819D01*
X115180952Y-99554819D02*
X115180952Y-98554819D01*
X116514285Y-99554819D02*
X115942857Y-99554819D01*
X116228571Y-99554819D02*
X116228571Y-98554819D01*
X116228571Y-98554819D02*
X116133333Y-98697676D01*
X116133333Y-98697676D02*
X116038095Y-98792914D01*
X116038095Y-98792914D02*
X115942857Y-98840533D01*
X117085714Y-98983390D02*
X116990476Y-98935771D01*
X116990476Y-98935771D02*
X116942857Y-98888152D01*
X116942857Y-98888152D02*
X116895238Y-98792914D01*
X116895238Y-98792914D02*
X116895238Y-98745295D01*
X116895238Y-98745295D02*
X116942857Y-98650057D01*
X116942857Y-98650057D02*
X116990476Y-98602438D01*
X116990476Y-98602438D02*
X117085714Y-98554819D01*
X117085714Y-98554819D02*
X117276190Y-98554819D01*
X117276190Y-98554819D02*
X117371428Y-98602438D01*
X117371428Y-98602438D02*
X117419047Y-98650057D01*
X117419047Y-98650057D02*
X117466666Y-98745295D01*
X117466666Y-98745295D02*
X117466666Y-98792914D01*
X117466666Y-98792914D02*
X117419047Y-98888152D01*
X117419047Y-98888152D02*
X117371428Y-98935771D01*
X117371428Y-98935771D02*
X117276190Y-98983390D01*
X117276190Y-98983390D02*
X117085714Y-98983390D01*
X117085714Y-98983390D02*
X116990476Y-99031009D01*
X116990476Y-99031009D02*
X116942857Y-99078628D01*
X116942857Y-99078628D02*
X116895238Y-99173866D01*
X116895238Y-99173866D02*
X116895238Y-99364342D01*
X116895238Y-99364342D02*
X116942857Y-99459580D01*
X116942857Y-99459580D02*
X116990476Y-99507200D01*
X116990476Y-99507200D02*
X117085714Y-99554819D01*
X117085714Y-99554819D02*
X117276190Y-99554819D01*
X117276190Y-99554819D02*
X117371428Y-99507200D01*
X117371428Y-99507200D02*
X117419047Y-99459580D01*
X117419047Y-99459580D02*
X117466666Y-99364342D01*
X117466666Y-99364342D02*
X117466666Y-99173866D01*
X117466666Y-99173866D02*
X117419047Y-99078628D01*
X117419047Y-99078628D02*
X117371428Y-99031009D01*
X117371428Y-99031009D02*
X117276190Y-98983390D01*
X133657142Y-97054819D02*
X133180952Y-97054819D01*
X133180952Y-97054819D02*
X133180952Y-96054819D01*
X134514285Y-97054819D02*
X133942857Y-97054819D01*
X134228571Y-97054819D02*
X134228571Y-96054819D01*
X134228571Y-96054819D02*
X134133333Y-96197676D01*
X134133333Y-96197676D02*
X134038095Y-96292914D01*
X134038095Y-96292914D02*
X133942857Y-96340533D01*
X134847619Y-96054819D02*
X135514285Y-96054819D01*
X135514285Y-96054819D02*
X135085714Y-97054819D01*
X151657142Y-99554819D02*
X151180952Y-99554819D01*
X151180952Y-99554819D02*
X151180952Y-98554819D01*
X152514285Y-99554819D02*
X151942857Y-99554819D01*
X152228571Y-99554819D02*
X152228571Y-98554819D01*
X152228571Y-98554819D02*
X152133333Y-98697676D01*
X152133333Y-98697676D02*
X152038095Y-98792914D01*
X152038095Y-98792914D02*
X151942857Y-98840533D01*
X153371428Y-98554819D02*
X153180952Y-98554819D01*
X153180952Y-98554819D02*
X153085714Y-98602438D01*
X153085714Y-98602438D02*
X153038095Y-98650057D01*
X153038095Y-98650057D02*
X152942857Y-98792914D01*
X152942857Y-98792914D02*
X152895238Y-98983390D01*
X152895238Y-98983390D02*
X152895238Y-99364342D01*
X152895238Y-99364342D02*
X152942857Y-99459580D01*
X152942857Y-99459580D02*
X152990476Y-99507200D01*
X152990476Y-99507200D02*
X153085714Y-99554819D01*
X153085714Y-99554819D02*
X153276190Y-99554819D01*
X153276190Y-99554819D02*
X153371428Y-99507200D01*
X153371428Y-99507200D02*
X153419047Y-99459580D01*
X153419047Y-99459580D02*
X153466666Y-99364342D01*
X153466666Y-99364342D02*
X153466666Y-99126247D01*
X153466666Y-99126247D02*
X153419047Y-99031009D01*
X153419047Y-99031009D02*
X153371428Y-98983390D01*
X153371428Y-98983390D02*
X153276190Y-98935771D01*
X153276190Y-98935771D02*
X153085714Y-98935771D01*
X153085714Y-98935771D02*
X152990476Y-98983390D01*
X152990476Y-98983390D02*
X152942857Y-99031009D01*
X152942857Y-99031009D02*
X152895238Y-99126247D01*
X169657142Y-102054819D02*
X169180952Y-102054819D01*
X169180952Y-102054819D02*
X169180952Y-101054819D01*
X170514285Y-102054819D02*
X169942857Y-102054819D01*
X170228571Y-102054819D02*
X170228571Y-101054819D01*
X170228571Y-101054819D02*
X170133333Y-101197676D01*
X170133333Y-101197676D02*
X170038095Y-101292914D01*
X170038095Y-101292914D02*
X169942857Y-101340533D01*
X171419047Y-101054819D02*
X170942857Y-101054819D01*
X170942857Y-101054819D02*
X170895238Y-101531009D01*
X170895238Y-101531009D02*
X170942857Y-101483390D01*
X170942857Y-101483390D02*
X171038095Y-101435771D01*
X171038095Y-101435771D02*
X171276190Y-101435771D01*
X171276190Y-101435771D02*
X171371428Y-101483390D01*
X171371428Y-101483390D02*
X171419047Y-101531009D01*
X171419047Y-101531009D02*
X171466666Y-101626247D01*
X171466666Y-101626247D02*
X171466666Y-101864342D01*
X171466666Y-101864342D02*
X171419047Y-101959580D01*
X171419047Y-101959580D02*
X171371428Y-102007200D01*
X171371428Y-102007200D02*
X171276190Y-102054819D01*
X171276190Y-102054819D02*
X171038095Y-102054819D01*
X171038095Y-102054819D02*
X170942857Y-102007200D01*
X170942857Y-102007200D02*
X170895238Y-101959580D01*
X80133333Y-79054819D02*
X79657143Y-79054819D01*
X79657143Y-79054819D02*
X79657143Y-78054819D01*
X80895238Y-78054819D02*
X80704762Y-78054819D01*
X80704762Y-78054819D02*
X80609524Y-78102438D01*
X80609524Y-78102438D02*
X80561905Y-78150057D01*
X80561905Y-78150057D02*
X80466667Y-78292914D01*
X80466667Y-78292914D02*
X80419048Y-78483390D01*
X80419048Y-78483390D02*
X80419048Y-78864342D01*
X80419048Y-78864342D02*
X80466667Y-78959580D01*
X80466667Y-78959580D02*
X80514286Y-79007200D01*
X80514286Y-79007200D02*
X80609524Y-79054819D01*
X80609524Y-79054819D02*
X80800000Y-79054819D01*
X80800000Y-79054819D02*
X80895238Y-79007200D01*
X80895238Y-79007200D02*
X80942857Y-78959580D01*
X80942857Y-78959580D02*
X80990476Y-78864342D01*
X80990476Y-78864342D02*
X80990476Y-78626247D01*
X80990476Y-78626247D02*
X80942857Y-78531009D01*
X80942857Y-78531009D02*
X80895238Y-78483390D01*
X80895238Y-78483390D02*
X80800000Y-78435771D01*
X80800000Y-78435771D02*
X80609524Y-78435771D01*
X80609524Y-78435771D02*
X80514286Y-78483390D01*
X80514286Y-78483390D02*
X80466667Y-78531009D01*
X80466667Y-78531009D02*
X80419048Y-78626247D01*
X184904761Y-112131009D02*
X185047618Y-112178628D01*
X185047618Y-112178628D02*
X185095237Y-112226247D01*
X185095237Y-112226247D02*
X185142856Y-112321485D01*
X185142856Y-112321485D02*
X185142856Y-112464342D01*
X185142856Y-112464342D02*
X185095237Y-112559580D01*
X185095237Y-112559580D02*
X185047618Y-112607200D01*
X185047618Y-112607200D02*
X184952380Y-112654819D01*
X184952380Y-112654819D02*
X184571428Y-112654819D01*
X184571428Y-112654819D02*
X184571428Y-111654819D01*
X184571428Y-111654819D02*
X184904761Y-111654819D01*
X184904761Y-111654819D02*
X184999999Y-111702438D01*
X184999999Y-111702438D02*
X185047618Y-111750057D01*
X185047618Y-111750057D02*
X185095237Y-111845295D01*
X185095237Y-111845295D02*
X185095237Y-111940533D01*
X185095237Y-111940533D02*
X185047618Y-112035771D01*
X185047618Y-112035771D02*
X184999999Y-112083390D01*
X184999999Y-112083390D02*
X184904761Y-112131009D01*
X184904761Y-112131009D02*
X184571428Y-112131009D01*
X185523809Y-112369104D02*
X185999999Y-112369104D01*
X185428571Y-112654819D02*
X185761904Y-111654819D01*
X185761904Y-111654819D02*
X186095237Y-112654819D01*
X186285714Y-111654819D02*
X186857142Y-111654819D01*
X186571428Y-112654819D02*
X186571428Y-111654819D01*
X187476190Y-111654819D02*
X187476190Y-112369104D01*
X187476190Y-112369104D02*
X187428571Y-112511961D01*
X187428571Y-112511961D02*
X187333333Y-112607200D01*
X187333333Y-112607200D02*
X187190476Y-112654819D01*
X187190476Y-112654819D02*
X187095238Y-112654819D01*
X188476190Y-112654819D02*
X187904762Y-112654819D01*
X188190476Y-112654819D02*
X188190476Y-111654819D01*
X188190476Y-111654819D02*
X188095238Y-111797676D01*
X188095238Y-111797676D02*
X188000000Y-111892914D01*
X188000000Y-111892914D02*
X187904762Y-111940533D01*
D11*
X190494547Y-96932464D02*
X190327881Y-96575321D01*
X190208833Y-96932464D02*
X190208833Y-96182464D01*
X190208833Y-96182464D02*
X190399309Y-96182464D01*
X190399309Y-96182464D02*
X190446928Y-96218178D01*
X190446928Y-96218178D02*
X190470738Y-96253892D01*
X190470738Y-96253892D02*
X190494547Y-96325321D01*
X190494547Y-96325321D02*
X190494547Y-96432464D01*
X190494547Y-96432464D02*
X190470738Y-96503892D01*
X190470738Y-96503892D02*
X190446928Y-96539607D01*
X190446928Y-96539607D02*
X190399309Y-96575321D01*
X190399309Y-96575321D02*
X190208833Y-96575321D01*
X190804071Y-96182464D02*
X190899309Y-96182464D01*
X190899309Y-96182464D02*
X190946928Y-96218178D01*
X190946928Y-96218178D02*
X190994547Y-96289607D01*
X190994547Y-96289607D02*
X191018357Y-96432464D01*
X191018357Y-96432464D02*
X191018357Y-96682464D01*
X191018357Y-96682464D02*
X190994547Y-96825321D01*
X190994547Y-96825321D02*
X190946928Y-96896750D01*
X190946928Y-96896750D02*
X190899309Y-96932464D01*
X190899309Y-96932464D02*
X190804071Y-96932464D01*
X190804071Y-96932464D02*
X190756452Y-96896750D01*
X190756452Y-96896750D02*
X190708833Y-96825321D01*
X190708833Y-96825321D02*
X190685024Y-96682464D01*
X190685024Y-96682464D02*
X190685024Y-96432464D01*
X190685024Y-96432464D02*
X190708833Y-96289607D01*
X190708833Y-96289607D02*
X190756452Y-96218178D01*
X190756452Y-96218178D02*
X190804071Y-96182464D01*
X191185024Y-96182464D02*
X191304072Y-96932464D01*
X191304072Y-96932464D02*
X191399310Y-96396750D01*
X191399310Y-96396750D02*
X191494548Y-96932464D01*
X191494548Y-96932464D02*
X191613596Y-96182464D01*
X192065977Y-96932464D02*
X191780263Y-96932464D01*
X191923120Y-96932464D02*
X191923120Y-96182464D01*
X191923120Y-96182464D02*
X191875501Y-96289607D01*
X191875501Y-96289607D02*
X191827882Y-96361035D01*
X191827882Y-96361035D02*
X191780263Y-96396750D01*
X175377880Y-99409035D02*
X175354071Y-99444750D01*
X175354071Y-99444750D02*
X175282642Y-99480464D01*
X175282642Y-99480464D02*
X175235023Y-99480464D01*
X175235023Y-99480464D02*
X175163595Y-99444750D01*
X175163595Y-99444750D02*
X175115976Y-99373321D01*
X175115976Y-99373321D02*
X175092166Y-99301892D01*
X175092166Y-99301892D02*
X175068357Y-99159035D01*
X175068357Y-99159035D02*
X175068357Y-99051892D01*
X175068357Y-99051892D02*
X175092166Y-98909035D01*
X175092166Y-98909035D02*
X175115976Y-98837607D01*
X175115976Y-98837607D02*
X175163595Y-98766178D01*
X175163595Y-98766178D02*
X175235023Y-98730464D01*
X175235023Y-98730464D02*
X175282642Y-98730464D01*
X175282642Y-98730464D02*
X175354071Y-98766178D01*
X175354071Y-98766178D02*
X175377880Y-98801892D01*
X175687404Y-98730464D02*
X175782642Y-98730464D01*
X175782642Y-98730464D02*
X175830261Y-98766178D01*
X175830261Y-98766178D02*
X175877880Y-98837607D01*
X175877880Y-98837607D02*
X175901690Y-98980464D01*
X175901690Y-98980464D02*
X175901690Y-99230464D01*
X175901690Y-99230464D02*
X175877880Y-99373321D01*
X175877880Y-99373321D02*
X175830261Y-99444750D01*
X175830261Y-99444750D02*
X175782642Y-99480464D01*
X175782642Y-99480464D02*
X175687404Y-99480464D01*
X175687404Y-99480464D02*
X175639785Y-99444750D01*
X175639785Y-99444750D02*
X175592166Y-99373321D01*
X175592166Y-99373321D02*
X175568357Y-99230464D01*
X175568357Y-99230464D02*
X175568357Y-98980464D01*
X175568357Y-98980464D02*
X175592166Y-98837607D01*
X175592166Y-98837607D02*
X175639785Y-98766178D01*
X175639785Y-98766178D02*
X175687404Y-98730464D01*
X176354071Y-99480464D02*
X176115976Y-99480464D01*
X176115976Y-99480464D02*
X176115976Y-98730464D01*
X176735024Y-98980464D02*
X176735024Y-99480464D01*
X176615976Y-98694750D02*
X176496929Y-99230464D01*
X176496929Y-99230464D02*
X176806452Y-99230464D01*
X190444547Y-99480464D02*
X190277881Y-99123321D01*
X190158833Y-99480464D02*
X190158833Y-98730464D01*
X190158833Y-98730464D02*
X190349309Y-98730464D01*
X190349309Y-98730464D02*
X190396928Y-98766178D01*
X190396928Y-98766178D02*
X190420738Y-98801892D01*
X190420738Y-98801892D02*
X190444547Y-98873321D01*
X190444547Y-98873321D02*
X190444547Y-98980464D01*
X190444547Y-98980464D02*
X190420738Y-99051892D01*
X190420738Y-99051892D02*
X190396928Y-99087607D01*
X190396928Y-99087607D02*
X190349309Y-99123321D01*
X190349309Y-99123321D02*
X190158833Y-99123321D01*
X190754071Y-98730464D02*
X190849309Y-98730464D01*
X190849309Y-98730464D02*
X190896928Y-98766178D01*
X190896928Y-98766178D02*
X190944547Y-98837607D01*
X190944547Y-98837607D02*
X190968357Y-98980464D01*
X190968357Y-98980464D02*
X190968357Y-99230464D01*
X190968357Y-99230464D02*
X190944547Y-99373321D01*
X190944547Y-99373321D02*
X190896928Y-99444750D01*
X190896928Y-99444750D02*
X190849309Y-99480464D01*
X190849309Y-99480464D02*
X190754071Y-99480464D01*
X190754071Y-99480464D02*
X190706452Y-99444750D01*
X190706452Y-99444750D02*
X190658833Y-99373321D01*
X190658833Y-99373321D02*
X190635024Y-99230464D01*
X190635024Y-99230464D02*
X190635024Y-98980464D01*
X190635024Y-98980464D02*
X190658833Y-98837607D01*
X190658833Y-98837607D02*
X190706452Y-98766178D01*
X190706452Y-98766178D02*
X190754071Y-98730464D01*
X191135024Y-98730464D02*
X191254072Y-99480464D01*
X191254072Y-99480464D02*
X191349310Y-98944750D01*
X191349310Y-98944750D02*
X191444548Y-99480464D01*
X191444548Y-99480464D02*
X191563596Y-98730464D01*
X191730263Y-98801892D02*
X191754072Y-98766178D01*
X191754072Y-98766178D02*
X191801691Y-98730464D01*
X191801691Y-98730464D02*
X191920739Y-98730464D01*
X191920739Y-98730464D02*
X191968358Y-98766178D01*
X191968358Y-98766178D02*
X191992167Y-98801892D01*
X191992167Y-98801892D02*
X192015977Y-98873321D01*
X192015977Y-98873321D02*
X192015977Y-98944750D01*
X192015977Y-98944750D02*
X191992167Y-99051892D01*
X191992167Y-99051892D02*
X191706453Y-99480464D01*
X191706453Y-99480464D02*
X192015977Y-99480464D01*
X175377880Y-102004535D02*
X175354071Y-102040250D01*
X175354071Y-102040250D02*
X175282642Y-102075964D01*
X175282642Y-102075964D02*
X175235023Y-102075964D01*
X175235023Y-102075964D02*
X175163595Y-102040250D01*
X175163595Y-102040250D02*
X175115976Y-101968821D01*
X175115976Y-101968821D02*
X175092166Y-101897392D01*
X175092166Y-101897392D02*
X175068357Y-101754535D01*
X175068357Y-101754535D02*
X175068357Y-101647392D01*
X175068357Y-101647392D02*
X175092166Y-101504535D01*
X175092166Y-101504535D02*
X175115976Y-101433107D01*
X175115976Y-101433107D02*
X175163595Y-101361678D01*
X175163595Y-101361678D02*
X175235023Y-101325964D01*
X175235023Y-101325964D02*
X175282642Y-101325964D01*
X175282642Y-101325964D02*
X175354071Y-101361678D01*
X175354071Y-101361678D02*
X175377880Y-101397392D01*
X175687404Y-101325964D02*
X175782642Y-101325964D01*
X175782642Y-101325964D02*
X175830261Y-101361678D01*
X175830261Y-101361678D02*
X175877880Y-101433107D01*
X175877880Y-101433107D02*
X175901690Y-101575964D01*
X175901690Y-101575964D02*
X175901690Y-101825964D01*
X175901690Y-101825964D02*
X175877880Y-101968821D01*
X175877880Y-101968821D02*
X175830261Y-102040250D01*
X175830261Y-102040250D02*
X175782642Y-102075964D01*
X175782642Y-102075964D02*
X175687404Y-102075964D01*
X175687404Y-102075964D02*
X175639785Y-102040250D01*
X175639785Y-102040250D02*
X175592166Y-101968821D01*
X175592166Y-101968821D02*
X175568357Y-101825964D01*
X175568357Y-101825964D02*
X175568357Y-101575964D01*
X175568357Y-101575964D02*
X175592166Y-101433107D01*
X175592166Y-101433107D02*
X175639785Y-101361678D01*
X175639785Y-101361678D02*
X175687404Y-101325964D01*
X176354071Y-102075964D02*
X176115976Y-102075964D01*
X176115976Y-102075964D02*
X176115976Y-101325964D01*
X176758833Y-101325964D02*
X176520738Y-101325964D01*
X176520738Y-101325964D02*
X176496929Y-101683107D01*
X176496929Y-101683107D02*
X176520738Y-101647392D01*
X176520738Y-101647392D02*
X176568357Y-101611678D01*
X176568357Y-101611678D02*
X176687405Y-101611678D01*
X176687405Y-101611678D02*
X176735024Y-101647392D01*
X176735024Y-101647392D02*
X176758833Y-101683107D01*
X176758833Y-101683107D02*
X176782643Y-101754535D01*
X176782643Y-101754535D02*
X176782643Y-101933107D01*
X176782643Y-101933107D02*
X176758833Y-102004535D01*
X176758833Y-102004535D02*
X176735024Y-102040250D01*
X176735024Y-102040250D02*
X176687405Y-102075964D01*
X176687405Y-102075964D02*
X176568357Y-102075964D01*
X176568357Y-102075964D02*
X176520738Y-102040250D01*
X176520738Y-102040250D02*
X176496929Y-102004535D01*
X190444547Y-102075964D02*
X190277881Y-101718821D01*
X190158833Y-102075964D02*
X190158833Y-101325964D01*
X190158833Y-101325964D02*
X190349309Y-101325964D01*
X190349309Y-101325964D02*
X190396928Y-101361678D01*
X190396928Y-101361678D02*
X190420738Y-101397392D01*
X190420738Y-101397392D02*
X190444547Y-101468821D01*
X190444547Y-101468821D02*
X190444547Y-101575964D01*
X190444547Y-101575964D02*
X190420738Y-101647392D01*
X190420738Y-101647392D02*
X190396928Y-101683107D01*
X190396928Y-101683107D02*
X190349309Y-101718821D01*
X190349309Y-101718821D02*
X190158833Y-101718821D01*
X190754071Y-101325964D02*
X190849309Y-101325964D01*
X190849309Y-101325964D02*
X190896928Y-101361678D01*
X190896928Y-101361678D02*
X190944547Y-101433107D01*
X190944547Y-101433107D02*
X190968357Y-101575964D01*
X190968357Y-101575964D02*
X190968357Y-101825964D01*
X190968357Y-101825964D02*
X190944547Y-101968821D01*
X190944547Y-101968821D02*
X190896928Y-102040250D01*
X190896928Y-102040250D02*
X190849309Y-102075964D01*
X190849309Y-102075964D02*
X190754071Y-102075964D01*
X190754071Y-102075964D02*
X190706452Y-102040250D01*
X190706452Y-102040250D02*
X190658833Y-101968821D01*
X190658833Y-101968821D02*
X190635024Y-101825964D01*
X190635024Y-101825964D02*
X190635024Y-101575964D01*
X190635024Y-101575964D02*
X190658833Y-101433107D01*
X190658833Y-101433107D02*
X190706452Y-101361678D01*
X190706452Y-101361678D02*
X190754071Y-101325964D01*
X191135024Y-101325964D02*
X191254072Y-102075964D01*
X191254072Y-102075964D02*
X191349310Y-101540250D01*
X191349310Y-101540250D02*
X191444548Y-102075964D01*
X191444548Y-102075964D02*
X191563596Y-101325964D01*
X191706453Y-101325964D02*
X192015977Y-101325964D01*
X192015977Y-101325964D02*
X191849310Y-101611678D01*
X191849310Y-101611678D02*
X191920739Y-101611678D01*
X191920739Y-101611678D02*
X191968358Y-101647392D01*
X191968358Y-101647392D02*
X191992167Y-101683107D01*
X191992167Y-101683107D02*
X192015977Y-101754535D01*
X192015977Y-101754535D02*
X192015977Y-101933107D01*
X192015977Y-101933107D02*
X191992167Y-102004535D01*
X191992167Y-102004535D02*
X191968358Y-102040250D01*
X191968358Y-102040250D02*
X191920739Y-102075964D01*
X191920739Y-102075964D02*
X191777882Y-102075964D01*
X191777882Y-102075964D02*
X191730263Y-102040250D01*
X191730263Y-102040250D02*
X191706453Y-102004535D01*
X175723119Y-104187607D02*
X175794547Y-104223321D01*
X175794547Y-104223321D02*
X175818357Y-104259035D01*
X175818357Y-104259035D02*
X175842166Y-104330464D01*
X175842166Y-104330464D02*
X175842166Y-104437607D01*
X175842166Y-104437607D02*
X175818357Y-104509035D01*
X175818357Y-104509035D02*
X175794547Y-104544750D01*
X175794547Y-104544750D02*
X175746928Y-104580464D01*
X175746928Y-104580464D02*
X175556452Y-104580464D01*
X175556452Y-104580464D02*
X175556452Y-103830464D01*
X175556452Y-103830464D02*
X175723119Y-103830464D01*
X175723119Y-103830464D02*
X175770738Y-103866178D01*
X175770738Y-103866178D02*
X175794547Y-103901892D01*
X175794547Y-103901892D02*
X175818357Y-103973321D01*
X175818357Y-103973321D02*
X175818357Y-104044750D01*
X175818357Y-104044750D02*
X175794547Y-104116178D01*
X175794547Y-104116178D02*
X175770738Y-104151892D01*
X175770738Y-104151892D02*
X175723119Y-104187607D01*
X175723119Y-104187607D02*
X175556452Y-104187607D01*
X176032643Y-103901892D02*
X176056452Y-103866178D01*
X176056452Y-103866178D02*
X176104071Y-103830464D01*
X176104071Y-103830464D02*
X176223119Y-103830464D01*
X176223119Y-103830464D02*
X176270738Y-103866178D01*
X176270738Y-103866178D02*
X176294547Y-103901892D01*
X176294547Y-103901892D02*
X176318357Y-103973321D01*
X176318357Y-103973321D02*
X176318357Y-104044750D01*
X176318357Y-104044750D02*
X176294547Y-104151892D01*
X176294547Y-104151892D02*
X176008833Y-104580464D01*
X176008833Y-104580464D02*
X176318357Y-104580464D01*
X190873119Y-104159607D02*
X190944547Y-104195321D01*
X190944547Y-104195321D02*
X190968357Y-104231035D01*
X190968357Y-104231035D02*
X190992166Y-104302464D01*
X190992166Y-104302464D02*
X190992166Y-104409607D01*
X190992166Y-104409607D02*
X190968357Y-104481035D01*
X190968357Y-104481035D02*
X190944547Y-104516750D01*
X190944547Y-104516750D02*
X190896928Y-104552464D01*
X190896928Y-104552464D02*
X190706452Y-104552464D01*
X190706452Y-104552464D02*
X190706452Y-103802464D01*
X190706452Y-103802464D02*
X190873119Y-103802464D01*
X190873119Y-103802464D02*
X190920738Y-103838178D01*
X190920738Y-103838178D02*
X190944547Y-103873892D01*
X190944547Y-103873892D02*
X190968357Y-103945321D01*
X190968357Y-103945321D02*
X190968357Y-104016750D01*
X190968357Y-104016750D02*
X190944547Y-104088178D01*
X190944547Y-104088178D02*
X190920738Y-104123892D01*
X190920738Y-104123892D02*
X190873119Y-104159607D01*
X190873119Y-104159607D02*
X190706452Y-104159607D01*
X191420738Y-104052464D02*
X191420738Y-104552464D01*
X191301690Y-103766750D02*
X191182643Y-104302464D01*
X191182643Y-104302464D02*
X191492166Y-104302464D01*
X190873119Y-106763107D02*
X190944547Y-106798821D01*
X190944547Y-106798821D02*
X190968357Y-106834535D01*
X190968357Y-106834535D02*
X190992166Y-106905964D01*
X190992166Y-106905964D02*
X190992166Y-107013107D01*
X190992166Y-107013107D02*
X190968357Y-107084535D01*
X190968357Y-107084535D02*
X190944547Y-107120250D01*
X190944547Y-107120250D02*
X190896928Y-107155964D01*
X190896928Y-107155964D02*
X190706452Y-107155964D01*
X190706452Y-107155964D02*
X190706452Y-106405964D01*
X190706452Y-106405964D02*
X190873119Y-106405964D01*
X190873119Y-106405964D02*
X190920738Y-106441678D01*
X190920738Y-106441678D02*
X190944547Y-106477392D01*
X190944547Y-106477392D02*
X190968357Y-106548821D01*
X190968357Y-106548821D02*
X190968357Y-106620250D01*
X190968357Y-106620250D02*
X190944547Y-106691678D01*
X190944547Y-106691678D02*
X190920738Y-106727392D01*
X190920738Y-106727392D02*
X190873119Y-106763107D01*
X190873119Y-106763107D02*
X190706452Y-106763107D01*
X191444547Y-106405964D02*
X191206452Y-106405964D01*
X191206452Y-106405964D02*
X191182643Y-106763107D01*
X191182643Y-106763107D02*
X191206452Y-106727392D01*
X191206452Y-106727392D02*
X191254071Y-106691678D01*
X191254071Y-106691678D02*
X191373119Y-106691678D01*
X191373119Y-106691678D02*
X191420738Y-106727392D01*
X191420738Y-106727392D02*
X191444547Y-106763107D01*
X191444547Y-106763107D02*
X191468357Y-106834535D01*
X191468357Y-106834535D02*
X191468357Y-107013107D01*
X191468357Y-107013107D02*
X191444547Y-107084535D01*
X191444547Y-107084535D02*
X191420738Y-107120250D01*
X191420738Y-107120250D02*
X191373119Y-107155964D01*
X191373119Y-107155964D02*
X191254071Y-107155964D01*
X191254071Y-107155964D02*
X191206452Y-107120250D01*
X191206452Y-107120250D02*
X191182643Y-107084535D01*
X175623119Y-106737607D02*
X175694547Y-106773321D01*
X175694547Y-106773321D02*
X175718357Y-106809035D01*
X175718357Y-106809035D02*
X175742166Y-106880464D01*
X175742166Y-106880464D02*
X175742166Y-106987607D01*
X175742166Y-106987607D02*
X175718357Y-107059035D01*
X175718357Y-107059035D02*
X175694547Y-107094750D01*
X175694547Y-107094750D02*
X175646928Y-107130464D01*
X175646928Y-107130464D02*
X175456452Y-107130464D01*
X175456452Y-107130464D02*
X175456452Y-106380464D01*
X175456452Y-106380464D02*
X175623119Y-106380464D01*
X175623119Y-106380464D02*
X175670738Y-106416178D01*
X175670738Y-106416178D02*
X175694547Y-106451892D01*
X175694547Y-106451892D02*
X175718357Y-106523321D01*
X175718357Y-106523321D02*
X175718357Y-106594750D01*
X175718357Y-106594750D02*
X175694547Y-106666178D01*
X175694547Y-106666178D02*
X175670738Y-106701892D01*
X175670738Y-106701892D02*
X175623119Y-106737607D01*
X175623119Y-106737607D02*
X175456452Y-106737607D01*
X176170738Y-106380464D02*
X176075500Y-106380464D01*
X176075500Y-106380464D02*
X176027881Y-106416178D01*
X176027881Y-106416178D02*
X176004071Y-106451892D01*
X176004071Y-106451892D02*
X175956452Y-106559035D01*
X175956452Y-106559035D02*
X175932643Y-106701892D01*
X175932643Y-106701892D02*
X175932643Y-106987607D01*
X175932643Y-106987607D02*
X175956452Y-107059035D01*
X175956452Y-107059035D02*
X175980262Y-107094750D01*
X175980262Y-107094750D02*
X176027881Y-107130464D01*
X176027881Y-107130464D02*
X176123119Y-107130464D01*
X176123119Y-107130464D02*
X176170738Y-107094750D01*
X176170738Y-107094750D02*
X176194547Y-107059035D01*
X176194547Y-107059035D02*
X176218357Y-106987607D01*
X176218357Y-106987607D02*
X176218357Y-106809035D01*
X176218357Y-106809035D02*
X176194547Y-106737607D01*
X176194547Y-106737607D02*
X176170738Y-106701892D01*
X176170738Y-106701892D02*
X176123119Y-106666178D01*
X176123119Y-106666178D02*
X176027881Y-106666178D01*
X176027881Y-106666178D02*
X175980262Y-106701892D01*
X175980262Y-106701892D02*
X175956452Y-106737607D01*
X175956452Y-106737607D02*
X175932643Y-106809035D01*
X175427880Y-89259035D02*
X175404071Y-89294750D01*
X175404071Y-89294750D02*
X175332642Y-89330464D01*
X175332642Y-89330464D02*
X175285023Y-89330464D01*
X175285023Y-89330464D02*
X175213595Y-89294750D01*
X175213595Y-89294750D02*
X175165976Y-89223321D01*
X175165976Y-89223321D02*
X175142166Y-89151892D01*
X175142166Y-89151892D02*
X175118357Y-89009035D01*
X175118357Y-89009035D02*
X175118357Y-88901892D01*
X175118357Y-88901892D02*
X175142166Y-88759035D01*
X175142166Y-88759035D02*
X175165976Y-88687607D01*
X175165976Y-88687607D02*
X175213595Y-88616178D01*
X175213595Y-88616178D02*
X175285023Y-88580464D01*
X175285023Y-88580464D02*
X175332642Y-88580464D01*
X175332642Y-88580464D02*
X175404071Y-88616178D01*
X175404071Y-88616178D02*
X175427880Y-88651892D01*
X175737404Y-88580464D02*
X175832642Y-88580464D01*
X175832642Y-88580464D02*
X175880261Y-88616178D01*
X175880261Y-88616178D02*
X175927880Y-88687607D01*
X175927880Y-88687607D02*
X175951690Y-88830464D01*
X175951690Y-88830464D02*
X175951690Y-89080464D01*
X175951690Y-89080464D02*
X175927880Y-89223321D01*
X175927880Y-89223321D02*
X175880261Y-89294750D01*
X175880261Y-89294750D02*
X175832642Y-89330464D01*
X175832642Y-89330464D02*
X175737404Y-89330464D01*
X175737404Y-89330464D02*
X175689785Y-89294750D01*
X175689785Y-89294750D02*
X175642166Y-89223321D01*
X175642166Y-89223321D02*
X175618357Y-89080464D01*
X175618357Y-89080464D02*
X175618357Y-88830464D01*
X175618357Y-88830464D02*
X175642166Y-88687607D01*
X175642166Y-88687607D02*
X175689785Y-88616178D01*
X175689785Y-88616178D02*
X175737404Y-88580464D01*
X176404071Y-89330464D02*
X176165976Y-89330464D01*
X176165976Y-89330464D02*
X176165976Y-88580464D01*
X176665976Y-88580464D02*
X176713595Y-88580464D01*
X176713595Y-88580464D02*
X176761214Y-88616178D01*
X176761214Y-88616178D02*
X176785024Y-88651892D01*
X176785024Y-88651892D02*
X176808833Y-88723321D01*
X176808833Y-88723321D02*
X176832643Y-88866178D01*
X176832643Y-88866178D02*
X176832643Y-89044750D01*
X176832643Y-89044750D02*
X176808833Y-89187607D01*
X176808833Y-89187607D02*
X176785024Y-89259035D01*
X176785024Y-89259035D02*
X176761214Y-89294750D01*
X176761214Y-89294750D02*
X176713595Y-89330464D01*
X176713595Y-89330464D02*
X176665976Y-89330464D01*
X176665976Y-89330464D02*
X176618357Y-89294750D01*
X176618357Y-89294750D02*
X176594548Y-89259035D01*
X176594548Y-89259035D02*
X176570738Y-89187607D01*
X176570738Y-89187607D02*
X176546929Y-89044750D01*
X176546929Y-89044750D02*
X176546929Y-88866178D01*
X176546929Y-88866178D02*
X176570738Y-88723321D01*
X176570738Y-88723321D02*
X176594548Y-88651892D01*
X176594548Y-88651892D02*
X176618357Y-88616178D01*
X176618357Y-88616178D02*
X176665976Y-88580464D01*
X190729358Y-89276750D02*
X190800786Y-89312464D01*
X190800786Y-89312464D02*
X190919834Y-89312464D01*
X190919834Y-89312464D02*
X190967453Y-89276750D01*
X190967453Y-89276750D02*
X190991262Y-89241035D01*
X190991262Y-89241035D02*
X191015072Y-89169607D01*
X191015072Y-89169607D02*
X191015072Y-89098178D01*
X191015072Y-89098178D02*
X190991262Y-89026750D01*
X190991262Y-89026750D02*
X190967453Y-88991035D01*
X190967453Y-88991035D02*
X190919834Y-88955321D01*
X190919834Y-88955321D02*
X190824596Y-88919607D01*
X190824596Y-88919607D02*
X190776977Y-88883892D01*
X190776977Y-88883892D02*
X190753167Y-88848178D01*
X190753167Y-88848178D02*
X190729358Y-88776750D01*
X190729358Y-88776750D02*
X190729358Y-88705321D01*
X190729358Y-88705321D02*
X190753167Y-88633892D01*
X190753167Y-88633892D02*
X190776977Y-88598178D01*
X190776977Y-88598178D02*
X190824596Y-88562464D01*
X190824596Y-88562464D02*
X190943643Y-88562464D01*
X190943643Y-88562464D02*
X191015072Y-88598178D01*
X191229357Y-89312464D02*
X191229357Y-88562464D01*
X191229357Y-88562464D02*
X191348405Y-88562464D01*
X191348405Y-88562464D02*
X191419833Y-88598178D01*
X191419833Y-88598178D02*
X191467452Y-88669607D01*
X191467452Y-88669607D02*
X191491262Y-88741035D01*
X191491262Y-88741035D02*
X191515071Y-88883892D01*
X191515071Y-88883892D02*
X191515071Y-88991035D01*
X191515071Y-88991035D02*
X191491262Y-89133892D01*
X191491262Y-89133892D02*
X191467452Y-89205321D01*
X191467452Y-89205321D02*
X191419833Y-89276750D01*
X191419833Y-89276750D02*
X191348405Y-89312464D01*
X191348405Y-89312464D02*
X191229357Y-89312464D01*
X191705548Y-89098178D02*
X191943643Y-89098178D01*
X191657929Y-89312464D02*
X191824595Y-88562464D01*
X191824595Y-88562464D02*
X191991262Y-89312464D01*
X175477880Y-91781035D02*
X175454071Y-91816750D01*
X175454071Y-91816750D02*
X175382642Y-91852464D01*
X175382642Y-91852464D02*
X175335023Y-91852464D01*
X175335023Y-91852464D02*
X175263595Y-91816750D01*
X175263595Y-91816750D02*
X175215976Y-91745321D01*
X175215976Y-91745321D02*
X175192166Y-91673892D01*
X175192166Y-91673892D02*
X175168357Y-91531035D01*
X175168357Y-91531035D02*
X175168357Y-91423892D01*
X175168357Y-91423892D02*
X175192166Y-91281035D01*
X175192166Y-91281035D02*
X175215976Y-91209607D01*
X175215976Y-91209607D02*
X175263595Y-91138178D01*
X175263595Y-91138178D02*
X175335023Y-91102464D01*
X175335023Y-91102464D02*
X175382642Y-91102464D01*
X175382642Y-91102464D02*
X175454071Y-91138178D01*
X175454071Y-91138178D02*
X175477880Y-91173892D01*
X175787404Y-91102464D02*
X175882642Y-91102464D01*
X175882642Y-91102464D02*
X175930261Y-91138178D01*
X175930261Y-91138178D02*
X175977880Y-91209607D01*
X175977880Y-91209607D02*
X176001690Y-91352464D01*
X176001690Y-91352464D02*
X176001690Y-91602464D01*
X176001690Y-91602464D02*
X175977880Y-91745321D01*
X175977880Y-91745321D02*
X175930261Y-91816750D01*
X175930261Y-91816750D02*
X175882642Y-91852464D01*
X175882642Y-91852464D02*
X175787404Y-91852464D01*
X175787404Y-91852464D02*
X175739785Y-91816750D01*
X175739785Y-91816750D02*
X175692166Y-91745321D01*
X175692166Y-91745321D02*
X175668357Y-91602464D01*
X175668357Y-91602464D02*
X175668357Y-91352464D01*
X175668357Y-91352464D02*
X175692166Y-91209607D01*
X175692166Y-91209607D02*
X175739785Y-91138178D01*
X175739785Y-91138178D02*
X175787404Y-91102464D01*
X176454071Y-91852464D02*
X176215976Y-91852464D01*
X176215976Y-91852464D02*
X176215976Y-91102464D01*
X176882643Y-91852464D02*
X176596929Y-91852464D01*
X176739786Y-91852464D02*
X176739786Y-91102464D01*
X176739786Y-91102464D02*
X176692167Y-91209607D01*
X176692167Y-91209607D02*
X176644548Y-91281035D01*
X176644548Y-91281035D02*
X176596929Y-91316750D01*
X190741262Y-91816750D02*
X190812690Y-91852464D01*
X190812690Y-91852464D02*
X190931738Y-91852464D01*
X190931738Y-91852464D02*
X190979357Y-91816750D01*
X190979357Y-91816750D02*
X191003166Y-91781035D01*
X191003166Y-91781035D02*
X191026976Y-91709607D01*
X191026976Y-91709607D02*
X191026976Y-91638178D01*
X191026976Y-91638178D02*
X191003166Y-91566750D01*
X191003166Y-91566750D02*
X190979357Y-91531035D01*
X190979357Y-91531035D02*
X190931738Y-91495321D01*
X190931738Y-91495321D02*
X190836500Y-91459607D01*
X190836500Y-91459607D02*
X190788881Y-91423892D01*
X190788881Y-91423892D02*
X190765071Y-91388178D01*
X190765071Y-91388178D02*
X190741262Y-91316750D01*
X190741262Y-91316750D02*
X190741262Y-91245321D01*
X190741262Y-91245321D02*
X190765071Y-91173892D01*
X190765071Y-91173892D02*
X190788881Y-91138178D01*
X190788881Y-91138178D02*
X190836500Y-91102464D01*
X190836500Y-91102464D02*
X190955547Y-91102464D01*
X190955547Y-91102464D02*
X191026976Y-91138178D01*
X191526975Y-91781035D02*
X191503166Y-91816750D01*
X191503166Y-91816750D02*
X191431737Y-91852464D01*
X191431737Y-91852464D02*
X191384118Y-91852464D01*
X191384118Y-91852464D02*
X191312690Y-91816750D01*
X191312690Y-91816750D02*
X191265071Y-91745321D01*
X191265071Y-91745321D02*
X191241261Y-91673892D01*
X191241261Y-91673892D02*
X191217452Y-91531035D01*
X191217452Y-91531035D02*
X191217452Y-91423892D01*
X191217452Y-91423892D02*
X191241261Y-91281035D01*
X191241261Y-91281035D02*
X191265071Y-91209607D01*
X191265071Y-91209607D02*
X191312690Y-91138178D01*
X191312690Y-91138178D02*
X191384118Y-91102464D01*
X191384118Y-91102464D02*
X191431737Y-91102464D01*
X191431737Y-91102464D02*
X191503166Y-91138178D01*
X191503166Y-91138178D02*
X191526975Y-91173892D01*
X191979356Y-91852464D02*
X191741261Y-91852464D01*
X191741261Y-91852464D02*
X191741261Y-91102464D01*
X175427880Y-94321035D02*
X175404071Y-94356750D01*
X175404071Y-94356750D02*
X175332642Y-94392464D01*
X175332642Y-94392464D02*
X175285023Y-94392464D01*
X175285023Y-94392464D02*
X175213595Y-94356750D01*
X175213595Y-94356750D02*
X175165976Y-94285321D01*
X175165976Y-94285321D02*
X175142166Y-94213892D01*
X175142166Y-94213892D02*
X175118357Y-94071035D01*
X175118357Y-94071035D02*
X175118357Y-93963892D01*
X175118357Y-93963892D02*
X175142166Y-93821035D01*
X175142166Y-93821035D02*
X175165976Y-93749607D01*
X175165976Y-93749607D02*
X175213595Y-93678178D01*
X175213595Y-93678178D02*
X175285023Y-93642464D01*
X175285023Y-93642464D02*
X175332642Y-93642464D01*
X175332642Y-93642464D02*
X175404071Y-93678178D01*
X175404071Y-93678178D02*
X175427880Y-93713892D01*
X175737404Y-93642464D02*
X175832642Y-93642464D01*
X175832642Y-93642464D02*
X175880261Y-93678178D01*
X175880261Y-93678178D02*
X175927880Y-93749607D01*
X175927880Y-93749607D02*
X175951690Y-93892464D01*
X175951690Y-93892464D02*
X175951690Y-94142464D01*
X175951690Y-94142464D02*
X175927880Y-94285321D01*
X175927880Y-94285321D02*
X175880261Y-94356750D01*
X175880261Y-94356750D02*
X175832642Y-94392464D01*
X175832642Y-94392464D02*
X175737404Y-94392464D01*
X175737404Y-94392464D02*
X175689785Y-94356750D01*
X175689785Y-94356750D02*
X175642166Y-94285321D01*
X175642166Y-94285321D02*
X175618357Y-94142464D01*
X175618357Y-94142464D02*
X175618357Y-93892464D01*
X175618357Y-93892464D02*
X175642166Y-93749607D01*
X175642166Y-93749607D02*
X175689785Y-93678178D01*
X175689785Y-93678178D02*
X175737404Y-93642464D01*
X176404071Y-94392464D02*
X176165976Y-94392464D01*
X176165976Y-94392464D02*
X176165976Y-93642464D01*
X176546929Y-93713892D02*
X176570738Y-93678178D01*
X176570738Y-93678178D02*
X176618357Y-93642464D01*
X176618357Y-93642464D02*
X176737405Y-93642464D01*
X176737405Y-93642464D02*
X176785024Y-93678178D01*
X176785024Y-93678178D02*
X176808833Y-93713892D01*
X176808833Y-93713892D02*
X176832643Y-93785321D01*
X176832643Y-93785321D02*
X176832643Y-93856750D01*
X176832643Y-93856750D02*
X176808833Y-93963892D01*
X176808833Y-93963892D02*
X176523119Y-94392464D01*
X176523119Y-94392464D02*
X176832643Y-94392464D01*
X190444547Y-94430464D02*
X190277881Y-94073321D01*
X190158833Y-94430464D02*
X190158833Y-93680464D01*
X190158833Y-93680464D02*
X190349309Y-93680464D01*
X190349309Y-93680464D02*
X190396928Y-93716178D01*
X190396928Y-93716178D02*
X190420738Y-93751892D01*
X190420738Y-93751892D02*
X190444547Y-93823321D01*
X190444547Y-93823321D02*
X190444547Y-93930464D01*
X190444547Y-93930464D02*
X190420738Y-94001892D01*
X190420738Y-94001892D02*
X190396928Y-94037607D01*
X190396928Y-94037607D02*
X190349309Y-94073321D01*
X190349309Y-94073321D02*
X190158833Y-94073321D01*
X190754071Y-93680464D02*
X190849309Y-93680464D01*
X190849309Y-93680464D02*
X190896928Y-93716178D01*
X190896928Y-93716178D02*
X190944547Y-93787607D01*
X190944547Y-93787607D02*
X190968357Y-93930464D01*
X190968357Y-93930464D02*
X190968357Y-94180464D01*
X190968357Y-94180464D02*
X190944547Y-94323321D01*
X190944547Y-94323321D02*
X190896928Y-94394750D01*
X190896928Y-94394750D02*
X190849309Y-94430464D01*
X190849309Y-94430464D02*
X190754071Y-94430464D01*
X190754071Y-94430464D02*
X190706452Y-94394750D01*
X190706452Y-94394750D02*
X190658833Y-94323321D01*
X190658833Y-94323321D02*
X190635024Y-94180464D01*
X190635024Y-94180464D02*
X190635024Y-93930464D01*
X190635024Y-93930464D02*
X190658833Y-93787607D01*
X190658833Y-93787607D02*
X190706452Y-93716178D01*
X190706452Y-93716178D02*
X190754071Y-93680464D01*
X191135024Y-93680464D02*
X191254072Y-94430464D01*
X191254072Y-94430464D02*
X191349310Y-93894750D01*
X191349310Y-93894750D02*
X191444548Y-94430464D01*
X191444548Y-94430464D02*
X191563596Y-93680464D01*
X191849310Y-93680464D02*
X191896929Y-93680464D01*
X191896929Y-93680464D02*
X191944548Y-93716178D01*
X191944548Y-93716178D02*
X191968358Y-93751892D01*
X191968358Y-93751892D02*
X191992167Y-93823321D01*
X191992167Y-93823321D02*
X192015977Y-93966178D01*
X192015977Y-93966178D02*
X192015977Y-94144750D01*
X192015977Y-94144750D02*
X191992167Y-94287607D01*
X191992167Y-94287607D02*
X191968358Y-94359035D01*
X191968358Y-94359035D02*
X191944548Y-94394750D01*
X191944548Y-94394750D02*
X191896929Y-94430464D01*
X191896929Y-94430464D02*
X191849310Y-94430464D01*
X191849310Y-94430464D02*
X191801691Y-94394750D01*
X191801691Y-94394750D02*
X191777882Y-94359035D01*
X191777882Y-94359035D02*
X191754072Y-94287607D01*
X191754072Y-94287607D02*
X191730263Y-94144750D01*
X191730263Y-94144750D02*
X191730263Y-93966178D01*
X191730263Y-93966178D02*
X191754072Y-93823321D01*
X191754072Y-93823321D02*
X191777882Y-93751892D01*
X191777882Y-93751892D02*
X191801691Y-93716178D01*
X191801691Y-93716178D02*
X191849310Y-93680464D01*
X175327880Y-96909035D02*
X175304071Y-96944750D01*
X175304071Y-96944750D02*
X175232642Y-96980464D01*
X175232642Y-96980464D02*
X175185023Y-96980464D01*
X175185023Y-96980464D02*
X175113595Y-96944750D01*
X175113595Y-96944750D02*
X175065976Y-96873321D01*
X175065976Y-96873321D02*
X175042166Y-96801892D01*
X175042166Y-96801892D02*
X175018357Y-96659035D01*
X175018357Y-96659035D02*
X175018357Y-96551892D01*
X175018357Y-96551892D02*
X175042166Y-96409035D01*
X175042166Y-96409035D02*
X175065976Y-96337607D01*
X175065976Y-96337607D02*
X175113595Y-96266178D01*
X175113595Y-96266178D02*
X175185023Y-96230464D01*
X175185023Y-96230464D02*
X175232642Y-96230464D01*
X175232642Y-96230464D02*
X175304071Y-96266178D01*
X175304071Y-96266178D02*
X175327880Y-96301892D01*
X175637404Y-96230464D02*
X175732642Y-96230464D01*
X175732642Y-96230464D02*
X175780261Y-96266178D01*
X175780261Y-96266178D02*
X175827880Y-96337607D01*
X175827880Y-96337607D02*
X175851690Y-96480464D01*
X175851690Y-96480464D02*
X175851690Y-96730464D01*
X175851690Y-96730464D02*
X175827880Y-96873321D01*
X175827880Y-96873321D02*
X175780261Y-96944750D01*
X175780261Y-96944750D02*
X175732642Y-96980464D01*
X175732642Y-96980464D02*
X175637404Y-96980464D01*
X175637404Y-96980464D02*
X175589785Y-96944750D01*
X175589785Y-96944750D02*
X175542166Y-96873321D01*
X175542166Y-96873321D02*
X175518357Y-96730464D01*
X175518357Y-96730464D02*
X175518357Y-96480464D01*
X175518357Y-96480464D02*
X175542166Y-96337607D01*
X175542166Y-96337607D02*
X175589785Y-96266178D01*
X175589785Y-96266178D02*
X175637404Y-96230464D01*
X176304071Y-96980464D02*
X176065976Y-96980464D01*
X176065976Y-96980464D02*
X176065976Y-96230464D01*
X176423119Y-96230464D02*
X176732643Y-96230464D01*
X176732643Y-96230464D02*
X176565976Y-96516178D01*
X176565976Y-96516178D02*
X176637405Y-96516178D01*
X176637405Y-96516178D02*
X176685024Y-96551892D01*
X176685024Y-96551892D02*
X176708833Y-96587607D01*
X176708833Y-96587607D02*
X176732643Y-96659035D01*
X176732643Y-96659035D02*
X176732643Y-96837607D01*
X176732643Y-96837607D02*
X176708833Y-96909035D01*
X176708833Y-96909035D02*
X176685024Y-96944750D01*
X176685024Y-96944750D02*
X176637405Y-96980464D01*
X176637405Y-96980464D02*
X176494548Y-96980464D01*
X176494548Y-96980464D02*
X176446929Y-96944750D01*
X176446929Y-96944750D02*
X176423119Y-96909035D01*
X190955547Y-86121678D02*
X190907928Y-86085964D01*
X190907928Y-86085964D02*
X190836499Y-86085964D01*
X190836499Y-86085964D02*
X190765071Y-86121678D01*
X190765071Y-86121678D02*
X190717452Y-86193107D01*
X190717452Y-86193107D02*
X190693642Y-86264535D01*
X190693642Y-86264535D02*
X190669833Y-86407392D01*
X190669833Y-86407392D02*
X190669833Y-86514535D01*
X190669833Y-86514535D02*
X190693642Y-86657392D01*
X190693642Y-86657392D02*
X190717452Y-86728821D01*
X190717452Y-86728821D02*
X190765071Y-86800250D01*
X190765071Y-86800250D02*
X190836499Y-86835964D01*
X190836499Y-86835964D02*
X190884118Y-86835964D01*
X190884118Y-86835964D02*
X190955547Y-86800250D01*
X190955547Y-86800250D02*
X190979356Y-86764535D01*
X190979356Y-86764535D02*
X190979356Y-86514535D01*
X190979356Y-86514535D02*
X190884118Y-86514535D01*
X191193642Y-86835964D02*
X191193642Y-86085964D01*
X191193642Y-86085964D02*
X191479356Y-86835964D01*
X191479356Y-86835964D02*
X191479356Y-86085964D01*
X191717452Y-86835964D02*
X191717452Y-86085964D01*
X191717452Y-86085964D02*
X191836500Y-86085964D01*
X191836500Y-86085964D02*
X191907928Y-86121678D01*
X191907928Y-86121678D02*
X191955547Y-86193107D01*
X191955547Y-86193107D02*
X191979357Y-86264535D01*
X191979357Y-86264535D02*
X192003166Y-86407392D01*
X192003166Y-86407392D02*
X192003166Y-86514535D01*
X192003166Y-86514535D02*
X191979357Y-86657392D01*
X191979357Y-86657392D02*
X191955547Y-86728821D01*
X191955547Y-86728821D02*
X191907928Y-86800250D01*
X191907928Y-86800250D02*
X191836500Y-86835964D01*
X191836500Y-86835964D02*
X191717452Y-86835964D01*
X175493334Y-86022464D02*
X175660000Y-86772464D01*
X175660000Y-86772464D02*
X175826667Y-86022464D01*
X176279047Y-86701035D02*
X176255238Y-86736750D01*
X176255238Y-86736750D02*
X176183809Y-86772464D01*
X176183809Y-86772464D02*
X176136190Y-86772464D01*
X176136190Y-86772464D02*
X176064762Y-86736750D01*
X176064762Y-86736750D02*
X176017143Y-86665321D01*
X176017143Y-86665321D02*
X175993333Y-86593892D01*
X175993333Y-86593892D02*
X175969524Y-86451035D01*
X175969524Y-86451035D02*
X175969524Y-86343892D01*
X175969524Y-86343892D02*
X175993333Y-86201035D01*
X175993333Y-86201035D02*
X176017143Y-86129607D01*
X176017143Y-86129607D02*
X176064762Y-86058178D01*
X176064762Y-86058178D02*
X176136190Y-86022464D01*
X176136190Y-86022464D02*
X176183809Y-86022464D01*
X176183809Y-86022464D02*
X176255238Y-86058178D01*
X176255238Y-86058178D02*
X176279047Y-86093892D01*
X176779047Y-86701035D02*
X176755238Y-86736750D01*
X176755238Y-86736750D02*
X176683809Y-86772464D01*
X176683809Y-86772464D02*
X176636190Y-86772464D01*
X176636190Y-86772464D02*
X176564762Y-86736750D01*
X176564762Y-86736750D02*
X176517143Y-86665321D01*
X176517143Y-86665321D02*
X176493333Y-86593892D01*
X176493333Y-86593892D02*
X176469524Y-86451035D01*
X176469524Y-86451035D02*
X176469524Y-86343892D01*
X176469524Y-86343892D02*
X176493333Y-86201035D01*
X176493333Y-86201035D02*
X176517143Y-86129607D01*
X176517143Y-86129607D02*
X176564762Y-86058178D01*
X176564762Y-86058178D02*
X176636190Y-86022464D01*
X176636190Y-86022464D02*
X176683809Y-86022464D01*
X176683809Y-86022464D02*
X176755238Y-86058178D01*
X176755238Y-86058178D02*
X176779047Y-86093892D01*
X191019047Y-83581678D02*
X190971428Y-83545964D01*
X190971428Y-83545964D02*
X190899999Y-83545964D01*
X190899999Y-83545964D02*
X190828571Y-83581678D01*
X190828571Y-83581678D02*
X190780952Y-83653107D01*
X190780952Y-83653107D02*
X190757142Y-83724535D01*
X190757142Y-83724535D02*
X190733333Y-83867392D01*
X190733333Y-83867392D02*
X190733333Y-83974535D01*
X190733333Y-83974535D02*
X190757142Y-84117392D01*
X190757142Y-84117392D02*
X190780952Y-84188821D01*
X190780952Y-84188821D02*
X190828571Y-84260250D01*
X190828571Y-84260250D02*
X190899999Y-84295964D01*
X190899999Y-84295964D02*
X190947618Y-84295964D01*
X190947618Y-84295964D02*
X191019047Y-84260250D01*
X191019047Y-84260250D02*
X191042856Y-84224535D01*
X191042856Y-84224535D02*
X191042856Y-83974535D01*
X191042856Y-83974535D02*
X190947618Y-83974535D01*
X191257142Y-84295964D02*
X191257142Y-83545964D01*
X191257142Y-83545964D02*
X191542856Y-84295964D01*
X191542856Y-84295964D02*
X191542856Y-83545964D01*
X191780952Y-84295964D02*
X191780952Y-83545964D01*
X191780952Y-83545964D02*
X191900000Y-83545964D01*
X191900000Y-83545964D02*
X191971428Y-83581678D01*
X191971428Y-83581678D02*
X192019047Y-83653107D01*
X192019047Y-83653107D02*
X192042857Y-83724535D01*
X192042857Y-83724535D02*
X192066666Y-83867392D01*
X192066666Y-83867392D02*
X192066666Y-83974535D01*
X192066666Y-83974535D02*
X192042857Y-84117392D01*
X192042857Y-84117392D02*
X192019047Y-84188821D01*
X192019047Y-84188821D02*
X191971428Y-84260250D01*
X191971428Y-84260250D02*
X191900000Y-84295964D01*
X191900000Y-84295964D02*
X191780952Y-84295964D01*
X175886190Y-84295964D02*
X175719524Y-83938821D01*
X175600476Y-84295964D02*
X175600476Y-83545964D01*
X175600476Y-83545964D02*
X175790952Y-83545964D01*
X175790952Y-83545964D02*
X175838571Y-83581678D01*
X175838571Y-83581678D02*
X175862381Y-83617392D01*
X175862381Y-83617392D02*
X175886190Y-83688821D01*
X175886190Y-83688821D02*
X175886190Y-83795964D01*
X175886190Y-83795964D02*
X175862381Y-83867392D01*
X175862381Y-83867392D02*
X175838571Y-83903107D01*
X175838571Y-83903107D02*
X175790952Y-83938821D01*
X175790952Y-83938821D02*
X175600476Y-83938821D01*
X176076667Y-84260250D02*
X176148095Y-84295964D01*
X176148095Y-84295964D02*
X176267143Y-84295964D01*
X176267143Y-84295964D02*
X176314762Y-84260250D01*
X176314762Y-84260250D02*
X176338571Y-84224535D01*
X176338571Y-84224535D02*
X176362381Y-84153107D01*
X176362381Y-84153107D02*
X176362381Y-84081678D01*
X176362381Y-84081678D02*
X176338571Y-84010250D01*
X176338571Y-84010250D02*
X176314762Y-83974535D01*
X176314762Y-83974535D02*
X176267143Y-83938821D01*
X176267143Y-83938821D02*
X176171905Y-83903107D01*
X176171905Y-83903107D02*
X176124286Y-83867392D01*
X176124286Y-83867392D02*
X176100476Y-83831678D01*
X176100476Y-83831678D02*
X176076667Y-83760250D01*
X176076667Y-83760250D02*
X176076667Y-83688821D01*
X176076667Y-83688821D02*
X176100476Y-83617392D01*
X176100476Y-83617392D02*
X176124286Y-83581678D01*
X176124286Y-83581678D02*
X176171905Y-83545964D01*
X176171905Y-83545964D02*
X176290952Y-83545964D01*
X176290952Y-83545964D02*
X176362381Y-83581678D01*
X176505238Y-83545964D02*
X176790952Y-83545964D01*
X176648095Y-84295964D02*
X176648095Y-83545964D01*
X190475500Y-81680464D02*
X190475500Y-80930464D01*
X190475500Y-80930464D02*
X190594548Y-80930464D01*
X190594548Y-80930464D02*
X190665976Y-80966178D01*
X190665976Y-80966178D02*
X190713595Y-81037607D01*
X190713595Y-81037607D02*
X190737405Y-81109035D01*
X190737405Y-81109035D02*
X190761214Y-81251892D01*
X190761214Y-81251892D02*
X190761214Y-81359035D01*
X190761214Y-81359035D02*
X190737405Y-81501892D01*
X190737405Y-81501892D02*
X190713595Y-81573321D01*
X190713595Y-81573321D02*
X190665976Y-81644750D01*
X190665976Y-81644750D02*
X190594548Y-81680464D01*
X190594548Y-81680464D02*
X190475500Y-81680464D01*
X190951691Y-81466178D02*
X191189786Y-81466178D01*
X190904072Y-81680464D02*
X191070738Y-80930464D01*
X191070738Y-80930464D02*
X191237405Y-81680464D01*
X191332643Y-80930464D02*
X191618357Y-80930464D01*
X191475500Y-81680464D02*
X191475500Y-80930464D01*
X191761214Y-81466178D02*
X191999309Y-81466178D01*
X191713595Y-81680464D02*
X191880261Y-80930464D01*
X191880261Y-80930464D02*
X192046928Y-81680464D01*
X175779047Y-80978178D02*
X175731428Y-80942464D01*
X175731428Y-80942464D02*
X175659999Y-80942464D01*
X175659999Y-80942464D02*
X175588571Y-80978178D01*
X175588571Y-80978178D02*
X175540952Y-81049607D01*
X175540952Y-81049607D02*
X175517142Y-81121035D01*
X175517142Y-81121035D02*
X175493333Y-81263892D01*
X175493333Y-81263892D02*
X175493333Y-81371035D01*
X175493333Y-81371035D02*
X175517142Y-81513892D01*
X175517142Y-81513892D02*
X175540952Y-81585321D01*
X175540952Y-81585321D02*
X175588571Y-81656750D01*
X175588571Y-81656750D02*
X175659999Y-81692464D01*
X175659999Y-81692464D02*
X175707618Y-81692464D01*
X175707618Y-81692464D02*
X175779047Y-81656750D01*
X175779047Y-81656750D02*
X175802856Y-81621035D01*
X175802856Y-81621035D02*
X175802856Y-81371035D01*
X175802856Y-81371035D02*
X175707618Y-81371035D01*
X176017142Y-81692464D02*
X176017142Y-80942464D01*
X176017142Y-80942464D02*
X176302856Y-81692464D01*
X176302856Y-81692464D02*
X176302856Y-80942464D01*
X176540952Y-81692464D02*
X176540952Y-80942464D01*
X176540952Y-80942464D02*
X176660000Y-80942464D01*
X176660000Y-80942464D02*
X176731428Y-80978178D01*
X176731428Y-80978178D02*
X176779047Y-81049607D01*
X176779047Y-81049607D02*
X176802857Y-81121035D01*
X176802857Y-81121035D02*
X176826666Y-81263892D01*
X176826666Y-81263892D02*
X176826666Y-81371035D01*
X176826666Y-81371035D02*
X176802857Y-81513892D01*
X176802857Y-81513892D02*
X176779047Y-81585321D01*
X176779047Y-81585321D02*
X176731428Y-81656750D01*
X176731428Y-81656750D02*
X176660000Y-81692464D01*
X176660000Y-81692464D02*
X176540952Y-81692464D01*
X191054071Y-79152464D02*
X190815976Y-79152464D01*
X190815976Y-79152464D02*
X190815976Y-78402464D01*
X191220738Y-78759607D02*
X191387405Y-78759607D01*
X191458833Y-79152464D02*
X191220738Y-79152464D01*
X191220738Y-79152464D02*
X191220738Y-78402464D01*
X191220738Y-78402464D02*
X191458833Y-78402464D01*
X191673119Y-79152464D02*
X191673119Y-78402464D01*
X191673119Y-78402464D02*
X191792167Y-78402464D01*
X191792167Y-78402464D02*
X191863595Y-78438178D01*
X191863595Y-78438178D02*
X191911214Y-78509607D01*
X191911214Y-78509607D02*
X191935024Y-78581035D01*
X191935024Y-78581035D02*
X191958833Y-78723892D01*
X191958833Y-78723892D02*
X191958833Y-78831035D01*
X191958833Y-78831035D02*
X191935024Y-78973892D01*
X191935024Y-78973892D02*
X191911214Y-79045321D01*
X191911214Y-79045321D02*
X191863595Y-79116750D01*
X191863595Y-79116750D02*
X191792167Y-79152464D01*
X191792167Y-79152464D02*
X191673119Y-79152464D01*
X175814761Y-79152464D02*
X175648095Y-78795321D01*
X175529047Y-79152464D02*
X175529047Y-78402464D01*
X175529047Y-78402464D02*
X175719523Y-78402464D01*
X175719523Y-78402464D02*
X175767142Y-78438178D01*
X175767142Y-78438178D02*
X175790952Y-78473892D01*
X175790952Y-78473892D02*
X175814761Y-78545321D01*
X175814761Y-78545321D02*
X175814761Y-78652464D01*
X175814761Y-78652464D02*
X175790952Y-78723892D01*
X175790952Y-78723892D02*
X175767142Y-78759607D01*
X175767142Y-78759607D02*
X175719523Y-78795321D01*
X175719523Y-78795321D02*
X175529047Y-78795321D01*
X176005238Y-78938178D02*
X176243333Y-78938178D01*
X175957619Y-79152464D02*
X176124285Y-78402464D01*
X176124285Y-78402464D02*
X176290952Y-79152464D01*
X176409999Y-78402464D02*
X176529047Y-79152464D01*
X176529047Y-79152464D02*
X176624285Y-78616750D01*
X176624285Y-78616750D02*
X176719523Y-79152464D01*
X176719523Y-79152464D02*
X176838571Y-78402464D01*
D10*
X182764791Y-117917694D02*
X182714211Y-117338634D01*
X182269919Y-117631979D02*
X182769919Y-116765954D01*
X182769919Y-116765954D02*
X183099834Y-116956430D01*
X183099834Y-116956430D02*
X183158503Y-117045289D01*
X183158503Y-117045289D02*
X183175933Y-117110337D01*
X183175933Y-117110337D02*
X183169553Y-117216626D01*
X183169553Y-117216626D02*
X183098124Y-117340343D01*
X183098124Y-117340343D02*
X183009266Y-117399013D01*
X183009266Y-117399013D02*
X182944217Y-117416442D01*
X182944217Y-117416442D02*
X182837929Y-117410063D01*
X182837929Y-117410063D02*
X182508015Y-117219586D01*
X183397849Y-117678347D02*
X183686525Y-117845014D01*
X183548338Y-118370075D02*
X183135945Y-118131979D01*
X183135945Y-118131979D02*
X183635945Y-117265954D01*
X183635945Y-117265954D02*
X184048338Y-117504049D01*
X183902062Y-118519312D02*
X184001970Y-118631980D01*
X184001970Y-118631980D02*
X184208167Y-118751027D01*
X184208167Y-118751027D02*
X184314455Y-118757407D01*
X184314455Y-118757407D02*
X184379504Y-118739977D01*
X184379504Y-118739977D02*
X184468362Y-118681308D01*
X184468362Y-118681308D02*
X184515981Y-118598829D01*
X184515981Y-118598829D02*
X184522361Y-118492541D01*
X184522361Y-118492541D02*
X184504931Y-118427492D01*
X184504931Y-118427492D02*
X184446262Y-118338634D01*
X184446262Y-118338634D02*
X184305114Y-118202157D01*
X184305114Y-118202157D02*
X184246445Y-118113298D01*
X184246445Y-118113298D02*
X184229015Y-118048250D01*
X184229015Y-118048250D02*
X184235395Y-117941961D01*
X184235395Y-117941961D02*
X184283014Y-117859483D01*
X184283014Y-117859483D02*
X184371873Y-117800814D01*
X184371873Y-117800814D02*
X184436921Y-117783384D01*
X184436921Y-117783384D02*
X184543210Y-117789764D01*
X184543210Y-117789764D02*
X184749406Y-117908811D01*
X184749406Y-117908811D02*
X184849314Y-118021479D01*
X185006182Y-118606919D02*
X185294858Y-118773585D01*
X185156671Y-119298646D02*
X184744278Y-119060551D01*
X184744278Y-119060551D02*
X185244278Y-118194526D01*
X185244278Y-118194526D02*
X185656671Y-118432621D01*
X185904107Y-118575478D02*
X186398978Y-118861192D01*
X185651543Y-119584361D02*
X186151543Y-118718335D01*
X183784512Y-109773147D02*
X183974988Y-109773147D01*
X183974988Y-109773147D02*
X184070226Y-109820766D01*
X184070226Y-109820766D02*
X184165464Y-109916004D01*
X184165464Y-109916004D02*
X184213083Y-110106480D01*
X184213083Y-110106480D02*
X184213083Y-110439813D01*
X184213083Y-110439813D02*
X184165464Y-110630289D01*
X184165464Y-110630289D02*
X184070226Y-110725528D01*
X184070226Y-110725528D02*
X183974988Y-110773147D01*
X183974988Y-110773147D02*
X183784512Y-110773147D01*
X183784512Y-110773147D02*
X183689274Y-110725528D01*
X183689274Y-110725528D02*
X183594036Y-110630289D01*
X183594036Y-110630289D02*
X183546417Y-110439813D01*
X183546417Y-110439813D02*
X183546417Y-110106480D01*
X183546417Y-110106480D02*
X183594036Y-109916004D01*
X183594036Y-109916004D02*
X183689274Y-109820766D01*
X183689274Y-109820766D02*
X183784512Y-109773147D01*
X185117845Y-110773147D02*
X184641655Y-110773147D01*
X184641655Y-110773147D02*
X184641655Y-109773147D01*
X185451179Y-110249337D02*
X185784512Y-110249337D01*
X185927369Y-110773147D02*
X185451179Y-110773147D01*
X185451179Y-110773147D02*
X185451179Y-109773147D01*
X185451179Y-109773147D02*
X185927369Y-109773147D01*
X186355941Y-110773147D02*
X186355941Y-109773147D01*
X186355941Y-109773147D02*
X186594036Y-109773147D01*
X186594036Y-109773147D02*
X186736893Y-109820766D01*
X186736893Y-109820766D02*
X186832131Y-109916004D01*
X186832131Y-109916004D02*
X186879750Y-110011242D01*
X186879750Y-110011242D02*
X186927369Y-110201718D01*
X186927369Y-110201718D02*
X186927369Y-110344575D01*
X186927369Y-110344575D02*
X186879750Y-110535051D01*
X186879750Y-110535051D02*
X186832131Y-110630289D01*
X186832131Y-110630289D02*
X186736893Y-110725528D01*
X186736893Y-110725528D02*
X186594036Y-110773147D01*
X186594036Y-110773147D02*
X186355941Y-110773147D01*
D12*
X107098325Y-86656814D02*
X114898325Y-86656814D01*
X114898325Y-82956814D02*
X107098325Y-82956814D01*
X114898325Y-83756814D02*
X114112654Y-82978433D01*
X114898325Y-84556814D02*
X114898325Y-82956814D01*
X161098325Y-89156814D02*
X168898325Y-89156814D01*
X168898325Y-85456814D02*
X161098325Y-85456814D01*
X168898325Y-86256814D02*
X168112654Y-85478433D01*
X168898325Y-87056814D02*
X168898325Y-85456814D01*
X89098325Y-108656814D02*
X96898325Y-108656814D01*
X96898325Y-104956814D02*
X89098325Y-104956814D01*
X96898325Y-105756814D02*
X96112654Y-104978433D01*
X96898325Y-106556814D02*
X96898325Y-104956814D01*
X107098325Y-69656814D02*
X114898325Y-69656814D01*
X114898325Y-65956814D02*
X107098325Y-65956814D01*
X114898325Y-66756814D02*
X114112654Y-65978433D01*
X114898325Y-67556814D02*
X114898325Y-65956814D01*
X151717142Y-123243865D02*
X159251363Y-125262654D01*
X160208994Y-121688728D02*
X152674773Y-119669940D01*
X160001939Y-122461469D02*
X159444499Y-121506264D01*
X159794883Y-123234210D02*
X160208994Y-121688728D01*
X172586891Y-135207357D02*
X176486891Y-128452359D01*
X173282597Y-126602359D02*
X169382597Y-133357357D01*
X173975418Y-127002359D02*
X172908484Y-127293579D01*
X174668238Y-127402359D02*
X173282597Y-126602359D01*
X188836891Y-144457357D02*
X192736891Y-137702359D01*
X189532597Y-135852359D02*
X185632597Y-142607357D01*
X190225418Y-136252359D02*
X189158484Y-136543579D01*
X190918238Y-136652359D02*
X189532597Y-135852359D01*
X89098325Y-74656814D02*
X96898325Y-74656814D01*
X96898325Y-70956814D02*
X89098325Y-70956814D01*
X96898325Y-71756814D02*
X96112654Y-70978433D01*
X96898325Y-72556814D02*
X96898325Y-70956814D01*
X125098325Y-67156814D02*
X132898325Y-67156814D01*
X132898325Y-63456814D02*
X125098325Y-63456814D01*
X132898325Y-64256814D02*
X132112654Y-63478433D01*
X132898325Y-65056814D02*
X132898325Y-63456814D01*
X143098325Y-69656814D02*
X150898325Y-69656814D01*
X150898325Y-65956814D02*
X143098325Y-65956814D01*
X150898325Y-66756814D02*
X150112654Y-65978433D01*
X150898325Y-67556814D02*
X150898325Y-65956814D01*
X161098325Y-72156814D02*
X168898325Y-72156814D01*
X168898325Y-68456814D02*
X161098325Y-68456814D01*
X168898325Y-69256814D02*
X168112654Y-68478433D01*
X168898325Y-70056814D02*
X168898325Y-68456814D01*
X71098325Y-100156814D02*
X78898325Y-100156814D01*
X78898325Y-96456814D02*
X71098325Y-96456814D01*
X78898325Y-97256814D02*
X78112654Y-96478433D01*
X78898325Y-98056814D02*
X78898325Y-96456814D01*
X89098325Y-91656814D02*
X96898325Y-91656814D01*
X96898325Y-87956814D02*
X89098325Y-87956814D01*
X96898325Y-88756814D02*
X96112654Y-87978433D01*
X96898325Y-89556814D02*
X96898325Y-87956814D01*
X125098325Y-84156814D02*
X132898325Y-84156814D01*
X132898325Y-80456814D02*
X125098325Y-80456814D01*
X132898325Y-81256814D02*
X132112654Y-80478433D01*
X132898325Y-82056814D02*
X132898325Y-80456814D01*
X143098325Y-86656814D02*
X150898325Y-86656814D01*
X150898325Y-82956814D02*
X143098325Y-82956814D01*
X150898325Y-83756814D02*
X150112654Y-82978433D01*
X150898325Y-84556814D02*
X150898325Y-82956814D01*
X130348325Y-121156814D02*
X138148325Y-121156814D01*
X138148325Y-117456814D02*
X130348325Y-117456814D01*
X138148325Y-118256814D02*
X137362654Y-117478433D01*
X138148325Y-119056814D02*
X138148325Y-117456814D01*
X107098325Y-103656814D02*
X114898325Y-103656814D01*
X114898325Y-99956814D02*
X107098325Y-99956814D01*
X114898325Y-100756814D02*
X114112654Y-99978433D01*
X114898325Y-101556814D02*
X114898325Y-99956814D01*
X125098325Y-101156814D02*
X132898325Y-101156814D01*
X132898325Y-97456814D02*
X125098325Y-97456814D01*
X132898325Y-98256814D02*
X132112654Y-97478433D01*
X132898325Y-99056814D02*
X132898325Y-97456814D01*
X143098325Y-103656814D02*
X150898325Y-103656814D01*
X150898325Y-99956814D02*
X143098325Y-99956814D01*
X150898325Y-100756814D02*
X150112654Y-99978433D01*
X150898325Y-101556814D02*
X150898325Y-99956814D01*
X161098325Y-106156814D02*
X168898325Y-106156814D01*
X168898325Y-102456814D02*
X161098325Y-102456814D01*
X168898325Y-103256814D02*
X168112654Y-102478433D01*
X168898325Y-104056814D02*
X168898325Y-102456814D01*
X71098325Y-83156814D02*
X78898325Y-83156814D01*
X78898325Y-79456814D02*
X71098325Y-79456814D01*
X78898325Y-80256814D02*
X78112654Y-79478433D01*
X78898325Y-81056814D02*
X78898325Y-79456814D01*
X192680000Y-117700000D02*
X193470000Y-117700000D01*
X194480000Y-117100000D02*
X194480000Y-111400000D01*
X191630000Y-115850000D02*
X191630000Y-114150000D01*
X194480000Y-115650000D02*
X195770000Y-115650000D01*
X195770000Y-115650000D02*
X195980000Y-115450000D01*
X195980000Y-115450000D02*
X195980000Y-114550000D01*
X195770000Y-114350000D02*
X195980000Y-114550000D01*
X195770000Y-114350000D02*
X194480000Y-114350000D01*
X191630000Y-112850000D02*
X191630000Y-112650000D01*
X193470000Y-110800000D02*
X192680000Y-110800000D01*
X186000000Y-121110000D02*
X186000000Y-116750000D01*
X185200000Y-118850000D02*
X185200000Y-121110000D01*
X185200000Y-118850000D02*
X185200000Y-117250000D01*
X184640000Y-114890000D02*
X184640000Y-113675000D01*
X189560000Y-121110000D02*
X189560000Y-113290000D01*
X183440000Y-113290000D02*
X183440000Y-121110000D01*
X187800000Y-118850000D02*
X187800000Y-117250000D01*
X189560000Y-114890000D02*
X188640000Y-114890000D01*
X187000000Y-116750000D02*
X187000000Y-121110000D01*
X188640000Y-114890000D02*
X188360000Y-114890000D01*
X183440000Y-121110000D02*
X189560000Y-121110000D01*
X184200000Y-118850000D02*
X185200000Y-118850000D01*
X184700000Y-118850000D02*
X184700000Y-121110000D01*
X184360000Y-113290000D02*
X183440000Y-113290000D01*
X185200000Y-117250000D02*
X184200000Y-117250000D01*
X184360000Y-114890000D02*
X184360000Y-113290000D01*
X184640000Y-114890000D02*
X184360000Y-114890000D01*
X188800000Y-118850000D02*
X187800000Y-118850000D01*
X184200000Y-117250000D02*
X184200000Y-118850000D01*
X186000000Y-116750000D02*
X187000000Y-116750000D01*
X183440000Y-114890000D02*
X184360000Y-114890000D01*
X188800000Y-117250000D02*
X188800000Y-118850000D01*
X187800000Y-117250000D02*
X188800000Y-117250000D01*
X189560000Y-113290000D02*
X188640000Y-113290000D01*
X188640000Y-113290000D02*
X188640000Y-114890000D01*
D10*
X185001779Y-129440515D02*
X182706810Y-128115515D01*
X182263750Y-128032917D02*
X185338140Y-129807918D01*
X182083846Y-128044521D02*
X185331441Y-129919521D01*
X181947243Y-128081123D02*
X185368044Y-130056123D01*
X181810641Y-128117726D02*
X185447947Y-130217726D01*
X181649038Y-128197630D02*
X185459550Y-130397630D01*
X181530737Y-128302534D02*
X185427851Y-130552534D01*
X181412436Y-128407437D02*
X185352851Y-130682437D01*
X185367803Y-130806540D02*
X184080303Y-133036555D01*
X181340785Y-128481540D02*
X180040785Y-130733206D01*
X181337436Y-128537341D02*
X185321152Y-130837341D01*
X181262436Y-128667245D02*
X185246152Y-130967245D01*
X181187436Y-128797149D02*
X185171152Y-131097149D01*
X181112436Y-128927053D02*
X185096152Y-131227054D01*
X181037436Y-129056956D02*
X185021152Y-131356956D01*
X180962436Y-129186860D02*
X184946152Y-131486860D01*
X180887436Y-129316764D02*
X184871152Y-131616764D01*
X180812436Y-129446668D02*
X184796152Y-131746668D01*
X180737436Y-129576572D02*
X184721152Y-131876572D01*
X180662436Y-129706476D02*
X184646152Y-132006476D01*
X180587436Y-129836378D02*
X184571152Y-132136379D01*
X180512436Y-129966283D02*
X184496152Y-132266283D01*
X180437436Y-130096187D02*
X184421152Y-132396187D01*
X180362436Y-130226091D02*
X184346152Y-132526091D01*
X180287436Y-130355995D02*
X184271152Y-132655995D01*
X180212436Y-130485898D02*
X184196152Y-132785898D01*
X180137436Y-130615802D02*
X184077851Y-132890802D01*
X180062436Y-130745706D02*
X184046152Y-133045706D01*
X179987436Y-130875610D02*
X183971152Y-133175610D01*
X179955737Y-131030514D02*
X183896152Y-133305514D01*
X179967339Y-131210417D02*
X183907755Y-133485417D01*
X179978942Y-131390321D02*
X183876056Y-133640321D01*
X180058846Y-131551924D02*
X183869358Y-133751924D01*
X180225352Y-131763526D02*
X183862659Y-133863526D01*
X180305256Y-131925129D02*
X183899261Y-134000129D01*
X180428461Y-132111731D02*
X184022466Y-134186731D01*
X180508365Y-132273334D02*
X184102370Y-134348334D01*
X180631570Y-132459936D02*
X184485383Y-134684936D01*
X180686474Y-132664840D02*
X184540287Y-134889840D01*
X180741377Y-132869744D02*
X184551889Y-135069744D01*
X180752980Y-133049648D02*
X184563492Y-135249648D01*
X180764583Y-133229552D02*
X184618396Y-135454552D01*
X180776185Y-133409456D02*
X184629998Y-135634456D01*
X180744486Y-133564359D02*
X184684902Y-135839359D01*
X180756089Y-133744263D02*
X184696505Y-136019263D01*
X180724390Y-133899167D02*
X184708107Y-136199167D01*
X184760559Y-136258318D02*
X184510383Y-134641635D01*
X184760559Y-136258318D02*
X183485559Y-138466682D01*
X180649390Y-134029071D02*
X184676408Y-136354071D01*
X180574390Y-134158975D02*
X184601408Y-136483975D01*
X180542691Y-134313878D02*
X184483107Y-136588878D01*
X180467691Y-134443782D02*
X184451408Y-136743782D01*
X180446041Y-134431282D02*
X179458541Y-136141682D01*
X180392691Y-134573686D02*
X184376408Y-136873686D01*
X180317691Y-134703590D02*
X184301408Y-137003590D01*
X180242691Y-134833495D02*
X184226408Y-137133494D01*
X180167691Y-134963397D02*
X184151408Y-137263397D01*
X180092691Y-135093301D02*
X184076408Y-137393301D01*
X180017691Y-135223205D02*
X184001408Y-137523205D01*
X179942691Y-135353109D02*
X183926408Y-137653109D01*
X179867691Y-135483013D02*
X183851408Y-137783013D01*
X179792691Y-135612917D02*
X183776408Y-137912917D01*
X179717691Y-135742820D02*
X183701408Y-138042820D01*
X179642691Y-135872724D02*
X183626408Y-138172724D01*
X179567691Y-136002628D02*
X183551408Y-138302628D01*
X179492691Y-136132532D02*
X183476408Y-138432532D01*
X179547595Y-136337436D02*
X183314806Y-138512436D01*
X179559198Y-136517339D02*
X183109902Y-138567339D01*
X179614102Y-136722243D02*
X182904998Y-138622243D01*
X179669005Y-136927147D02*
X182700094Y-138677147D01*
X179767211Y-137157051D02*
X182495191Y-138732051D01*
X179778813Y-137336955D02*
X182290287Y-138786955D01*
X182085383Y-138841858D02*
X183485559Y-138466682D01*
X182085383Y-138841858D02*
X179833717Y-137541858D01*
X179833717Y-137541858D02*
X179458541Y-136141682D01*
X185367803Y-130806540D02*
G75*
G03*
X185001778Y-129440515I-866024J500000D01*
G01*
X182706810Y-128115515D02*
G75*
G03*
X181340785Y-128481540I-500000J-866024D01*
G01*
X180041334Y-130734672D02*
G75*
G03*
X180218584Y-131831440I822106J-429845D01*
G01*
X180446040Y-134431282D02*
G75*
G03*
X180218584Y-131831440I-1970209J1137500D01*
G01*
X184080304Y-133036556D02*
G75*
G03*
X184510383Y-134641634I1017582J-587499D01*
G01*
X160500693Y-133743156D02*
X161186563Y-131183453D01*
X161151673Y-130734112D02*
X160232865Y-134163148D01*
X161093903Y-130563341D02*
X160123331Y-134185563D01*
X161023192Y-130440866D02*
X160000857Y-134256273D01*
X160952481Y-130318392D02*
X159865441Y-134375280D01*
X160833474Y-130182976D02*
X159694671Y-134433050D01*
X160701527Y-130095857D02*
X159536841Y-134442523D01*
X160569579Y-130008738D02*
X159391952Y-134403701D01*
X159275948Y-134450263D02*
X156788689Y-133783804D01*
X160479457Y-129958708D02*
X157968049Y-129285778D01*
X160424690Y-129969915D02*
X159234122Y-134413174D01*
X160279801Y-129931092D02*
X159089233Y-134374351D01*
X160134912Y-129892269D02*
X158944344Y-134335528D01*
X159990023Y-129853447D02*
X158799456Y-134296705D01*
X159845134Y-129814624D02*
X158654567Y-134257883D01*
X159700245Y-129775801D02*
X158509678Y-134219060D01*
X159555357Y-129736978D02*
X158364789Y-134180237D01*
X159410468Y-129698155D02*
X158219900Y-134141414D01*
X159265579Y-129659332D02*
X158075011Y-134102591D01*
X159120690Y-129620509D02*
X157930122Y-134063768D01*
X158975801Y-129581687D02*
X157785233Y-134024945D01*
X158830912Y-129542864D02*
X157640345Y-133986123D01*
X158686023Y-129504041D02*
X157495456Y-133947300D01*
X158541134Y-129465218D02*
X157350567Y-133908477D01*
X158396246Y-129426395D02*
X157205678Y-133869654D01*
X158251357Y-129387572D02*
X157060789Y-133830831D01*
X158106468Y-129348749D02*
X156928841Y-133743712D01*
X157961579Y-129309927D02*
X156771011Y-133753185D01*
X157816690Y-129271104D02*
X156626122Y-133714363D01*
X157658860Y-129280577D02*
X156481234Y-133675540D01*
X157488089Y-129338347D02*
X156310463Y-133733309D01*
X157317319Y-129396117D02*
X156152633Y-133742783D01*
X157181903Y-129515124D02*
X156043099Y-133765197D01*
X157020606Y-129730723D02*
X155933566Y-133787612D01*
X156885190Y-129849730D02*
X155811091Y-133858322D01*
X156736834Y-130017033D02*
X155662735Y-134025626D01*
X156601419Y-130136040D02*
X155527320Y-134144633D01*
X156453062Y-130303344D02*
X155301317Y-134601714D01*
X156269350Y-130409410D02*
X155117606Y-134707780D01*
X156085639Y-130515476D02*
X154946835Y-134765549D01*
X155914868Y-130573245D02*
X154776064Y-134823319D01*
X155744097Y-130631015D02*
X154592352Y-134929385D01*
X155573326Y-130688785D02*
X154421582Y-134987155D01*
X155415497Y-130698258D02*
X154237870Y-135093221D01*
X155244726Y-130756028D02*
X154067099Y-135150991D01*
X155086896Y-130765501D02*
X153896328Y-135208760D01*
X153852769Y-135274734D02*
X155349614Y-134614655D01*
X153852769Y-135274734D02*
X151389658Y-134614746D01*
X154942007Y-130726679D02*
X153738499Y-135218234D01*
X154797118Y-130687856D02*
X153593610Y-135179411D01*
X154639288Y-130697329D02*
X153461662Y-135092292D01*
X154494400Y-130658506D02*
X153303832Y-135101765D01*
X154500870Y-130634358D02*
X152593166Y-130123191D01*
X154349511Y-130619683D02*
X153158943Y-135062942D01*
X154204622Y-130580861D02*
X153014054Y-135024119D01*
X154059733Y-130542038D02*
X152869165Y-134985297D01*
X153914844Y-130503215D02*
X152724276Y-134946474D01*
X153769955Y-130464392D02*
X152579388Y-134907651D01*
X153625066Y-130425569D02*
X152434499Y-134868828D01*
X153480177Y-130386746D02*
X152289610Y-134830005D01*
X153335289Y-130347923D02*
X152144721Y-134791182D01*
X153190400Y-130309101D02*
X151999832Y-134752359D01*
X153045511Y-130270278D02*
X151854943Y-134713537D01*
X152900622Y-130231455D02*
X151710054Y-134674714D01*
X152755733Y-130192632D02*
X151565165Y-134635891D01*
X152610844Y-130153809D02*
X151420277Y-134597068D01*
X152427132Y-130259875D02*
X151301270Y-134461653D01*
X152256362Y-130317645D02*
X151195204Y-134277941D01*
X152072650Y-130423711D02*
X151089138Y-134094229D01*
X151888938Y-130529777D02*
X150983072Y-133910517D01*
X151692286Y-130684139D02*
X150877006Y-133726806D01*
X151521515Y-130741909D02*
X150770939Y-133543094D01*
X150664873Y-133359382D02*
X151389658Y-134614746D01*
X150664873Y-133359382D02*
X151337803Y-130847975D01*
X151337803Y-130847975D02*
X152593166Y-130123191D01*
X159275948Y-134450262D02*
G75*
G03*
X160500692Y-133743156I258820J965924D01*
G01*
X161186563Y-131183453D02*
G75*
G03*
X160479457Y-129958709I-965924J258820D01*
G01*
X157966775Y-129286689D02*
G75*
G03*
X156953255Y-129741764I-202422J-905345D01*
G01*
X154500870Y-130634358D02*
G75*
G03*
X156953254Y-129741764I588814J2197480D01*
G01*
X156788689Y-133783805D02*
G75*
G03*
X155349615Y-134614655I-304111J-1134964D01*
G01*
X82300000Y-91025000D02*
X82300000Y-88375000D01*
X82150000Y-87950000D02*
X82150000Y-91500000D01*
X82050000Y-87800000D02*
X82050000Y-91550000D01*
X81950000Y-87700000D02*
X81950000Y-91650000D01*
X81850000Y-87600000D02*
X81850000Y-91800000D01*
X81700000Y-87500000D02*
X81700000Y-91900000D01*
X81550000Y-87450000D02*
X81550000Y-91950000D01*
X81400000Y-87400000D02*
X81400000Y-91950000D01*
X81300000Y-92025000D02*
X78725000Y-92025000D01*
X81300000Y-87375000D02*
X78700000Y-87375000D01*
X81250000Y-87400000D02*
X81250000Y-92000000D01*
X81100000Y-87400000D02*
X81100000Y-92000000D01*
X80950000Y-87400000D02*
X80950000Y-92000000D01*
X80800000Y-87400000D02*
X80800000Y-92000000D01*
X80650000Y-87400000D02*
X80650000Y-92000000D01*
X80500000Y-87400000D02*
X80500000Y-92000000D01*
X80350000Y-87400000D02*
X80350000Y-92000000D01*
X80200000Y-87400000D02*
X80200000Y-92000000D01*
X80050000Y-87400000D02*
X80050000Y-92000000D01*
X79900000Y-87400000D02*
X79900000Y-92000000D01*
X79750000Y-87400000D02*
X79750000Y-92000000D01*
X79600000Y-87400000D02*
X79600000Y-92000000D01*
X79450000Y-87400000D02*
X79450000Y-92000000D01*
X79300000Y-87400000D02*
X79300000Y-92000000D01*
X79150000Y-87400000D02*
X79150000Y-92000000D01*
X79000000Y-87400000D02*
X79000000Y-92000000D01*
X78850000Y-87400000D02*
X78850000Y-91950000D01*
X78700000Y-87400000D02*
X78700000Y-92000000D01*
X78550000Y-87400000D02*
X78550000Y-92000000D01*
X78400000Y-87450000D02*
X78400000Y-92000000D01*
X78250000Y-87550000D02*
X78250000Y-92100000D01*
X78100000Y-87650000D02*
X78100000Y-92150000D01*
X78000000Y-87800000D02*
X78000000Y-92200000D01*
X77900000Y-88050000D02*
X77900000Y-92250000D01*
X77800000Y-88200000D02*
X77800000Y-92350000D01*
X77700000Y-88400000D02*
X77700000Y-92550000D01*
X77600000Y-88550000D02*
X77600000Y-92700000D01*
X77500000Y-88750000D02*
X77500000Y-93200000D01*
X77350000Y-88900000D02*
X77350000Y-93350000D01*
X77200000Y-89050000D02*
X77200000Y-93450000D01*
X77050000Y-89150000D02*
X77050000Y-93550000D01*
X76900000Y-89250000D02*
X76900000Y-93700000D01*
X76750000Y-89350000D02*
X76750000Y-93800000D01*
X76600000Y-89400000D02*
X76600000Y-93950000D01*
X76450000Y-89500000D02*
X76450000Y-94050000D01*
X76300000Y-89550000D02*
X76300000Y-94150000D01*
X76275000Y-94225000D02*
X77550000Y-93200000D01*
X76275000Y-94225000D02*
X73725000Y-94225000D01*
X76150000Y-89550000D02*
X76150000Y-94200000D01*
X76000000Y-89550000D02*
X76000000Y-94200000D01*
X75850000Y-89600000D02*
X75850000Y-94150000D01*
X75700000Y-89600000D02*
X75700000Y-94200000D01*
X75700000Y-89575000D02*
X73725000Y-89575000D01*
X75550000Y-89600000D02*
X75550000Y-94200000D01*
X75400000Y-89600000D02*
X75400000Y-94200000D01*
X75250000Y-89600000D02*
X75250000Y-94200000D01*
X75100000Y-89600000D02*
X75100000Y-94200000D01*
X74950000Y-89600000D02*
X74950000Y-94200000D01*
X74800000Y-89600000D02*
X74800000Y-94200000D01*
X74650000Y-89600000D02*
X74650000Y-94200000D01*
X74500000Y-89600000D02*
X74500000Y-94200000D01*
X74350000Y-89600000D02*
X74350000Y-94200000D01*
X74200000Y-89600000D02*
X74200000Y-94200000D01*
X74050000Y-89600000D02*
X74050000Y-94200000D01*
X73900000Y-89600000D02*
X73900000Y-94200000D01*
X73750000Y-89600000D02*
X73750000Y-94200000D01*
X73600000Y-89750000D02*
X73600000Y-94100000D01*
X73450000Y-89850000D02*
X73450000Y-93950000D01*
X73300000Y-90000000D02*
X73300000Y-93800000D01*
X73150000Y-90150000D02*
X73150000Y-93650000D01*
X73000000Y-90350000D02*
X73000000Y-93500000D01*
X72850000Y-90450000D02*
X72850000Y-93350000D01*
X72700000Y-93200000D02*
X73725000Y-94225000D01*
X72700000Y-93200000D02*
X72700000Y-90600000D01*
X72700000Y-90600000D02*
X73725000Y-89575000D01*
X81300000Y-92025000D02*
G75*
G03*
X82300000Y-91025000I1J999999D01*
G01*
X82300000Y-88375000D02*
G75*
G03*
X81300000Y-87375000I-999999J1D01*
G01*
X78699005Y-87376210D02*
G75*
G03*
X77837802Y-88078096I38796J-926886D01*
G01*
X75700000Y-89575000D02*
G75*
G03*
X77837801Y-88078096I1J2274999D01*
G01*
X78725000Y-92025000D02*
G75*
G03*
X77550000Y-93200000I2J-1175002D01*
G01*
X100300000Y-82525000D02*
X100300000Y-79875000D01*
X100150000Y-79450000D02*
X100150000Y-83000000D01*
X100050000Y-79300000D02*
X100050000Y-83050000D01*
X99950000Y-79200000D02*
X99950000Y-83150000D01*
X99850000Y-79100000D02*
X99850000Y-83300000D01*
X99700000Y-79000000D02*
X99700000Y-83400000D01*
X99550000Y-78950000D02*
X99550000Y-83450000D01*
X99400000Y-78900000D02*
X99400000Y-83450000D01*
X99300000Y-83525000D02*
X96725000Y-83525000D01*
X99300000Y-78875000D02*
X96700000Y-78875000D01*
X99250000Y-78900000D02*
X99250000Y-83500000D01*
X99100000Y-78900000D02*
X99100000Y-83500000D01*
X98950000Y-78900000D02*
X98950000Y-83500000D01*
X98800000Y-78900000D02*
X98800000Y-83500000D01*
X98650000Y-78900000D02*
X98650000Y-83500000D01*
X98500000Y-78900000D02*
X98500000Y-83500000D01*
X98350000Y-78900000D02*
X98350000Y-83500000D01*
X98200000Y-78900000D02*
X98200000Y-83500000D01*
X98050000Y-78900000D02*
X98050000Y-83500000D01*
X97900000Y-78900000D02*
X97900000Y-83500000D01*
X97750000Y-78900000D02*
X97750000Y-83500000D01*
X97600000Y-78900000D02*
X97600000Y-83500000D01*
X97450000Y-78900000D02*
X97450000Y-83500000D01*
X97300000Y-78900000D02*
X97300000Y-83500000D01*
X97150000Y-78900000D02*
X97150000Y-83500000D01*
X97000000Y-78900000D02*
X97000000Y-83500000D01*
X96850000Y-78900000D02*
X96850000Y-83450000D01*
X96700000Y-78900000D02*
X96700000Y-83500000D01*
X96550000Y-78900000D02*
X96550000Y-83500000D01*
X96400000Y-78950000D02*
X96400000Y-83500000D01*
X96250000Y-79050000D02*
X96250000Y-83600000D01*
X96100000Y-79150000D02*
X96100000Y-83650000D01*
X96000000Y-79300000D02*
X96000000Y-83700000D01*
X95900000Y-79550000D02*
X95900000Y-83750000D01*
X95800000Y-79700000D02*
X95800000Y-83850000D01*
X95700000Y-79900000D02*
X95700000Y-84050000D01*
X95600000Y-80050000D02*
X95600000Y-84200000D01*
X95500000Y-80250000D02*
X95500000Y-84700000D01*
X95350000Y-80400000D02*
X95350000Y-84850000D01*
X95200000Y-80550000D02*
X95200000Y-84950000D01*
X95050000Y-80650000D02*
X95050000Y-85050000D01*
X94900000Y-80750000D02*
X94900000Y-85200000D01*
X94750000Y-80850000D02*
X94750000Y-85300000D01*
X94600000Y-80900000D02*
X94600000Y-85450000D01*
X94450000Y-81000000D02*
X94450000Y-85550000D01*
X94300000Y-81050000D02*
X94300000Y-85650000D01*
X94275000Y-85725000D02*
X95550000Y-84700000D01*
X94275000Y-85725000D02*
X91725000Y-85725000D01*
X94150000Y-81050000D02*
X94150000Y-85700000D01*
X94000000Y-81050000D02*
X94000000Y-85700000D01*
X93850000Y-81100000D02*
X93850000Y-85650000D01*
X93700000Y-81100000D02*
X93700000Y-85700000D01*
X93700000Y-81075000D02*
X91725000Y-81075000D01*
X93550000Y-81100000D02*
X93550000Y-85700000D01*
X93400000Y-81100000D02*
X93400000Y-85700000D01*
X93250000Y-81100000D02*
X93250000Y-85700000D01*
X93100000Y-81100000D02*
X93100000Y-85700000D01*
X92950000Y-81100000D02*
X92950000Y-85700000D01*
X92800000Y-81100000D02*
X92800000Y-85700000D01*
X92650000Y-81100000D02*
X92650000Y-85700000D01*
X92500000Y-81100000D02*
X92500000Y-85700000D01*
X92350000Y-81100000D02*
X92350000Y-85700000D01*
X92200000Y-81100000D02*
X92200000Y-85700000D01*
X92050000Y-81100000D02*
X92050000Y-85700000D01*
X91900000Y-81100000D02*
X91900000Y-85700000D01*
X91750000Y-81100000D02*
X91750000Y-85700000D01*
X91600000Y-81250000D02*
X91600000Y-85600000D01*
X91450000Y-81350000D02*
X91450000Y-85450000D01*
X91300000Y-81500000D02*
X91300000Y-85300000D01*
X91150000Y-81650000D02*
X91150000Y-85150000D01*
X91000000Y-81850000D02*
X91000000Y-85000000D01*
X90850000Y-81950000D02*
X90850000Y-84850000D01*
X90700000Y-84700000D02*
X91725000Y-85725000D01*
X90700000Y-84700000D02*
X90700000Y-82100000D01*
X90700000Y-82100000D02*
X91725000Y-81075000D01*
X99300000Y-83525000D02*
G75*
G03*
X100300000Y-82525000I1J999999D01*
G01*
X100300000Y-79875000D02*
G75*
G03*
X99300000Y-78875000I-999999J1D01*
G01*
X96699005Y-78876210D02*
G75*
G03*
X95837802Y-79578096I38796J-926886D01*
G01*
X93700000Y-81075000D02*
G75*
G03*
X95837801Y-79578096I1J2274999D01*
G01*
X96725000Y-83525000D02*
G75*
G03*
X95550000Y-84700000I2J-1175002D01*
G01*
X118300000Y-77525000D02*
X118300000Y-74875000D01*
X118150000Y-74450000D02*
X118150000Y-78000000D01*
X118050000Y-74300000D02*
X118050000Y-78050000D01*
X117950000Y-74200000D02*
X117950000Y-78150000D01*
X117850000Y-74100000D02*
X117850000Y-78300000D01*
X117700000Y-74000000D02*
X117700000Y-78400000D01*
X117550000Y-73950000D02*
X117550000Y-78450000D01*
X117400000Y-73900000D02*
X117400000Y-78450000D01*
X117300000Y-78525000D02*
X114725000Y-78525000D01*
X117300000Y-73875000D02*
X114700000Y-73875000D01*
X117250000Y-73900000D02*
X117250000Y-78500000D01*
X117100000Y-73900000D02*
X117100000Y-78500000D01*
X116950000Y-73900000D02*
X116950000Y-78500000D01*
X116800000Y-73900000D02*
X116800000Y-78500000D01*
X116650000Y-73900000D02*
X116650000Y-78500000D01*
X116500000Y-73900000D02*
X116500000Y-78500000D01*
X116350000Y-73900000D02*
X116350000Y-78500000D01*
X116200000Y-73900000D02*
X116200000Y-78500000D01*
X116050000Y-73900000D02*
X116050000Y-78500000D01*
X115900000Y-73900000D02*
X115900000Y-78500000D01*
X115750000Y-73900000D02*
X115750000Y-78500000D01*
X115600000Y-73900000D02*
X115600000Y-78500000D01*
X115450000Y-73900000D02*
X115450000Y-78500000D01*
X115300000Y-73900000D02*
X115300000Y-78500000D01*
X115150000Y-73900000D02*
X115150000Y-78500000D01*
X115000000Y-73900000D02*
X115000000Y-78500000D01*
X114850000Y-73900000D02*
X114850000Y-78450000D01*
X114700000Y-73900000D02*
X114700000Y-78500000D01*
X114550000Y-73900000D02*
X114550000Y-78500000D01*
X114400000Y-73950000D02*
X114400000Y-78500000D01*
X114250000Y-74050000D02*
X114250000Y-78600000D01*
X114100000Y-74150000D02*
X114100000Y-78650000D01*
X114000000Y-74300000D02*
X114000000Y-78700000D01*
X113900000Y-74550000D02*
X113900000Y-78750000D01*
X113800000Y-74700000D02*
X113800000Y-78850000D01*
X113700000Y-74900000D02*
X113700000Y-79050000D01*
X113600000Y-75050000D02*
X113600000Y-79200000D01*
X113500000Y-75250000D02*
X113500000Y-79700000D01*
X113350000Y-75400000D02*
X113350000Y-79850000D01*
X113200000Y-75550000D02*
X113200000Y-79950000D01*
X113050000Y-75650000D02*
X113050000Y-80050000D01*
X112900000Y-75750000D02*
X112900000Y-80200000D01*
X112750000Y-75850000D02*
X112750000Y-80300000D01*
X112600000Y-75900000D02*
X112600000Y-80450000D01*
X112450000Y-76000000D02*
X112450000Y-80550000D01*
X112300000Y-76050000D02*
X112300000Y-80650000D01*
X112275000Y-80725000D02*
X113550000Y-79700000D01*
X112275000Y-80725000D02*
X109725000Y-80725000D01*
X112150000Y-76050000D02*
X112150000Y-80700000D01*
X112000000Y-76050000D02*
X112000000Y-80700000D01*
X111850000Y-76100000D02*
X111850000Y-80650000D01*
X111700000Y-76100000D02*
X111700000Y-80700000D01*
X111700000Y-76075000D02*
X109725000Y-76075000D01*
X111550000Y-76100000D02*
X111550000Y-80700000D01*
X111400000Y-76100000D02*
X111400000Y-80700000D01*
X111250000Y-76100000D02*
X111250000Y-80700000D01*
X111100000Y-76100000D02*
X111100000Y-80700000D01*
X110950000Y-76100000D02*
X110950000Y-80700000D01*
X110800000Y-76100000D02*
X110800000Y-80700000D01*
X110650000Y-76100000D02*
X110650000Y-80700000D01*
X110500000Y-76100000D02*
X110500000Y-80700000D01*
X110350000Y-76100000D02*
X110350000Y-80700000D01*
X110200000Y-76100000D02*
X110200000Y-80700000D01*
X110050000Y-76100000D02*
X110050000Y-80700000D01*
X109900000Y-76100000D02*
X109900000Y-80700000D01*
X109750000Y-76100000D02*
X109750000Y-80700000D01*
X109600000Y-76250000D02*
X109600000Y-80600000D01*
X109450000Y-76350000D02*
X109450000Y-80450000D01*
X109300000Y-76500000D02*
X109300000Y-80300000D01*
X109150000Y-76650000D02*
X109150000Y-80150000D01*
X109000000Y-76850000D02*
X109000000Y-80000000D01*
X108850000Y-76950000D02*
X108850000Y-79850000D01*
X108700000Y-79700000D02*
X109725000Y-80725000D01*
X108700000Y-79700000D02*
X108700000Y-77100000D01*
X108700000Y-77100000D02*
X109725000Y-76075000D01*
X117300000Y-78525000D02*
G75*
G03*
X118300000Y-77525000I1J999999D01*
G01*
X118300000Y-74875000D02*
G75*
G03*
X117300000Y-73875000I-999999J1D01*
G01*
X114699005Y-73876210D02*
G75*
G03*
X113837802Y-74578096I38796J-926886D01*
G01*
X111700000Y-76075000D02*
G75*
G03*
X113837801Y-74578096I1J2274999D01*
G01*
X114725000Y-78525000D02*
G75*
G03*
X113550000Y-79700000I2J-1175002D01*
G01*
X136300000Y-75025000D02*
X136300000Y-72375000D01*
X136150000Y-71950000D02*
X136150000Y-75500000D01*
X136050000Y-71800000D02*
X136050000Y-75550000D01*
X135950000Y-71700000D02*
X135950000Y-75650000D01*
X135850000Y-71600000D02*
X135850000Y-75800000D01*
X135700000Y-71500000D02*
X135700000Y-75900000D01*
X135550000Y-71450000D02*
X135550000Y-75950000D01*
X135400000Y-71400000D02*
X135400000Y-75950000D01*
X135300000Y-76025000D02*
X132725000Y-76025000D01*
X135300000Y-71375000D02*
X132700000Y-71375000D01*
X135250000Y-71400000D02*
X135250000Y-76000000D01*
X135100000Y-71400000D02*
X135100000Y-76000000D01*
X134950000Y-71400000D02*
X134950000Y-76000000D01*
X134800000Y-71400000D02*
X134800000Y-76000000D01*
X134650000Y-71400000D02*
X134650000Y-76000000D01*
X134500000Y-71400000D02*
X134500000Y-76000000D01*
X134350000Y-71400000D02*
X134350000Y-76000000D01*
X134200000Y-71400000D02*
X134200000Y-76000000D01*
X134050000Y-71400000D02*
X134050000Y-76000000D01*
X133900000Y-71400000D02*
X133900000Y-76000000D01*
X133750000Y-71400000D02*
X133750000Y-76000000D01*
X133600000Y-71400000D02*
X133600000Y-76000000D01*
X133450000Y-71400000D02*
X133450000Y-76000000D01*
X133300000Y-71400000D02*
X133300000Y-76000000D01*
X133150000Y-71400000D02*
X133150000Y-76000000D01*
X133000000Y-71400000D02*
X133000000Y-76000000D01*
X132850000Y-71400000D02*
X132850000Y-75950000D01*
X132700000Y-71400000D02*
X132700000Y-76000000D01*
X132550000Y-71400000D02*
X132550000Y-76000000D01*
X132400000Y-71450000D02*
X132400000Y-76000000D01*
X132250000Y-71550000D02*
X132250000Y-76100000D01*
X132100000Y-71650000D02*
X132100000Y-76150000D01*
X132000000Y-71800000D02*
X132000000Y-76200000D01*
X131900000Y-72050000D02*
X131900000Y-76250000D01*
X131800000Y-72200000D02*
X131800000Y-76350000D01*
X131700000Y-72400000D02*
X131700000Y-76550000D01*
X131600000Y-72550000D02*
X131600000Y-76700000D01*
X131500000Y-72750000D02*
X131500000Y-77200000D01*
X131350000Y-72900000D02*
X131350000Y-77350000D01*
X131200000Y-73050000D02*
X131200000Y-77450000D01*
X131050000Y-73150000D02*
X131050000Y-77550000D01*
X130900000Y-73250000D02*
X130900000Y-77700000D01*
X130750000Y-73350000D02*
X130750000Y-77800000D01*
X130600000Y-73400000D02*
X130600000Y-77950000D01*
X130450000Y-73500000D02*
X130450000Y-78050000D01*
X130300000Y-73550000D02*
X130300000Y-78150000D01*
X130275000Y-78225000D02*
X131550000Y-77200000D01*
X130275000Y-78225000D02*
X127725000Y-78225000D01*
X130150000Y-73550000D02*
X130150000Y-78200000D01*
X130000000Y-73550000D02*
X130000000Y-78200000D01*
X129850000Y-73600000D02*
X129850000Y-78150000D01*
X129700000Y-73600000D02*
X129700000Y-78200000D01*
X129700000Y-73575000D02*
X127725000Y-73575000D01*
X129550000Y-73600000D02*
X129550000Y-78200000D01*
X129400000Y-73600000D02*
X129400000Y-78200000D01*
X129250000Y-73600000D02*
X129250000Y-78200000D01*
X129100000Y-73600000D02*
X129100000Y-78200000D01*
X128950000Y-73600000D02*
X128950000Y-78200000D01*
X128800000Y-73600000D02*
X128800000Y-78200000D01*
X128650000Y-73600000D02*
X128650000Y-78200000D01*
X128500000Y-73600000D02*
X128500000Y-78200000D01*
X128350000Y-73600000D02*
X128350000Y-78200000D01*
X128200000Y-73600000D02*
X128200000Y-78200000D01*
X128050000Y-73600000D02*
X128050000Y-78200000D01*
X127900000Y-73600000D02*
X127900000Y-78200000D01*
X127750000Y-73600000D02*
X127750000Y-78200000D01*
X127600000Y-73750000D02*
X127600000Y-78100000D01*
X127450000Y-73850000D02*
X127450000Y-77950000D01*
X127300000Y-74000000D02*
X127300000Y-77800000D01*
X127150000Y-74150000D02*
X127150000Y-77650000D01*
X127000000Y-74350000D02*
X127000000Y-77500000D01*
X126850000Y-74450000D02*
X126850000Y-77350000D01*
X126700000Y-77200000D02*
X127725000Y-78225000D01*
X126700000Y-77200000D02*
X126700000Y-74600000D01*
X126700000Y-74600000D02*
X127725000Y-73575000D01*
X135300000Y-76025000D02*
G75*
G03*
X136300000Y-75025000I1J999999D01*
G01*
X136300000Y-72375000D02*
G75*
G03*
X135300000Y-71375000I-999999J1D01*
G01*
X132699005Y-71376210D02*
G75*
G03*
X131837802Y-72078096I38796J-926886D01*
G01*
X129700000Y-73575000D02*
G75*
G03*
X131837801Y-72078096I1J2274999D01*
G01*
X132725000Y-76025000D02*
G75*
G03*
X131550000Y-77200000I2J-1175002D01*
G01*
X154300000Y-77525000D02*
X154300000Y-74875000D01*
X154150000Y-74450000D02*
X154150000Y-78000000D01*
X154050000Y-74300000D02*
X154050000Y-78050000D01*
X153950000Y-74200000D02*
X153950000Y-78150000D01*
X153850000Y-74100000D02*
X153850000Y-78300000D01*
X153700000Y-74000000D02*
X153700000Y-78400000D01*
X153550000Y-73950000D02*
X153550000Y-78450000D01*
X153400000Y-73900000D02*
X153400000Y-78450000D01*
X153300000Y-78525000D02*
X150725000Y-78525000D01*
X153300000Y-73875000D02*
X150700000Y-73875000D01*
X153250000Y-73900000D02*
X153250000Y-78500000D01*
X153100000Y-73900000D02*
X153100000Y-78500000D01*
X152950000Y-73900000D02*
X152950000Y-78500000D01*
X152800000Y-73900000D02*
X152800000Y-78500000D01*
X152650000Y-73900000D02*
X152650000Y-78500000D01*
X152500000Y-73900000D02*
X152500000Y-78500000D01*
X152350000Y-73900000D02*
X152350000Y-78500000D01*
X152200000Y-73900000D02*
X152200000Y-78500000D01*
X152050000Y-73900000D02*
X152050000Y-78500000D01*
X151900000Y-73900000D02*
X151900000Y-78500000D01*
X151750000Y-73900000D02*
X151750000Y-78500000D01*
X151600000Y-73900000D02*
X151600000Y-78500000D01*
X151450000Y-73900000D02*
X151450000Y-78500000D01*
X151300000Y-73900000D02*
X151300000Y-78500000D01*
X151150000Y-73900000D02*
X151150000Y-78500000D01*
X151000000Y-73900000D02*
X151000000Y-78500000D01*
X150850000Y-73900000D02*
X150850000Y-78450000D01*
X150700000Y-73900000D02*
X150700000Y-78500000D01*
X150550000Y-73900000D02*
X150550000Y-78500000D01*
X150400000Y-73950000D02*
X150400000Y-78500000D01*
X150250000Y-74050000D02*
X150250000Y-78600000D01*
X150100000Y-74150000D02*
X150100000Y-78650000D01*
X150000000Y-74300000D02*
X150000000Y-78700000D01*
X149900000Y-74550000D02*
X149900000Y-78750000D01*
X149800000Y-74700000D02*
X149800000Y-78850000D01*
X149700000Y-74900000D02*
X149700000Y-79050000D01*
X149600000Y-75050000D02*
X149600000Y-79200000D01*
X149500000Y-75250000D02*
X149500000Y-79700000D01*
X149350000Y-75400000D02*
X149350000Y-79850000D01*
X149200000Y-75550000D02*
X149200000Y-79950000D01*
X149050000Y-75650000D02*
X149050000Y-80050000D01*
X148900000Y-75750000D02*
X148900000Y-80200000D01*
X148750000Y-75850000D02*
X148750000Y-80300000D01*
X148600000Y-75900000D02*
X148600000Y-80450000D01*
X148450000Y-76000000D02*
X148450000Y-80550000D01*
X148300000Y-76050000D02*
X148300000Y-80650000D01*
X148275000Y-80725000D02*
X149550000Y-79700000D01*
X148275000Y-80725000D02*
X145725000Y-80725000D01*
X148150000Y-76050000D02*
X148150000Y-80700000D01*
X148000000Y-76050000D02*
X148000000Y-80700000D01*
X147850000Y-76100000D02*
X147850000Y-80650000D01*
X147700000Y-76100000D02*
X147700000Y-80700000D01*
X147700000Y-76075000D02*
X145725000Y-76075000D01*
X147550000Y-76100000D02*
X147550000Y-80700000D01*
X147400000Y-76100000D02*
X147400000Y-80700000D01*
X147250000Y-76100000D02*
X147250000Y-80700000D01*
X147100000Y-76100000D02*
X147100000Y-80700000D01*
X146950000Y-76100000D02*
X146950000Y-80700000D01*
X146800000Y-76100000D02*
X146800000Y-80700000D01*
X146650000Y-76100000D02*
X146650000Y-80700000D01*
X146500000Y-76100000D02*
X146500000Y-80700000D01*
X146350000Y-76100000D02*
X146350000Y-80700000D01*
X146200000Y-76100000D02*
X146200000Y-80700000D01*
X146050000Y-76100000D02*
X146050000Y-80700000D01*
X145900000Y-76100000D02*
X145900000Y-80700000D01*
X145750000Y-76100000D02*
X145750000Y-80700000D01*
X145600000Y-76250000D02*
X145600000Y-80600000D01*
X145450000Y-76350000D02*
X145450000Y-80450000D01*
X145300000Y-76500000D02*
X145300000Y-80300000D01*
X145150000Y-76650000D02*
X145150000Y-80150000D01*
X145000000Y-76850000D02*
X145000000Y-80000000D01*
X144850000Y-76950000D02*
X144850000Y-79850000D01*
X144700000Y-79700000D02*
X145725000Y-80725000D01*
X144700000Y-79700000D02*
X144700000Y-77100000D01*
X144700000Y-77100000D02*
X145725000Y-76075000D01*
X153300000Y-78525000D02*
G75*
G03*
X154300000Y-77525000I1J999999D01*
G01*
X154300000Y-74875000D02*
G75*
G03*
X153300000Y-73875000I-999999J1D01*
G01*
X150699005Y-73876210D02*
G75*
G03*
X149837802Y-74578096I38796J-926886D01*
G01*
X147700000Y-76075000D02*
G75*
G03*
X149837801Y-74578096I1J2274999D01*
G01*
X150725000Y-78525000D02*
G75*
G03*
X149550000Y-79700000I2J-1175002D01*
G01*
X172300000Y-80025000D02*
X172300000Y-77375000D01*
X172150000Y-76950000D02*
X172150000Y-80500000D01*
X172050000Y-76800000D02*
X172050000Y-80550000D01*
X171950000Y-76700000D02*
X171950000Y-80650000D01*
X171850000Y-76600000D02*
X171850000Y-80800000D01*
X171700000Y-76500000D02*
X171700000Y-80900000D01*
X171550000Y-76450000D02*
X171550000Y-80950000D01*
X171400000Y-76400000D02*
X171400000Y-80950000D01*
X171300000Y-81025000D02*
X168725000Y-81025000D01*
X171300000Y-76375000D02*
X168700000Y-76375000D01*
X171250000Y-76400000D02*
X171250000Y-81000000D01*
X171100000Y-76400000D02*
X171100000Y-81000000D01*
X170950000Y-76400000D02*
X170950000Y-81000000D01*
X170800000Y-76400000D02*
X170800000Y-81000000D01*
X170650000Y-76400000D02*
X170650000Y-81000000D01*
X170500000Y-76400000D02*
X170500000Y-81000000D01*
X170350000Y-76400000D02*
X170350000Y-81000000D01*
X170200000Y-76400000D02*
X170200000Y-81000000D01*
X170050000Y-76400000D02*
X170050000Y-81000000D01*
X169900000Y-76400000D02*
X169900000Y-81000000D01*
X169750000Y-76400000D02*
X169750000Y-81000000D01*
X169600000Y-76400000D02*
X169600000Y-81000000D01*
X169450000Y-76400000D02*
X169450000Y-81000000D01*
X169300000Y-76400000D02*
X169300000Y-81000000D01*
X169150000Y-76400000D02*
X169150000Y-81000000D01*
X169000000Y-76400000D02*
X169000000Y-81000000D01*
X168850000Y-76400000D02*
X168850000Y-80950000D01*
X168700000Y-76400000D02*
X168700000Y-81000000D01*
X168550000Y-76400000D02*
X168550000Y-81000000D01*
X168400000Y-76450000D02*
X168400000Y-81000000D01*
X168250000Y-76550000D02*
X168250000Y-81100000D01*
X168100000Y-76650000D02*
X168100000Y-81150000D01*
X168000000Y-76800000D02*
X168000000Y-81200000D01*
X167900000Y-77050000D02*
X167900000Y-81250000D01*
X167800000Y-77200000D02*
X167800000Y-81350000D01*
X167700000Y-77400000D02*
X167700000Y-81550000D01*
X167600000Y-77550000D02*
X167600000Y-81700000D01*
X167500000Y-77750000D02*
X167500000Y-82200000D01*
X167350000Y-77900000D02*
X167350000Y-82350000D01*
X167200000Y-78050000D02*
X167200000Y-82450000D01*
X167050000Y-78150000D02*
X167050000Y-82550000D01*
X166900000Y-78250000D02*
X166900000Y-82700000D01*
X166750000Y-78350000D02*
X166750000Y-82800000D01*
X166600000Y-78400000D02*
X166600000Y-82950000D01*
X166450000Y-78500000D02*
X166450000Y-83050000D01*
X166300000Y-78550000D02*
X166300000Y-83150000D01*
X166275000Y-83225000D02*
X167550000Y-82200000D01*
X166275000Y-83225000D02*
X163725000Y-83225000D01*
X166150000Y-78550000D02*
X166150000Y-83200000D01*
X166000000Y-78550000D02*
X166000000Y-83200000D01*
X165850000Y-78600000D02*
X165850000Y-83150000D01*
X165700000Y-78600000D02*
X165700000Y-83200000D01*
X165700000Y-78575000D02*
X163725000Y-78575000D01*
X165550000Y-78600000D02*
X165550000Y-83200000D01*
X165400000Y-78600000D02*
X165400000Y-83200000D01*
X165250000Y-78600000D02*
X165250000Y-83200000D01*
X165100000Y-78600000D02*
X165100000Y-83200000D01*
X164950000Y-78600000D02*
X164950000Y-83200000D01*
X164800000Y-78600000D02*
X164800000Y-83200000D01*
X164650000Y-78600000D02*
X164650000Y-83200000D01*
X164500000Y-78600000D02*
X164500000Y-83200000D01*
X164350000Y-78600000D02*
X164350000Y-83200000D01*
X164200000Y-78600000D02*
X164200000Y-83200000D01*
X164050000Y-78600000D02*
X164050000Y-83200000D01*
X163900000Y-78600000D02*
X163900000Y-83200000D01*
X163750000Y-78600000D02*
X163750000Y-83200000D01*
X163600000Y-78750000D02*
X163600000Y-83100000D01*
X163450000Y-78850000D02*
X163450000Y-82950000D01*
X163300000Y-79000000D02*
X163300000Y-82800000D01*
X163150000Y-79150000D02*
X163150000Y-82650000D01*
X163000000Y-79350000D02*
X163000000Y-82500000D01*
X162850000Y-79450000D02*
X162850000Y-82350000D01*
X162700000Y-82200000D02*
X163725000Y-83225000D01*
X162700000Y-82200000D02*
X162700000Y-79600000D01*
X162700000Y-79600000D02*
X163725000Y-78575000D01*
X171300000Y-81025000D02*
G75*
G03*
X172300000Y-80025000I1J999999D01*
G01*
X172300000Y-77375000D02*
G75*
G03*
X171300000Y-76375000I-999999J1D01*
G01*
X168699005Y-76376210D02*
G75*
G03*
X167837802Y-77078096I38796J-926886D01*
G01*
X165700000Y-78575000D02*
G75*
G03*
X167837801Y-77078096I1J2274999D01*
G01*
X168725000Y-81025000D02*
G75*
G03*
X167550000Y-82200000I2J-1175002D01*
G01*
X82300000Y-108025000D02*
X82300000Y-105375000D01*
X82150000Y-104950000D02*
X82150000Y-108500000D01*
X82050000Y-104800000D02*
X82050000Y-108550000D01*
X81950000Y-104700000D02*
X81950000Y-108650000D01*
X81850000Y-104600000D02*
X81850000Y-108800000D01*
X81700000Y-104500000D02*
X81700000Y-108900000D01*
X81550000Y-104450000D02*
X81550000Y-108950000D01*
X81400000Y-104400000D02*
X81400000Y-108950000D01*
X81300000Y-109025000D02*
X78725000Y-109025000D01*
X81300000Y-104375000D02*
X78700000Y-104375000D01*
X81250000Y-104400000D02*
X81250000Y-109000000D01*
X81100000Y-104400000D02*
X81100000Y-109000000D01*
X80950000Y-104400000D02*
X80950000Y-109000000D01*
X80800000Y-104400000D02*
X80800000Y-109000000D01*
X80650000Y-104400000D02*
X80650000Y-109000000D01*
X80500000Y-104400000D02*
X80500000Y-109000000D01*
X80350000Y-104400000D02*
X80350000Y-109000000D01*
X80200000Y-104400000D02*
X80200000Y-109000000D01*
X80050000Y-104400000D02*
X80050000Y-109000000D01*
X79900000Y-104400000D02*
X79900000Y-109000000D01*
X79750000Y-104400000D02*
X79750000Y-109000000D01*
X79600000Y-104400000D02*
X79600000Y-109000000D01*
X79450000Y-104400000D02*
X79450000Y-109000000D01*
X79300000Y-104400000D02*
X79300000Y-109000000D01*
X79150000Y-104400000D02*
X79150000Y-109000000D01*
X79000000Y-104400000D02*
X79000000Y-109000000D01*
X78850000Y-104400000D02*
X78850000Y-108950000D01*
X78700000Y-104400000D02*
X78700000Y-109000000D01*
X78550000Y-104400000D02*
X78550000Y-109000000D01*
X78400000Y-104450000D02*
X78400000Y-109000000D01*
X78250000Y-104550000D02*
X78250000Y-109100000D01*
X78100000Y-104650000D02*
X78100000Y-109150000D01*
X78000000Y-104800000D02*
X78000000Y-109200000D01*
X77900000Y-105050000D02*
X77900000Y-109250000D01*
X77800000Y-105200000D02*
X77800000Y-109350000D01*
X77700000Y-105400000D02*
X77700000Y-109550000D01*
X77600000Y-105550000D02*
X77600000Y-109700000D01*
X77500000Y-105750000D02*
X77500000Y-110200000D01*
X77350000Y-105900000D02*
X77350000Y-110350000D01*
X77200000Y-106050000D02*
X77200000Y-110450000D01*
X77050000Y-106150000D02*
X77050000Y-110550000D01*
X76900000Y-106250000D02*
X76900000Y-110700000D01*
X76750000Y-106350000D02*
X76750000Y-110800000D01*
X76600000Y-106400000D02*
X76600000Y-110950000D01*
X76450000Y-106500000D02*
X76450000Y-111050000D01*
X76300000Y-106550000D02*
X76300000Y-111150000D01*
X76275000Y-111225000D02*
X77550000Y-110200000D01*
X76275000Y-111225000D02*
X73725000Y-111225000D01*
X76150000Y-106550000D02*
X76150000Y-111200000D01*
X76000000Y-106550000D02*
X76000000Y-111200000D01*
X75850000Y-106600000D02*
X75850000Y-111150000D01*
X75700000Y-106600000D02*
X75700000Y-111200000D01*
X75700000Y-106575000D02*
X73725000Y-106575000D01*
X75550000Y-106600000D02*
X75550000Y-111200000D01*
X75400000Y-106600000D02*
X75400000Y-111200000D01*
X75250000Y-106600000D02*
X75250000Y-111200000D01*
X75100000Y-106600000D02*
X75100000Y-111200000D01*
X74950000Y-106600000D02*
X74950000Y-111200000D01*
X74800000Y-106600000D02*
X74800000Y-111200000D01*
X74650000Y-106600000D02*
X74650000Y-111200000D01*
X74500000Y-106600000D02*
X74500000Y-111200000D01*
X74350000Y-106600000D02*
X74350000Y-111200000D01*
X74200000Y-106600000D02*
X74200000Y-111200000D01*
X74050000Y-106600000D02*
X74050000Y-111200000D01*
X73900000Y-106600000D02*
X73900000Y-111200000D01*
X73750000Y-106600000D02*
X73750000Y-111200000D01*
X73600000Y-106750000D02*
X73600000Y-111100000D01*
X73450000Y-106850000D02*
X73450000Y-110950000D01*
X73300000Y-107000000D02*
X73300000Y-110800000D01*
X73150000Y-107150000D02*
X73150000Y-110650000D01*
X73000000Y-107350000D02*
X73000000Y-110500000D01*
X72850000Y-107450000D02*
X72850000Y-110350000D01*
X72700000Y-110200000D02*
X73725000Y-111225000D01*
X72700000Y-110200000D02*
X72700000Y-107600000D01*
X72700000Y-107600000D02*
X73725000Y-106575000D01*
X81300000Y-109025000D02*
G75*
G03*
X82300000Y-108025000I1J999999D01*
G01*
X82300000Y-105375000D02*
G75*
G03*
X81300000Y-104375000I-999999J1D01*
G01*
X78699005Y-104376210D02*
G75*
G03*
X77837802Y-105078096I38796J-926886D01*
G01*
X75700000Y-106575000D02*
G75*
G03*
X77837801Y-105078096I1J2274999D01*
G01*
X78725000Y-109025000D02*
G75*
G03*
X77550000Y-110200000I2J-1175002D01*
G01*
X100300000Y-99525000D02*
X100300000Y-96875000D01*
X100150000Y-96450000D02*
X100150000Y-100000000D01*
X100050000Y-96300000D02*
X100050000Y-100050000D01*
X99950000Y-96200000D02*
X99950000Y-100150000D01*
X99850000Y-96100000D02*
X99850000Y-100300000D01*
X99700000Y-96000000D02*
X99700000Y-100400000D01*
X99550000Y-95950000D02*
X99550000Y-100450000D01*
X99400000Y-95900000D02*
X99400000Y-100450000D01*
X99300000Y-100525000D02*
X96725000Y-100525000D01*
X99300000Y-95875000D02*
X96700000Y-95875000D01*
X99250000Y-95900000D02*
X99250000Y-100500000D01*
X99100000Y-95900000D02*
X99100000Y-100500000D01*
X98950000Y-95900000D02*
X98950000Y-100500000D01*
X98800000Y-95900000D02*
X98800000Y-100500000D01*
X98650000Y-95900000D02*
X98650000Y-100500000D01*
X98500000Y-95900000D02*
X98500000Y-100500000D01*
X98350000Y-95900000D02*
X98350000Y-100500000D01*
X98200000Y-95900000D02*
X98200000Y-100500000D01*
X98050000Y-95900000D02*
X98050000Y-100500000D01*
X97900000Y-95900000D02*
X97900000Y-100500000D01*
X97750000Y-95900000D02*
X97750000Y-100500000D01*
X97600000Y-95900000D02*
X97600000Y-100500000D01*
X97450000Y-95900000D02*
X97450000Y-100500000D01*
X97300000Y-95900000D02*
X97300000Y-100500000D01*
X97150000Y-95900000D02*
X97150000Y-100500000D01*
X97000000Y-95900000D02*
X97000000Y-100500000D01*
X96850000Y-95900000D02*
X96850000Y-100450000D01*
X96700000Y-95900000D02*
X96700000Y-100500000D01*
X96550000Y-95900000D02*
X96550000Y-100500000D01*
X96400000Y-95950000D02*
X96400000Y-100500000D01*
X96250000Y-96050000D02*
X96250000Y-100600000D01*
X96100000Y-96150000D02*
X96100000Y-100650000D01*
X96000000Y-96300000D02*
X96000000Y-100700000D01*
X95900000Y-96550000D02*
X95900000Y-100750000D01*
X95800000Y-96700000D02*
X95800000Y-100850000D01*
X95700000Y-96900000D02*
X95700000Y-101050000D01*
X95600000Y-97050000D02*
X95600000Y-101200000D01*
X95500000Y-97250000D02*
X95500000Y-101700000D01*
X95350000Y-97400000D02*
X95350000Y-101850000D01*
X95200000Y-97550000D02*
X95200000Y-101950000D01*
X95050000Y-97650000D02*
X95050000Y-102050000D01*
X94900000Y-97750000D02*
X94900000Y-102200000D01*
X94750000Y-97850000D02*
X94750000Y-102300000D01*
X94600000Y-97900000D02*
X94600000Y-102450000D01*
X94450000Y-98000000D02*
X94450000Y-102550000D01*
X94300000Y-98050000D02*
X94300000Y-102650000D01*
X94275000Y-102725000D02*
X95550000Y-101700000D01*
X94275000Y-102725000D02*
X91725000Y-102725000D01*
X94150000Y-98050000D02*
X94150000Y-102700000D01*
X94000000Y-98050000D02*
X94000000Y-102700000D01*
X93850000Y-98100000D02*
X93850000Y-102650000D01*
X93700000Y-98100000D02*
X93700000Y-102700000D01*
X93700000Y-98075000D02*
X91725000Y-98075000D01*
X93550000Y-98100000D02*
X93550000Y-102700000D01*
X93400000Y-98100000D02*
X93400000Y-102700000D01*
X93250000Y-98100000D02*
X93250000Y-102700000D01*
X93100000Y-98100000D02*
X93100000Y-102700000D01*
X92950000Y-98100000D02*
X92950000Y-102700000D01*
X92800000Y-98100000D02*
X92800000Y-102700000D01*
X92650000Y-98100000D02*
X92650000Y-102700000D01*
X92500000Y-98100000D02*
X92500000Y-102700000D01*
X92350000Y-98100000D02*
X92350000Y-102700000D01*
X92200000Y-98100000D02*
X92200000Y-102700000D01*
X92050000Y-98100000D02*
X92050000Y-102700000D01*
X91900000Y-98100000D02*
X91900000Y-102700000D01*
X91750000Y-98100000D02*
X91750000Y-102700000D01*
X91600000Y-98250000D02*
X91600000Y-102600000D01*
X91450000Y-98350000D02*
X91450000Y-102450000D01*
X91300000Y-98500000D02*
X91300000Y-102300000D01*
X91150000Y-98650000D02*
X91150000Y-102150000D01*
X91000000Y-98850000D02*
X91000000Y-102000000D01*
X90850000Y-98950000D02*
X90850000Y-101850000D01*
X90700000Y-101700000D02*
X91725000Y-102725000D01*
X90700000Y-101700000D02*
X90700000Y-99100000D01*
X90700000Y-99100000D02*
X91725000Y-98075000D01*
X99300000Y-100525000D02*
G75*
G03*
X100300000Y-99525000I1J999999D01*
G01*
X100300000Y-96875000D02*
G75*
G03*
X99300000Y-95875000I-999999J1D01*
G01*
X96699005Y-95876210D02*
G75*
G03*
X95837802Y-96578096I38796J-926886D01*
G01*
X93700000Y-98075000D02*
G75*
G03*
X95837801Y-96578096I1J2274999D01*
G01*
X96725000Y-100525000D02*
G75*
G03*
X95550000Y-101700000I2J-1175002D01*
G01*
X118300000Y-94525000D02*
X118300000Y-91875000D01*
X118150000Y-91450000D02*
X118150000Y-95000000D01*
X118050000Y-91300000D02*
X118050000Y-95050000D01*
X117950000Y-91200000D02*
X117950000Y-95150000D01*
X117850000Y-91100000D02*
X117850000Y-95300000D01*
X117700000Y-91000000D02*
X117700000Y-95400000D01*
X117550000Y-90950000D02*
X117550000Y-95450000D01*
X117400000Y-90900000D02*
X117400000Y-95450000D01*
X117300000Y-95525000D02*
X114725000Y-95525000D01*
X117300000Y-90875000D02*
X114700000Y-90875000D01*
X117250000Y-90900000D02*
X117250000Y-95500000D01*
X117100000Y-90900000D02*
X117100000Y-95500000D01*
X116950000Y-90900000D02*
X116950000Y-95500000D01*
X116800000Y-90900000D02*
X116800000Y-95500000D01*
X116650000Y-90900000D02*
X116650000Y-95500000D01*
X116500000Y-90900000D02*
X116500000Y-95500000D01*
X116350000Y-90900000D02*
X116350000Y-95500000D01*
X116200000Y-90900000D02*
X116200000Y-95500000D01*
X116050000Y-90900000D02*
X116050000Y-95500000D01*
X115900000Y-90900000D02*
X115900000Y-95500000D01*
X115750000Y-90900000D02*
X115750000Y-95500000D01*
X115600000Y-90900000D02*
X115600000Y-95500000D01*
X115450000Y-90900000D02*
X115450000Y-95500000D01*
X115300000Y-90900000D02*
X115300000Y-95500000D01*
X115150000Y-90900000D02*
X115150000Y-95500000D01*
X115000000Y-90900000D02*
X115000000Y-95500000D01*
X114850000Y-90900000D02*
X114850000Y-95450000D01*
X114700000Y-90900000D02*
X114700000Y-95500000D01*
X114550000Y-90900000D02*
X114550000Y-95500000D01*
X114400000Y-90950000D02*
X114400000Y-95500000D01*
X114250000Y-91050000D02*
X114250000Y-95600000D01*
X114100000Y-91150000D02*
X114100000Y-95650000D01*
X114000000Y-91300000D02*
X114000000Y-95700000D01*
X113900000Y-91550000D02*
X113900000Y-95750000D01*
X113800000Y-91700000D02*
X113800000Y-95850000D01*
X113700000Y-91900000D02*
X113700000Y-96050000D01*
X113600000Y-92050000D02*
X113600000Y-96200000D01*
X113500000Y-92250000D02*
X113500000Y-96700000D01*
X113350000Y-92400000D02*
X113350000Y-96850000D01*
X113200000Y-92550000D02*
X113200000Y-96950000D01*
X113050000Y-92650000D02*
X113050000Y-97050000D01*
X112900000Y-92750000D02*
X112900000Y-97200000D01*
X112750000Y-92850000D02*
X112750000Y-97300000D01*
X112600000Y-92900000D02*
X112600000Y-97450000D01*
X112450000Y-93000000D02*
X112450000Y-97550000D01*
X112300000Y-93050000D02*
X112300000Y-97650000D01*
X112275000Y-97725000D02*
X113550000Y-96700000D01*
X112275000Y-97725000D02*
X109725000Y-97725000D01*
X112150000Y-93050000D02*
X112150000Y-97700000D01*
X112000000Y-93050000D02*
X112000000Y-97700000D01*
X111850000Y-93100000D02*
X111850000Y-97650000D01*
X111700000Y-93100000D02*
X111700000Y-97700000D01*
X111700000Y-93075000D02*
X109725000Y-93075000D01*
X111550000Y-93100000D02*
X111550000Y-97700000D01*
X111400000Y-93100000D02*
X111400000Y-97700000D01*
X111250000Y-93100000D02*
X111250000Y-97700000D01*
X111100000Y-93100000D02*
X111100000Y-97700000D01*
X110950000Y-93100000D02*
X110950000Y-97700000D01*
X110800000Y-93100000D02*
X110800000Y-97700000D01*
X110650000Y-93100000D02*
X110650000Y-97700000D01*
X110500000Y-93100000D02*
X110500000Y-97700000D01*
X110350000Y-93100000D02*
X110350000Y-97700000D01*
X110200000Y-93100000D02*
X110200000Y-97700000D01*
X110050000Y-93100000D02*
X110050000Y-97700000D01*
X109900000Y-93100000D02*
X109900000Y-97700000D01*
X109750000Y-93100000D02*
X109750000Y-97700000D01*
X109600000Y-93250000D02*
X109600000Y-97600000D01*
X109450000Y-93350000D02*
X109450000Y-97450000D01*
X109300000Y-93500000D02*
X109300000Y-97300000D01*
X109150000Y-93650000D02*
X109150000Y-97150000D01*
X109000000Y-93850000D02*
X109000000Y-97000000D01*
X108850000Y-93950000D02*
X108850000Y-96850000D01*
X108700000Y-96700000D02*
X109725000Y-97725000D01*
X108700000Y-96700000D02*
X108700000Y-94100000D01*
X108700000Y-94100000D02*
X109725000Y-93075000D01*
X117300000Y-95525000D02*
G75*
G03*
X118300000Y-94525000I1J999999D01*
G01*
X118300000Y-91875000D02*
G75*
G03*
X117300000Y-90875000I-999999J1D01*
G01*
X114699005Y-90876210D02*
G75*
G03*
X113837802Y-91578096I38796J-926886D01*
G01*
X111700000Y-93075000D02*
G75*
G03*
X113837801Y-91578096I1J2274999D01*
G01*
X114725000Y-95525000D02*
G75*
G03*
X113550000Y-96700000I2J-1175002D01*
G01*
X136300000Y-92025000D02*
X136300000Y-89375000D01*
X136150000Y-88950000D02*
X136150000Y-92500000D01*
X136050000Y-88800000D02*
X136050000Y-92550000D01*
X135950000Y-88700000D02*
X135950000Y-92650000D01*
X135850000Y-88600000D02*
X135850000Y-92800000D01*
X135700000Y-88500000D02*
X135700000Y-92900000D01*
X135550000Y-88450000D02*
X135550000Y-92950000D01*
X135400000Y-88400000D02*
X135400000Y-92950000D01*
X135300000Y-93025000D02*
X132725000Y-93025000D01*
X135300000Y-88375000D02*
X132700000Y-88375000D01*
X135250000Y-88400000D02*
X135250000Y-93000000D01*
X135100000Y-88400000D02*
X135100000Y-93000000D01*
X134950000Y-88400000D02*
X134950000Y-93000000D01*
X134800000Y-88400000D02*
X134800000Y-93000000D01*
X134650000Y-88400000D02*
X134650000Y-93000000D01*
X134500000Y-88400000D02*
X134500000Y-93000000D01*
X134350000Y-88400000D02*
X134350000Y-93000000D01*
X134200000Y-88400000D02*
X134200000Y-93000000D01*
X134050000Y-88400000D02*
X134050000Y-93000000D01*
X133900000Y-88400000D02*
X133900000Y-93000000D01*
X133750000Y-88400000D02*
X133750000Y-93000000D01*
X133600000Y-88400000D02*
X133600000Y-93000000D01*
X133450000Y-88400000D02*
X133450000Y-93000000D01*
X133300000Y-88400000D02*
X133300000Y-93000000D01*
X133150000Y-88400000D02*
X133150000Y-93000000D01*
X133000000Y-88400000D02*
X133000000Y-93000000D01*
X132850000Y-88400000D02*
X132850000Y-92950000D01*
X132700000Y-88400000D02*
X132700000Y-93000000D01*
X132550000Y-88400000D02*
X132550000Y-93000000D01*
X132400000Y-88450000D02*
X132400000Y-93000000D01*
X132250000Y-88550000D02*
X132250000Y-93100000D01*
X132100000Y-88650000D02*
X132100000Y-93150000D01*
X132000000Y-88800000D02*
X132000000Y-93200000D01*
X131900000Y-89050000D02*
X131900000Y-93250000D01*
X131800000Y-89200000D02*
X131800000Y-93350000D01*
X131700000Y-89400000D02*
X131700000Y-93550000D01*
X131600000Y-89550000D02*
X131600000Y-93700000D01*
X131500000Y-89750000D02*
X131500000Y-94200000D01*
X131350000Y-89900000D02*
X131350000Y-94350000D01*
X131200000Y-90050000D02*
X131200000Y-94450000D01*
X131050000Y-90150000D02*
X131050000Y-94550000D01*
X130900000Y-90250000D02*
X130900000Y-94700000D01*
X130750000Y-90350000D02*
X130750000Y-94800000D01*
X130600000Y-90400000D02*
X130600000Y-94950000D01*
X130450000Y-90500000D02*
X130450000Y-95050000D01*
X130300000Y-90550000D02*
X130300000Y-95150000D01*
X130275000Y-95225000D02*
X131550000Y-94200000D01*
X130275000Y-95225000D02*
X127725000Y-95225000D01*
X130150000Y-90550000D02*
X130150000Y-95200000D01*
X130000000Y-90550000D02*
X130000000Y-95200000D01*
X129850000Y-90600000D02*
X129850000Y-95150000D01*
X129700000Y-90600000D02*
X129700000Y-95200000D01*
X129700000Y-90575000D02*
X127725000Y-90575000D01*
X129550000Y-90600000D02*
X129550000Y-95200000D01*
X129400000Y-90600000D02*
X129400000Y-95200000D01*
X129250000Y-90600000D02*
X129250000Y-95200000D01*
X129100000Y-90600000D02*
X129100000Y-95200000D01*
X128950000Y-90600000D02*
X128950000Y-95200000D01*
X128800000Y-90600000D02*
X128800000Y-95200000D01*
X128650000Y-90600000D02*
X128650000Y-95200000D01*
X128500000Y-90600000D02*
X128500000Y-95200000D01*
X128350000Y-90600000D02*
X128350000Y-95200000D01*
X128200000Y-90600000D02*
X128200000Y-95200000D01*
X128050000Y-90600000D02*
X128050000Y-95200000D01*
X127900000Y-90600000D02*
X127900000Y-95200000D01*
X127750000Y-90600000D02*
X127750000Y-95200000D01*
X127600000Y-90750000D02*
X127600000Y-95100000D01*
X127450000Y-90850000D02*
X127450000Y-94950000D01*
X127300000Y-91000000D02*
X127300000Y-94800000D01*
X127150000Y-91150000D02*
X127150000Y-94650000D01*
X127000000Y-91350000D02*
X127000000Y-94500000D01*
X126850000Y-91450000D02*
X126850000Y-94350000D01*
X126700000Y-94200000D02*
X127725000Y-95225000D01*
X126700000Y-94200000D02*
X126700000Y-91600000D01*
X126700000Y-91600000D02*
X127725000Y-90575000D01*
X135300000Y-93025000D02*
G75*
G03*
X136300000Y-92025000I1J999999D01*
G01*
X136300000Y-89375000D02*
G75*
G03*
X135300000Y-88375000I-999999J1D01*
G01*
X132699005Y-88376210D02*
G75*
G03*
X131837802Y-89078096I38796J-926886D01*
G01*
X129700000Y-90575000D02*
G75*
G03*
X131837801Y-89078096I1J2274999D01*
G01*
X132725000Y-93025000D02*
G75*
G03*
X131550000Y-94200000I2J-1175002D01*
G01*
X154300000Y-94525000D02*
X154300000Y-91875000D01*
X154150000Y-91450000D02*
X154150000Y-95000000D01*
X154050000Y-91300000D02*
X154050000Y-95050000D01*
X153950000Y-91200000D02*
X153950000Y-95150000D01*
X153850000Y-91100000D02*
X153850000Y-95300000D01*
X153700000Y-91000000D02*
X153700000Y-95400000D01*
X153550000Y-90950000D02*
X153550000Y-95450000D01*
X153400000Y-90900000D02*
X153400000Y-95450000D01*
X153300000Y-95525000D02*
X150725000Y-95525000D01*
X153300000Y-90875000D02*
X150700000Y-90875000D01*
X153250000Y-90900000D02*
X153250000Y-95500000D01*
X153100000Y-90900000D02*
X153100000Y-95500000D01*
X152950000Y-90900000D02*
X152950000Y-95500000D01*
X152800000Y-90900000D02*
X152800000Y-95500000D01*
X152650000Y-90900000D02*
X152650000Y-95500000D01*
X152500000Y-90900000D02*
X152500000Y-95500000D01*
X152350000Y-90900000D02*
X152350000Y-95500000D01*
X152200000Y-90900000D02*
X152200000Y-95500000D01*
X152050000Y-90900000D02*
X152050000Y-95500000D01*
X151900000Y-90900000D02*
X151900000Y-95500000D01*
X151750000Y-90900000D02*
X151750000Y-95500000D01*
X151600000Y-90900000D02*
X151600000Y-95500000D01*
X151450000Y-90900000D02*
X151450000Y-95500000D01*
X151300000Y-90900000D02*
X151300000Y-95500000D01*
X151150000Y-90900000D02*
X151150000Y-95500000D01*
X151000000Y-90900000D02*
X151000000Y-95500000D01*
X150850000Y-90900000D02*
X150850000Y-95450000D01*
X150700000Y-90900000D02*
X150700000Y-95500000D01*
X150550000Y-90900000D02*
X150550000Y-95500000D01*
X150400000Y-90950000D02*
X150400000Y-95500000D01*
X150250000Y-91050000D02*
X150250000Y-95600000D01*
X150100000Y-91150000D02*
X150100000Y-95650000D01*
X150000000Y-91300000D02*
X150000000Y-95700000D01*
X149900000Y-91550000D02*
X149900000Y-95750000D01*
X149800000Y-91700000D02*
X149800000Y-95850000D01*
X149700000Y-91900000D02*
X149700000Y-96050000D01*
X149600000Y-92050000D02*
X149600000Y-96200000D01*
X149500000Y-92250000D02*
X149500000Y-96700000D01*
X149350000Y-92400000D02*
X149350000Y-96850000D01*
X149200000Y-92550000D02*
X149200000Y-96950000D01*
X149050000Y-92650000D02*
X149050000Y-97050000D01*
X148900000Y-92750000D02*
X148900000Y-97200000D01*
X148750000Y-92850000D02*
X148750000Y-97300000D01*
X148600000Y-92900000D02*
X148600000Y-97450000D01*
X148450000Y-93000000D02*
X148450000Y-97550000D01*
X148300000Y-93050000D02*
X148300000Y-97650000D01*
X148275000Y-97725000D02*
X149550000Y-96700000D01*
X148275000Y-97725000D02*
X145725000Y-97725000D01*
X148150000Y-93050000D02*
X148150000Y-97700000D01*
X148000000Y-93050000D02*
X148000000Y-97700000D01*
X147850000Y-93100000D02*
X147850000Y-97650000D01*
X147700000Y-93100000D02*
X147700000Y-97700000D01*
X147700000Y-93075000D02*
X145725000Y-93075000D01*
X147550000Y-93100000D02*
X147550000Y-97700000D01*
X147400000Y-93100000D02*
X147400000Y-97700000D01*
X147250000Y-93100000D02*
X147250000Y-97700000D01*
X147100000Y-93100000D02*
X147100000Y-97700000D01*
X146950000Y-93100000D02*
X146950000Y-97700000D01*
X146800000Y-93100000D02*
X146800000Y-97700000D01*
X146650000Y-93100000D02*
X146650000Y-97700000D01*
X146500000Y-93100000D02*
X146500000Y-97700000D01*
X146350000Y-93100000D02*
X146350000Y-97700000D01*
X146200000Y-93100000D02*
X146200000Y-97700000D01*
X146050000Y-93100000D02*
X146050000Y-97700000D01*
X145900000Y-93100000D02*
X145900000Y-97700000D01*
X145750000Y-93100000D02*
X145750000Y-97700000D01*
X145600000Y-93250000D02*
X145600000Y-97600000D01*
X145450000Y-93350000D02*
X145450000Y-97450000D01*
X145300000Y-93500000D02*
X145300000Y-97300000D01*
X145150000Y-93650000D02*
X145150000Y-97150000D01*
X145000000Y-93850000D02*
X145000000Y-97000000D01*
X144850000Y-93950000D02*
X144850000Y-96850000D01*
X144700000Y-96700000D02*
X145725000Y-97725000D01*
X144700000Y-96700000D02*
X144700000Y-94100000D01*
X144700000Y-94100000D02*
X145725000Y-93075000D01*
X153300000Y-95525000D02*
G75*
G03*
X154300000Y-94525000I1J999999D01*
G01*
X154300000Y-91875000D02*
G75*
G03*
X153300000Y-90875000I-999999J1D01*
G01*
X150699005Y-90876210D02*
G75*
G03*
X149837802Y-91578096I38796J-926886D01*
G01*
X147700000Y-93075000D02*
G75*
G03*
X149837801Y-91578096I1J2274999D01*
G01*
X150725000Y-95525000D02*
G75*
G03*
X149550000Y-96700000I2J-1175002D01*
G01*
X172300000Y-97025000D02*
X172300000Y-94375000D01*
X172150000Y-93950000D02*
X172150000Y-97500000D01*
X172050000Y-93800000D02*
X172050000Y-97550000D01*
X171950000Y-93700000D02*
X171950000Y-97650000D01*
X171850000Y-93600000D02*
X171850000Y-97800000D01*
X171700000Y-93500000D02*
X171700000Y-97900000D01*
X171550000Y-93450000D02*
X171550000Y-97950000D01*
X171400000Y-93400000D02*
X171400000Y-97950000D01*
X171300000Y-98025000D02*
X168725000Y-98025000D01*
X171300000Y-93375000D02*
X168700000Y-93375000D01*
X171250000Y-93400000D02*
X171250000Y-98000000D01*
X171100000Y-93400000D02*
X171100000Y-98000000D01*
X170950000Y-93400000D02*
X170950000Y-98000000D01*
X170800000Y-93400000D02*
X170800000Y-98000000D01*
X170650000Y-93400000D02*
X170650000Y-98000000D01*
X170500000Y-93400000D02*
X170500000Y-98000000D01*
X170350000Y-93400000D02*
X170350000Y-98000000D01*
X170200000Y-93400000D02*
X170200000Y-98000000D01*
X170050000Y-93400000D02*
X170050000Y-98000000D01*
X169900000Y-93400000D02*
X169900000Y-98000000D01*
X169750000Y-93400000D02*
X169750000Y-98000000D01*
X169600000Y-93400000D02*
X169600000Y-98000000D01*
X169450000Y-93400000D02*
X169450000Y-98000000D01*
X169300000Y-93400000D02*
X169300000Y-98000000D01*
X169150000Y-93400000D02*
X169150000Y-98000000D01*
X169000000Y-93400000D02*
X169000000Y-98000000D01*
X168850000Y-93400000D02*
X168850000Y-97950000D01*
X168700000Y-93400000D02*
X168700000Y-98000000D01*
X168550000Y-93400000D02*
X168550000Y-98000000D01*
X168400000Y-93450000D02*
X168400000Y-98000000D01*
X168250000Y-93550000D02*
X168250000Y-98100000D01*
X168100000Y-93650000D02*
X168100000Y-98150000D01*
X168000000Y-93800000D02*
X168000000Y-98200000D01*
X167900000Y-94050000D02*
X167900000Y-98250000D01*
X167800000Y-94200000D02*
X167800000Y-98350000D01*
X167700000Y-94400000D02*
X167700000Y-98550000D01*
X167600000Y-94550000D02*
X167600000Y-98700000D01*
X167500000Y-94750000D02*
X167500000Y-99200000D01*
X167350000Y-94900000D02*
X167350000Y-99350000D01*
X167200000Y-95050000D02*
X167200000Y-99450000D01*
X167050000Y-95150000D02*
X167050000Y-99550000D01*
X166900000Y-95250000D02*
X166900000Y-99700000D01*
X166750000Y-95350000D02*
X166750000Y-99800000D01*
X166600000Y-95400000D02*
X166600000Y-99950000D01*
X166450000Y-95500000D02*
X166450000Y-100050000D01*
X166300000Y-95550000D02*
X166300000Y-100150000D01*
X166275000Y-100225000D02*
X167550000Y-99200000D01*
X166275000Y-100225000D02*
X163725000Y-100225000D01*
X166150000Y-95550000D02*
X166150000Y-100200000D01*
X166000000Y-95550000D02*
X166000000Y-100200000D01*
X165850000Y-95600000D02*
X165850000Y-100150000D01*
X165700000Y-95600000D02*
X165700000Y-100200000D01*
X165700000Y-95575000D02*
X163725000Y-95575000D01*
X165550000Y-95600000D02*
X165550000Y-100200000D01*
X165400000Y-95600000D02*
X165400000Y-100200000D01*
X165250000Y-95600000D02*
X165250000Y-100200000D01*
X165100000Y-95600000D02*
X165100000Y-100200000D01*
X164950000Y-95600000D02*
X164950000Y-100200000D01*
X164800000Y-95600000D02*
X164800000Y-100200000D01*
X164650000Y-95600000D02*
X164650000Y-100200000D01*
X164500000Y-95600000D02*
X164500000Y-100200000D01*
X164350000Y-95600000D02*
X164350000Y-100200000D01*
X164200000Y-95600000D02*
X164200000Y-100200000D01*
X164050000Y-95600000D02*
X164050000Y-100200000D01*
X163900000Y-95600000D02*
X163900000Y-100200000D01*
X163750000Y-95600000D02*
X163750000Y-100200000D01*
X163600000Y-95750000D02*
X163600000Y-100100000D01*
X163450000Y-95850000D02*
X163450000Y-99950000D01*
X163300000Y-96000000D02*
X163300000Y-99800000D01*
X163150000Y-96150000D02*
X163150000Y-99650000D01*
X163000000Y-96350000D02*
X163000000Y-99500000D01*
X162850000Y-96450000D02*
X162850000Y-99350000D01*
X162700000Y-99200000D02*
X163725000Y-100225000D01*
X162700000Y-99200000D02*
X162700000Y-96600000D01*
X162700000Y-96600000D02*
X163725000Y-95575000D01*
X171300000Y-98025000D02*
G75*
G03*
X172300000Y-97025000I1J999999D01*
G01*
X172300000Y-94375000D02*
G75*
G03*
X171300000Y-93375000I-999999J1D01*
G01*
X168699005Y-93376210D02*
G75*
G03*
X167837802Y-94078096I38796J-926886D01*
G01*
X165700000Y-95575000D02*
G75*
G03*
X167837801Y-94078096I1J2274999D01*
G01*
X168725000Y-98025000D02*
G75*
G03*
X167550000Y-99200000I2J-1175002D01*
G01*
X141550000Y-129025000D02*
X141550000Y-126375000D01*
X141400000Y-125950000D02*
X141400000Y-129500000D01*
X141300000Y-125800000D02*
X141300000Y-129550000D01*
X141200000Y-125700000D02*
X141200000Y-129650000D01*
X141100000Y-125600000D02*
X141100000Y-129800000D01*
X140950000Y-125500000D02*
X140950000Y-129900000D01*
X140800000Y-125450000D02*
X140800000Y-129950000D01*
X140650000Y-125400000D02*
X140650000Y-129950000D01*
X140550000Y-130025000D02*
X137975000Y-130025000D01*
X140550000Y-125375000D02*
X137950000Y-125375000D01*
X140500000Y-125400000D02*
X140500000Y-130000000D01*
X140350000Y-125400000D02*
X140350000Y-130000000D01*
X140200000Y-125400000D02*
X140200000Y-130000000D01*
X140050000Y-125400000D02*
X140050000Y-130000000D01*
X139900000Y-125400000D02*
X139900000Y-130000000D01*
X139750000Y-125400000D02*
X139750000Y-130000000D01*
X139600000Y-125400000D02*
X139600000Y-130000000D01*
X139450000Y-125400000D02*
X139450000Y-130000000D01*
X139300000Y-125400000D02*
X139300000Y-130000000D01*
X139150000Y-125400000D02*
X139150000Y-130000000D01*
X139000000Y-125400000D02*
X139000000Y-130000000D01*
X138850000Y-125400000D02*
X138850000Y-130000000D01*
X138700000Y-125400000D02*
X138700000Y-130000000D01*
X138550000Y-125400000D02*
X138550000Y-130000000D01*
X138400000Y-125400000D02*
X138400000Y-130000000D01*
X138250000Y-125400000D02*
X138250000Y-130000000D01*
X138100000Y-125400000D02*
X138100000Y-129950000D01*
X137950000Y-125400000D02*
X137950000Y-130000000D01*
X137800000Y-125400000D02*
X137800000Y-130000000D01*
X137650000Y-125450000D02*
X137650000Y-130000000D01*
X137500000Y-125550000D02*
X137500000Y-130100000D01*
X137350000Y-125650000D02*
X137350000Y-130150000D01*
X137250000Y-125800000D02*
X137250000Y-130200000D01*
X137150000Y-126050000D02*
X137150000Y-130250000D01*
X137050000Y-126200000D02*
X137050000Y-130350000D01*
X136950000Y-126400000D02*
X136950000Y-130550000D01*
X136850000Y-126550000D02*
X136850000Y-130700000D01*
X136750000Y-126750000D02*
X136750000Y-131200000D01*
X136600000Y-126900000D02*
X136600000Y-131350000D01*
X136450000Y-127050000D02*
X136450000Y-131450000D01*
X136300000Y-127150000D02*
X136300000Y-131550000D01*
X136150000Y-127250000D02*
X136150000Y-131700000D01*
X136000000Y-127350000D02*
X136000000Y-131800000D01*
X135850000Y-127400000D02*
X135850000Y-131950000D01*
X135700000Y-127500000D02*
X135700000Y-132050000D01*
X135550000Y-127550000D02*
X135550000Y-132150000D01*
X135525000Y-132225000D02*
X136800000Y-131200000D01*
X135525000Y-132225000D02*
X132975000Y-132225000D01*
X135400000Y-127550000D02*
X135400000Y-132200000D01*
X135250000Y-127550000D02*
X135250000Y-132200000D01*
X135100000Y-127600000D02*
X135100000Y-132150000D01*
X134950000Y-127600000D02*
X134950000Y-132200000D01*
X134950000Y-127575000D02*
X132975000Y-127575000D01*
X134800000Y-127600000D02*
X134800000Y-132200000D01*
X134650000Y-127600000D02*
X134650000Y-132200000D01*
X134500000Y-127600000D02*
X134500000Y-132200000D01*
X134350000Y-127600000D02*
X134350000Y-132200000D01*
X134200000Y-127600000D02*
X134200000Y-132200000D01*
X134050000Y-127600000D02*
X134050000Y-132200000D01*
X133900000Y-127600000D02*
X133900000Y-132200000D01*
X133750000Y-127600000D02*
X133750000Y-132200000D01*
X133600000Y-127600000D02*
X133600000Y-132200000D01*
X133450000Y-127600000D02*
X133450000Y-132200000D01*
X133300000Y-127600000D02*
X133300000Y-132200000D01*
X133150000Y-127600000D02*
X133150000Y-132200000D01*
X133000000Y-127600000D02*
X133000000Y-132200000D01*
X132850000Y-127750000D02*
X132850000Y-132100000D01*
X132700000Y-127850000D02*
X132700000Y-131950000D01*
X132550000Y-128000000D02*
X132550000Y-131800000D01*
X132400000Y-128150000D02*
X132400000Y-131650000D01*
X132250000Y-128350000D02*
X132250000Y-131500000D01*
X132100000Y-128450000D02*
X132100000Y-131350000D01*
X131950000Y-131200000D02*
X132975000Y-132225000D01*
X131950000Y-131200000D02*
X131950000Y-128600000D01*
X131950000Y-128600000D02*
X132975000Y-127575000D01*
X140550000Y-130025000D02*
G75*
G03*
X141550000Y-129025000I1J999999D01*
G01*
X141550000Y-126375000D02*
G75*
G03*
X140550000Y-125375000I-999999J1D01*
G01*
X137949005Y-125376210D02*
G75*
G03*
X137087802Y-126078096I38796J-926886D01*
G01*
X134950000Y-127575000D02*
G75*
G03*
X137087801Y-126078096I1J2274999D01*
G01*
X137975000Y-130025000D02*
G75*
G03*
X136800000Y-131200000I2J-1175002D01*
G01*
X100300000Y-116525000D02*
X100300000Y-113875000D01*
X100150000Y-113450000D02*
X100150000Y-117000000D01*
X100050000Y-113300000D02*
X100050000Y-117050000D01*
X99950000Y-113200000D02*
X99950000Y-117150000D01*
X99850000Y-113100000D02*
X99850000Y-117300000D01*
X99700000Y-113000000D02*
X99700000Y-117400000D01*
X99550000Y-112950000D02*
X99550000Y-117450000D01*
X99400000Y-112900000D02*
X99400000Y-117450000D01*
X99300000Y-117525000D02*
X96725000Y-117525000D01*
X99300000Y-112875000D02*
X96700000Y-112875000D01*
X99250000Y-112900000D02*
X99250000Y-117500000D01*
X99100000Y-112900000D02*
X99100000Y-117500000D01*
X98950000Y-112900000D02*
X98950000Y-117500000D01*
X98800000Y-112900000D02*
X98800000Y-117500000D01*
X98650000Y-112900000D02*
X98650000Y-117500000D01*
X98500000Y-112900000D02*
X98500000Y-117500000D01*
X98350000Y-112900000D02*
X98350000Y-117500000D01*
X98200000Y-112900000D02*
X98200000Y-117500000D01*
X98050000Y-112900000D02*
X98050000Y-117500000D01*
X97900000Y-112900000D02*
X97900000Y-117500000D01*
X97750000Y-112900000D02*
X97750000Y-117500000D01*
X97600000Y-112900000D02*
X97600000Y-117500000D01*
X97450000Y-112900000D02*
X97450000Y-117500000D01*
X97300000Y-112900000D02*
X97300000Y-117500000D01*
X97150000Y-112900000D02*
X97150000Y-117500000D01*
X97000000Y-112900000D02*
X97000000Y-117500000D01*
X96850000Y-112900000D02*
X96850000Y-117450000D01*
X96700000Y-112900000D02*
X96700000Y-117500000D01*
X96550000Y-112900000D02*
X96550000Y-117500000D01*
X96400000Y-112950000D02*
X96400000Y-117500000D01*
X96250000Y-113050000D02*
X96250000Y-117600000D01*
X96100000Y-113150000D02*
X96100000Y-117650000D01*
X96000000Y-113300000D02*
X96000000Y-117700000D01*
X95900000Y-113550000D02*
X95900000Y-117750000D01*
X95800000Y-113700000D02*
X95800000Y-117850000D01*
X95700000Y-113900000D02*
X95700000Y-118050000D01*
X95600000Y-114050000D02*
X95600000Y-118200000D01*
X95500000Y-114250000D02*
X95500000Y-118700000D01*
X95350000Y-114400000D02*
X95350000Y-118850000D01*
X95200000Y-114550000D02*
X95200000Y-118950000D01*
X95050000Y-114650000D02*
X95050000Y-119050000D01*
X94900000Y-114750000D02*
X94900000Y-119200000D01*
X94750000Y-114850000D02*
X94750000Y-119300000D01*
X94600000Y-114900000D02*
X94600000Y-119450000D01*
X94450000Y-115000000D02*
X94450000Y-119550000D01*
X94300000Y-115050000D02*
X94300000Y-119650000D01*
X94275000Y-119725000D02*
X95550000Y-118700000D01*
X94275000Y-119725000D02*
X91725000Y-119725000D01*
X94150000Y-115050000D02*
X94150000Y-119700000D01*
X94000000Y-115050000D02*
X94000000Y-119700000D01*
X93850000Y-115100000D02*
X93850000Y-119650000D01*
X93700000Y-115100000D02*
X93700000Y-119700000D01*
X93700000Y-115075000D02*
X91725000Y-115075000D01*
X93550000Y-115100000D02*
X93550000Y-119700000D01*
X93400000Y-115100000D02*
X93400000Y-119700000D01*
X93250000Y-115100000D02*
X93250000Y-119700000D01*
X93100000Y-115100000D02*
X93100000Y-119700000D01*
X92950000Y-115100000D02*
X92950000Y-119700000D01*
X92800000Y-115100000D02*
X92800000Y-119700000D01*
X92650000Y-115100000D02*
X92650000Y-119700000D01*
X92500000Y-115100000D02*
X92500000Y-119700000D01*
X92350000Y-115100000D02*
X92350000Y-119700000D01*
X92200000Y-115100000D02*
X92200000Y-119700000D01*
X92050000Y-115100000D02*
X92050000Y-119700000D01*
X91900000Y-115100000D02*
X91900000Y-119700000D01*
X91750000Y-115100000D02*
X91750000Y-119700000D01*
X91600000Y-115250000D02*
X91600000Y-119600000D01*
X91450000Y-115350000D02*
X91450000Y-119450000D01*
X91300000Y-115500000D02*
X91300000Y-119300000D01*
X91150000Y-115650000D02*
X91150000Y-119150000D01*
X91000000Y-115850000D02*
X91000000Y-119000000D01*
X90850000Y-115950000D02*
X90850000Y-118850000D01*
X90700000Y-118700000D02*
X91725000Y-119725000D01*
X90700000Y-118700000D02*
X90700000Y-116100000D01*
X90700000Y-116100000D02*
X91725000Y-115075000D01*
X99300000Y-117525000D02*
G75*
G03*
X100300000Y-116525000I1J999999D01*
G01*
X100300000Y-113875000D02*
G75*
G03*
X99300000Y-112875000I-999999J1D01*
G01*
X96699005Y-112876210D02*
G75*
G03*
X95837802Y-113578096I38796J-926886D01*
G01*
X93700000Y-115075000D02*
G75*
G03*
X95837801Y-113578096I1J2274999D01*
G01*
X96725000Y-117525000D02*
G75*
G03*
X95550000Y-118700000I2J-1175002D01*
G01*
X118300000Y-111525000D02*
X118300000Y-108875000D01*
X118150000Y-108450000D02*
X118150000Y-112000000D01*
X118050000Y-108300000D02*
X118050000Y-112050000D01*
X117950000Y-108200000D02*
X117950000Y-112150000D01*
X117850000Y-108100000D02*
X117850000Y-112300000D01*
X117700000Y-108000000D02*
X117700000Y-112400000D01*
X117550000Y-107950000D02*
X117550000Y-112450000D01*
X117400000Y-107900000D02*
X117400000Y-112450000D01*
X117300000Y-112525000D02*
X114725000Y-112525000D01*
X117300000Y-107875000D02*
X114700000Y-107875000D01*
X117250000Y-107900000D02*
X117250000Y-112500000D01*
X117100000Y-107900000D02*
X117100000Y-112500000D01*
X116950000Y-107900000D02*
X116950000Y-112500000D01*
X116800000Y-107900000D02*
X116800000Y-112500000D01*
X116650000Y-107900000D02*
X116650000Y-112500000D01*
X116500000Y-107900000D02*
X116500000Y-112500000D01*
X116350000Y-107900000D02*
X116350000Y-112500000D01*
X116200000Y-107900000D02*
X116200000Y-112500000D01*
X116050000Y-107900000D02*
X116050000Y-112500000D01*
X115900000Y-107900000D02*
X115900000Y-112500000D01*
X115750000Y-107900000D02*
X115750000Y-112500000D01*
X115600000Y-107900000D02*
X115600000Y-112500000D01*
X115450000Y-107900000D02*
X115450000Y-112500000D01*
X115300000Y-107900000D02*
X115300000Y-112500000D01*
X115150000Y-107900000D02*
X115150000Y-112500000D01*
X115000000Y-107900000D02*
X115000000Y-112500000D01*
X114850000Y-107900000D02*
X114850000Y-112450000D01*
X114700000Y-107900000D02*
X114700000Y-112500000D01*
X114550000Y-107900000D02*
X114550000Y-112500000D01*
X114400000Y-107950000D02*
X114400000Y-112500000D01*
X114250000Y-108050000D02*
X114250000Y-112600000D01*
X114100000Y-108150000D02*
X114100000Y-112650000D01*
X114000000Y-108300000D02*
X114000000Y-112700000D01*
X113900000Y-108550000D02*
X113900000Y-112750000D01*
X113800000Y-108700000D02*
X113800000Y-112850000D01*
X113700000Y-108900000D02*
X113700000Y-113050000D01*
X113600000Y-109050000D02*
X113600000Y-113200000D01*
X113500000Y-109250000D02*
X113500000Y-113700000D01*
X113350000Y-109400000D02*
X113350000Y-113850000D01*
X113200000Y-109550000D02*
X113200000Y-113950000D01*
X113050000Y-109650000D02*
X113050000Y-114050000D01*
X112900000Y-109750000D02*
X112900000Y-114200000D01*
X112750000Y-109850000D02*
X112750000Y-114300000D01*
X112600000Y-109900000D02*
X112600000Y-114450000D01*
X112450000Y-110000000D02*
X112450000Y-114550000D01*
X112300000Y-110050000D02*
X112300000Y-114650000D01*
X112275000Y-114725000D02*
X113550000Y-113700000D01*
X112275000Y-114725000D02*
X109725000Y-114725000D01*
X112150000Y-110050000D02*
X112150000Y-114700000D01*
X112000000Y-110050000D02*
X112000000Y-114700000D01*
X111850000Y-110100000D02*
X111850000Y-114650000D01*
X111700000Y-110100000D02*
X111700000Y-114700000D01*
X111700000Y-110075000D02*
X109725000Y-110075000D01*
X111550000Y-110100000D02*
X111550000Y-114700000D01*
X111400000Y-110100000D02*
X111400000Y-114700000D01*
X111250000Y-110100000D02*
X111250000Y-114700000D01*
X111100000Y-110100000D02*
X111100000Y-114700000D01*
X110950000Y-110100000D02*
X110950000Y-114700000D01*
X110800000Y-110100000D02*
X110800000Y-114700000D01*
X110650000Y-110100000D02*
X110650000Y-114700000D01*
X110500000Y-110100000D02*
X110500000Y-114700000D01*
X110350000Y-110100000D02*
X110350000Y-114700000D01*
X110200000Y-110100000D02*
X110200000Y-114700000D01*
X110050000Y-110100000D02*
X110050000Y-114700000D01*
X109900000Y-110100000D02*
X109900000Y-114700000D01*
X109750000Y-110100000D02*
X109750000Y-114700000D01*
X109600000Y-110250000D02*
X109600000Y-114600000D01*
X109450000Y-110350000D02*
X109450000Y-114450000D01*
X109300000Y-110500000D02*
X109300000Y-114300000D01*
X109150000Y-110650000D02*
X109150000Y-114150000D01*
X109000000Y-110850000D02*
X109000000Y-114000000D01*
X108850000Y-110950000D02*
X108850000Y-113850000D01*
X108700000Y-113700000D02*
X109725000Y-114725000D01*
X108700000Y-113700000D02*
X108700000Y-111100000D01*
X108700000Y-111100000D02*
X109725000Y-110075000D01*
X117300000Y-112525000D02*
G75*
G03*
X118300000Y-111525000I1J999999D01*
G01*
X118300000Y-108875000D02*
G75*
G03*
X117300000Y-107875000I-999999J1D01*
G01*
X114699005Y-107876210D02*
G75*
G03*
X113837802Y-108578096I38796J-926886D01*
G01*
X111700000Y-110075000D02*
G75*
G03*
X113837801Y-108578096I1J2274999D01*
G01*
X114725000Y-112525000D02*
G75*
G03*
X113550000Y-113700000I2J-1175002D01*
G01*
X136300000Y-109025000D02*
X136300000Y-106375000D01*
X136150000Y-105950000D02*
X136150000Y-109500000D01*
X136050000Y-105800000D02*
X136050000Y-109550000D01*
X135950000Y-105700000D02*
X135950000Y-109650000D01*
X135850000Y-105600000D02*
X135850000Y-109800000D01*
X135700000Y-105500000D02*
X135700000Y-109900000D01*
X135550000Y-105450000D02*
X135550000Y-109950000D01*
X135400000Y-105400000D02*
X135400000Y-109950000D01*
X135300000Y-110025000D02*
X132725000Y-110025000D01*
X135300000Y-105375000D02*
X132700000Y-105375000D01*
X135250000Y-105400000D02*
X135250000Y-110000000D01*
X135100000Y-105400000D02*
X135100000Y-110000000D01*
X134950000Y-105400000D02*
X134950000Y-110000000D01*
X134800000Y-105400000D02*
X134800000Y-110000000D01*
X134650000Y-105400000D02*
X134650000Y-110000000D01*
X134500000Y-105400000D02*
X134500000Y-110000000D01*
X134350000Y-105400000D02*
X134350000Y-110000000D01*
X134200000Y-105400000D02*
X134200000Y-110000000D01*
X134050000Y-105400000D02*
X134050000Y-110000000D01*
X133900000Y-105400000D02*
X133900000Y-110000000D01*
X133750000Y-105400000D02*
X133750000Y-110000000D01*
X133600000Y-105400000D02*
X133600000Y-110000000D01*
X133450000Y-105400000D02*
X133450000Y-110000000D01*
X133300000Y-105400000D02*
X133300000Y-110000000D01*
X133150000Y-105400000D02*
X133150000Y-110000000D01*
X133000000Y-105400000D02*
X133000000Y-110000000D01*
X132850000Y-105400000D02*
X132850000Y-109950000D01*
X132700000Y-105400000D02*
X132700000Y-110000000D01*
X132550000Y-105400000D02*
X132550000Y-110000000D01*
X132400000Y-105450000D02*
X132400000Y-110000000D01*
X132250000Y-105550000D02*
X132250000Y-110100000D01*
X132100000Y-105650000D02*
X132100000Y-110150000D01*
X132000000Y-105800000D02*
X132000000Y-110200000D01*
X131900000Y-106050000D02*
X131900000Y-110250000D01*
X131800000Y-106200000D02*
X131800000Y-110350000D01*
X131700000Y-106400000D02*
X131700000Y-110550000D01*
X131600000Y-106550000D02*
X131600000Y-110700000D01*
X131500000Y-106750000D02*
X131500000Y-111200000D01*
X131350000Y-106900000D02*
X131350000Y-111350000D01*
X131200000Y-107050000D02*
X131200000Y-111450000D01*
X131050000Y-107150000D02*
X131050000Y-111550000D01*
X130900000Y-107250000D02*
X130900000Y-111700000D01*
X130750000Y-107350000D02*
X130750000Y-111800000D01*
X130600000Y-107400000D02*
X130600000Y-111950000D01*
X130450000Y-107500000D02*
X130450000Y-112050000D01*
X130300000Y-107550000D02*
X130300000Y-112150000D01*
X130275000Y-112225000D02*
X131550000Y-111200000D01*
X130275000Y-112225000D02*
X127725000Y-112225000D01*
X130150000Y-107550000D02*
X130150000Y-112200000D01*
X130000000Y-107550000D02*
X130000000Y-112200000D01*
X129850000Y-107600000D02*
X129850000Y-112150000D01*
X129700000Y-107600000D02*
X129700000Y-112200000D01*
X129700000Y-107575000D02*
X127725000Y-107575000D01*
X129550000Y-107600000D02*
X129550000Y-112200000D01*
X129400000Y-107600000D02*
X129400000Y-112200000D01*
X129250000Y-107600000D02*
X129250000Y-112200000D01*
X129100000Y-107600000D02*
X129100000Y-112200000D01*
X128950000Y-107600000D02*
X128950000Y-112200000D01*
X128800000Y-107600000D02*
X128800000Y-112200000D01*
X128650000Y-107600000D02*
X128650000Y-112200000D01*
X128500000Y-107600000D02*
X128500000Y-112200000D01*
X128350000Y-107600000D02*
X128350000Y-112200000D01*
X128200000Y-107600000D02*
X128200000Y-112200000D01*
X128050000Y-107600000D02*
X128050000Y-112200000D01*
X127900000Y-107600000D02*
X127900000Y-112200000D01*
X127750000Y-107600000D02*
X127750000Y-112200000D01*
X127600000Y-107750000D02*
X127600000Y-112100000D01*
X127450000Y-107850000D02*
X127450000Y-111950000D01*
X127300000Y-108000000D02*
X127300000Y-111800000D01*
X127150000Y-108150000D02*
X127150000Y-111650000D01*
X127000000Y-108350000D02*
X127000000Y-111500000D01*
X126850000Y-108450000D02*
X126850000Y-111350000D01*
X126700000Y-111200000D02*
X127725000Y-112225000D01*
X126700000Y-111200000D02*
X126700000Y-108600000D01*
X126700000Y-108600000D02*
X127725000Y-107575000D01*
X135300000Y-110025000D02*
G75*
G03*
X136300000Y-109025000I1J999999D01*
G01*
X136300000Y-106375000D02*
G75*
G03*
X135300000Y-105375000I-999999J1D01*
G01*
X132699005Y-105376210D02*
G75*
G03*
X131837802Y-106078096I38796J-926886D01*
G01*
X129700000Y-107575000D02*
G75*
G03*
X131837801Y-106078096I1J2274999D01*
G01*
X132725000Y-110025000D02*
G75*
G03*
X131550000Y-111200000I2J-1175002D01*
G01*
X154300000Y-111525000D02*
X154300000Y-108875000D01*
X154150000Y-108450000D02*
X154150000Y-112000000D01*
X154050000Y-108300000D02*
X154050000Y-112050000D01*
X153950000Y-108200000D02*
X153950000Y-112150000D01*
X153850000Y-108100000D02*
X153850000Y-112300000D01*
X153700000Y-108000000D02*
X153700000Y-112400000D01*
X153550000Y-107950000D02*
X153550000Y-112450000D01*
X153400000Y-107900000D02*
X153400000Y-112450000D01*
X153300000Y-112525000D02*
X150725000Y-112525000D01*
X153300000Y-107875000D02*
X150700000Y-107875000D01*
X153250000Y-107900000D02*
X153250000Y-112500000D01*
X153100000Y-107900000D02*
X153100000Y-112500000D01*
X152950000Y-107900000D02*
X152950000Y-112500000D01*
X152800000Y-107900000D02*
X152800000Y-112500000D01*
X152650000Y-107900000D02*
X152650000Y-112500000D01*
X152500000Y-107900000D02*
X152500000Y-112500000D01*
X152350000Y-107900000D02*
X152350000Y-112500000D01*
X152200000Y-107900000D02*
X152200000Y-112500000D01*
X152050000Y-107900000D02*
X152050000Y-112500000D01*
X151900000Y-107900000D02*
X151900000Y-112500000D01*
X151750000Y-107900000D02*
X151750000Y-112500000D01*
X151600000Y-107900000D02*
X151600000Y-112500000D01*
X151450000Y-107900000D02*
X151450000Y-112500000D01*
X151300000Y-107900000D02*
X151300000Y-112500000D01*
X151150000Y-107900000D02*
X151150000Y-112500000D01*
X151000000Y-107900000D02*
X151000000Y-112500000D01*
X150850000Y-107900000D02*
X150850000Y-112450000D01*
X150700000Y-107900000D02*
X150700000Y-112500000D01*
X150550000Y-107900000D02*
X150550000Y-112500000D01*
X150400000Y-107950000D02*
X150400000Y-112500000D01*
X150250000Y-108050000D02*
X150250000Y-112600000D01*
X150100000Y-108150000D02*
X150100000Y-112650000D01*
X150000000Y-108300000D02*
X150000000Y-112700000D01*
X149900000Y-108550000D02*
X149900000Y-112750000D01*
X149800000Y-108700000D02*
X149800000Y-112850000D01*
X149700000Y-108900000D02*
X149700000Y-113050000D01*
X149600000Y-109050000D02*
X149600000Y-113200000D01*
X149500000Y-109250000D02*
X149500000Y-113700000D01*
X149350000Y-109400000D02*
X149350000Y-113850000D01*
X149200000Y-109550000D02*
X149200000Y-113950000D01*
X149050000Y-109650000D02*
X149050000Y-114050000D01*
X148900000Y-109750000D02*
X148900000Y-114200000D01*
X148750000Y-109850000D02*
X148750000Y-114300000D01*
X148600000Y-109900000D02*
X148600000Y-114450000D01*
X148450000Y-110000000D02*
X148450000Y-114550000D01*
X148300000Y-110050000D02*
X148300000Y-114650000D01*
X148275000Y-114725000D02*
X149550000Y-113700000D01*
X148275000Y-114725000D02*
X145725000Y-114725000D01*
X148150000Y-110050000D02*
X148150000Y-114700000D01*
X148000000Y-110050000D02*
X148000000Y-114700000D01*
X147850000Y-110100000D02*
X147850000Y-114650000D01*
X147700000Y-110100000D02*
X147700000Y-114700000D01*
X147700000Y-110075000D02*
X145725000Y-110075000D01*
X147550000Y-110100000D02*
X147550000Y-114700000D01*
X147400000Y-110100000D02*
X147400000Y-114700000D01*
X147250000Y-110100000D02*
X147250000Y-114700000D01*
X147100000Y-110100000D02*
X147100000Y-114700000D01*
X146950000Y-110100000D02*
X146950000Y-114700000D01*
X146800000Y-110100000D02*
X146800000Y-114700000D01*
X146650000Y-110100000D02*
X146650000Y-114700000D01*
X146500000Y-110100000D02*
X146500000Y-114700000D01*
X146350000Y-110100000D02*
X146350000Y-114700000D01*
X146200000Y-110100000D02*
X146200000Y-114700000D01*
X146050000Y-110100000D02*
X146050000Y-114700000D01*
X145900000Y-110100000D02*
X145900000Y-114700000D01*
X145750000Y-110100000D02*
X145750000Y-114700000D01*
X145600000Y-110250000D02*
X145600000Y-114600000D01*
X145450000Y-110350000D02*
X145450000Y-114450000D01*
X145300000Y-110500000D02*
X145300000Y-114300000D01*
X145150000Y-110650000D02*
X145150000Y-114150000D01*
X145000000Y-110850000D02*
X145000000Y-114000000D01*
X144850000Y-110950000D02*
X144850000Y-113850000D01*
X144700000Y-113700000D02*
X145725000Y-114725000D01*
X144700000Y-113700000D02*
X144700000Y-111100000D01*
X144700000Y-111100000D02*
X145725000Y-110075000D01*
X153300000Y-112525000D02*
G75*
G03*
X154300000Y-111525000I1J999999D01*
G01*
X154300000Y-108875000D02*
G75*
G03*
X153300000Y-107875000I-999999J1D01*
G01*
X150699005Y-107876210D02*
G75*
G03*
X149837802Y-108578096I38796J-926886D01*
G01*
X147700000Y-110075000D02*
G75*
G03*
X149837801Y-108578096I1J2274999D01*
G01*
X150725000Y-112525000D02*
G75*
G03*
X149550000Y-113700000I2J-1175002D01*
G01*
X172300000Y-114025000D02*
X172300000Y-111375000D01*
X172150000Y-110950000D02*
X172150000Y-114500000D01*
X172050000Y-110800000D02*
X172050000Y-114550000D01*
X171950000Y-110700000D02*
X171950000Y-114650000D01*
X171850000Y-110600000D02*
X171850000Y-114800000D01*
X171700000Y-110500000D02*
X171700000Y-114900000D01*
X171550000Y-110450000D02*
X171550000Y-114950000D01*
X171400000Y-110400000D02*
X171400000Y-114950000D01*
X171300000Y-115025000D02*
X168725000Y-115025000D01*
X171300000Y-110375000D02*
X168700000Y-110375000D01*
X171250000Y-110400000D02*
X171250000Y-115000000D01*
X171100000Y-110400000D02*
X171100000Y-115000000D01*
X170950000Y-110400000D02*
X170950000Y-115000000D01*
X170800000Y-110400000D02*
X170800000Y-115000000D01*
X170650000Y-110400000D02*
X170650000Y-115000000D01*
X170500000Y-110400000D02*
X170500000Y-115000000D01*
X170350000Y-110400000D02*
X170350000Y-115000000D01*
X170200000Y-110400000D02*
X170200000Y-115000000D01*
X170050000Y-110400000D02*
X170050000Y-115000000D01*
X169900000Y-110400000D02*
X169900000Y-115000000D01*
X169750000Y-110400000D02*
X169750000Y-115000000D01*
X169600000Y-110400000D02*
X169600000Y-115000000D01*
X169450000Y-110400000D02*
X169450000Y-115000000D01*
X169300000Y-110400000D02*
X169300000Y-115000000D01*
X169150000Y-110400000D02*
X169150000Y-115000000D01*
X169000000Y-110400000D02*
X169000000Y-115000000D01*
X168850000Y-110400000D02*
X168850000Y-114950000D01*
X168700000Y-110400000D02*
X168700000Y-115000000D01*
X168550000Y-110400000D02*
X168550000Y-115000000D01*
X168400000Y-110450000D02*
X168400000Y-115000000D01*
X168250000Y-110550000D02*
X168250000Y-115100000D01*
X168100000Y-110650000D02*
X168100000Y-115150000D01*
X168000000Y-110800000D02*
X168000000Y-115200000D01*
X167900000Y-111050000D02*
X167900000Y-115250000D01*
X167800000Y-111200000D02*
X167800000Y-115350000D01*
X167700000Y-111400000D02*
X167700000Y-115550000D01*
X167600000Y-111550000D02*
X167600000Y-115700000D01*
X167500000Y-111750000D02*
X167500000Y-116200000D01*
X167350000Y-111900000D02*
X167350000Y-116350000D01*
X167200000Y-112050000D02*
X167200000Y-116450000D01*
X167050000Y-112150000D02*
X167050000Y-116550000D01*
X166900000Y-112250000D02*
X166900000Y-116700000D01*
X166750000Y-112350000D02*
X166750000Y-116800000D01*
X166600000Y-112400000D02*
X166600000Y-116950000D01*
X166450000Y-112500000D02*
X166450000Y-117050000D01*
X166300000Y-112550000D02*
X166300000Y-117150000D01*
X166275000Y-117225000D02*
X167550000Y-116200000D01*
X166275000Y-117225000D02*
X163725000Y-117225000D01*
X166150000Y-112550000D02*
X166150000Y-117200000D01*
X166000000Y-112550000D02*
X166000000Y-117200000D01*
X165850000Y-112600000D02*
X165850000Y-117150000D01*
X165700000Y-112600000D02*
X165700000Y-117200000D01*
X165700000Y-112575000D02*
X163725000Y-112575000D01*
X165550000Y-112600000D02*
X165550000Y-117200000D01*
X165400000Y-112600000D02*
X165400000Y-117200000D01*
X165250000Y-112600000D02*
X165250000Y-117200000D01*
X165100000Y-112600000D02*
X165100000Y-117200000D01*
X164950000Y-112600000D02*
X164950000Y-117200000D01*
X164800000Y-112600000D02*
X164800000Y-117200000D01*
X164650000Y-112600000D02*
X164650000Y-117200000D01*
X164500000Y-112600000D02*
X164500000Y-117200000D01*
X164350000Y-112600000D02*
X164350000Y-117200000D01*
X164200000Y-112600000D02*
X164200000Y-117200000D01*
X164050000Y-112600000D02*
X164050000Y-117200000D01*
X163900000Y-112600000D02*
X163900000Y-117200000D01*
X163750000Y-112600000D02*
X163750000Y-117200000D01*
X163600000Y-112750000D02*
X163600000Y-117100000D01*
X163450000Y-112850000D02*
X163450000Y-116950000D01*
X163300000Y-113000000D02*
X163300000Y-116800000D01*
X163150000Y-113150000D02*
X163150000Y-116650000D01*
X163000000Y-113350000D02*
X163000000Y-116500000D01*
X162850000Y-113450000D02*
X162850000Y-116350000D01*
X162700000Y-116200000D02*
X163725000Y-117225000D01*
X162700000Y-116200000D02*
X162700000Y-113600000D01*
X162700000Y-113600000D02*
X163725000Y-112575000D01*
X171300000Y-115025000D02*
G75*
G03*
X172300000Y-114025000I1J999999D01*
G01*
X172300000Y-111375000D02*
G75*
G03*
X171300000Y-110375000I-999999J1D01*
G01*
X168699005Y-110376210D02*
G75*
G03*
X167837802Y-111078096I38796J-926886D01*
G01*
X165700000Y-112575000D02*
G75*
G03*
X167837801Y-111078096I1J2274999D01*
G01*
X168725000Y-115025000D02*
G75*
G03*
X167550000Y-116200000I2J-1175002D01*
G01*
X189889500Y-107147000D02*
X189889500Y-109433000D01*
X189889500Y-109433000D02*
X188111500Y-109433000D01*
X188111500Y-109433000D02*
X188111500Y-107147000D01*
X188111500Y-107147000D02*
X189889500Y-107147000D01*
X187389500Y-107147000D02*
X187389500Y-109433000D01*
X187389500Y-109433000D02*
X185611500Y-109433000D01*
X185611500Y-109433000D02*
X185611500Y-107147000D01*
X185611500Y-107147000D02*
X187389500Y-107147000D01*
X184889500Y-107147000D02*
X184889500Y-109433000D01*
X184889500Y-109433000D02*
X183111500Y-109433000D01*
X183111500Y-109433000D02*
X183111500Y-107147000D01*
X183111500Y-107147000D02*
X184889500Y-107147000D01*
X182389500Y-107147000D02*
X182389500Y-109433000D01*
X182389500Y-109433000D02*
X180611500Y-109433000D01*
X180611500Y-109433000D02*
X180611500Y-107147000D01*
X180611500Y-107147000D02*
X182389500Y-107147000D01*
X192261900Y-108022000D02*
X192261900Y-77542000D01*
X194801900Y-108022000D02*
X192261900Y-108022000D01*
X194801900Y-77542000D02*
X194801900Y-108022000D01*
X192261900Y-77542000D02*
X194801900Y-77542000D01*
X177041900Y-108022000D02*
X177041900Y-77542000D01*
X179581900Y-108022000D02*
X177041900Y-108022000D01*
X179581900Y-77542000D02*
X179581900Y-108022000D01*
X177041900Y-77542000D02*
X179581900Y-77542000D01*
X180776924Y-118265544D02*
X185973076Y-121265544D01*
X185973076Y-121265544D02*
X186098076Y-121049038D01*
X180776924Y-118265544D02*
X180901924Y-118049038D01*
X182526924Y-115234456D02*
X182401924Y-115450962D01*
X182526924Y-115234456D02*
X187723076Y-118234456D01*
X187723076Y-118234456D02*
X187598076Y-118450962D01*
X180166893Y-113688328D02*
X190326893Y-113688328D01*
X180166893Y-111148328D02*
X190326893Y-111148328D01*
X190326893Y-111148328D02*
X190326893Y-113688328D01*
X180166893Y-113688328D02*
X180166893Y-111148328D01*
X201251778Y-138690515D02*
X198956810Y-137365515D01*
X198513750Y-137282918D02*
X201588140Y-139057918D01*
X198333846Y-137294521D02*
X201581441Y-139169521D01*
X198197243Y-137331123D02*
X201618044Y-139306123D01*
X198060641Y-137367726D02*
X201697947Y-139467726D01*
X197899038Y-137447630D02*
X201709550Y-139647630D01*
X197780737Y-137552534D02*
X201677851Y-139802534D01*
X197662436Y-137657437D02*
X201602851Y-139932437D01*
X201617803Y-140056540D02*
X200330303Y-142286555D01*
X197590785Y-137731540D02*
X196290785Y-139983206D01*
X197587436Y-137787341D02*
X201571152Y-140087341D01*
X197512436Y-137917245D02*
X201496152Y-140217245D01*
X197437436Y-138047149D02*
X201421152Y-140347149D01*
X197362436Y-138177053D02*
X201346152Y-140477053D01*
X197287436Y-138306956D02*
X201271152Y-140606956D01*
X197212436Y-138436860D02*
X201196152Y-140736860D01*
X197137436Y-138566764D02*
X201121152Y-140866764D01*
X197062436Y-138696668D02*
X201046152Y-140996668D01*
X196987436Y-138826572D02*
X200971152Y-141126572D01*
X196912436Y-138956476D02*
X200896152Y-141256476D01*
X196837436Y-139086379D02*
X200821152Y-141386379D01*
X196762436Y-139216283D02*
X200746152Y-141516283D01*
X196687436Y-139346187D02*
X200671152Y-141646187D01*
X196612436Y-139476091D02*
X200596152Y-141776091D01*
X196537436Y-139605995D02*
X200521152Y-141905995D01*
X196462436Y-139735898D02*
X200446152Y-142035898D01*
X196387436Y-139865802D02*
X200327851Y-142140802D01*
X196312436Y-139995706D02*
X200296152Y-142295706D01*
X196237436Y-140125610D02*
X200221152Y-142425610D01*
X196205737Y-140280514D02*
X200146152Y-142555514D01*
X196217339Y-140460417D02*
X200157755Y-142735417D01*
X196228942Y-140640321D02*
X200126056Y-142890321D01*
X196308846Y-140801924D02*
X200119358Y-143001924D01*
X196475352Y-141013526D02*
X200112659Y-143113526D01*
X196555256Y-141175129D02*
X200149261Y-143250129D01*
X196678461Y-141361731D02*
X200272466Y-143436731D01*
X196758365Y-141523334D02*
X200352370Y-143598334D01*
X196881570Y-141709936D02*
X200735383Y-143934936D01*
X196936474Y-141914840D02*
X200790287Y-144139840D01*
X196991377Y-142119744D02*
X200801889Y-144319744D01*
X197002980Y-142299648D02*
X200813492Y-144499648D01*
X197014583Y-142479552D02*
X200868396Y-144704552D01*
X197026185Y-142659456D02*
X200879998Y-144884456D01*
X196994486Y-142814359D02*
X200934902Y-145089359D01*
X197006089Y-142994263D02*
X200946505Y-145269263D01*
X196974390Y-143149167D02*
X200958107Y-145449167D01*
X201010559Y-145508318D02*
X200760383Y-143891635D01*
X201010559Y-145508318D02*
X199735559Y-147716682D01*
X196899390Y-143279071D02*
X200926408Y-145604071D01*
X196824390Y-143408975D02*
X200851408Y-145733975D01*
X196792691Y-143563878D02*
X200733107Y-145838878D01*
X196717691Y-143693782D02*
X200701408Y-145993782D01*
X196696041Y-143681282D02*
X195708541Y-145391682D01*
X196642691Y-143823686D02*
X200626408Y-146123686D01*
X196567691Y-143953590D02*
X200551408Y-146253590D01*
X196492691Y-144083494D02*
X200476408Y-146383494D01*
X196417691Y-144213397D02*
X200401408Y-146513397D01*
X196342691Y-144343301D02*
X200326408Y-146643301D01*
X196267691Y-144473205D02*
X200251408Y-146773205D01*
X196192691Y-144603109D02*
X200176408Y-146903109D01*
X196117691Y-144733013D02*
X200101408Y-147033013D01*
X196042691Y-144862917D02*
X200026408Y-147162917D01*
X195967691Y-144992820D02*
X199951408Y-147292820D01*
X195892691Y-145122724D02*
X199876408Y-147422724D01*
X195817691Y-145252628D02*
X199801408Y-147552628D01*
X195742691Y-145382532D02*
X199726408Y-147682532D01*
X195797595Y-145587436D02*
X199564806Y-147762436D01*
X195809198Y-145767339D02*
X199359902Y-147817339D01*
X195864102Y-145972243D02*
X199154998Y-147872243D01*
X195919005Y-146177147D02*
X198950094Y-147927147D01*
X196017211Y-146407051D02*
X198745191Y-147982051D01*
X196028813Y-146586955D02*
X198540287Y-148036955D01*
X198335383Y-148091858D02*
X199735559Y-147716682D01*
X198335383Y-148091858D02*
X196083717Y-146791858D01*
X196083717Y-146791858D02*
X195708541Y-145391682D01*
X201617803Y-140056540D02*
G75*
G03*
X201251778Y-138690515I-866024J500000D01*
G01*
X198956810Y-137365515D02*
G75*
G03*
X197590785Y-137731540I-500000J-866024D01*
G01*
X196291334Y-139984672D02*
G75*
G03*
X196468584Y-141081440I822106J-429845D01*
G01*
X196696041Y-143681282D02*
G75*
G03*
X196468584Y-141081440I-1970207J1137500D01*
G01*
X200330304Y-142286556D02*
G75*
G03*
X200760383Y-143891634I1017582J-587499D01*
G01*
D13*
X178311900Y-78812000D03*
X178311900Y-81352000D03*
X178311900Y-83892000D03*
X178311900Y-86432000D03*
X178311900Y-88972000D03*
X178311900Y-91512000D03*
X178311900Y-94052000D03*
X178311900Y-96592000D03*
X178311900Y-99132000D03*
X178311900Y-101672000D03*
X178311900Y-104212000D03*
X178311900Y-106752000D03*
X193531900Y-106752000D03*
X193531900Y-104212000D03*
X193531900Y-101672000D03*
X193531900Y-99132000D03*
X193531900Y-96592000D03*
X193531900Y-94052000D03*
X193531900Y-91512000D03*
X193531900Y-88972000D03*
X193531900Y-86432000D03*
X193531900Y-83892000D03*
X193531900Y-81352000D03*
X193531900Y-78812000D03*
X176985500Y-80082000D03*
X176985500Y-82622000D03*
X176985500Y-85162000D03*
X176985500Y-87702000D03*
X176985500Y-90242000D03*
X176985500Y-92782000D03*
X176985500Y-95322000D03*
X176985500Y-97862000D03*
X176985500Y-100402000D03*
X176985500Y-102942000D03*
X176985500Y-105482000D03*
X176985500Y-108022000D03*
X192225500Y-108022000D03*
X192225500Y-105482000D03*
X192225500Y-102942000D03*
X192225500Y-100402000D03*
X192225500Y-97862000D03*
X192225500Y-95322000D03*
X192225500Y-92782000D03*
X192225500Y-90242000D03*
X192225500Y-87702000D03*
X192225500Y-85162000D03*
X192225500Y-82622000D03*
X192225500Y-80082000D03*
D14*
X187064583Y-119875000D03*
X181435417Y-116625000D03*
D15*
X181436893Y-112418328D03*
X183976893Y-112418328D03*
X186516893Y-112418328D03*
X189056893Y-112418328D03*
M02*
